<svg width="158" height="172" viewBox="0 0 158 172" fill="none" xmlns="http://www.w3.org/2000/svg">
<path d="M93.3346 171.397C91.7946 171.397 90.2962 170.898 89.0642 169.974L60.595 148.622C59.711 147.959 58.9936 147.099 58.4995 146.111C58.0053 145.123 57.7481 144.033 57.7481 142.928V102.929L7.81306 46.752C4.26665 42.7512 1.9511 37.8113 1.14472 32.5261C0.33833 27.241 1.07542 21.8354 3.2674 16.959C5.45938 12.0827 9.01298 7.94316 13.5011 5.03793C17.9892 2.1327 23.2208 0.585408 28.5671 0.582031L129.633 0.582031C134.979 0.588302 140.209 2.13815 144.695 5.04534C149.182 7.95253 152.733 12.0934 154.923 16.9702C157.112 21.8471 157.847 27.2525 157.039 32.5369C156.23 37.8213 153.913 42.7599 150.366 46.7591L100.452 102.929V164.28C100.452 166.168 99.702 167.978 98.3673 169.313C97.0325 170.647 95.2222 171.397 93.3346 171.397ZM71.9827 139.369L86.2173 150.045V100.224C86.2187 98.4816 86.8594 96.8001 88.018 95.4984L139.747 37.3002C141.471 35.3506 142.597 32.9447 142.988 30.3712C143.379 27.7976 143.019 25.1659 141.951 22.792C140.883 20.418 139.153 18.4027 136.968 16.988C134.783 15.5733 132.236 14.8194 129.633 14.8166H28.5671C25.9654 14.8206 23.42 15.575 21.2363 16.9893C19.0526 18.4037 17.3233 20.4179 16.2557 22.7905C15.1881 25.1631 14.8276 27.7933 15.2174 30.3657C15.6072 32.938 16.7308 35.3433 18.4534 37.2931L70.1891 95.4984C71.3451 96.8012 71.9832 98.4826 71.9827 100.224V139.369Z" fill="#01E6B6"/>
</svg>
