<svg width="73" height="112" viewBox="0 0 73 112" fill="none" xmlns="http://www.w3.org/2000/svg">
<path d="M36.3861 82.6558V110.927H41.336V111.382C41.336 111.382 41.2224 111.43 41.19 111.43C37.8305 111.43 34.471 111.43 31.1278 111.43C30.787 111.43 30.6734 111.317 30.787 110.943C30.933 110.943 31.1116 110.927 31.2901 110.927C32.6533 110.927 34.0166 110.927 35.3799 110.927C35.7369 110.927 35.8505 110.797 35.8343 110.473C35.8343 110.359 35.8343 110.246 35.8343 110.132C35.8343 101.206 35.8343 92.2635 35.8343 83.3374C35.8343 83.1264 35.8343 82.9155 35.8343 82.6883C33.6758 82.2014 32.6533 80.5298 31.7607 78.777C30.8032 76.8944 30.1216 74.882 29.6834 72.8208C29.2452 70.7273 28.7583 68.6175 28.4824 66.5076C28.0604 63.3267 27.7846 60.1295 27.8495 56.9161C27.8495 56.413 27.7034 56.2994 27.2165 56.2994C18.5176 56.2994 9.80249 56.2994 1.10359 56.2994C0.470649 56.2994 0.470649 56.2994 0.470649 56.9324C0.470649 57.8737 0.470649 58.815 0.470649 59.7563C0.470649 59.8861 0.324585 60.0159 0.243439 60.1295C0.162292 59.9997 0 59.8861 0 59.7563C0 57.2245 0 54.6927 0 52.161C0 51.8364 0.113604 51.7065 0.503107 51.8364C0.503107 52.4855 0.503107 53.1672 0.503107 53.8326C0.503107 54.3357 0.503107 54.8388 0.503107 55.3419C0.503107 55.634 0.600483 55.7639 0.89261 55.7476C1.02244 55.7476 1.15228 55.7476 1.28211 55.7476C9.89987 55.7476 18.5339 55.7476 27.1516 55.7476C27.8495 55.7476 27.8332 55.7476 27.8657 55.0335C27.9793 52.518 28.028 49.9862 28.2227 47.4707C28.3688 45.7017 28.6285 43.9327 28.9693 42.1962C29.3588 40.1675 29.8132 38.1551 30.365 36.1751C30.933 34.1464 31.7283 32.1827 33.0266 30.4786C33.692 29.6022 34.4872 28.8881 35.6071 28.6285C35.7207 28.596 35.8181 28.4013 35.883 28.2714C35.9317 28.1578 35.883 28.0118 35.883 27.8819C35.883 19.037 35.883 10.1758 35.883 1.3308C35.883 1.20097 35.883 1.07113 35.883 0.941299C35.9154 0.584255 35.7694 0.47065 35.3961 0.47065C33.8868 0.486879 32.3774 0.47065 30.8357 0.47065C30.8357 0.308357 30.8032 0.178522 30.787 0H41.3847C41.3847 0.129834 41.4009 0.275898 41.4172 0.45442H36.451V28.5636C38.6419 29.0829 39.6319 30.8519 40.5408 32.6696C41.4334 34.4548 42.0663 36.3536 42.4883 38.3174C42.9265 40.3785 43.4296 42.4396 43.673 44.5332C44.0138 47.4058 44.1437 50.3108 44.3384 53.1996C44.3871 54.0111 44.3384 54.8388 44.3384 55.7152C44.6306 55.7152 44.8415 55.7476 45.0525 55.7476C53.6378 55.7476 62.2393 55.7476 70.8246 55.7476C71.2682 55.7476 71.49 55.5258 71.49 55.0822C71.49 53.9949 71.49 52.9237 71.49 51.8039H71.9932C71.9932 51.95 72.0256 52.0636 72.0256 52.1934C72.0256 54.6765 72.0256 57.1596 72.0256 59.6264C72.0256 59.7887 71.8958 60.0808 71.7822 60.0971C71.4414 60.1458 71.49 59.8374 71.49 59.6264C71.49 58.6851 71.4738 57.7438 71.49 56.8025C71.49 56.413 71.3927 56.267 70.9707 56.2832C69.575 56.2994 68.1793 56.2832 66.7835 56.2832C59.5291 56.2832 52.2908 56.2832 45.0363 56.2832C44.3709 56.2832 44.3871 56.2832 44.3547 56.9324C44.2897 58.5715 44.2897 60.2107 44.1437 61.8336C43.9652 63.911 43.7055 65.9883 43.4134 68.0494C43.2024 69.4938 42.9427 70.9545 42.6019 72.3827C41.9527 75.0929 41.1413 77.7708 39.6157 80.1403C38.8367 81.3575 37.8954 82.3474 36.4023 82.6558H36.3861ZM31.3225 55.7476C32.6371 55.7476 33.9841 55.7476 35.3312 55.7476C35.7207 55.7476 35.8343 55.6016 35.8343 55.2445C35.8343 47.9576 35.8343 40.6544 35.8343 33.3674C35.8343 33.2051 35.7856 33.0428 35.7369 32.7507C35.4123 33.0591 35.1527 33.2376 34.9579 33.4973C33.9517 34.7956 33.5135 36.3212 33.124 37.8792C32.7832 39.21 32.491 40.557 32.3125 41.904C32.0042 44.0788 31.777 46.2697 31.566 48.4444C31.4524 49.5643 31.4037 50.7003 31.3712 51.8364C31.3388 53.1185 31.3712 54.3844 31.3712 55.7476H31.3225ZM35.7531 78.7283C35.7856 78.5173 35.8181 78.3875 35.8181 78.2414C35.8181 71.0843 35.8181 63.911 35.8181 56.7538C35.8181 56.3643 35.672 56.267 35.2987 56.267C34.0977 56.2832 32.8968 56.267 31.6958 56.267C31.5497 56.267 31.4199 56.2832 31.2252 56.2994C31.2252 56.4942 31.2252 56.6565 31.2252 56.8025C31.2576 58.0197 31.2739 59.2207 31.355 60.4379C31.4848 62.3854 31.5984 64.3492 31.7932 66.2967C31.9555 67.806 32.2151 69.2991 32.4424 70.8084C32.7507 72.7884 33.2214 74.7197 34.0328 76.5698C34.3899 77.3813 34.7794 78.2252 35.7207 78.7283H35.7531ZM36.4023 32.913V55.7476C37.7169 55.7476 38.999 55.7314 40.2649 55.7476C40.7031 55.7476 40.8167 55.6016 40.8004 55.1796C40.7193 53.5242 40.7193 51.8851 40.6057 50.2297C40.4434 47.8926 40.2162 45.5556 39.9565 43.2348C39.8105 41.969 39.5508 40.7193 39.3074 39.4696C38.9665 37.7331 38.5121 36.0128 37.7007 34.4223C37.4085 33.8381 37.0839 33.2538 36.3861 32.913H36.4023ZM36.4023 78.7121C36.6457 78.5011 36.8405 78.3713 37.0028 78.209C37.9279 77.1541 38.3823 75.8395 38.7231 74.5249C39.1613 72.7884 39.567 71.0356 39.8267 69.2666C40.1675 66.9296 40.3947 64.5764 40.5895 62.2231C40.7355 60.4541 40.7355 58.6689 40.8329 56.8837C40.8491 56.4455 40.7842 56.2183 40.2649 56.267C39.6644 56.3156 39.0639 56.267 38.4634 56.267C37.7818 56.267 37.1164 56.267 36.4185 56.267V78.6959L36.4023 78.7121ZM43.8191 55.7152C43.8191 54.6765 43.8678 53.6865 43.8191 52.6965C43.6568 50.3108 43.4945 47.9251 43.2348 45.5394C43.0401 43.7379 42.748 41.9527 42.3747 40.1837C42.0339 38.577 41.5632 37.0028 41.0763 35.4285C40.557 33.7732 39.8591 32.1989 38.788 30.8194C38.1875 30.0404 37.5221 29.3101 36.4023 29.1316C36.4023 30.1703 36.4023 31.1602 36.4023 32.1665C36.4023 32.2314 36.5321 32.3288 36.6133 32.3774C37.2462 32.702 37.652 33.2214 37.9928 33.8219C39.3236 36.2238 39.8267 38.8692 40.2649 41.5308C40.5732 43.3484 40.7518 45.1824 40.9141 47.0163C41.0926 49.2397 41.19 51.4631 41.3036 53.7027C41.336 54.3681 41.3036 55.0335 41.3036 55.7152H43.8191V55.7152ZM30.7707 55.7152C30.7707 55.423 30.7707 55.1634 30.7707 54.9037C30.8194 53.4268 30.8843 51.9662 30.9168 50.4893C30.998 47.7304 31.2901 45.0038 31.6958 42.2773C32.0366 39.989 32.491 37.7331 33.2863 35.5584C33.6758 34.4873 34.0491 33.2701 35.0715 32.702C35.883 32.2476 35.8667 31.712 35.8505 31.0304C35.8505 30.5598 35.8505 30.0891 35.8505 29.6185C35.8505 29.4724 35.8181 29.3101 35.7856 29.0667C35.3961 29.2452 35.0066 29.3101 34.7794 29.5373C34.1627 30.1053 33.4973 30.6896 33.0428 31.3875C31.4524 33.7894 30.6734 36.5159 30.0404 39.2911C29.6996 40.7518 29.4399 42.2286 29.2127 43.7217C28.9693 45.296 28.807 46.9027 28.6609 48.4931C28.5311 49.97 28.45 51.4631 28.385 52.94C28.3526 53.865 28.385 54.7739 28.385 55.7314H30.8194L30.7707 55.7152ZM36.3861 82.104C37.5384 81.893 38.22 81.1465 38.8367 80.3188C40.3947 78.2252 41.2062 75.7746 41.8229 73.2915C42.2935 71.4576 42.6668 69.575 42.9265 67.6924C43.2673 65.2418 43.4621 62.7749 43.7055 60.3081C43.7704 59.6913 43.8029 59.0909 43.8191 58.4741C43.8353 57.7601 43.8191 57.0297 43.8191 56.3157H41.3685C41.3198 57.403 41.3036 58.4741 41.2386 59.5291C41.1088 61.6226 41.0601 63.7324 40.8167 65.826C40.5732 68.0007 40.2324 70.1917 39.7942 72.334C39.4696 73.892 38.9503 75.4013 38.4147 76.8944C38.0739 77.8357 37.5546 78.7445 36.5484 79.199C36.4835 79.2314 36.4023 79.3288 36.3861 79.4099C36.3861 80.3025 36.3861 81.1789 36.3861 82.0878V82.104ZM28.3363 56.3319C28.3363 56.4942 28.3363 56.624 28.3363 56.7376C28.4337 58.6689 28.4662 60.6164 28.6285 62.5477C28.7745 64.4628 28.9531 66.3778 29.2776 68.2766C29.6347 70.3378 30.1378 72.3827 30.6571 74.4113C31.1765 76.3588 31.9068 78.2414 33.0428 79.9293C33.7082 80.9193 34.471 81.8281 35.7044 82.1202C35.7531 82.0715 35.7856 82.0391 35.7856 82.0066C35.7856 81.1627 35.8181 80.335 35.8181 79.4911C35.8181 79.4099 35.7369 79.2963 35.672 79.2639C34.5035 78.8095 34.0328 77.7708 33.5784 76.7321C32.4099 74.0056 31.8581 71.1168 31.5497 68.1955C31.2252 65.0795 31.0142 61.9472 30.787 58.815C30.7221 58.0035 30.787 57.1758 30.787 56.3319H28.3363V56.3319Z" fill="#01E6B6"/>
<path d="M22.8976 36.7475C23.5144 36.7313 23.4332 36.991 23.3683 37.3156C23.0275 39.117 22.7029 40.9347 22.3621 42.7524C22.3458 42.8498 22.3621 42.9471 22.3621 43.0445C22.5406 43.0932 22.7191 43.1419 22.9788 43.223C22.6055 43.7099 22.2647 44.1481 21.8427 44.7161C21.5831 44.0832 21.3559 43.5639 21.0962 42.9471C21.7291 43.1094 21.8103 42.8498 21.8752 42.3791C22.1673 40.4965 22.5244 38.6301 22.8652 36.7475H22.8976Z" fill="#01E6B6"/>
<path d="M50.3784 66.8796C50.6543 67.5288 50.849 68.0319 51.0925 68.5837C50.849 68.6162 50.6543 68.6324 50.4433 68.6486C50.3134 69.4439 50.2161 70.2391 50.07 71.0181C49.859 72.1704 49.6156 73.3227 49.3884 74.4749C49.3559 74.6535 49.3072 74.9618 48.9989 74.8158C48.9015 74.7671 48.8366 74.4912 48.869 74.3451C49.1936 72.5599 49.5344 70.7584 49.8753 68.9732C49.9077 68.8272 49.8753 68.6811 49.8753 68.5026C49.6967 68.4701 49.5344 68.4539 49.2423 68.4052C49.6156 67.9021 49.9564 67.4477 50.3784 66.8796Z" fill="#01E6B6"/>
</svg>
