<svg width="76" height="61" viewBox="0 0 76 61" fill="none" xmlns="http://www.w3.org/2000/svg">
<g clip-path="url(#clip0_2322_5659)">
<path d="M75.3994 15.6607L57.8718 21.7602L48.8174 24.9148C47.5867 25.3438 46.3463 25.7095 45.0961 26.0167C40.5054 25.0367 36.5056 22.1112 33.8782 19.6636C32.5596 18.4398 31.5878 17.3379 31.0554 16.6602C28.8187 20.8338 21.7716 23.4569 17.049 23.2912C16.2725 22.9352 15.5058 22.5452 14.7488 22.1356L1.04517 14.6855L47.0691 0.263184L75.3994 15.6607Z" stroke="#01E6B6" stroke-miterlimit="10"/>
<path d="M74.9792 31.0582L58.9656 36.6312L30.7427 46.4557L17.2784 39.1373L0.620117 30.0831L19.2514 24.2469C27.456 27.5233 36.5006 28.1523 45.0959 26.0167C46.3461 25.7096 47.5866 25.3439 48.8173 24.9148L57.8716 21.7603L74.9792 31.0582V31.0582Z" stroke="#01E6B6" stroke-miterlimit="10"/>
<path d="M74.9792 45.3342L30.7427 60.7317L0.620117 44.3591L17.2784 39.1372L30.7427 46.4557L58.9656 36.6311L74.9792 45.3342Z" stroke="#01E6B6" stroke-miterlimit="10"/>
<path d="M45.0961 26.0169C36.5008 28.1524 27.4562 27.5235 19.2516 24.247C18.5093 23.9545 17.7767 23.6327 17.0491 23.2914C21.7716 23.4571 28.8188 20.834 31.0555 16.6604C31.5878 17.3381 32.5597 18.44 33.8783 19.6638C36.5057 22.1114 40.5054 25.0369 45.0961 26.0169Z" stroke="#01E6B6" stroke-miterlimit="10"/>
</g>
<defs>
<clipPath id="clip0_2322_5659">
<rect width="76" height="61" fill="white"/>
</clipPath>
</defs>
</svg>
