<svg width="66" height="58" viewBox="0 0 66 58" fill="none" xmlns="http://www.w3.org/2000/svg">
<path d="M11.2457 23.5819C11.2549 26.4052 8.7477 28.7312 5.66903 28.7396C2.49819 28.7396 0.0278817 26.4557 0.000229052 23.6662C-0.0274236 20.7587 2.4521 18.4579 5.61373 18.4495C8.72005 18.4411 11.2272 20.7165 11.2457 23.5819ZM5.76121 25.8658C6.26817 25.8658 6.74749 25.8658 7.23602 25.8658C7.4388 25.8658 7.6969 25.9079 7.82594 25.8152C7.95499 25.7141 7.98264 25.4697 8.01029 25.2843C8.07482 24.7786 8.12091 24.273 8.17621 23.7505H5.77043V25.8658H5.76121ZM3.08811 23.7505C3.06046 24.4247 3.17107 25.0652 3.31855 25.7057C3.32777 25.7647 3.45682 25.8321 3.53056 25.8405C3.90848 25.8658 4.2864 25.8658 4.66432 25.8742C4.92241 25.8826 5.18972 25.8995 5.46625 25.9079V23.7505H3.09733H3.08811ZM5.76121 23.4723H8.18543C8.10247 22.8234 8.02873 22.1998 7.93655 21.5761C7.92734 21.5087 7.81673 21.4076 7.7522 21.4076C7.09776 21.3992 6.43409 21.4076 5.76121 21.4076V23.4723V23.4723ZM5.44781 21.3991C4.8118 21.3991 4.20344 21.4076 3.58586 21.3991C3.34621 21.3991 3.28168 21.4834 3.26325 21.6688C3.21716 21.9975 3.14342 22.3178 3.11577 22.638C3.08811 22.9077 3.11577 23.1858 3.11577 23.4639H5.45703V21.3991H5.44781ZM8.18543 25.8236C8.58178 25.7899 8.91362 25.7647 9.24545 25.7394C9.52198 25.7225 9.70633 25.6298 9.73398 25.3433C9.7432 25.1916 9.83537 25.0399 9.86303 24.8798C9.92755 24.5089 9.97364 24.1297 10.0289 23.7252C9.50354 23.7252 9.05188 23.7252 8.60022 23.7252C8.41587 23.7252 8.39743 23.8094 8.38822 23.9443C8.36978 24.3404 8.34213 24.7365 8.30526 25.1242C8.28682 25.3433 8.23152 25.5624 8.18543 25.8152V25.8236ZM1.23538 23.742C1.23538 23.8179 1.23538 23.8853 1.23538 23.9527C1.29069 24.3235 1.34599 24.6943 1.41973 25.0652C1.51191 25.5877 1.558 25.6298 2.11105 25.7141C2.40601 25.7562 2.70098 25.7647 2.99594 25.7815C2.91298 25.0736 2.83924 24.4162 2.7655 23.742H1.23538V23.742ZM10.0566 23.4808C9.9552 22.9245 9.87224 22.4189 9.76163 21.9132C9.73398 21.7952 9.65102 21.6014 9.56806 21.5846C9.13484 21.5087 8.69239 21.475 8.24995 21.4329C8.30526 22.1071 8.35134 22.7391 8.40665 23.3712C8.40665 23.4134 8.51726 23.4808 8.58178 23.4808C9.04266 23.4892 9.49432 23.4808 10.0566 23.4808V23.4808ZM3.00516 21.4244C2.72863 21.4413 2.47054 21.4497 2.21244 21.4834C1.558 21.5593 1.56722 21.5593 1.41052 22.1576C1.4013 22.1998 1.37365 22.2335 1.36443 22.2756C1.30912 22.6717 1.26304 23.0678 1.20773 23.4639H2.77472C2.84846 22.7813 2.9222 22.1239 3.00516 21.4329V21.4244ZM5.76121 19.6041V21.0958H7.8536C7.66003 20.6491 7.46646 20.2024 7.26367 19.7642C7.23602 19.7136 7.13463 19.6715 7.06088 19.6715C6.63688 19.6462 6.20365 19.6294 5.75199 19.6125L5.76121 19.6041ZM5.76121 27.6103C6.04695 27.6103 6.30504 27.6187 6.56314 27.6103C7.27289 27.585 7.15306 27.7199 7.46646 27.0457C7.60472 26.7507 7.70611 26.4389 7.81673 26.1439H5.76121V27.6187V27.6103ZM5.46625 19.6546C5.0238 19.6546 4.59979 19.6546 4.17579 19.6546C4.10205 19.6546 4.00065 19.6883 3.96378 19.7389C3.71491 20.1771 3.51212 20.6238 3.42916 21.0873H5.45703V19.6462L5.46625 19.6546ZM5.46625 26.127H3.38308C3.58586 26.5906 3.77943 27.0457 3.99144 27.4923C4.00987 27.5429 4.11126 27.5934 4.16657 27.5934C4.59058 27.6019 5.0238 27.5934 5.46625 27.5934V26.127V26.127ZM9.59572 21.3149C9.38371 20.9441 9.18093 20.6491 9.03344 20.3289C8.76614 19.7136 8.18543 19.7473 7.61394 19.6883C7.61394 19.7473 7.60472 19.7811 7.61394 19.8148C7.77064 20.2193 7.91812 20.6322 8.08404 21.0368C8.11169 21.0958 8.18543 21.1632 8.24995 21.1716C8.66474 21.2306 9.08875 21.2643 9.5865 21.3233L9.59572 21.3149ZM3.64117 19.7305C3.11577 19.6294 2.57193 19.8148 2.31384 20.194C2.0834 20.5311 1.88983 20.8935 1.65017 21.298C2.1387 21.2475 2.51662 21.2053 2.89454 21.18C3.06968 21.1632 3.15264 21.0958 3.18029 20.9356C3.20794 20.7924 3.25403 20.6575 3.30934 20.5227C3.41073 20.2614 3.52134 20.0002 3.63195 19.7305H3.64117ZM9.49432 25.9669C9.12562 26.0006 8.81222 26.0428 8.48961 26.0512C8.2223 26.0512 8.07482 26.127 8.01029 26.3967C7.9089 26.776 7.73377 27.1384 7.56785 27.5597C7.91812 27.5092 8.32369 27.5597 8.52648 27.3912C8.97814 27.0288 9.23623 26.5231 9.49432 25.9585V25.9669ZM1.80687 25.9332C1.80687 25.9332 1.76078 25.9754 1.74235 25.9922C1.97279 26.3462 2.23088 26.6917 2.43367 27.0541C2.71019 27.5345 3.17107 27.5092 3.65039 27.526C3.48447 27.0625 3.32777 26.6243 3.16185 26.186C3.14342 26.127 3.04203 26.068 2.9775 26.0596C2.59037 26.0091 2.20323 25.9753 1.80687 25.9332V25.9332ZM10.0105 25.5792C10.4345 25.5877 10.5543 25.5287 10.6834 25.2C10.7571 25.0062 10.8309 24.8039 10.8677 24.5932C10.923 24.3151 10.9507 24.0286 10.9876 23.7505H10.3331C10.2225 24.3741 10.1211 24.9725 10.0105 25.5792ZM0.304409 23.7505C0.304409 23.7505 0.249103 23.7673 0.230668 23.7757C0.332061 24.1971 0.424237 24.6185 0.544065 25.0399C0.663894 25.4528 0.783722 25.5287 1.2446 25.5455C1.16164 25.1157 1.05103 24.6859 1.00494 24.2477C0.940421 23.683 0.968074 23.683 0.341279 23.7336C0.341279 23.7336 0.322844 23.742 0.322844 23.7505H0.304409ZM11.0244 23.4639C10.9323 23.0173 10.8585 22.5875 10.7387 22.1745C10.6281 21.77 10.4806 21.6857 10.0382 21.6941C10.1303 22.2756 10.2317 22.8571 10.3331 23.4639H11.0244ZM0.912768 23.4639C1.01416 22.8319 1.10634 22.2419 1.20773 21.652C0.774505 21.6351 0.663894 21.7026 0.544065 22.0649C0.52563 22.1239 0.497978 22.1745 0.479542 22.2335C0.396584 22.638 0.313626 23.0425 0.230668 23.4639H0.912768V23.4639ZM5.76121 18.7276V19.3428H7.00558C6.71983 18.7613 6.49861 18.6518 5.76121 18.7276ZM4.24031 19.3512H5.45703V18.736C4.74728 18.6518 4.38779 18.8287 4.24031 19.3512ZM5.76121 28.4615C6.5447 28.4531 6.77514 28.3351 6.95027 27.88H5.76121V28.4615ZM5.45703 28.4615V27.8716H4.25874C4.45231 28.4194 4.92241 28.4615 5.45703 28.4615ZM0.857463 25.7731C1.20773 26.4052 1.65017 26.9361 2.2954 27.3828C2.03731 26.9698 1.77922 26.6243 1.60409 26.245C1.46582 25.9416 1.28147 25.7647 0.857463 25.7647V25.7731ZM10.4437 21.4581C10.1119 20.8514 9.70633 20.3457 9.12562 19.899C9.35606 20.3288 9.5865 20.6912 9.75241 21.0873C9.88146 21.3907 10.1211 21.4329 10.4529 21.4581H10.4437ZM9.07953 27.2563C9.62337 26.8855 10.0289 26.4136 10.3055 25.8236C10.1119 25.8574 9.87224 25.8826 9.7985 26.0091C9.53119 26.4051 9.31919 26.835 9.07953 27.2563ZM2.01888 20.0423C1.52113 20.3963 1.14321 20.8345 0.903551 21.3991C1.0879 21.3739 1.32756 21.357 1.39208 21.2475C1.63174 20.8598 1.81609 20.4468 2.01888 20.0423ZM7.07932 18.9214C7.15306 19.0226 7.20837 19.1406 7.29132 19.2333C7.35585 19.3091 7.44802 19.4018 7.54942 19.4187C7.78907 19.4608 8.03795 19.4692 8.31447 19.5029C8.01029 19.09 7.5402 19.031 7.07932 18.9214ZM2.90376 19.5029C3.88082 19.4018 3.98222 19.3512 4.11126 18.8877C3.67804 19.0226 3.23559 19.1153 2.90376 19.5029V19.5029ZM8.15778 27.7873C7.44802 27.7199 7.39272 27.7451 7.07932 28.2761C7.48489 28.1834 7.84438 28.0907 8.15778 27.7873ZM3.18951 27.7873C3.18951 27.7873 3.16185 27.8378 3.14342 27.8716C3.45682 28.0148 3.77021 28.1581 4.08361 28.3014C3.88082 27.762 3.77943 27.7114 3.18951 27.7873V27.7873Z" fill="#01E6B6"/>
<path d="M59.5272 28.7705C56.4393 28.8042 53.9967 26.4866 53.9045 23.8066C53.8031 20.8485 56.4024 18.4888 59.4995 18.4888C62.652 18.4888 65.1407 20.7642 65.1499 23.638C65.1683 26.4529 62.6243 28.8126 59.518 28.7705H59.5272ZM59.3705 25.8714V23.7897C58.6147 23.7897 57.8773 23.7897 57.1398 23.7897C57.0938 23.7897 57.0016 23.8993 57.0016 23.9583C57.0569 24.5398 57.1306 25.1297 57.2044 25.7112C57.2044 25.7702 57.315 25.8629 57.3795 25.8629C58.0432 25.8714 58.6976 25.8629 59.3613 25.8629L59.3705 25.8714ZM59.3982 21.4469C58.7068 21.4469 58.0432 21.4469 57.3887 21.4469C57.3242 21.4469 57.2228 21.5564 57.2136 21.6238C57.1306 22.1969 57.0661 22.77 57.0108 23.3431C57.0108 23.4021 57.1214 23.5201 57.1859 23.5201C57.8588 23.5369 58.5317 23.5369 59.1954 23.5201C59.2691 23.5201 59.3889 23.4105 59.3889 23.3515C59.4074 22.711 59.3889 22.0789 59.3889 21.4384L59.3982 21.4469ZM59.6747 25.8966C60.3568 25.8966 61.002 25.8966 61.6565 25.8966C61.7118 25.8966 61.8039 25.8039 61.8224 25.7365C61.8777 25.5511 61.9238 25.3657 61.9514 25.1719C62.0067 24.7252 62.0344 24.2785 62.0805 23.7982C61.2785 23.7982 60.5503 23.7982 59.8129 23.7982C59.7669 23.7982 59.6839 23.874 59.6839 23.9162C59.6839 24.5735 59.6839 25.2393 59.6839 25.8966H59.6747ZM59.6747 21.4384C59.6747 22.0789 59.6747 22.7279 59.6839 23.3768C59.6839 23.4274 59.8222 23.5285 59.8959 23.5285C60.5411 23.5369 61.1864 23.5285 61.8316 23.5369C62.0159 23.5369 62.0805 23.4611 62.062 23.3094C61.9975 22.7616 61.9422 22.2054 61.8685 21.6576C61.8592 21.5817 61.7302 21.4553 61.6565 21.4553C61.0112 21.4384 60.3752 21.4469 59.6931 21.4469L59.6747 21.4384ZM63.924 23.7813C63.5368 23.7813 63.1681 23.7813 62.8087 23.7813C62.4953 23.7813 62.3355 23.9218 62.3293 24.2027C62.3293 24.2701 62.3293 24.3375 62.3109 24.405C62.2556 24.8769 62.1911 25.3489 62.1266 25.8714C62.5782 25.8292 63.0207 25.7871 63.4447 25.7365C63.4908 25.7365 63.5553 25.6691 63.5737 25.6185C63.7857 25.037 63.8963 24.4387 63.9332 23.7813H63.924ZM56.9278 21.4553C56.4854 21.4974 56.043 21.5311 55.6189 21.5901C55.5452 21.5986 55.453 21.7081 55.4438 21.784C55.3332 22.2981 55.241 22.8206 55.1489 23.3346C55.1212 23.4779 55.2134 23.5285 55.3609 23.5285C55.748 23.5285 56.1351 23.5285 56.5223 23.5285C56.679 23.5285 56.7343 23.4779 56.7343 23.3346C56.7343 23.1661 56.7527 22.9975 56.7711 22.8374C56.8265 22.3908 56.8818 21.9441 56.9463 21.4637L56.9278 21.4553ZM56.9555 25.8629C56.9186 25.6354 56.8725 25.45 56.8541 25.273C56.808 24.8432 56.7527 24.405 56.7251 23.9752C56.7158 23.8487 56.679 23.7897 56.5315 23.7897C56.1259 23.7897 55.7203 23.7897 55.3148 23.7897C55.2595 23.7897 55.1489 23.9077 55.1581 23.9583C55.2502 24.4808 55.3424 24.9949 55.4622 25.509C55.4807 25.5848 55.5913 25.6859 55.6835 25.7028C56.089 25.7702 56.4946 25.8039 56.9647 25.8629H56.9555ZM63.9793 23.5285C63.8779 22.9975 63.7949 22.5172 63.6935 22.0368C63.6659 21.902 63.6106 21.6828 63.5276 21.666C63.076 21.5649 62.6059 21.5227 62.1542 21.4553C62.2187 22.1295 62.2648 22.7531 62.3293 23.3684C62.3293 23.4274 62.4399 23.52 62.5045 23.5285C62.9653 23.5453 63.417 23.5285 63.9701 23.5285H63.9793ZM57.2965 26.1663C57.5086 26.6467 57.7113 27.0934 57.9141 27.5316C57.9326 27.5737 58.0063 27.6074 58.0616 27.6074C58.4303 27.6327 58.7898 27.6496 59.1585 27.6664C59.306 27.6664 59.4074 27.6496 59.4074 27.4726C59.4074 27.0934 59.4074 26.7141 59.3982 26.3349C59.3982 26.2759 59.2968 26.1579 59.2414 26.1579C58.6239 26.141 58.0155 26.1579 57.2965 26.1579V26.1663ZM61.7671 26.1663C61.0758 26.1663 60.4582 26.1663 59.8498 26.1748C59.7945 26.1748 59.6931 26.3012 59.6931 26.3686C59.6747 26.7394 59.6931 27.1102 59.6839 27.481C59.6839 27.658 59.7761 27.6917 59.9328 27.6833C60.283 27.658 60.6333 27.6496 60.9744 27.6159C61.0481 27.6159 61.1495 27.5485 61.1771 27.4895C61.3799 27.0597 61.5643 26.6298 61.7671 26.1663V26.1663ZM59.3982 21.1435C59.3982 20.6715 59.3982 20.2501 59.3982 19.8203C59.3982 19.7613 59.2875 19.6686 59.223 19.6686C58.8267 19.6686 58.4395 19.6686 58.0432 19.6939C57.9879 19.6939 57.9141 19.7361 57.8957 19.7782C57.6929 20.2249 57.4993 20.68 57.2873 21.1519H59.4074L59.3982 21.1435ZM61.7763 21.1435C61.5643 20.6631 61.3707 20.2249 61.1679 19.7866C61.1495 19.7361 61.0573 19.6855 61.002 19.6855C60.6149 19.6686 60.2277 19.6602 59.8406 19.6602C59.7853 19.6602 59.6747 19.7276 59.6747 19.7698C59.6655 20.2164 59.6747 20.6715 59.6747 21.1435H61.7763V21.1435ZM63.4354 21.3289C63.2419 20.7895 62.9377 20.3513 62.6059 19.9215C62.5782 19.8878 62.5413 19.854 62.5045 19.8456C62.1819 19.8035 61.8685 19.7698 61.5182 19.7276C61.6933 20.2249 61.85 20.68 62.0159 21.1266C62.0344 21.1688 62.1266 21.2109 62.1911 21.2109C62.5874 21.253 62.993 21.2783 63.4354 21.3204V21.3289ZM57.5362 19.7445C57.2781 19.7698 57.0292 19.7782 56.7896 19.8119C56.679 19.8288 56.5315 19.8456 56.467 19.9215C56.0983 20.326 55.8217 20.7811 55.6005 21.3204C56.0614 21.2867 56.4762 21.253 56.891 21.2109C56.9463 21.2109 57.0108 21.1182 57.0292 21.0592C57.1952 20.6378 57.3519 20.2164 57.527 19.7529L57.5362 19.7445ZM61.4721 27.599C61.6288 27.5737 61.7671 27.5316 61.9053 27.54C62.3386 27.5737 62.5874 27.363 62.7718 27.0512C62.9746 26.7141 63.1958 26.3854 63.4354 25.9978C62.9469 26.0399 62.5413 26.0652 62.145 26.0989C62.0897 26.0989 62.0067 26.1495 61.9975 26.1916C61.8224 26.6551 61.6472 27.1186 61.4721 27.599ZM55.7019 25.9809C55.7019 26.0399 55.6927 26.0821 55.7019 26.1073C55.9784 26.5287 56.2642 26.9417 56.5591 27.3546C56.6052 27.422 56.7158 27.4895 56.7988 27.4979C57.0385 27.54 57.2873 27.5484 57.527 27.5737C57.5454 27.54 57.5546 27.5232 57.5546 27.5147C57.3795 27.0765 57.2136 26.6383 57.0292 26.2C57.0108 26.1579 56.9555 26.0989 56.9094 26.0989C56.5131 26.0568 56.1075 26.0231 55.7019 25.9809V25.9809ZM63.8963 25.6354C64.4217 25.6017 64.4955 25.5595 64.6153 25.155C64.7075 24.86 64.7443 24.5482 64.8181 24.2533C64.9379 23.7644 64.9103 23.7729 64.3296 23.7897C64.2835 23.7897 64.2466 23.8066 64.2374 23.815C64.1175 24.4471 63.9977 25.0454 63.8871 25.6522L63.8963 25.6354ZM55.1673 25.568C55.1396 25.4668 55.1028 25.3657 55.0843 25.2561C55.0106 24.8263 54.9461 24.3965 54.8539 23.9752C54.8355 23.9077 54.7617 23.8066 54.6972 23.7897C54.5405 23.7645 54.3746 23.7813 54.1165 23.7813C54.2455 24.2785 54.3377 24.7252 54.4668 25.1634C54.5681 25.509 54.7433 25.6017 55.1673 25.5595V25.568ZM55.1028 21.6828C54.8908 21.725 54.605 21.666 54.5221 21.9357C54.393 22.3992 54.3008 22.8627 54.1902 23.3346C54.1626 23.4526 54.2087 23.5538 54.3561 23.5285C54.5221 23.5032 54.7894 23.6549 54.8355 23.3852C54.9369 22.829 55.0106 22.2643 55.0935 21.6828H55.1028ZM64.2466 23.5285C64.3664 23.5285 64.477 23.52 64.5969 23.5285C64.8734 23.5538 64.9103 23.4105 64.8734 23.2167C64.7996 22.8711 64.7259 22.5256 64.6429 22.1885C64.5508 21.8261 64.3756 21.7165 63.9424 21.7334C64.0438 22.3149 64.1452 22.8964 64.2466 23.5201V23.5285ZM58.1261 19.399C58.4303 19.399 58.7253 19.399 59.011 19.399C59.2691 19.399 59.3951 19.2782 59.3889 19.0366C59.3889 19.0366 59.3889 18.9691 59.3889 18.9354C59.4074 18.7585 59.306 18.7247 59.1401 18.7247C58.6331 18.7416 58.2828 18.9523 58.1169 19.399H58.1261ZM60.9283 19.399C60.6057 18.809 60.3015 18.6573 59.6747 18.7669C59.6747 18.927 59.6655 19.0956 59.6747 19.2557C59.6747 19.3063 59.7669 19.3905 59.8222 19.3905C60.1909 19.399 60.5503 19.3905 60.9283 19.3905V19.399ZM60.8914 27.8771C60.4766 27.9024 60.0895 27.9193 59.6931 27.9361V28.4839C60.4213 28.5345 60.6241 28.4418 60.8914 27.8687V27.8771ZM58.1353 27.8771C58.3105 28.2227 58.504 28.4671 58.9373 28.5008C59.3982 28.5345 59.435 28.5176 59.3889 28.1047C59.3889 28.0457 59.2875 27.9446 59.223 27.9361C58.882 27.9024 58.5317 27.894 58.1353 27.8771V27.8771ZM56.1444 27.3209C56.1444 27.3209 56.0983 27.2366 56.0706 27.1945C55.8494 26.8405 55.6282 26.4866 55.4254 26.1242C55.2871 25.8798 55.1396 25.8039 54.7986 25.8798C55.1212 26.4697 55.5636 26.9501 56.1444 27.3209ZM63.0483 20.0057C63.2327 20.3344 63.4539 20.6547 63.5921 21.0002C63.7212 21.3289 63.9148 21.5143 64.3296 21.4974C64.0346 20.8991 63.6014 20.4018 63.0483 20.0057ZM62.9561 27.3546C63.4908 27.0007 64.1268 26.2506 64.2466 25.8039C64.0254 25.9051 63.7673 25.9388 63.6843 26.0736C63.4078 26.4781 63.1958 26.9248 62.9561 27.363V27.3546ZM54.7617 21.4553C55.0751 21.4553 55.3332 21.4131 55.3977 21.0929C55.4069 21.0339 55.4438 20.9833 55.4715 20.9328C55.6374 20.6462 55.8033 20.3513 55.9784 20.031C55.6005 20.2249 54.9829 20.9496 54.7525 21.4553H54.7617ZM60.9836 18.9439C61.3062 19.4748 61.6104 19.6096 62.2003 19.4832C61.8592 19.1714 61.4629 19.0366 60.9836 18.9439ZM56.8357 19.4242C56.8357 19.4242 56.8633 19.4832 56.8818 19.5169C57.5915 19.5591 57.868 19.4242 58.034 18.8849C57.5915 19.0871 57.2136 19.2557 56.8449 19.4242H56.8357ZM61.002 28.3238C61.3984 28.2058 61.7855 28.1384 62.062 27.8097C61.3799 27.7676 61.2324 27.835 61.002 28.3238ZM57.0477 27.8097L57.0108 27.894C57.3426 28.0457 57.6653 28.2058 58.0616 28.3912C57.8404 27.8771 57.6745 27.7929 57.0477 27.8181V27.8097Z" fill="#01E6B6"/>
<path d="M32.648 10.82C29.6431 10.8537 27.0161 8.66253 27.0068 5.69601C27.0068 2.79691 29.4864 0.639443 32.3991 0.546739C35.6529 0.437181 38.1785 2.72948 38.2615 5.54431C38.3444 8.46869 35.782 10.8369 32.648 10.82V10.82ZM32.5189 3.4964C31.8276 3.4964 31.1547 3.4964 30.4911 3.4964C30.4358 3.4964 30.3344 3.57225 30.3252 3.62281C30.2422 4.21274 30.1777 4.80268 30.1224 5.39261C30.1224 5.45161 30.2422 5.56959 30.3067 5.56959C30.9888 5.58644 31.6709 5.58644 32.3438 5.56959C32.4083 5.56959 32.5097 5.46845 32.5189 5.40946C32.5282 4.76896 32.5189 4.13689 32.5189 3.48797V3.4964ZM32.5189 7.93774C32.5189 7.32253 32.5097 6.70732 32.5189 6.10053C32.5189 5.88984 32.4268 5.8477 32.224 5.8477C31.6156 5.8477 31.0073 5.85613 30.3989 5.8477C30.1777 5.8477 30.0671 5.90669 30.0947 6.12581C30.1685 6.68203 30.233 7.23825 30.3159 7.79448C30.3159 7.85347 30.4358 7.93774 30.4911 7.93774C31.1547 7.94617 31.8092 7.93774 32.5097 7.93774H32.5189ZM32.8047 5.58645C33.5605 5.58645 34.2979 5.58645 35.0446 5.57802C35.0906 5.57802 35.1644 5.42632 35.1644 5.35047C35.1459 5.03865 35.1183 4.72683 35.0814 4.42343C35.0353 4.12004 34.9708 3.82507 34.9155 3.48797H32.8139V5.58645H32.8047ZM32.7955 7.96304C33.4315 7.96304 34.0214 7.96304 34.6113 7.96304C34.8141 7.96304 34.9339 7.90403 34.9524 7.70177C35.0169 7.14555 35.0999 6.58933 35.1644 6.02468C35.1644 5.97412 35.0353 5.86456 34.9616 5.85614C34.2979 5.84771 33.6343 5.84771 32.9706 5.85614C32.9061 5.85614 32.7955 5.9404 32.7955 5.99097C32.7863 6.64832 32.7955 7.29726 32.7955 7.96304V7.96304ZM28.159 5.58645C28.7305 5.58645 29.2098 5.58645 29.6799 5.58645C29.726 5.58645 29.809 5.49374 29.8182 5.44318C29.8827 4.81953 29.938 4.19589 30.0025 3.52168C29.5785 3.56382 29.1361 3.60596 28.6937 3.66495C28.6291 3.66495 28.5554 3.77452 28.537 3.84194C28.4079 4.40659 28.2881 4.97123 28.159 5.59487V5.58645ZM35.4686 5.58645C35.9294 5.58645 36.3903 5.58645 36.8512 5.58645C37.0263 5.58645 37.0263 5.46846 37.0079 5.35047C36.9342 4.88696 36.8512 4.42344 36.759 3.95992C36.7406 3.86722 36.6668 3.70708 36.5931 3.69866C36.1414 3.61438 35.6806 3.57224 35.2197 3.51325C35.3026 4.22117 35.3856 4.87853 35.4686 5.58645ZM35.4686 5.8477C35.3856 6.55562 35.3026 7.22141 35.2105 7.9209C35.6437 7.87876 36.0677 7.85348 36.4917 7.80291C36.5562 7.80291 36.6484 7.70178 36.6576 7.63436C36.7775 7.10342 36.8973 6.57247 36.9895 6.04153C36.9987 5.99097 36.8788 5.86456 36.8143 5.86456C36.3627 5.8477 35.9202 5.86456 35.4501 5.86456L35.4686 5.8477ZM30.0025 7.91246C29.938 7.24668 29.8827 6.62305 29.809 5.9994C29.809 5.94041 29.6615 5.85614 29.5878 5.85614C29.2191 5.83928 28.8503 5.85613 28.4816 5.8477C28.2973 5.8477 28.2051 5.88984 28.242 6.08367C28.3526 6.58933 28.4448 7.10341 28.5646 7.60907C28.583 7.67649 28.7029 7.75234 28.7766 7.76077C29.1822 7.81976 29.5878 7.8619 30.0025 7.91246V7.91246ZM30.3805 3.20143C31.0626 3.20143 31.6894 3.20143 32.3069 3.20143C32.4636 3.20143 32.5189 3.13402 32.5097 2.99918C32.5097 2.62836 32.5097 2.25754 32.5097 1.89515C32.5097 1.73502 32.436 1.68447 32.2793 1.69289C31.9014 1.71818 31.5327 1.72661 31.1547 1.76032C31.081 1.76032 30.9704 1.80246 30.952 1.85302C30.7492 2.29968 30.574 2.74634 30.3805 3.20143ZM30.3805 8.21586C30.5833 8.67937 30.7768 9.12605 30.9704 9.55586C30.998 9.60642 31.0902 9.66541 31.1547 9.67384C31.5327 9.6907 31.9106 9.69912 32.2793 9.70755C32.436 9.70755 32.5097 9.6654 32.5097 9.50528C32.5005 9.14289 32.5097 8.78051 32.5097 8.41812C32.5097 8.26643 32.4544 8.20743 32.2793 8.21586C31.9382 8.21586 31.5972 8.21586 31.2561 8.21586C30.9888 8.21586 30.7123 8.21586 30.3712 8.21586H30.3805ZM34.8602 3.20987C34.6574 2.74635 34.4731 2.29968 34.2795 1.86987C34.2518 1.8193 34.1597 1.76874 34.0951 1.76032C33.7264 1.73503 33.3577 1.70975 32.9983 1.70132C32.9337 1.70132 32.8047 1.76873 32.8047 1.80244C32.7863 2.25754 32.8047 2.72107 32.8047 3.20987H34.8786H34.8602ZM32.7955 9.68226C33.2471 9.68226 33.6619 9.68226 34.0859 9.68226C34.1412 9.68226 34.2334 9.6317 34.2518 9.58114C34.4546 9.1429 34.639 8.69623 34.8418 8.23271H32.7955V9.68226ZM34.6021 1.7856C34.768 2.26597 34.9247 2.72106 35.0906 3.17615C35.1091 3.21829 35.1644 3.26043 35.2105 3.26885C35.6345 3.31099 36.0585 3.35312 36.4917 3.39526C36.4917 3.32784 36.5009 3.30257 36.4917 3.28571C36.2336 2.8559 35.9663 2.4261 35.699 1.99629C35.6713 1.95415 35.5976 1.92044 35.5423 1.91201C35.2289 1.86987 34.9063 1.82774 34.5929 1.7856H34.6021ZM28.6568 3.31099C28.6568 3.31099 28.7121 3.35313 28.7397 3.37842C28.8596 3.37842 28.9794 3.37841 29.09 3.36156C29.2098 3.3447 29.3297 3.29414 29.4403 3.31099C29.9196 3.36156 30.1869 3.20986 30.2791 2.74635C30.3436 2.4261 30.5095 2.13112 30.6386 1.80244C30.362 1.82773 30.1132 1.85302 29.8735 1.88673C29.7629 1.90358 29.6062 1.92887 29.5509 1.99629C29.2375 2.43452 28.9517 2.88118 28.6568 3.31942V3.31099ZM34.5745 9.6317C34.8141 9.61485 35.0446 9.60642 35.275 9.58114C35.3764 9.56428 35.5147 9.539 35.57 9.47157C35.9479 9.05862 36.2613 8.60353 36.4825 8.06417C36.0401 8.09788 35.6253 8.13159 35.2197 8.17373C35.1736 8.17373 35.0999 8.23272 35.0814 8.27486C34.9063 8.72152 34.7496 9.16818 34.5745 9.64012V9.6317ZM28.8135 8.04731C28.8135 8.04731 28.7582 8.09787 28.7397 8.11473C28.9886 8.48554 29.2283 8.86479 29.5048 9.22718C29.7721 9.58114 30.1685 9.68226 30.6293 9.5727C30.4726 9.13447 30.3067 8.68781 30.1408 8.24957C30.1224 8.19901 30.0486 8.14001 29.9933 8.14001C29.6062 8.09787 29.2098 8.07259 28.8227 8.03888L28.8135 8.04731ZM37.0079 7.69335C37.4135 7.66807 37.5794 7.6175 37.6347 7.40681C37.773 6.90958 37.8928 6.40393 38.0403 5.83928C37.7822 5.83928 37.5978 5.83085 37.4227 5.83928C37.3766 5.83928 37.3029 5.91512 37.2936 5.96569C37.1922 6.53876 37.1001 7.11185 37.0079 7.68493V7.69335ZM37.0448 3.7998C37.1185 4.28017 37.2015 4.75211 37.2752 5.23249C37.3305 5.6033 37.3213 5.6033 37.7361 5.58645C37.7637 5.58645 37.7914 5.58645 37.819 5.58645C37.9573 5.58645 38.0126 5.52746 37.985 5.39261C37.8928 4.98809 37.8283 4.58356 37.7269 4.18746C37.6439 3.86721 37.4503 3.77451 37.054 3.7998H37.0448ZM28.2051 3.68181C28.0023 3.77451 27.7166 3.82508 27.6428 3.95992C27.3755 4.45715 27.2741 4.99651 27.3018 5.58645C27.4769 5.58645 27.6336 5.6033 27.7811 5.58645C27.8456 5.57802 27.9378 5.49375 27.947 5.43475C28.0392 4.87853 28.1129 4.3223 28.2051 3.69023V3.68181ZM28.2328 7.64278C28.1498 7.19612 28.0576 6.74945 27.9839 6.29436C27.9102 5.81399 27.9194 5.81399 27.3848 5.8477C27.3663 5.8477 27.3479 5.85613 27.3018 5.88142C27.3018 5.94884 27.2926 6.0331 27.3018 6.10895C27.3755 6.4882 27.4493 6.86745 27.5599 7.23826C27.6613 7.58379 27.8272 7.65964 28.2328 7.64278V7.64278ZM32.4729 0.816416C31.7815 0.748995 31.3114 1.00182 31.2285 1.47377C31.4405 1.47377 31.6617 1.49062 31.8829 1.47377C32.6111 1.40635 32.5005 1.60019 32.5005 0.858557C32.5005 0.858557 32.5005 0.841699 32.4729 0.816416ZM32.7955 1.44006C33.2195 1.45692 33.6066 1.47377 34.0306 1.49905C33.6896 0.86698 33.5421 0.782714 32.7955 0.824852V1.44006V1.44006ZM31.2561 9.9688C31.505 10.4913 31.7447 10.6177 32.5005 10.525C32.5005 10.407 32.5189 10.2722 32.5005 10.1626C32.4821 10.0952 32.3807 9.98566 32.3162 9.98566C31.9659 9.9688 31.6248 9.98566 31.2654 9.98566L31.2561 9.9688ZM32.7955 10.5334C33.5513 10.6009 33.708 10.4913 33.9569 9.9688H32.7955V10.5334ZM27.8733 7.91246C28.2051 8.5361 28.6568 9.01648 29.2283 9.41257C29.2283 9.36201 29.2006 9.31988 29.173 9.27774C28.961 8.94064 28.7213 8.61196 28.5462 8.258C28.4171 7.97989 28.2328 7.87876 27.8733 7.90404V7.91246ZM36.1322 2.03842C36.3442 2.41766 36.5655 2.78848 36.759 3.16773C36.9342 3.51326 36.971 3.54696 37.4135 3.51325C37.1093 2.92332 36.6761 2.43451 36.1322 2.03842ZM36.0216 9.46315C36.6115 8.99963 37.0448 8.51083 37.395 7.87033C37.1554 7.94618 36.8973 7.95461 36.8235 8.06417C36.5378 8.49397 36.3074 8.94906 36.0216 9.45472V9.46315ZM27.7627 3.51325C28.1867 3.52168 28.4079 3.42898 28.5277 3.12559C28.6476 2.81376 28.8503 2.52723 29.0163 2.23226C29.0439 2.19012 29.0624 2.14798 29.0808 2.10584L28.9886 2.04685C28.6015 2.5188 28.2051 2.99074 27.7719 3.51325H27.7627ZM35.3303 1.56647C34.98 1.2378 34.5837 1.09454 34.1136 1.01026C34.3348 1.50749 34.6574 1.65075 35.3303 1.56647ZM31.0994 1.04397C30.657 1.05239 30.0947 1.3305 29.9749 1.60861C30.4266 1.54962 30.9427 1.62547 31.0994 1.04397ZM35.192 9.94352C35.192 9.94352 35.1644 9.89296 35.1552 9.85925C34.5099 9.80868 34.2703 9.92666 34.0951 10.4323C34.4915 10.2553 34.8418 10.1036 35.192 9.94352ZM30.1316 9.86767C30.4266 10.1795 30.8137 10.348 31.0902 10.2975C30.8874 9.89295 30.7492 9.82553 30.1316 9.86767Z" fill="#01E6B6"/>
<path d="M10.5068 52.7989C10.4792 49.9504 13.0416 47.6497 16.1203 47.6497C19.2266 47.6497 21.7154 49.942 21.7522 52.7062C21.7983 55.6643 19.199 57.8892 16.2217 57.9313C13.0601 57.9735 10.4884 55.6222 10.5068 52.7989V52.7989ZM13.6224 52.9422C13.567 53.6248 13.6777 54.2822 13.8159 54.9311C13.8159 54.9733 13.9081 55.0238 13.9542 55.0238C14.6271 55.066 15.2999 55.0912 15.982 55.1249V52.9422H13.6224V52.9422ZM16.0005 52.6725C16.0005 51.9983 16.0005 51.3409 16.0005 50.6752C16.0005 50.633 15.9175 50.5488 15.8807 50.5488C15.2446 50.5488 14.6178 50.5656 13.9818 50.5993C13.9173 50.5993 13.8251 50.692 13.8067 50.751C13.733 51.1218 13.6684 51.4926 13.6316 51.8635C13.6039 52.1247 13.6316 52.3944 13.6316 52.6641H16.0097L16.0005 52.6725ZM16.277 55.0491C16.9407 55.0491 17.5675 55.0491 18.1943 55.0407C18.268 55.0407 18.397 54.9227 18.4155 54.8468C18.5077 54.358 18.5722 53.8692 18.6367 53.3804C18.6551 53.2456 18.6367 53.1023 18.6367 52.9591H16.277V55.0491ZM16.277 52.6641H18.692C18.5998 52.0236 18.5169 51.4084 18.4247 50.7932C18.4063 50.6415 18.3141 50.5825 18.139 50.5825C17.5214 50.5825 16.913 50.5825 16.277 50.5825V52.6557V52.6641ZM20.4894 52.9506H18.9501C18.8671 53.6417 18.7842 54.3159 18.692 55.0322C19.116 54.9901 19.5492 54.948 19.9825 54.889C20.0378 54.889 20.1115 54.8216 20.13 54.771C20.342 54.1895 20.471 53.5911 20.471 52.9506H20.4894ZM13.4749 55.0154C13.4196 54.3327 13.3735 53.7007 13.3182 53.0686C13.3182 53.018 13.2168 52.9422 13.1615 52.9422C12.7006 52.9338 12.2305 52.9422 11.7512 52.9422C11.6959 53.5911 11.8618 54.1726 12.0646 54.7541C12.083 54.7963 12.1291 54.8468 12.1752 54.8553C12.6084 54.9143 13.0416 54.9733 13.4749 55.0238V55.0154ZM13.521 50.6667C13.2444 50.6667 13.014 50.6499 12.7928 50.6667C12.0369 50.7342 12.0277 50.7426 11.8802 51.4252C11.7973 51.8297 11.7604 52.2427 11.6959 52.6809C12.2028 52.6809 12.6453 52.6809 13.0877 52.6809C13.2905 52.6809 13.3274 52.6135 13.3366 52.445C13.355 52.0152 13.3919 51.5854 13.4288 51.164C13.4472 51.0038 13.4933 50.8353 13.5302 50.6667H13.521ZM18.7104 50.6162C18.7934 51.341 18.8671 52.0067 18.9501 52.6641H20.4894C20.4894 52.0573 20.388 51.4842 20.1945 50.928C20.176 50.8774 20.1115 50.8016 20.0562 50.7932C19.623 50.7257 19.1805 50.6752 18.7197 50.6162H18.7104ZM15.9913 50.2959C15.9913 49.8156 15.9913 49.3942 15.9913 48.9728C15.9913 48.8379 15.936 48.7958 15.7885 48.8042C15.3921 48.8295 15.005 48.8464 14.6086 48.8801C14.5441 48.8801 14.4519 48.9222 14.4335 48.9728C14.2399 49.411 14.0556 49.8493 13.862 50.2959H15.982H15.9913ZM13.8897 55.3188C14.0279 55.6559 14.1754 55.993 14.2952 56.3385C14.4151 56.6756 14.6178 56.8526 15.0326 56.8105C15.346 56.7768 15.6594 56.8105 15.982 56.8105V55.3272H13.8989L13.8897 55.3188ZM16.277 50.2875H18.3417C18.1482 49.8324 17.9546 49.3857 17.761 48.9391C17.7518 48.9054 17.6965 48.8801 17.6596 48.8801C17.208 48.8464 16.7563 48.8127 16.2862 48.7874V50.2959L16.277 50.2875ZM18.3325 55.3356H16.2678C16.2678 55.8076 16.2678 56.2374 16.2678 56.6756C16.2678 56.7262 16.3876 56.8189 16.4521 56.8189C16.8024 56.8189 17.1527 56.8105 17.4937 56.7852C17.5767 56.7852 17.6965 56.7431 17.7242 56.6841C17.9362 56.2458 18.1205 55.7992 18.3233 55.3356H18.3325ZM18.1205 48.8801C18.1113 48.9391 18.1021 48.9559 18.1113 48.9728C18.268 49.4026 18.4155 49.824 18.5814 50.2454C18.5998 50.2959 18.6551 50.3633 18.7012 50.3718C19.1345 50.4139 19.5677 50.4476 20.0286 50.4898C19.8258 49.9504 19.5308 49.5037 19.1805 49.0823C19.1437 49.0318 19.0607 48.9981 18.9962 48.9896C18.7104 48.9475 18.4247 48.9138 18.1205 48.8801ZM12.1107 50.4729C12.59 50.4392 12.9679 50.3971 13.3458 50.3802C13.5486 50.3718 13.6316 50.2791 13.6777 50.1105C13.7422 49.8745 13.8344 49.647 13.9173 49.4194C13.9818 49.2425 14.0556 49.0739 14.1385 48.8632C13.8159 48.8969 13.5394 48.9222 13.2721 48.9644C13.1707 48.9812 13.0509 49.0402 12.9956 49.1161C12.7006 49.5459 12.4241 49.9757 12.1107 50.4729V50.4729ZM20.0101 55.2261C20.0101 55.2261 19.964 55.1839 19.9456 55.1587C19.6322 55.1839 19.3096 55.2345 18.9962 55.2261C18.692 55.2176 18.5722 55.3188 18.4984 55.5885C18.3971 55.9677 18.2219 56.3301 18.0744 56.7178C18.2957 56.7093 18.4984 56.7178 18.692 56.6841C18.8303 56.6588 19.0146 56.6335 19.0884 56.5408C19.4202 56.1194 19.7152 55.6727 20.0193 55.2345L20.0101 55.2261ZM12.2674 55.1249C12.3042 55.2345 12.3227 55.3356 12.3688 55.4115C12.5439 55.6896 12.7375 55.9677 12.9126 56.2458C13.1891 56.6925 13.6316 56.7346 14.1201 56.6925C13.945 56.2205 13.7791 55.7654 13.6039 55.3104C13.5855 55.2766 13.5025 55.2429 13.4472 55.2345C13.0693 55.1924 12.6822 55.1587 12.2582 55.1165L12.2674 55.1249ZM20.4802 54.7878C20.8551 54.7485 21.0978 54.5631 21.2084 54.2316C21.2084 54.2316 21.2453 54.1558 21.2545 54.1136C21.3375 53.726 21.4204 53.3383 21.5034 52.9338H20.8213C20.7014 53.5658 20.5908 54.1726 20.4802 54.7878ZM20.5263 50.9027C20.6185 51.4842 20.7107 52.0657 20.8028 52.6472H21.5034C21.4204 52.2258 21.3743 51.8213 21.2545 51.4421C21.0978 50.9364 20.9688 50.869 20.5263 50.9027V50.9027ZM11.6867 50.7847C11.5115 50.8522 11.2258 50.8774 11.152 51.0038C10.8755 51.5095 10.7649 52.0742 10.7649 52.6641C10.9124 52.6641 11.0322 52.6557 11.152 52.6641C11.364 52.6894 11.4378 52.5967 11.4654 52.4197C11.53 51.8887 11.6129 51.3662 11.6867 50.7847ZM10.7741 52.9338C10.7649 53.3973 10.8755 53.8271 11.0138 54.2485C11.1613 54.6783 11.2258 54.7204 11.7512 54.7373C11.7328 54.6614 11.7051 54.594 11.6959 54.5182C11.6221 54.1558 11.5115 53.8018 11.4747 53.4394C11.4194 52.8832 11.447 52.8832 10.7741 52.9338V52.9338ZM14.6916 48.543H15.982C15.982 48.3829 15.982 48.248 15.982 48.1132C15.982 48.0458 15.9728 47.9868 15.9636 47.9193C15.2907 47.8182 15.005 47.9531 14.6824 48.5346L14.6916 48.543ZM15.9636 57.6448V57.0717C15.5488 57.0549 15.1432 57.038 14.7192 57.0127C14.9405 57.6027 15.4106 57.6785 15.9636 57.6448ZM16.277 47.9193V48.5346H17.4937C17.1619 47.9446 16.9315 47.8351 16.277 47.9193ZM16.277 57.0717V57.6364C16.9683 57.6785 17.1619 57.5858 17.4937 57.0127C17.0789 57.0296 16.6826 57.0464 16.277 57.0717V57.0717ZM11.3733 54.9648C11.53 55.4536 12.4425 56.4649 12.719 56.4902C12.507 56.1447 12.2582 55.7992 12.0738 55.4199C11.9263 55.1165 11.7328 54.948 11.364 54.9733L11.3733 54.9648ZM20.9134 50.633C20.5816 50.0262 20.1853 49.529 19.5953 49.0739C19.835 49.5206 20.0654 49.883 20.2313 50.2622C20.3512 50.5572 20.5632 50.6246 20.9134 50.6246V50.633ZM19.5032 56.5408C20.1023 56.0857 20.5171 55.5969 20.8213 55.007C20.6369 55.0407 20.3788 55.0491 20.3051 55.1587C20.0193 55.58 19.7981 56.0351 19.5124 56.5408H19.5032ZM12.6084 49.0908C12.0554 49.5374 11.6129 50.0094 11.3364 50.6077C11.6774 50.5909 11.8894 50.4898 12.0185 50.1864C12.166 49.824 12.3964 49.4869 12.6084 49.0908V49.0908ZM18.775 48.6863C18.775 48.6863 18.8118 48.6104 18.8211 48.5767C18.4247 48.3997 18.0191 48.2227 17.6228 48.0458C17.6043 48.071 17.5767 48.0963 17.5583 48.1216C17.6781 48.2817 17.761 48.5261 17.927 48.5851C18.185 48.6863 18.4892 48.661 18.775 48.6863V48.6863ZM14.6271 48.071C13.862 48.2817 13.6316 48.4081 13.4472 48.6947C13.6131 48.6694 13.7698 48.6188 13.9173 48.6357C14.3598 48.6778 14.4796 48.3913 14.6271 48.071V48.071ZM17.6136 57.4088C18.0007 57.4088 18.4524 57.1981 18.6091 56.9453C18.1943 56.9537 17.7703 56.9116 17.6136 57.4088ZM13.6039 56.9537C13.8712 57.2571 14.2031 57.3583 14.5718 57.4341C14.4058 56.9959 14.3782 56.9622 13.6039 56.9537Z" fill="#01E6B6"/>
<path d="M54.634 52.8158C54.6709 55.58 52.1361 57.9313 49.0205 57.9398C45.9511 57.9398 43.2964 55.5885 43.3978 52.6135C43.49 50.0094 45.8774 47.6497 49.0205 47.6497C52.1176 47.6497 54.6986 49.9925 54.634 52.8158V52.8158ZM48.8731 55.1249V52.9506H46.4488C46.5318 53.6164 46.6055 54.2569 46.7069 54.889C46.7069 54.9395 46.8268 55.0154 46.9005 55.0154C47.5457 55.0575 48.2002 55.0828 48.8823 55.1165L48.8731 55.1249ZM49.1772 55.0407C49.8409 55.0407 50.4769 55.0491 51.1129 55.0322C51.1959 55.0322 51.3342 54.8805 51.3526 54.7794C51.4355 54.3917 51.4816 53.9956 51.5277 53.608C51.5554 53.3889 51.5277 53.1613 51.5277 52.9506H49.168V55.0407H49.1772ZM48.8731 50.5825C48.2094 50.5825 47.5734 50.5825 46.9282 50.5825C46.8452 50.5825 46.7162 50.692 46.6977 50.7679C46.624 51.0965 46.5595 51.4252 46.5318 51.7623C46.5041 52.0573 46.5318 52.3607 46.5318 52.6557H48.8731V50.5825ZM49.1865 50.5825V52.6557H51.6015C51.5185 52.0067 51.4448 51.3831 51.3434 50.7679C51.3342 50.692 51.1682 50.5909 51.0668 50.5909C50.4493 50.574 49.8317 50.5909 49.1865 50.5909V50.5825ZM51.6291 55.007C51.9886 54.9817 52.3481 54.948 52.7168 54.9311C52.9657 54.9143 53.1039 54.7963 53.1408 54.5856C53.233 54.1642 53.3159 53.7512 53.3989 53.3299C53.4173 53.2034 53.3989 53.0686 53.3989 52.9506H51.8688C51.7858 53.6417 51.7121 54.3159 51.6291 55.0154V55.007ZM44.6791 52.9253C44.6606 52.9843 44.6422 53.018 44.6514 53.0518C44.7528 53.5996 44.8634 54.1558 44.9833 54.7036C44.9925 54.7541 45.057 54.8384 45.1123 54.8468C45.5455 54.9143 45.9787 54.9648 46.412 55.0154C46.4212 54.948 46.4304 54.9227 46.4304 54.9058C46.3659 54.299 46.3106 53.6838 46.2368 53.077C46.2368 53.0265 46.1078 52.9422 46.0341 52.9422C45.5916 52.9338 45.1492 52.9422 44.6883 52.9422L44.6791 52.9253ZM44.6514 52.6472H46.1908C46.2645 51.9646 46.329 51.3072 46.4028 50.6162C45.9603 50.6583 45.5271 50.7005 45.1031 50.7426C45.0478 50.7426 44.9556 50.81 44.9464 50.8606C44.7805 51.4421 44.6053 52.0236 44.6514 52.6472ZM51.8596 52.6472H53.4358C53.3805 52.2427 53.3067 51.8635 53.2791 51.4842C53.233 50.9196 52.9288 50.6499 52.302 50.6752C52.0808 50.6836 51.8596 50.6499 51.6291 50.633C51.7029 51.3325 51.7766 51.9815 51.8503 52.6557L51.8596 52.6472ZM48.8823 48.7705C48.4675 48.7958 48.0804 48.8211 47.7024 48.8295C47.4536 48.8295 47.3153 48.9307 47.2508 49.1413C47.2323 49.2003 47.1955 49.2425 47.177 49.3015C47.0572 49.6301 46.9374 49.9504 46.8175 50.2706H48.8915V48.7621L48.8823 48.7705ZM49.1772 50.2791H51.2604C51.0576 49.8155 50.8641 49.3857 50.6705 48.9475C50.6521 48.9138 50.6152 48.8717 50.5783 48.8717C50.1174 48.8379 49.6566 48.8042 49.1772 48.7705V50.2791V50.2791ZM48.8731 56.7768V55.2851C48.2647 55.2851 47.6748 55.3104 47.0941 55.2766C46.8268 55.2598 46.8175 55.3441 46.8821 55.5042C47.0203 55.8581 47.1586 56.2121 47.3245 56.5576C47.3614 56.6503 47.4812 56.7683 47.5642 56.7683C47.9974 56.7936 48.4398 56.7768 48.8823 56.7768H48.8731ZM49.1865 55.3272V56.7852C49.6289 56.7852 50.0437 56.7852 50.4677 56.7852C50.523 56.7852 50.6152 56.7515 50.6336 56.7093C50.8456 56.2627 51.0392 55.8076 51.2604 55.3272H49.1957H49.1865ZM51.0023 48.8717C51.1682 49.3436 51.3249 49.7903 51.4909 50.2285C51.5093 50.2875 51.5738 50.3633 51.6291 50.3633C52.0531 50.4139 52.4771 50.4392 52.938 50.4813C52.7352 49.942 52.4495 49.4784 52.09 49.0571C52.0531 49.0149 51.9609 48.9812 51.8964 48.9728C51.6107 48.9306 51.3157 48.8969 51.0023 48.8548V48.8717ZM45.0386 50.4813C45.5455 50.4392 45.9511 50.4055 46.3567 50.3633C46.4304 50.3633 46.5042 50.2706 46.541 50.2116C46.5963 50.1274 46.6055 50.0178 46.6424 49.9251C46.7715 49.588 46.9005 49.2509 47.0388 48.8885C46.7715 48.9138 46.5318 48.9391 46.3014 48.9559C46.0894 48.9728 45.9234 49.0655 45.8128 49.2425C45.564 49.6386 45.3243 50.0347 45.0386 50.4898V50.4813ZM52.9196 55.2429C52.9196 55.2429 52.8735 55.1924 52.8551 55.1671C52.4495 55.1924 52.0347 55.2177 51.6291 55.2514C51.583 55.2514 51.5185 55.3103 51.5001 55.3609C51.3342 55.8076 51.1682 56.2543 50.9931 56.7262C51.242 56.7093 51.4909 56.7009 51.7305 56.6588C51.8411 56.6419 51.9702 56.5914 52.0255 56.5155C52.3389 56.1026 52.6246 55.6727 52.9196 55.2429ZM47.0296 56.6925C47.0296 56.6925 47.0388 56.6419 47.0296 56.6166C46.8729 56.1953 46.7162 55.7823 46.5502 55.3694C46.5318 55.3188 46.4581 55.2598 46.4028 55.2514C46.0064 55.2092 45.6008 55.1755 45.1676 55.1334C45.2045 55.2261 45.2229 55.2935 45.2598 55.3609C45.4349 55.639 45.6285 55.9003 45.7852 56.1784C46.0525 56.6672 46.4949 56.7599 47.0296 56.7009V56.6925ZM53.4173 54.7626C53.8506 54.7794 53.9704 54.712 54.0902 54.3665C54.1639 54.1642 54.2285 53.9704 54.2746 53.7681C54.3299 53.4984 54.3575 53.2203 54.3944 52.9338H53.7307C53.6201 53.5574 53.5187 54.1642 53.4173 54.7626V54.7626ZM54.4405 52.6557C54.3299 52.1753 54.2377 51.7202 54.1086 51.282C54.0073 50.9364 53.8137 50.8521 53.445 50.9111C53.5372 51.4926 53.6293 52.0657 53.7215 52.6557H54.4405ZM43.702 52.9338C43.6836 53.4141 43.7942 53.8608 43.9509 54.299C44.0799 54.6614 44.1998 54.7373 44.6699 54.7288C44.6514 54.6446 44.6238 54.5687 44.6053 54.4844C44.5316 54.1305 44.4302 53.7765 44.3933 53.4226C44.338 52.8832 44.3472 52.8748 43.702 52.9338V52.9338ZM44.3104 52.6472C44.421 52.0067 44.5224 51.4084 44.6238 50.7763C44.4118 50.8606 44.126 50.8859 44.0615 51.0123C43.8034 51.5179 43.6836 52.0657 43.6928 52.6641C43.8495 52.6641 43.9878 52.6641 44.126 52.6641C44.1998 52.6641 44.2643 52.6557 44.3104 52.6472V52.6472ZM48.8823 47.9193C48.1725 47.8266 47.767 48.0458 47.6471 48.543H48.8823V47.9193ZM50.394 48.543C50.2188 48.012 49.804 47.8014 49.1865 47.9278V48.543H50.394ZM48.8823 57.0717C48.4675 57.0549 48.0619 57.038 47.6287 57.0127C47.9329 57.569 48.3016 57.7375 48.8823 57.6195V57.0717ZM49.1865 57.6448C49.9515 57.6532 50.2373 57.5015 50.3755 57.0127C49.97 57.038 49.5736 57.0549 49.1865 57.0802V57.6532V57.6448ZM45.6654 56.5071C45.4349 56.1278 45.1584 55.757 44.974 55.3609C44.8358 55.0659 44.633 54.9564 44.2735 54.9733C44.6053 55.5969 45.0662 56.1025 45.6654 56.5071V56.5071ZM52.5232 49.0571C52.7629 49.5037 52.9749 49.8745 53.1592 50.2622C53.3067 50.5656 53.4265 50.6415 53.8229 50.6077C53.5279 50.0178 53.0947 49.5374 52.514 49.0655L52.5232 49.0571ZM52.4863 56.4565C52.8458 56.2795 53.5372 55.5042 53.7399 54.9817C53.5464 55.0407 53.2975 55.0744 53.2053 55.2092C52.9288 55.6053 52.726 56.0351 52.4863 56.4565ZM45.5087 49.1329C44.9556 49.5037 44.3472 50.2791 44.3196 50.5909C44.6053 50.5656 44.8266 50.4982 44.9372 50.2032C45.0293 49.9335 45.2045 49.6976 45.3427 49.4363C45.3888 49.352 45.4349 49.2678 45.5087 49.1329V49.1329ZM51.7766 48.6863C51.4171 48.2902 50.9655 48.1974 50.5046 48.0795C50.6152 48.2649 50.7166 48.5008 50.8917 48.5767C51.1222 48.6778 51.4263 48.6525 51.7674 48.6863H51.7766ZM46.3475 48.661C47.1125 48.6863 47.389 48.5514 47.5365 48.071C47.1125 48.2143 46.6701 48.2986 46.3475 48.661ZM50.523 57.4425C50.9194 57.3414 51.2973 57.274 51.5738 56.9537C50.8825 56.9032 50.7534 56.9622 50.523 57.4425ZM47.4628 57.4594C47.4628 57.4594 47.4996 57.4088 47.5181 57.3835C47.2784 56.9369 47.1586 56.8779 46.5318 57.0212L47.4628 57.4594Z" fill="#01E6B6"/>
<path d="M37.395 30.0599H40.4737V38.8584H30.8782V36.0351H27.7719V33.2035H24.6748V24.405H34.2979V27.2114H37.4043V30.0599H37.395ZM31.2193 30.3718V38.5971C31.3299 38.5971 31.4221 38.5971 31.5142 38.5971C34.2887 38.5971 37.054 38.5971 39.8285 38.5971C40.1142 38.5971 40.1788 38.5129 40.1788 38.26C40.1788 35.7149 40.1788 33.1782 40.1788 30.633C40.1788 30.4223 40.1234 30.3381 39.8746 30.3465C37.0816 30.3465 34.2979 30.3465 31.505 30.3465C31.4128 30.3465 31.3207 30.3465 31.2193 30.3549V30.3718ZM33.9569 27.2198C33.9569 26.4529 33.9477 25.7197 33.9569 24.9865C33.9569 24.7253 33.8739 24.6663 33.5974 24.6663C30.8414 24.6747 28.0761 24.6663 25.3108 24.6663C25.0589 24.6663 24.9329 24.7843 24.9329 25.0202C24.9329 27.5401 24.9329 30.0515 24.9329 32.5714C24.9329 32.6725 24.9329 32.7652 24.9329 32.8832H27.7535V27.2198H33.9477H33.9569ZM30.8598 35.7317C30.8598 35.5969 30.8598 35.4958 30.8598 35.4031C30.8598 33.726 30.8598 32.0573 30.8598 30.3802C30.8598 30.1358 30.9151 30.0515 31.2101 30.0515C33.0628 30.0684 34.9063 30.0515 36.759 30.0599C37.0079 30.0599 37.1001 30.0094 37.0909 29.7734C37.0724 29.1245 37.0724 28.4756 37.0909 27.8266C37.0909 27.5654 36.9987 27.5064 36.7222 27.5064C33.9477 27.5064 31.1824 27.5064 28.4079 27.5064C28.1406 27.5064 28.0669 27.5822 28.0669 27.8182C28.0761 29.5627 28.0669 31.2988 28.0669 33.0433C28.0669 33.8608 28.0669 34.6783 28.0669 35.4958C28.0669 35.6053 28.03 35.7402 28.242 35.7402C29.0992 35.7402 29.9473 35.7402 30.8598 35.7402V35.7317Z" fill="#01E6B6"/>
<path d="M60.8924 33.3965C60.7173 33.3627 60.6251 33.3459 60.4869 33.3122C60.6712 33.0678 60.8371 32.8402 61.0307 32.5874C61.1782 32.8739 61.298 33.1183 61.4363 33.3796C61.3165 33.3796 61.2243 33.388 61.1321 33.3965C61.086 33.7757 61.0584 34.1549 60.9938 34.5258C60.8095 35.5202 60.662 36.5147 60.4039 37.4923C60.155 38.4446 59.8324 39.3801 59.4914 40.3071C58.9475 41.7735 58.2101 43.1641 57.3621 44.5041C57.0579 44.9844 56.7261 45.4564 56.3851 45.9283C56.3205 46.0126 56.2744 46.2064 56.0901 46.0884C55.915 45.9789 56.0901 45.8778 56.1454 45.7935C57.4082 44.049 58.4406 42.2033 59.2148 40.2397C59.6849 39.0682 60.0629 37.8715 60.3302 36.6411C60.5606 35.5708 60.6989 34.492 60.874 33.3965H60.8924Z" fill="#01E6B6"/>
<path d="M22.4931 6.98633C22.5945 7.16331 22.576 7.23915 22.4009 7.29815C20.2532 8.05663 18.2346 9.04266 16.3542 10.2562C15.1836 11.0147 14.059 11.8322 13.0359 12.7677C12.2616 13.4756 11.515 14.2088 10.7499 14.942C10.8513 15.0516 10.9158 15.1274 11.008 15.2201C10.7222 15.3212 10.4642 15.4055 10.1323 15.5235C10.1876 15.2201 10.2245 14.9588 10.2798 14.6807C10.3812 14.7229 10.4549 14.7566 10.5656 14.8071C13.8009 11.276 17.7645 8.66342 22.4931 6.99475V6.98633Z" fill="#01E6B6"/>
<path d="M8.87614 45.485C8.96832 45.4513 9.04206 45.4176 9.18032 45.3586C9.19876 45.6452 9.20798 45.9064 9.22641 46.2267C8.92223 46.0834 8.67336 45.9654 8.37839 45.8306C8.65492 45.6705 8.55353 45.5356 8.4337 45.3671C7.39211 43.8501 6.48879 42.2657 5.84356 40.5717C5.41956 39.4424 5.03242 38.2963 4.71902 37.1333C4.47936 36.24 4.37797 35.3214 4.23049 34.4027C4.15675 33.9645 4.11988 33.5178 4.08301 33.0712C4.08301 32.9953 4.15675 32.9111 4.19362 32.8352C4.24892 32.9026 4.33188 32.97 4.3411 33.0459C4.43328 33.7454 4.47936 34.4533 4.59919 35.1444C4.71902 35.886 4.84807 36.6361 5.06929 37.3693C5.40112 38.4901 5.7606 39.611 6.19383 40.6982C6.83906 42.3331 7.72395 43.8754 8.75631 45.3418C8.79318 45.3923 8.83006 45.4345 8.87614 45.485V45.485Z" fill="#01E6B6"/>
<path d="M43.6014 6.97461C43.5645 7.08417 43.5369 7.16002 43.5092 7.2443C48.118 9.0141 51.9894 11.6857 55.0957 15.2674C54.9851 15.4275 54.8929 15.4528 54.7546 15.3011C53.1877 13.4976 51.3902 11.9216 49.3716 10.5648C47.8507 9.54504 46.2376 8.66014 44.5139 7.94379C44.2558 7.83423 43.9885 7.74153 43.7397 7.62354C43.5276 7.52241 43.3433 7.42971 43.2235 7.78367C43.0207 7.53926 42.8548 7.33701 42.6335 7.07575C42.9746 7.04204 43.2696 7.00832 43.5922 6.97461H43.6014Z" fill="#01E6B6"/>
<path d="M40.3831 56.4539C40.125 56.673 39.9222 56.85 39.6825 57.0607C39.6364 56.9595 39.6088 56.8921 39.5719 56.8162C39.5166 56.8162 39.4521 56.8078 39.3876 56.8162C38.6317 56.9511 37.8851 57.1281 37.12 57.2208C35.8941 57.3556 34.6589 57.4905 33.4238 57.5242C32.2163 57.5579 30.9996 57.5242 29.7921 57.423C28.7689 57.3472 27.7642 57.1618 26.7503 57.0017C26.271 56.9258 25.8009 56.8078 25.3308 56.7067C25.1649 56.673 25.0174 56.6224 25.1556 56.4033C29.9119 57.5579 34.6958 57.6 39.4982 56.5381C39.4797 56.4286 39.4613 56.3443 39.4429 56.2095C39.7563 56.2937 40.0328 56.3696 40.3738 56.4539H40.3831Z" fill="#01E6B6"/>
</svg>
