<svg width="66" height="66" viewBox="0 0 66 66" fill="none" xmlns="http://www.w3.org/2000/svg">
<g clip-path="url(#clip0_2322_5653)">
<path d="M33.0001 65.8925C51.1661 65.8925 65.8925 51.1661 65.8925 33.0001C65.8925 14.8341 51.1661 0.107666 33.0001 0.107666C14.8341 0.107666 0.107666 14.8341 0.107666 33.0001C0.107666 51.1661 14.8341 65.8925 33.0001 65.8925Z" stroke="#01E6B6" stroke-miterlimit="10"/>
<path d="M33.3085 61.0655C48.6383 61.0655 61.0655 48.6383 61.0655 33.3085C61.0655 17.9788 48.6383 5.55151 33.3085 5.55151C17.9788 5.55151 5.55151 17.9788 5.55151 33.3085C5.55151 48.6383 17.9788 61.0655 33.3085 61.0655Z" stroke="#01E6B6" stroke-miterlimit="10"/>
<path d="M32.9978 38.1429C35.9902 38.1429 38.4161 35.717 38.4161 32.7246C38.4161 29.7322 35.9902 27.3064 32.9978 27.3064C30.0054 27.3064 27.5796 29.7322 27.5796 32.7246C27.5796 35.717 30.0054 38.1429 32.9978 38.1429Z" stroke="#01E6B6" stroke-miterlimit="10"/>
<path d="M32.9978 27.3042V22.3142" stroke="#01E6B6" stroke-linecap="round" stroke-linejoin="round"/>
<path d="M30.0132 37.252L18.23 51.4237" stroke="#01E6B6" stroke-linecap="round" stroke-linejoin="round"/>
</g>
<defs>
<clipPath id="clip0_2322_5653">
<rect width="66" height="66" fill="white"/>
</clipPath>
</defs>
</svg>
