<svg width="54" height="75" viewBox="0 0 54 75" fill="none" xmlns="http://www.w3.org/2000/svg">
<path d="M21.9801 0C23.2589 0.110024 24.3834 0.143036 25.4858 0.297069C27.6135 0.605137 29.653 1.21027 31.6043 2.12347C33.8532 3.1797 35.8707 4.555 37.6566 6.28238C39.3764 7.94374 40.7986 9.82515 41.912 11.9376C42.805 13.632 43.4664 15.4034 43.8854 17.2628C44.4476 19.8153 44.6019 22.3789 44.2602 24.9864C43.742 29.0243 42.2427 32.6441 39.7292 35.8458C39.2993 36.3849 38.9906 36.935 38.9906 37.6502C38.9906 38.4864 39.4426 39.0365 40.0709 39.4876C40.986 40.1587 42.0112 40.6208 43.0806 40.9839C44.1941 41.369 45.2414 41.8971 46.2225 42.5353C49.0888 44.3947 51.2055 46.8922 52.5505 50.0279C53.0686 51.2272 53.4104 52.4704 53.6529 53.7577C53.9065 55.1 54.0277 56.4533 53.9947 57.8176C53.9506 60.5132 53.3111 63.0657 52.0764 65.4753C50.8527 67.8738 49.1881 69.9092 47.0714 71.5596C46.0572 72.3518 44.8886 72.8909 43.72 73.397C42.2648 74.0241 40.7545 74.4752 39.2 74.7503C37.5243 75.0363 35.8376 75.0914 34.1399 74.8383C30.546 74.2992 27.5914 72.5718 25.0889 69.9973C23.2148 68.0608 21.8037 65.8493 20.9548 63.2858C20.1059 60.7332 19.8634 58.1367 20.0839 55.4631C20.2162 53.9227 20.4587 52.4154 20.8666 50.9411C21.2084 49.7088 21.6383 48.5096 22.0682 47.3103C22.5092 46.078 21.9911 45.2419 20.9879 44.7357C20.3705 44.4167 19.698 44.2846 19.0145 44.1636C17.9011 43.9766 16.7986 43.7345 15.7182 43.4265C13.6567 42.8213 11.7385 41.9081 9.95254 40.7199C6.54602 38.4534 3.96633 35.4717 2.18039 31.8079C1.47484 30.3446 0.93464 28.8153 0.570837 27.2419C0.0085975 24.7664 -0.145742 22.2688 0.14089 19.7493C0.537765 16.2615 1.70634 13.0378 3.63559 10.0892C4.78212 8.32881 6.16017 6.75548 7.75869 5.40218C9.77614 3.69681 12.0251 2.35452 14.5166 1.45232C15.8395 0.979221 17.1735 0.583128 18.5735 0.396087C19.7421 0.242053 20.9217 0.13204 21.958 0.0110131L21.9801 0ZM20.161 18.7371C19.9185 20.3324 19.8303 21.8508 19.9075 23.3911C19.9185 23.6772 19.9957 23.8642 20.2382 24.0402C23.0494 26.0867 25.596 28.4192 27.5584 31.3128C29.1569 33.6673 30.4688 36.1539 30.557 39.0915C30.557 39.1685 30.6562 39.3116 30.7223 39.3116C31.4389 39.3336 32.1665 39.3336 32.8831 39.3446C33.0815 39.3446 33.1367 39.2455 33.1477 39.0585C33.1697 38.7284 33.2359 38.4094 33.269 38.0793C33.4233 36.726 33.2249 35.3947 32.9382 34.0634C32.9162 33.9644 32.817 33.8544 32.7288 33.8104C31.9571 33.3593 31.2736 32.7981 30.6893 32.116C29.0025 30.1686 28.1426 27.8691 27.7017 25.3715C27.6686 25.1515 27.5804 24.9094 27.4371 24.7554C25.8055 23.006 23.9975 21.4547 22.0572 20.0684C21.4399 19.6283 20.8005 19.1992 20.139 18.7481L20.161 18.7371ZM13.8662 26.7578C13.8662 26.7578 13.811 26.7908 13.789 26.8129C13.789 26.9339 13.789 27.0549 13.8221 27.1649C13.9874 27.9021 14.1307 28.6392 14.3512 29.3654C14.9355 31.3348 15.7293 33.2272 16.8427 34.9766C18.5846 37.7382 20.8335 39.9387 23.8432 41.292C24.3723 41.534 24.9346 41.6991 25.5299 41.9191C25.574 41.6111 25.6181 41.391 25.6291 41.16C25.7173 39.7627 25.2212 38.5194 24.6149 37.3091C23.8873 35.8348 22.9171 34.5035 21.8808 33.2382C21.3186 32.5451 20.7453 31.8409 20.0728 31.2578C19.0696 30.3886 18.0003 29.5855 16.9199 28.8043C15.9277 28.0891 14.8914 27.44 13.8662 26.7688V26.7578ZM19.9736 24.2933C19.9626 24.3923 19.9406 24.4253 19.9516 24.4693C20.1941 25.8446 20.3705 27.2419 20.7123 28.5952C21.1973 30.5207 22.0021 32.325 23.1156 33.9754C24.4605 35.9778 26.1252 37.6392 28.3631 38.6184C28.9364 38.8715 29.5427 39.0475 30.1491 39.2566C30.1491 38.7945 30.2042 38.4094 30.1491 38.0353C29.9506 36.836 29.5538 35.6918 29.0577 34.5805C27.9993 32.259 26.5 30.2456 24.7582 28.3972C23.5565 27.1209 22.2226 25.9767 20.8445 24.9094C20.5689 24.7004 20.2823 24.5023 19.9736 24.2823V24.2933ZM36.6755 34.2064C37.3259 33.9204 37.9433 33.6563 38.5386 33.3703C38.6378 33.3263 38.748 33.1722 38.748 33.0842C38.715 32.193 38.748 31.3018 38.5937 30.4326C38.2189 28.2762 37.3149 26.3177 36.2565 24.4143C35.2754 22.6539 34.1619 20.9816 32.85 19.4522C31.8027 18.22 30.6893 17.0427 29.6089 15.8435C29.4105 15.6234 29.2671 15.6454 29.1789 15.9315C28.8813 16.8227 28.5836 17.7139 28.286 18.5941C28.1537 18.9901 28.2308 19.2652 28.5616 19.5843C31.2074 22.1698 33.4564 25.0525 35.0108 28.4302C35.5951 29.6955 36.0691 30.9937 36.3447 32.369C36.455 32.9412 36.5542 33.5023 36.6865 34.2064H36.6755ZM39.1449 32.8862C39.1449 32.8862 39.2 32.9192 39.2331 32.9302C39.5638 32.6001 39.9056 32.292 40.2253 31.951C40.3355 31.8299 40.4237 31.6539 40.4348 31.4999C40.4568 30.6417 40.4789 29.7725 40.4348 28.9143C40.3686 27.363 39.9717 25.8666 39.4536 24.4033C38.6929 22.2909 37.6236 20.3324 36.3447 18.484C34.9336 16.4486 33.302 14.6002 31.5602 12.8508C31.4058 12.6968 31.3066 12.6858 31.1743 12.8728C30.6672 13.588 30.1601 14.3141 29.642 15.0293C29.5207 15.2053 29.5648 15.3263 29.6971 15.4584C30.0388 15.7884 30.3806 16.1075 30.7003 16.4486C33.6548 19.5293 36.1683 22.918 37.8661 26.8678C38.6488 28.6722 39.1559 30.5426 39.1339 32.5231C39.1339 32.6441 39.1449 32.7761 39.1559 32.8972L39.1449 32.8862ZM28.0875 19.6613C28.0434 19.9584 27.9663 20.2114 27.9663 20.4755C27.9552 21.7627 27.9442 23.061 27.9663 24.3483C27.9663 24.5794 28.0985 24.8544 28.2529 25.0415C28.8702 25.8336 29.5427 26.5818 30.1381 27.396C31.3838 29.1124 32.4752 30.9277 33.0485 32.9962C33.1146 33.2382 33.1918 33.5793 33.3682 33.6783C34.195 34.1074 35.099 34.2835 36.0361 34.1954C36.2125 34.1734 36.2676 34.1184 36.2345 33.9424C36.0802 33.1282 35.9699 32.292 35.7494 31.4999C35.1982 29.5304 34.3273 27.704 33.2579 25.9657C32.1335 24.1393 30.8105 22.4559 29.3333 20.8936C28.9364 20.4755 28.5064 20.0794 28.0655 19.6503L28.0875 19.6613ZM31.6374 12.4107C31.7256 12.4987 31.7807 12.5647 31.8358 12.6308C32.376 13.2029 32.9382 13.764 33.4674 14.3361C35.2754 16.3055 36.8849 18.429 38.1858 20.7725C39.2662 22.72 40.082 24.7774 40.534 26.9669C40.7986 28.2432 40.9198 29.5524 40.8647 30.8617C40.8647 30.9387 40.8647 31.0268 40.8757 31.1038C41.2065 30.6967 41.449 30.2676 41.7136 29.8385C42.0112 29.3544 42.1435 28.8373 42.1325 28.2542C42.1325 26.6368 41.912 25.0525 41.4931 23.4791C41.1624 22.2248 40.7104 21.0036 40.1481 19.8263C38.6157 16.5806 36.455 13.786 34.0296 11.1784C33.9635 11.1124 33.8202 11.0574 33.754 11.0794C32.9713 11.3655 32.2768 11.8166 31.6263 12.4107H31.6374ZM5.52076 30.0916C5.54281 30.3006 5.5428 30.3996 5.56485 30.4766C5.87353 31.2798 6.16016 32.094 6.51294 32.8752C8.07839 36.3629 10.3274 39.3006 13.5024 41.49C14.8804 42.4363 16.3577 43.1844 17.9782 43.6135C18.1105 43.6465 18.2869 43.5805 18.4082 43.5035C18.5405 43.4155 18.6397 43.2724 18.7499 43.1514C18.9043 42.9864 18.8932 42.8984 18.6617 42.7663C16.8207 41.7541 15.2111 40.4668 13.8 38.9045C11.9369 36.825 10.5258 34.4705 9.53361 31.8629C9.42336 31.5769 9.37926 31.2248 8.99341 31.0928C8.50834 30.9387 8.04532 30.6857 7.54923 30.5537C6.89879 30.3666 6.23735 30.2456 5.50974 30.0805L5.52076 30.0916ZM21.7926 32.5011C21.7926 32.5011 21.7926 32.4351 21.7816 32.4131C21.0209 30.8617 20.4256 29.2554 20.0949 27.572C19.8854 26.5158 19.7531 25.4375 19.6208 24.3593C19.5878 24.1062 19.5216 23.9302 19.3011 23.7982C17.7026 22.83 16.1151 21.8508 14.5166 20.8826C14.1969 20.6955 13.8551 20.5525 13.4913 20.3874C13.3149 21.9498 13.3811 23.4351 13.5024 24.9204C13.5575 25.6356 13.5134 26.4498 14.4505 26.7248C14.4946 26.7358 14.5276 26.7688 14.5607 26.7908C16.5561 28.0231 18.4633 29.3764 20.2382 30.9057C20.7894 31.3898 21.2745 31.951 21.7926 32.4901V32.5011ZM42.7499 70.6354C42.3861 69.8212 42.0994 69.073 41.7246 68.3579C40.6663 66.3445 39.178 64.6611 37.6236 63.0217C35.9258 61.2503 34.0517 59.666 32.1445 58.1147C31.7807 57.8176 31.3948 57.5315 30.9979 57.2235C30.9759 57.3005 30.9649 57.3335 30.9649 57.3555C31.1302 58.3347 31.2956 59.3139 31.472 60.2931C31.6043 60.9863 31.924 61.5364 32.5303 61.9875C33.4784 62.6917 34.3714 63.4618 35.2313 64.265C37.0393 65.9484 38.6488 67.7968 39.8284 69.9862C39.8725 70.0743 39.9607 70.1843 40.0489 70.2063C40.8757 70.4813 41.7246 70.6024 42.7388 70.6134L42.7499 70.6354ZM36.0912 56.9594C36.0912 56.9594 36.1022 56.9154 36.1022 56.8714C36.0802 55.7932 36.0581 54.7259 36.025 53.6477C36.025 53.5377 35.9368 53.4056 35.8597 53.3176C35.2864 52.7565 34.6911 52.2284 34.1399 51.6562C33.3241 50.8201 32.4752 50.0059 31.7366 49.1037C30.7775 47.9374 30.105 46.6171 29.9837 45.0548C27.415 44.9118 24.8574 44.8348 22.3108 44.9338C22.8399 45.1208 23.3581 45.2749 23.8762 45.4399C25.574 45.979 27.1174 46.8152 28.3742 48.1025C29.3663 49.1147 29.9617 50.336 30.2042 51.7333C30.2373 51.9203 30.3475 52.1294 30.4798 52.2504C32.3429 53.8347 34.2281 55.4081 36.1022 56.9814L36.0912 56.9594ZM8.29889 24.1613C8.29889 24.2933 8.29889 24.3373 8.29889 24.3813C8.40913 25.3055 8.45323 26.2407 8.64064 27.1539C8.88318 28.3752 9.23596 29.5634 9.55566 30.7737C9.58873 30.8947 9.71 31.0378 9.83127 31.0928C11.6723 32.039 13.4252 33.1392 15.0678 34.3825C15.7183 34.8666 16.3246 35.4057 17.0081 35.9558C16.953 35.8458 16.9199 35.7908 16.8979 35.7468C16.2805 34.6135 15.608 33.4913 15.0568 32.325C14.23 30.5757 13.7449 28.7163 13.4252 26.8238C13.3811 26.5268 13.2157 26.4058 12.9952 26.3067C12.0802 25.8446 11.1652 25.3715 10.2392 24.9424C9.63283 24.6564 8.9824 24.4473 8.29889 24.1723V24.1613ZM36.7526 49.9289C36.7085 50.0609 36.6755 50.1049 36.6755 50.1599C36.5873 51.1061 36.5101 52.0633 36.4219 53.0096C36.3999 53.2406 36.488 53.3946 36.6424 53.5487C38.8583 55.7381 41.008 57.9936 42.8381 60.5242C43.731 61.7675 44.5578 63.0547 45.2083 64.441C45.528 65.1342 45.8256 65.8273 46.1564 66.5645C46.6745 66.4215 47.1706 66.1794 47.6336 65.8603C47.6777 65.8273 47.6777 65.6953 47.6557 65.6293C47.4572 65.0352 47.2809 64.419 47.0383 63.8359C46.2887 61.9875 45.2414 60.3261 43.9846 58.7748C42.0112 56.3543 40.082 53.9007 38.1197 51.4582C37.7007 50.9411 37.2377 50.468 36.7526 49.9179V49.9289ZM9.87536 31.5109C9.87536 31.5109 9.83126 31.5659 9.80922 31.5879C11.6503 36.2969 14.5497 40.1258 19.1137 42.6123C19.1689 42.4913 19.224 42.3922 19.2681 42.2932C19.6209 41.402 19.5657 40.5108 19.224 39.6416C18.6397 38.1453 17.5814 37.0011 16.4128 35.9448C15.0127 34.6685 13.4472 33.6123 11.8377 32.6221C11.1983 32.226 10.5368 31.8849 9.88639 31.5109H9.87536ZM27.4371 24.2823L27.5253 24.2053C27.5253 23.8312 27.5253 23.4681 27.5253 23.094C27.5253 21.9388 27.5032 20.7945 27.7347 19.6503C27.7788 19.4192 27.7237 19.2322 27.5253 19.0782C27.1394 18.7591 26.7756 18.407 26.4008 18.0769C24.8243 16.7126 23.1486 15.4694 21.3737 14.3581C21.3517 14.3801 21.3296 14.3911 21.3296 14.4131C20.8445 15.6234 20.5248 16.8777 20.2603 18.154C20.2162 18.363 20.3485 18.44 20.4918 18.539C22.4541 19.8043 24.2952 21.2126 26.015 22.797C26.5221 23.2591 26.9631 23.7872 27.4371 24.2823V24.2823ZM45.7485 66.7515C45.7044 66.5755 45.6823 66.4655 45.6382 66.3554C44.8004 64.078 43.5657 62.0205 42.0663 60.1281C40.7986 58.5438 39.4315 57.0364 38.0866 55.5071C37.5905 54.935 37.0393 54.4179 36.455 53.8127C36.4219 53.9888 36.4109 54.0328 36.4109 54.0878C36.4329 55.111 36.455 56.1232 36.4991 57.1464C36.4991 57.3445 36.6203 57.5645 36.7637 57.7186C37.3038 58.2907 37.8771 58.8298 38.4173 59.4019C40.4788 61.5804 42.375 63.8909 43.8082 66.5535C43.8854 66.6965 44.1059 66.8396 44.2602 66.8506C44.7342 66.8506 45.2193 66.7956 45.7374 66.7625L45.7485 66.7515ZM40.3355 72.4068C40.3355 72.4068 40.3907 72.3298 40.4127 72.2857C40.2143 71.7796 40.0158 71.2735 39.8174 70.7674C39.7292 70.5584 39.5859 70.4373 39.3654 70.3493C37.811 69.7442 36.4219 68.853 35.2313 67.6867C33.6548 66.1464 32.5303 64.32 31.7586 62.2736C31.6153 61.8995 31.472 61.5364 31.1082 61.2833C30.2263 60.6892 29.3553 60.0511 28.4734 59.4459C28.0434 59.1489 27.6025 58.8848 27.0953 58.5548C27.1174 58.7638 27.1174 58.8848 27.1394 58.9949C27.4261 60.1171 27.7127 61.2393 27.9993 62.3616C28.0655 62.6367 28.2419 62.8017 28.4734 62.9557C30.7003 64.375 32.7398 66.0144 34.5368 67.9508C35.573 69.0621 36.5542 70.2283 37.2928 71.5706C37.4913 71.9337 37.7228 72.1867 38.1858 72.2087C38.9024 72.2417 39.619 72.3408 40.3355 72.4178V72.4068ZM19.4996 23.4571C19.4996 23.4571 19.5327 23.4021 19.5327 23.3801C19.4775 21.8618 19.5657 20.3544 19.8083 18.8581C19.8524 18.6161 19.7752 18.473 19.5657 18.352C18.4633 17.7249 17.3719 17.0757 16.2695 16.4596C15.6521 16.1185 15.0127 15.8214 14.3512 15.4914C14.23 15.9865 14.0866 16.4266 14.0095 16.8777C13.8441 17.7799 13.7339 18.6931 13.5575 19.5953C13.5024 19.9033 13.5906 20.0134 13.8441 20.1454C14.6489 20.5635 15.4537 20.9816 16.2364 21.4437C17.3388 22.0928 18.4082 22.786 19.5106 23.4571H19.4996ZM42.5514 27.8691C42.5514 27.8691 42.6286 27.748 42.6507 27.649C42.8601 26.7908 43.0696 25.9216 43.246 25.0635C43.3121 24.7444 43.4113 24.3923 43.3452 24.0953C43.1357 23.105 42.9263 22.0928 42.5955 21.1466C42.1546 19.8813 41.6144 18.6491 41.0742 17.4278C40.0599 15.1393 38.6929 13.0708 37.1275 11.1234C37.0282 11.0024 36.8849 10.8814 36.7416 10.8594C36.3888 10.7934 36.025 10.7383 35.6612 10.7493C35.2203 10.7493 34.7793 10.8264 34.2832 10.8704C34.3824 11.0134 34.4045 11.0794 34.4596 11.1344C37.1716 14.0281 39.5197 17.1857 40.986 20.8936C41.449 22.0598 41.8238 23.2701 42.0994 24.4803C42.353 25.6026 42.4081 26.7798 42.5514 27.8801V27.8691ZM27.8229 18.8691C27.856 18.8031 27.8781 18.7701 27.8891 18.7261C28.1426 17.6148 28.4954 16.5366 28.9695 15.5024C29.0025 15.4254 28.9254 15.2383 28.8482 15.1613C27.1946 13.588 25.3976 12.2017 23.5014 10.9364C23.2368 10.7603 23.1266 10.8264 23.0053 11.0574C22.5423 11.9376 22.0903 12.8178 21.6163 13.687C21.4729 13.94 21.5611 14.0611 21.7816 14.2041C23.9203 15.5684 25.9268 17.1197 27.8229 18.8801V18.8691ZM13.2929 26.0317C13.2488 25.6796 13.1827 25.4265 13.1716 25.1625C13.1386 23.5891 13.1275 22.0048 13.0945 20.4315C13.0945 20.3214 13.0063 20.1564 12.9181 20.1234C12.0031 19.7163 11.077 19.3202 10.1399 18.9571C9.62181 18.7481 9.07059 18.6051 8.51937 18.418C8.27684 20.1014 8.14454 21.7407 8.18864 23.3911C8.18864 23.6992 8.30992 23.8202 8.5745 23.9302C9.78717 24.4363 10.9999 24.9644 12.2125 25.4926C12.5543 25.6466 12.885 25.8336 13.2929 26.0427V26.0317ZM19.8744 18.11C19.8744 18.11 19.9185 18.0659 19.9295 18.0439C20.2492 16.8667 20.5469 15.6784 20.8997 14.5122C20.9989 14.1821 20.9328 14.0501 20.6682 13.907C19.5547 13.2909 18.4413 12.6528 17.3278 12.0366C16.8979 11.7946 16.4348 11.6075 15.9057 11.3545C15.4316 12.5647 14.9907 13.709 14.5387 14.8532C14.4615 15.0513 14.5056 15.1723 14.7261 15.2823C15.7293 15.7884 16.7325 16.3055 17.7136 16.8447C18.4413 17.2408 19.1578 17.6809 19.8744 18.11V18.11ZM23.4022 10.4413C25.4968 11.7946 27.404 13.2909 29.19 14.9523C29.2341 14.9302 29.2671 14.9193 29.2782 14.9083C29.8514 14.1271 30.4137 13.3349 30.9759 12.5427C31.02 12.4877 30.9759 12.3117 30.9208 12.2567C30.5129 11.8606 30.116 11.4645 29.675 11.1014C28.4513 10.0892 27.2166 9.09898 25.9929 8.09776C25.7945 7.93273 25.6512 7.95474 25.4858 8.11977C25.1551 8.44985 24.8133 8.76892 24.4936 9.121C24.1188 9.53909 23.777 9.99018 23.4022 10.4413V10.4413ZM4.31911 23.3361C4.41833 25.6246 4.74905 27.737 5.37744 29.8165C6.70036 29.8165 7.91303 30.2676 9.14775 30.7737C8.42015 28.5512 8.0343 26.3287 7.87996 23.9962C6.70036 23.7762 5.54281 23.5671 4.31911 23.3361ZM37.7889 73.463C37.7228 73.287 37.6346 73.1329 37.6015 72.9679C37.5023 72.5608 37.2487 72.3408 36.8408 72.2637C36.5983 72.2197 36.3558 72.1207 36.1242 72.0437C33.9304 71.3285 32.1555 70.0083 30.7003 68.2369C29.4766 66.7405 28.6057 65.0462 27.9332 63.2528C27.867 63.0877 27.7237 62.9227 27.5694 62.8347C26.9189 62.4386 26.2465 62.0645 25.574 61.7014C25.2212 61.5034 24.8354 61.3604 24.4164 61.1623C24.67 62.5926 25.122 63.8689 25.7063 65.1012C25.8275 65.3542 26.0039 65.4973 26.2465 65.6403C26.9961 66.0804 27.7568 66.5205 28.4734 67.0156C29.7963 67.9398 30.9759 69.04 32.0453 70.2393C32.7398 71.0095 33.3571 71.8457 34.0076 72.6378C34.1178 72.7699 34.2611 72.9239 34.4155 72.9679C35.5069 73.265 36.6203 73.441 37.7889 73.463V73.463ZM14.263 42.5353L14.2961 42.4693C13.811 42.1392 13.326 41.8201 12.8519 41.479C11.4518 40.4668 10.2392 39.2676 9.15879 37.9253C8.05635 36.561 7.13031 35.0866 6.40271 33.4913C5.95071 32.5011 5.58691 31.4669 5.20106 30.4546C5.13492 30.2786 5.04671 30.2236 4.85929 30.2566C4.28603 30.3666 3.80097 30.6197 3.47024 31.1038C3.39307 31.2138 3.37101 31.4228 3.41511 31.5439C3.97735 33.0952 4.69394 34.5805 5.63101 35.9448C6.18223 36.748 6.73344 37.5732 7.41694 38.2333C9.07059 39.8287 10.9888 41.072 13.0724 42.0402C13.4583 42.2162 13.8662 42.3702 14.263 42.5353V42.5353ZM30.3255 45.1648C30.4026 45.5389 30.4467 45.913 30.557 46.2761C30.9208 47.4423 31.5492 48.4766 32.376 49.3568C33.4343 50.49 34.5588 51.5572 35.6612 52.6465C35.7715 52.7565 35.8927 52.8445 36.0471 52.9765C36.0691 52.8555 36.0912 52.7895 36.0912 52.7235C36.1683 51.8103 36.2124 50.8861 36.3337 49.9729C36.3778 49.6428 36.2676 49.4448 36.0581 49.2357C35.7163 48.9057 35.3746 48.5536 35.0549 48.2015C34.3163 47.3983 33.7099 46.5181 33.3351 45.4839C33.302 45.3849 33.1256 45.2859 33.0044 45.2639C32.6847 45.2088 32.3539 45.1758 32.0232 45.1648C31.483 45.1538 30.9318 45.1648 30.3255 45.1648V45.1648ZM51.5693 60.8543C51.5693 60.8543 51.6134 60.8543 51.6465 60.8543C51.7567 60.3701 51.867 59.8861 51.9552 59.3909C51.9993 59.1599 52.0654 58.8958 51.9993 58.6868C51.6024 57.4655 51.2276 56.2222 50.7315 55.045C49.8385 52.8995 48.6479 50.9191 47.2368 49.0817C46.6525 48.3225 46.1343 47.4863 45.076 47.2993C44.8555 47.2553 44.646 47.1563 44.4255 47.0903C44.0728 46.9912 43.72 46.9032 43.268 46.7822C43.3672 46.9362 43.4113 47.0022 43.4554 47.0683C44.7673 48.7516 46.0902 50.413 47.3691 52.1184C48.7361 53.9558 49.8606 55.9362 50.6433 58.1037C50.974 59.0169 51.2606 59.9411 51.5693 60.8653V60.8543ZM13.1386 19.7713C13.1496 19.6943 13.1716 19.6173 13.1827 19.5293C13.4142 18.286 13.6347 17.0317 13.9103 15.7994C13.9874 15.4364 13.9654 15.2603 13.5906 15.1613C13.4032 15.1173 13.2378 14.9853 13.0504 14.9192C12.0141 14.5342 10.9888 14.1601 9.95254 13.775C9.7982 13.72 9.72102 13.742 9.66589 13.918C9.55565 14.2921 9.40133 14.6552 9.30211 15.0403C9.05957 15.9755 8.8501 16.9107 8.61859 17.8349C8.57449 18.0219 8.65166 18.0989 8.83907 18.154C9.32414 18.297 9.80921 18.44 10.2722 18.6161C11.2313 18.9791 12.1684 19.3752 13.1386 19.7603V19.7713ZM30.4026 52.7015C30.4026 52.7015 30.3585 52.7345 30.3255 52.7455C30.3806 53.0536 30.4357 53.3616 30.4798 53.6807C30.6121 54.5719 30.7444 55.4521 30.8436 56.3543C30.8767 56.6623 31.02 56.8494 31.2515 57.0144C33.1367 58.4557 34.9667 59.9741 36.6755 61.6134C36.8518 61.7785 37.0282 61.9325 37.2046 62.0975C37.1716 61.8995 37.1054 61.7234 37.0393 61.5584C36.5873 60.3701 36.3227 59.1269 36.1794 57.8616C36.1683 57.7296 36.0802 57.5866 35.9809 57.4985C34.6029 56.2773 33.2359 55.067 31.8468 53.8567C31.3838 53.4496 30.8767 53.0756 30.4026 52.6905V52.7015ZM37.1826 46.8812C37.0723 47.5083 36.9401 48.0695 36.8739 48.6526C36.8298 49.0157 36.6755 49.3568 37.0172 49.7528C38.8803 51.9313 40.7104 54.1538 42.5404 56.3653C42.9152 56.8164 43.257 57.2785 43.6649 57.7956C43.4885 56.8274 43.5105 55.9582 43.9074 55.122C43.9515 55.012 43.9295 54.8139 43.8633 54.7259C43.3893 54.0988 42.9042 53.4717 42.3861 52.8885C41.0631 51.3592 39.7182 49.8629 38.3842 48.3445C37.9874 47.8934 37.6125 47.4093 37.1936 46.9032L37.1826 46.8812ZM22.8289 10.5513C22.8289 10.5513 22.8069 10.5073 22.7628 10.4853C21.2855 9.67111 19.8083 8.85694 18.32 8.05376C18.2649 8.02075 18.0995 8.07576 18.0554 8.13077C17.4491 9.03297 16.8427 9.93516 16.2474 10.8484C16.1592 10.9804 16.1702 11.0794 16.3577 11.1784C17.1073 11.5415 17.8459 11.9156 18.5735 12.3227C19.4445 12.7958 20.2933 13.2909 21.1202 13.764C21.6824 12.6968 22.2557 11.6295 22.8289 10.5513ZM45.5059 53.4606C45.1752 53.0315 44.8445 52.5695 44.4917 52.1294C42.8932 50.1489 41.2947 48.1575 39.6961 46.1771C39.641 46.1 39.5528 46.012 39.4756 46.001C38.8583 45.902 38.2409 45.814 37.6125 45.748C37.5464 45.748 37.4031 45.847 37.4031 45.902C37.4031 46.1441 37.381 46.4411 37.5023 46.6062C37.9984 47.2883 38.5165 47.9484 39.0677 48.5866C40.3135 50.0279 41.5923 51.4362 42.8381 52.8775C43.3011 53.4056 43.731 53.9778 44.161 54.5059C44.6019 54.1648 45.0319 53.8237 45.4949 53.4606H45.5059ZM37.0282 71.9227C34.8895 68.3359 31.8689 65.6623 28.4072 63.4178C29.223 65.6733 30.4137 67.6868 32.1776 69.3261C33.5556 70.6134 35.1651 71.4936 37.0172 71.9227H37.0282ZM8.07841 18.352C7.21851 18.11 6.25938 17.9449 5.28924 17.9229C4.62778 17.9009 4.63881 17.8019 4.58369 18.528C4.57266 18.6821 4.50653 18.8251 4.49551 18.9791C4.41834 20.2334 4.36321 21.4987 4.28604 22.753C4.26399 23.028 4.38526 23.094 4.64985 23.127C5.30028 23.1931 5.9507 23.3031 6.60114 23.4131C7.02006 23.4791 7.41694 23.6001 7.78075 23.6772C7.87997 21.9168 7.97918 20.1674 8.08943 18.374L8.07841 18.352ZM26.037 7.66867C26.1032 7.73469 26.1252 7.76769 26.1583 7.80069C27.9332 9.06597 29.5868 10.4743 31.1413 12.0036C31.2956 12.1466 31.3948 12.1467 31.5602 12.0256C31.9901 11.7066 32.4311 11.3985 32.8721 11.1124C33.0815 10.9694 33.3241 10.8814 33.5887 10.7603C33.4784 10.6393 33.4012 10.5403 33.3241 10.4633C32.8721 10.0232 32.4421 9.55008 31.9681 9.14299C30.8767 8.19678 29.7742 7.27259 28.6718 6.34839C28.5946 6.28237 28.4293 6.23837 28.3521 6.28238C27.5363 6.64545 26.7646 7.09655 26.048 7.69068L26.037 7.66867ZM9.88639 13.3239C11.2975 13.874 12.6866 14.4021 14.0977 14.9523C14.1197 14.9082 14.1638 14.8312 14.1859 14.7542C14.3182 14.3801 14.4284 14.0061 14.5827 13.643C14.8914 12.9058 15.2111 12.1907 15.5198 11.4535C15.5529 11.3765 15.5198 11.2004 15.4647 11.1784C14.263 10.6943 13.0504 10.2322 11.8377 9.78113C11.7605 9.75912 11.6062 9.81415 11.5621 9.88016C10.8896 10.9804 10.3494 12.1356 9.88639 13.3239V13.3239ZM25.3204 7.64666C25.3204 7.64666 25.2984 7.62466 25.2543 7.60266C23.9314 6.82149 22.6084 6.04032 21.2745 5.27016C21.1863 5.21515 20.9768 5.27015 20.8997 5.33617C20.1169 6.05132 19.3453 6.77748 18.5846 7.50364C18.4854 7.60266 18.4413 7.70168 18.6287 7.81171C20.0729 8.59288 21.506 9.37405 22.9392 10.1552C23.0053 10.1882 23.1707 10.1552 23.2258 10.1002C23.9203 9.30804 24.6039 8.49386 25.3204 7.65768V7.64666ZM24.9566 48.2125C25.7945 49.8959 26.2795 51.6452 26.489 53.4826C26.5111 53.6367 26.6323 53.8237 26.7646 53.9117C27.7017 54.5499 28.6608 55.166 29.5979 55.7932C29.8845 55.9802 30.1601 56.1782 30.4688 56.3983C30.4688 56.2553 30.4688 56.1672 30.4688 56.0792C30.3255 55.089 30.1821 54.1098 30.0168 53.1196C29.9506 52.7235 29.9727 52.3054 29.5868 51.9973C28.319 50.9851 27.0843 49.9509 25.8275 48.9167C25.5409 48.6746 25.2432 48.4435 24.9456 48.2015L24.9566 48.2125ZM43.4003 66.7185C42.9373 65.1782 38.0535 59.0609 36.5762 58.1477C36.8959 60.3371 37.4141 62.3946 39.0126 63.9899C40.2473 65.2222 41.6144 66.2344 43.3893 66.7075L43.4003 66.7185ZM23.7329 65.0572C23.7329 65.0572 23.6999 65.1232 23.6778 65.1562C24.9236 67.7858 26.4008 70.2393 28.9695 71.8457C30.546 72.8359 32.2327 73.573 34.0406 74.0461C34.0958 73.518 33.9635 73.1989 33.6438 73.1109C32.5634 72.7919 31.6153 72.2197 30.7003 71.5706C28.6167 70.0633 26.963 68.1928 25.7283 65.9594C25.6732 65.8713 25.6181 65.7503 25.5299 65.7173C24.9346 65.4863 24.3282 65.2772 23.7329 65.0572V65.0572ZM4.72701 17.4278C5.88456 17.6038 6.96495 17.7799 8.05635 17.9339C8.1225 17.9339 8.25479 17.8019 8.27684 17.7139C8.4863 16.8777 8.66268 16.0305 8.87214 15.1943C9.00443 14.6662 9.19186 14.1601 9.36825 13.61C8.34299 13.3239 7.32875 13.1149 6.28144 13.0599C6.02788 13.0489 5.92866 13.1479 5.86251 13.3569C5.66407 13.995 5.43256 14.6222 5.25617 15.2603C5.05773 15.9865 4.90339 16.7236 4.73803 17.4278H4.72701ZM30.1711 39.5866C27.9773 39.1355 26.2024 38.0023 24.6259 36.4949C25.5189 38.2113 26.2465 39.9497 25.8827 41.9521C25.9819 41.9962 26.0701 42.0512 26.1693 42.0622C27.0182 42.1502 27.8781 42.2052 28.7159 42.3262C29.2781 42.4032 29.5538 42.1612 29.7302 41.6661C29.9617 40.9949 30.1491 40.3128 30.1821 39.5866H30.1711ZM19.4555 42.7663C19.6209 42.8543 19.7752 42.9423 19.9406 43.0084C20.8225 43.3164 21.7155 43.6135 22.5974 43.9216C23.3471 44.1856 24.0085 44.0866 24.5708 43.4815C24.9125 43.1184 25.2322 42.7443 25.3645 42.2162C22.9281 41.5341 20.9107 40.2028 19.1027 38.4974C19.8524 39.8727 20.128 41.259 19.4665 42.7553L19.4555 42.7663ZM17.7908 7.7457C16.6443 7.3056 15.4647 6.85449 14.2851 6.4254C14.2079 6.39239 14.0315 6.45842 13.9764 6.52443C13.2488 7.43763 12.5322 8.35082 11.8046 9.28603C11.9149 9.36304 11.9479 9.39605 11.981 9.40705C13.1827 9.88016 14.3733 10.3533 15.5749 10.8044C15.6521 10.8374 15.8285 10.7934 15.8726 10.7273C16.501 9.75913 17.1183 8.79092 17.7798 7.7457H17.7908ZM26.6544 54.2528C26.6544 54.2528 26.5662 54.2968 26.5331 54.3188C26.6654 55.5181 26.7867 56.7064 26.941 57.9056C26.952 58.0266 27.0953 58.1587 27.2166 58.2357C27.7789 58.6098 28.3631 58.9508 28.9254 59.3359C29.686 59.853 30.4467 60.3922 31.2405 60.9533C31.2184 60.8213 31.2184 60.7222 31.1964 60.6342C30.8767 59.534 30.6452 58.4227 30.6011 57.2785C30.59 57.0144 30.5019 56.8494 30.2924 56.7064C29.7302 56.3103 29.1789 55.8922 28.6167 55.5071C27.9773 55.078 27.3158 54.6709 26.6654 54.2528H26.6544ZM40.1812 46.1001C40.1812 46.1001 40.1481 46.1551 40.1371 46.1771C40.4899 46.6282 40.8426 47.0903 41.2065 47.5414C42.7058 49.4118 44.2161 51.2822 45.7154 53.1526C45.8367 53.3066 45.9469 53.3836 46.1564 53.3616C46.6525 53.3066 47.1486 53.3396 47.6006 53.5597C47.7328 53.6257 47.8541 53.6807 47.9864 53.7467C47.5675 53.0206 47.1155 52.3384 46.6194 51.6893C45.3736 50.0719 44.1059 48.4656 42.8381 46.8702C42.7278 46.7272 42.5514 46.5841 42.375 46.5401C41.6474 46.3751 40.9198 46.2431 40.1922 46.1001H40.1812ZM4.98056 29.8165C4.34115 27.693 4.05453 25.5586 3.92224 23.3031C3.26078 23.4461 2.65445 23.5671 2.04811 23.7212C1.93786 23.7542 1.80557 23.9192 1.80557 24.0402C1.78352 24.3593 1.80556 24.6784 1.84966 24.9864C2.0481 26.1967 2.23551 27.407 2.48907 28.6062C2.64341 29.3544 2.89698 30.0695 3.11747 30.8727C3.61356 30.2126 4.25296 29.9595 4.98056 29.8055V29.8165ZM36.5542 10.3973C36.1794 9.97917 35.8707 9.61609 35.54 9.26402C34.3273 7.94373 33.0044 6.73347 31.5822 5.62223C31.472 5.53421 31.3066 5.4682 31.1743 5.47921C30.7444 5.52322 30.3255 5.58922 29.9065 5.68824C29.5758 5.76525 29.2561 5.88628 28.8923 5.9963C28.9805 6.07332 29.0246 6.11733 29.0577 6.15034C30.6893 7.40461 32.2216 8.77991 33.6438 10.2652C33.8863 10.5183 34.0737 10.6173 34.4265 10.5073C34.6801 10.4193 34.9667 10.4083 35.2423 10.3973C35.6502 10.3863 36.0691 10.3973 36.5542 10.3973V10.3973ZM11.2203 9.55009C10.8896 9.46207 10.5479 9.35203 10.1951 9.29702C9.52259 9.187 8.85011 9.08798 8.17762 9.01097C8.08943 9.01097 7.93508 9.08798 7.89098 9.17599C7.32874 10.2542 6.77754 11.3435 6.2153 12.4327C6.11608 12.6308 6.18222 12.7188 6.40271 12.7298C6.71139 12.7408 7.02007 12.7518 7.31773 12.8068C8.04533 12.9388 8.77294 13.0819 9.45645 13.2139C10.0297 12.0146 10.614 10.8154 11.2203 9.56109V9.55009ZM20.7012 4.89606C19.5988 4.51098 18.5294 4.13691 17.4601 3.75182C17.2176 3.6638 17.0522 3.70782 16.8648 3.86185C16.4569 4.20293 16.0049 4.51099 15.619 4.87407C15.2111 5.24815 14.8473 5.67724 14.4725 6.07333C14.5386 6.10633 14.6379 6.15034 14.7371 6.19435C15.608 6.53543 16.49 6.85449 17.3609 7.21757C18.0444 7.50363 18.0334 7.52565 18.5405 6.98653C18.5625 6.96452 18.5846 6.94252 18.6066 6.92052C19.2791 6.27138 19.9516 5.62222 20.7012 4.89606V4.89606ZM28.0765 5.88629C28.0765 5.88629 27.9993 5.80927 27.9442 5.77626C26.7426 5.0281 25.5409 4.27994 24.3282 3.55379C24.218 3.48777 24.0196 3.49877 23.8983 3.55379C23.5676 3.67481 23.2479 3.81784 22.9502 3.98288C22.4541 4.25794 21.969 4.56599 21.4619 4.86306C22.9171 5.72124 24.3172 6.55742 25.6953 7.3716C26.478 6.8875 27.2828 6.3814 28.0765 5.88629ZM39.3544 69.8982C37.5243 66.7295 34.9226 64.342 32.0783 62.0865C32.8721 65.1672 37.0613 69.6562 39.3544 69.8982ZM33.3351 34.1404C33.6768 35.8458 33.7981 37.5072 33.4784 39.1905C33.5446 39.2015 33.5887 39.2236 33.6107 39.2236C34.3383 38.9925 35.0659 38.7615 35.7825 38.5194C35.8597 38.4974 35.9368 38.3764 35.9589 38.2993C36.2014 37.3311 36.3668 36.3519 36.3117 35.3397C36.3006 35.0867 36.3117 34.8226 36.3117 34.5915C35.7605 34.5585 35.2754 34.5585 34.8013 34.4925C34.3163 34.4155 33.8532 34.2725 33.3351 34.1514V34.1404ZM35.8376 6.35938L35.7825 6.4254C39.6741 10.3643 42.6947 14.8092 43.9625 20.3544C43.9846 20.2334 43.9956 20.1894 43.9956 20.1454C43.8523 19.2212 43.7531 18.297 43.5546 17.3948C43.2129 15.8545 42.6837 14.3801 42.0223 12.9498C40.8978 10.4963 39.2551 8.49386 36.9841 7.01953C36.6203 6.77748 36.2235 6.57943 35.8486 6.35938H35.8376ZM4.20886 17.8789C3.53638 17.9119 2.85288 18.0219 2.21347 18.275C2.11425 18.319 2.01503 18.473 2.004 18.5941C1.92683 19.2542 1.82762 19.9253 1.80557 20.5855C1.7725 21.5097 1.80557 22.4449 1.80557 23.3361C2.5001 23.2151 3.20565 23.094 3.86711 22.973C3.97736 21.3006 4.09863 19.6173 4.2199 17.8789H4.20886ZM45.4398 46.9912C45.3516 46.8702 45.2965 46.8042 45.2414 46.7382C43.5105 44.8458 41.923 42.8543 40.523 40.7089C40.1151 40.0927 39.6631 39.5206 39.0126 39.0475C39.0347 39.2786 39.0457 39.4656 39.0788 39.6416C39.2662 40.5988 39.6631 41.49 40.1261 42.3482C40.8537 43.7015 41.7577 44.9228 42.7278 46.111C42.794 46.1881 42.8932 46.2541 42.9814 46.2871C43.7751 46.5181 44.5689 46.7492 45.4508 46.9912H45.4398ZM13.7559 6.15034C12.7637 5.9743 11.8487 5.80928 10.9447 5.63324C10.6912 5.58923 10.5037 5.68823 10.3384 5.87528C9.88638 6.4364 9.41235 6.97552 8.97137 7.54764C8.71781 7.86671 8.49733 8.20779 8.24377 8.58187C8.39811 8.60388 8.4863 8.62589 8.5745 8.63689C9.46747 8.81293 10.3604 8.96696 11.2424 9.165C11.4298 9.20901 11.507 9.18701 11.6062 9.03297C12.0913 8.33982 12.5873 7.64667 13.0945 6.96452C13.2819 6.71146 13.4913 6.48041 13.7559 6.15034V6.15034ZM43.3782 22.3239C43.4334 21.0696 43.279 19.8373 43.0034 18.6161C42.7719 17.5928 42.4081 16.6246 41.9782 15.6784C41.2616 14.1161 40.2914 12.7518 38.8583 11.7616C38.5055 11.5195 38.1086 11.3325 37.7448 11.1124C37.7228 11.1344 37.7007 11.1674 37.6897 11.1894C40.3135 14.5342 42.1766 18.264 43.4003 22.3239H43.3782ZM39.9828 12.1356C39.9497 12.0696 39.9166 11.9926 39.8725 11.9266C38.5717 9.97917 37.0503 8.19679 35.3856 6.55744C34.9887 6.16135 34.6029 5.75425 33.9966 5.68824C33.8202 5.66623 33.6548 5.60023 33.4784 5.57822C33.0154 5.52321 32.5524 5.46819 32.0232 5.41318C32.1445 5.55621 32.1996 5.63324 32.2657 5.69925C33.9966 7.11856 35.5841 8.68089 37.0172 10.3973C37.0834 10.4743 37.1716 10.5623 37.2708 10.5953C38.285 10.9034 39.1559 11.4645 39.9717 12.1467L39.9828 12.1356ZM27.5584 62.3506C27.5584 62.2846 27.5584 62.2516 27.5584 62.2296C27.3379 61.3714 27.1064 60.5242 26.8859 59.666C26.7756 59.2149 26.8087 58.6648 26.5551 58.3237C26.3016 57.9826 25.7724 57.8396 25.3535 57.6306C24.9566 57.4325 24.5597 57.2565 24.1518 57.0694C24.1188 57.1575 24.0967 57.1905 24.0967 57.2235C24.1408 58.3017 24.1849 59.3689 24.2621 60.4362C24.2621 60.5792 24.4385 60.7552 24.5818 60.8323C25.0669 61.0963 25.585 61.3274 26.0701 61.5804C26.5662 61.8335 27.0402 62.0975 27.5473 62.3726L27.5584 62.3506ZM22.5202 45.3739C22.5202 45.3739 22.4762 45.4619 22.4541 45.5169C24.8574 47.5524 27.2607 49.5988 29.7081 51.6783C29.7302 51.5352 29.7522 51.5022 29.7412 51.4692C29.7412 51.4142 29.7412 51.3592 29.7191 51.3042C29.4766 50.336 29.0577 49.4558 28.4072 48.6966C27.1615 47.2333 25.5409 46.3641 23.755 45.748C23.3471 45.6049 22.9282 45.4949 22.5092 45.3739H22.5202ZM22.5974 45.99C22.5423 46.4851 22.6305 46.8482 22.851 47.1893C22.9612 47.3543 23.0163 47.5634 23.0935 47.7614C23.5786 49.0927 23.766 50.479 23.8873 51.8763C23.9314 52.3714 24.0967 52.6025 24.5377 52.7675C25.0669 52.9655 25.574 53.2406 26.1362 53.5047C25.7063 50.633 24.9125 47.9925 22.5974 45.99V45.99ZM5.54281 13.0378C4.77111 12.9828 4.06555 13.1479 3.38204 13.3899C3.29385 13.4229 3.21668 13.5439 3.19463 13.632C2.908 14.5892 2.62137 15.5354 2.35679 16.4926C2.23552 16.9327 2.18039 17.3838 2.10322 17.8349C2.72058 17.7359 3.29385 17.6258 3.86711 17.5488C4.38526 17.4828 4.35218 17.4828 4.46242 16.9987C4.63881 16.1845 4.84827 15.3814 5.06876 14.5892C5.21207 14.0721 5.38847 13.577 5.55383 13.0378H5.54281ZM33.4784 72.6378C32.6736 70.8884 27.8119 66.5095 26.1913 66.0584C28.0104 68.996 30.3034 71.2955 33.4784 72.6378ZM32.7618 33.3153C31.8689 30.2896 30.1711 27.8581 28.1647 25.5146C28.0434 27.8361 30.7223 32.4021 32.7618 33.3153ZM44.3815 54.7699C44.624 55.1 44.8004 55.3201 44.9547 55.5511C45.7485 56.7724 46.5533 58.0046 47.336 59.2369C47.4903 59.479 47.6006 59.49 47.788 59.3249C48.0085 59.1269 48.2289 58.9398 48.4274 58.7308C48.5707 58.5878 48.5707 58.4227 48.4715 58.2247C47.7329 56.7504 46.8619 55.3641 45.9028 54.0108C45.7705 53.8237 45.6162 53.7907 45.4618 53.9007C45.087 54.1758 44.7342 54.4729 44.3704 54.7699H44.3815ZM47.9974 65.6183C48.3502 65.3432 48.6258 65.1012 48.9345 64.8921C49.2322 64.6941 49.2432 64.463 49.155 64.155C48.7361 62.7467 48.1077 61.4264 47.4021 60.1391C47.358 60.0621 47.2257 59.9741 47.1706 59.9961C46.5092 60.1611 45.8697 60.0731 45.1642 59.754C46.432 61.5914 47.3801 63.4728 47.9974 65.6073V65.6183ZM49.5298 49.4448C49.4747 49.3347 49.4637 49.2797 49.4306 49.2467C48.6809 48.2125 47.9533 47.1563 47.1706 46.155C46.6855 45.5389 46.2335 44.8898 45.528 44.4827C44.4696 43.8666 43.4334 43.2284 42.3861 42.6013C42.3861 42.6013 42.353 42.6123 42.3199 42.6343C42.375 42.7113 42.4191 42.7993 42.4853 42.8763C43.5105 44.1086 44.5358 45.3519 45.5721 46.5731C45.9249 46.9912 46.2997 47.3873 46.8399 47.6294C47.358 47.8604 47.8431 48.1685 48.3061 48.4766C48.714 48.7516 49.0888 49.0817 49.5408 49.4448H49.5298ZM17.5814 3.33372C18.6507 3.76282 19.698 4.16991 20.7343 4.588C20.9438 4.67602 21.0981 4.67603 21.2965 4.533C21.6273 4.27994 21.9911 4.07089 22.3439 3.87285C22.7518 3.6418 23.1817 3.43276 23.6999 3.1577C22.7959 2.79462 21.9801 2.49755 21.1863 2.15648C20.6461 1.92543 20.15 1.85941 19.6319 2.18948C19.3783 2.34352 19.1027 2.45354 18.8491 2.59657C18.4192 2.83862 17.9893 3.10269 17.5814 3.34474V3.33372ZM24.6038 3.17969C24.692 3.27871 24.7031 3.30073 24.7141 3.31173C25.9268 4.0819 27.1394 4.85206 28.3631 5.61123C28.4513 5.66624 28.6057 5.67724 28.7159 5.65523C29.1679 5.54521 29.6199 5.40217 30.0719 5.29215C30.3255 5.22614 30.59 5.17114 30.8546 5.11612L30.8987 5.0281C30.8987 5.0281 30.8105 5.00609 30.7775 4.98408C29.7853 4.32394 28.8041 3.6638 27.8119 2.99265C27.4261 2.7286 27.0402 2.53055 26.5441 2.68459C25.9157 2.87163 25.2763 3.00365 24.5928 3.17969H24.6038ZM38.748 39.9277C38.6819 40.0377 38.6268 40.0927 38.6157 40.1478C38.5055 40.6429 38.3842 41.127 38.296 41.6221C38.2189 42.0512 38.0315 42.4913 38.274 42.9314C38.726 43.7565 39.1449 44.5927 39.6079 45.3959C39.7071 45.5609 39.9607 45.671 40.1591 45.737C40.4899 45.836 40.8427 45.88 41.1954 45.935C41.5041 45.99 41.8238 46.045 42.1325 46.089C41.46 45.0988 40.7986 44.1526 40.1702 43.1844C39.5308 42.2052 39.0567 41.138 38.748 39.9277ZM10.9778 5.21514C11.9038 5.43519 12.7748 5.63322 13.6457 5.84227C13.8551 5.88628 14.0315 5.9083 14.1969 5.69925C14.3953 5.44619 14.6489 5.22614 14.8914 5.00609C15.4426 4.52199 16.0049 4.03788 16.5892 3.54277C16.4899 3.49876 16.4017 3.44376 16.3136 3.43276C15.7293 3.32274 15.145 3.2347 14.5607 3.12468C13.9764 3.02565 13.4362 3.05867 12.9732 3.50977C12.7527 3.72982 12.4661 3.88385 12.2235 4.09289C11.7936 4.45597 11.3857 4.84106 10.9668 5.21514H10.9778ZM24.0747 52.9325C24.0747 54.1318 24.0747 55.254 24.0747 56.3873C24.0747 56.4973 24.1959 56.6623 24.2952 56.7174C24.8023 56.9814 25.3204 57.2125 25.8275 57.4545C26.048 57.5645 26.2465 57.6746 26.467 57.7956C26.3788 56.6183 26.3016 55.5071 26.2024 54.3959C26.1913 54.2308 26.1472 53.9778 26.037 53.9228C25.3866 53.5597 24.7031 53.2516 24.0637 52.9325H24.0747ZM52.0654 57.5425C52.1646 56.1562 51.8229 53.8457 50.9078 52.0633C50.0039 50.292 48.3502 48.7186 46.906 48.1025C49.2101 50.9741 50.9299 54.0988 52.0544 57.5425H52.0654ZM3.45922 12.8948C4.20887 12.8068 4.9034 12.7408 5.5869 12.6418C5.66407 12.6418 5.75227 12.5097 5.79637 12.4217C6.21529 11.5745 6.61216 10.7163 7.03109 9.85815C7.1744 9.56109 7.3508 9.27502 7.50514 8.98896C7.48309 8.95595 7.47206 8.91195 7.45001 8.87894C6.79958 8.98897 6.13812 9.08798 5.49871 9.23101C5.34437 9.26402 5.16798 9.40706 5.09081 9.55009C4.68291 10.2872 4.29706 11.0244 3.92224 11.7836C3.74585 12.1357 3.61356 12.5207 3.45922 12.8948ZM40.556 65.8163C41.5703 67.2907 42.4963 68.809 43.0034 70.6244C43.5216 70.5144 44.0066 70.4263 44.4917 70.3053C44.5579 70.2833 44.635 70.0963 44.624 70.0083C44.4807 69.051 44.1499 68.1488 43.709 67.2907C43.6649 67.1916 43.5216 67.1256 43.4113 67.0816C42.9373 66.9166 42.4412 66.7955 41.9892 66.5975C41.4931 66.3775 41.0301 66.0804 40.556 65.8273V65.8163ZM21.9801 64.9582C22.862 66.7956 23.9975 68.3689 25.3755 69.7882C27.3379 71.7906 29.5979 73.298 32.3209 74.0791C32.6957 74.1892 33.0705 74.2552 33.4453 74.3432C33.3241 74.2332 33.1918 74.1782 33.0705 74.1232C32.0453 73.7051 30.9869 73.342 29.9947 72.8359C28.308 71.9887 26.8418 70.8444 25.6842 69.3151C24.7141 68.0388 23.9644 66.6305 23.2699 65.2002C23.2148 65.1012 23.1045 64.9582 23.0163 64.9582C22.6966 64.9252 22.3659 64.9471 21.9801 64.9471V64.9582ZM22.1895 60.3041C22.2005 60.5132 22.1895 60.6782 22.2336 60.8102C22.5313 61.8555 22.862 62.9007 23.1486 63.9569C23.292 64.474 23.5676 64.7601 24.1298 64.8261C24.5046 64.8701 24.8684 65.0352 25.2763 65.1562C25.2543 65.0682 25.2543 65.0352 25.2322 64.9912C24.659 63.7479 24.24 62.4496 23.9865 61.0963C23.9755 61.0193 23.8873 60.9203 23.8101 60.8873C23.2919 60.6892 22.7738 60.5022 22.1895 60.2931V60.3041ZM47.6006 45.957C47.6006 45.957 47.5565 46.001 47.5344 46.023C48.8132 47.5964 49.9487 49.2687 50.9189 51.0401C51.889 52.8225 52.6387 54.6929 53.245 56.6403C53.267 55.9912 53.2781 55.3311 53.1458 54.7149C53.0135 54.0988 52.771 53.5047 52.5394 52.9215C52.1095 51.8873 51.7126 50.8311 51.1945 49.8409C50.5882 48.6966 49.629 47.7944 48.703 46.9142C48.3502 46.5841 47.9754 46.2761 47.6116 45.957H47.6006ZM47.1265 59.633C46.2887 58.0926 45.3185 56.6403 44.2381 55.21C44.172 55.3421 44.1279 55.4081 44.0948 55.4851C43.8302 56.2113 43.8082 56.9374 44.0066 57.6746C44.3594 58.9948 45.7485 60.0841 47.1265 59.633ZM36.4109 49.0707C36.444 48.8506 36.466 48.7296 36.488 48.6086C36.5652 48.1135 36.5983 47.5964 36.7416 47.1233C36.907 46.5952 36.8629 46.144 36.5101 45.726C36.444 45.6489 36.3337 45.5719 36.2345 45.5499C35.5951 45.4619 34.9446 45.3959 34.3052 45.3299C34.1068 45.3079 33.8973 45.3299 33.6548 45.3299C34.195 46.8372 35.2423 47.9374 36.4109 49.0707V49.0707ZM27.8229 2.53055C27.9442 2.62958 27.9993 2.68459 28.0655 2.71759C29.1459 3.45475 30.2262 4.20292 31.3176 4.94008C31.4279 5.0171 31.5492 5.09411 31.6704 5.10511C32.4311 5.16012 33.1918 5.20414 33.9304 5.24815C33.8973 5.21514 33.8312 5.12712 33.743 5.06111C32.9272 4.40097 32.1114 3.75183 31.2846 3.10268C31.1082 2.95965 30.9097 2.78361 30.7003 2.7396C29.7853 2.54156 28.8592 2.45353 27.834 2.54155L27.8229 2.53055ZM23.8873 60.5022C23.8652 60.2711 23.8211 60.0511 23.8101 59.82C23.766 58.9178 23.744 58.0266 23.6999 57.1244C23.6999 57.0254 23.6337 56.8714 23.5565 56.8384C23.0274 56.6403 22.4872 56.4753 21.9139 56.2883C21.8478 57.4985 21.947 58.6318 22.0903 59.765C22.0903 59.842 22.1895 59.9521 22.2667 59.9741C22.7959 60.1501 23.325 60.3151 23.8762 60.4912L23.8873 60.5022ZM5.61997 8.73591C6.31451 8.6919 6.987 8.65888 7.65948 8.59287C7.7587 8.59287 7.86893 8.46084 7.9461 8.37282C8.40913 7.76769 8.8501 7.15155 9.31313 6.54642C9.55566 6.22735 9.82025 5.9303 10.0738 5.63324C10.0628 5.60023 10.0407 5.56722 10.0297 5.54522C9.51156 5.61123 8.99342 5.66624 8.4863 5.74325C8.04533 5.80927 7.65948 5.99631 7.38387 6.38139C6.87675 7.06354 6.34758 7.73468 5.82944 8.40583C5.74124 8.51585 5.6751 8.64788 5.61997 8.7469V8.73591ZM49.596 56.4533C49.596 56.4533 49.5519 56.4533 49.5188 56.4643C49.4967 56.5193 49.4637 56.5743 49.4637 56.6403C49.4416 57.2345 49.3645 57.8176 49.0888 58.3567C49.0447 58.4447 49.0558 58.5768 49.0888 58.6648C49.7393 60.0511 50.2133 61.4924 50.6322 62.9777C50.8527 62.6146 51.0512 62.2626 51.1945 61.8775C51.2717 61.6684 51.2937 61.3934 51.2386 61.1843C50.996 60.3151 50.7315 59.4459 50.4338 58.5878C50.1803 57.8616 49.8716 57.1575 49.5849 56.4423L49.596 56.4533ZM43.1798 41.468C43.698 41.9631 44.2271 42.4472 44.7453 42.9424C45.2965 43.4815 45.7705 44.0976 46.3769 44.5487C47.5785 45.4619 48.7691 46.3861 49.8275 47.4643C49.8495 47.4863 49.8826 47.4974 49.9046 47.5084C48.2841 44.8018 46.3879 42.3922 43.1908 41.457L43.1798 41.468ZM21.9249 55.9362C22.5203 56.1122 23.0935 56.2883 23.6668 56.4643C23.6668 56.4643 23.6778 56.4643 23.6778 56.4423C23.6558 55.265 23.6337 54.0768 23.6006 52.8995C23.6006 52.8445 23.5235 52.7565 23.4683 52.7345C23.0384 52.6135 22.5974 52.5034 22.1124 52.3714C22.0462 53.6037 21.9801 54.7699 21.9249 55.9252V55.9362ZM37.2818 40.4228C36.8519 40.8079 36.3888 41.215 35.9368 41.6441C35.8486 41.7321 35.7825 41.8861 35.7935 42.0072C35.8817 43.0634 36.1573 44.0646 36.5983 45.0328C36.6975 45.2529 36.8629 45.2639 37.0282 45.2419C37.1054 45.2419 37.1936 45.0658 37.2267 44.9558C37.3369 44.5157 37.4361 44.0646 37.5354 43.6135C37.6125 43.2284 37.7669 42.8323 37.7228 42.4582C37.6456 41.7651 37.4362 41.083 37.2928 40.4228H37.2818ZM20.9769 1.61735C22.0462 2.09046 23.0384 2.54156 24.0306 2.98166C24.0967 3.01466 24.1849 3.00366 24.2511 2.98166C25.0117 2.75061 25.7614 2.51956 26.5331 2.2775C26.4449 2.22249 26.3457 2.13446 26.2354 2.07945C25.6181 1.76038 24.9787 1.47432 24.3723 1.13325C23.9314 0.891193 23.5014 0.902199 23.0494 1.03423C22.9392 1.06724 22.84 1.07825 22.7297 1.11125C22.1564 1.27629 21.5832 1.44132 20.9769 1.60636V1.61735ZM49.629 64.254C49.7944 64.089 49.9928 63.9129 50.1472 63.6929C50.2354 63.5718 50.2905 63.3738 50.2574 63.2308C50.0369 62.4056 49.8164 61.5804 49.5519 60.7772C49.3424 60.1501 49.0778 59.556 48.8353 58.9398C48.4604 59.2369 48.1297 59.49 47.81 59.776C47.7659 59.82 47.7549 59.9741 47.799 60.0511C48.0526 60.5902 48.3502 61.1183 48.5817 61.6684C48.9455 62.5046 49.2652 63.3628 49.629 64.265V64.254ZM35.3525 42.1062C34.8124 42.3922 34.2281 42.6893 33.6438 43.0084C33.5887 43.0414 33.5446 43.1184 33.5225 43.1844C33.3792 43.7565 33.4013 44.3287 33.5556 44.9228C34.4375 45.0108 35.3084 45.0878 36.1573 45.1648C35.8817 44.1306 35.6171 43.1184 35.3525 42.1172V42.1062ZM38.6598 33.7664C37.9874 34.0194 37.3149 34.2835 36.6314 34.5365C36.7857 35.7358 36.6203 36.9351 36.4219 38.1563C36.8629 37.9143 37.2597 37.6392 37.6566 37.3641C37.7448 37.2981 37.822 37.2101 37.8551 37.1111C38.2299 36.0219 38.5827 34.9216 38.6598 33.7664ZM19.676 1.74938C19.676 1.74938 19.665 1.69438 19.6539 1.66137C19.1027 1.55135 18.5515 1.40831 17.9893 1.3313C17.6585 1.28729 17.2727 1.24328 16.986 1.35331C16.2364 1.63937 15.5198 2.01345 14.7922 2.36553C14.6158 2.45354 14.4505 2.57456 14.2741 2.68459C15.1781 2.87163 16.038 3.04767 16.8979 3.2017C17.0191 3.22371 17.1735 3.1687 17.2947 3.10268C17.9782 2.7286 18.6617 2.33251 19.3452 1.94743C19.4665 1.88141 19.5768 1.81539 19.698 1.74938H19.676ZM22.9281 64.5951C22.5202 63.1318 22.1123 61.6794 21.6934 60.1721C21.3847 60.1171 20.9768 60.0401 20.5028 59.9411C20.6682 60.7222 20.7894 61.4374 20.9879 62.1195C21.2084 62.8897 21.506 63.6489 21.7816 64.397C21.8147 64.485 21.969 64.5621 22.0682 64.5731C22.3659 64.5951 22.6525 64.5731 22.9392 64.5731L22.9281 64.5951ZM2.62136 31.9069C2.78672 31.5439 2.91902 31.3018 2.79775 30.9607C2.55522 30.2676 2.32371 29.5524 2.14732 28.8373C1.81659 27.44 1.55202 26.0317 1.46382 24.6014C1.46382 24.4473 1.41972 24.2933 1.37562 24.0953C0.625971 24.8104 0.548791 25.6466 0.780302 26.5158C1.08898 27.682 1.43075 28.8483 1.80557 30.0035C2.01503 30.6307 2.31269 31.2248 2.61034 31.918L2.62136 31.9069ZM0.482658 24.5793C0.747241 24.2823 0.934643 24.0182 1.17718 23.8202C1.36459 23.6662 1.4087 23.5121 1.4087 23.2921C1.43074 22.0818 1.4528 20.8825 1.49689 19.6833C1.50792 19.3092 1.58509 18.9351 1.61816 18.55C1.59611 18.528 1.57406 18.517 1.54098 18.495C1.25435 18.7041 0.956695 18.9021 0.681087 19.1112C0.603917 19.1662 0.559825 19.2982 0.548801 19.3972C0.471631 20.4975 0.394463 21.6087 0.36139 22.7089C0.350365 23.3031 0.427525 23.9082 0.471623 24.5793H0.482658ZM29.8955 42.2712C30.3916 42.1832 30.9318 42.0952 31.461 41.9851C31.6594 41.9411 31.935 41.9191 32.0342 41.7871C32.4862 41.182 32.7729 40.4888 32.9603 39.6857H30.579C30.3585 40.5218 30.127 41.38 29.8955 42.2712ZM24.4605 44.0536C25.3756 44.1966 26.3016 44.2296 27.1946 44.0096C27.9442 43.8225 28.5726 43.3824 29.0356 42.7333C28.9915 42.7003 28.9805 42.6783 28.9584 42.6783C27.9332 42.5683 26.9079 42.4582 25.8827 42.3592C25.8055 42.3592 25.6732 42.4032 25.6511 42.4693C25.3755 43.0854 24.9677 43.5915 24.4605 44.0536V44.0536ZM48.8353 58.0046C49.2762 57.0584 49.177 55.5951 48.4274 54.6709C47.8541 53.9668 47.1375 53.5817 46.1894 53.6807C47.0824 55.133 47.9644 56.5743 48.8353 58.0046ZM22.4872 47.2553C22.2226 47.8054 22.0572 48.2785 22.1124 48.8176C22.1454 49.1147 22.1344 49.4118 22.1344 49.7088C22.1344 50.402 22.1124 51.0951 22.1124 51.7883C22.1124 51.8873 22.1565 52.0523 22.2005 52.0633C22.6415 52.1734 23.0825 52.2614 23.5676 52.3494C23.3801 50.622 23.2148 48.9167 22.4762 47.2553H22.4872ZM45.1201 70.1073C45.4839 69.9202 45.8587 69.7552 46.2225 69.5462C46.3107 69.5021 46.3879 69.3261 46.3658 69.2381C46.2225 68.5119 46.0572 67.7968 45.9028 67.0706C45.2634 67.1256 44.7012 67.1696 44.183 67.2136C44.4917 68.1708 44.8004 69.1281 45.1201 70.1073ZM21.6934 59.787C21.6934 59.622 21.6934 59.479 21.6934 59.3469C21.6493 58.4557 21.6052 57.5755 21.5722 56.6844C21.5611 56.2443 21.5281 56.2002 21.0871 56.1892C21.0209 56.1892 20.9548 56.1892 20.8887 56.1892C20.3595 56.1782 20.3264 56.1892 20.3374 56.7394C20.3595 57.6086 20.4036 58.4667 20.4587 59.3359C20.4587 59.446 20.5579 59.622 20.6461 59.644C20.9879 59.721 21.3296 59.754 21.6934 59.798V59.787ZM32.0453 3.1577C32.8941 3.88386 33.732 4.61001 34.5919 5.31416C34.8013 5.4902 35.0659 5.61123 35.3085 5.73226C35.8045 5.98531 36.3117 6.20535 36.7967 6.48041C37.2818 6.75547 37.7338 7.08554 38.1968 7.39361C36.4109 5.58922 34.636 3.76282 32.0453 3.14669V3.1577ZM29.9396 2.21149C29.0797 1.19927 25.7063 0.440101 24.6259 0.847189C25.4196 1.26528 26.2244 1.69438 27.0402 2.12347C27.1394 2.17848 27.2717 2.21149 27.382 2.21149C28.2308 2.21149 29.0907 2.21149 29.9396 2.21149ZM21.7485 52.4154C21.5391 52.4154 21.3847 52.4154 21.2414 52.4154C20.9879 52.4374 20.8335 52.5365 20.8005 52.8225C20.7343 53.3066 20.6241 53.7907 20.5579 54.2748C20.4918 54.7919 20.4587 55.3091 20.4146 55.8152C20.8445 55.8372 21.1973 55.8592 21.5832 55.8812C21.6383 54.7149 21.7044 53.5817 21.7596 52.4154H21.7485ZM0.592891 18.55C0.592891 18.55 0.670068 18.5831 0.703141 18.5941C1.0008 18.44 1.29845 18.286 1.59611 18.11C1.65123 18.0769 1.69533 17.9779 1.71738 17.9009C1.97093 16.8337 2.21346 15.7774 2.46702 14.7102C2.54419 14.3911 2.65444 14.0831 2.76468 13.698C2.23551 14.006 1.8166 14.3361 1.65123 14.8422C1.26538 16.0635 0.945669 17.3068 0.592891 18.55V18.55ZM32.6626 41.6331C32.6626 41.6331 32.7949 41.6221 32.8721 41.5891C33.1587 41.468 33.4564 41.336 33.743 41.215C34.6029 40.8519 35.3305 40.3458 35.573 39.3776C35.6061 39.2566 35.6392 39.1465 35.6612 39.0475C34.9116 39.2456 34.195 39.4436 33.4894 39.6416C33.4233 39.6636 33.3461 39.7297 33.3241 39.7957C33.1036 40.4008 32.8831 41.0169 32.6626 41.6331V41.6331ZM12.9512 3.08067C12.3007 3.08067 11.6613 3.03667 11.0991 3.43276C10.603 3.77383 10.0848 4.0709 9.58873 4.41197C9.20288 4.67603 8.83908 4.98409 8.39811 5.31416C8.54142 5.32516 8.58552 5.33617 8.61859 5.33617C9.19185 5.30316 9.7541 5.28115 10.3274 5.22614C10.4266 5.22614 10.5368 5.12712 10.625 5.06111C11.066 4.67603 11.507 4.27994 11.9479 3.89486C12.2787 3.6198 12.6094 3.35573 12.9512 3.08067V3.08067ZM46.7737 69.2491C47.2147 68.908 47.6006 68.611 47.9754 68.2919C48.0415 68.2369 48.0967 68.0938 48.0856 68.0058C47.9974 67.4117 47.8982 66.8286 47.799 66.2124C47.4242 66.3995 47.0824 66.5865 46.7407 66.7295C46.2335 66.9386 46.2225 66.9276 46.3438 67.4557C46.4761 68.0278 46.6194 68.5999 46.7737 69.2381V69.2491ZM42.7388 71.0425C41.8459 70.9215 41.019 70.8224 40.1812 70.7124C40.3686 71.2405 40.5671 71.7906 40.7875 72.3958C41.3939 72.3408 42.0223 72.2857 42.6396 72.2087C42.7168 72.2087 42.8381 72.0547 42.827 71.9777C42.827 71.6476 42.7719 71.3285 42.7388 71.0425ZM33.0815 43.2834C32.3319 43.5035 31.5822 43.7125 30.8326 43.9326C30.3696 44.0646 30.3144 44.1636 30.3696 44.6917C31.2735 44.7578 32.1886 44.8238 33.0815 44.8788V43.2724V43.2834ZM37.9433 74.5412C37.9874 73.9031 37.9433 73.8591 37.3479 73.8041C36.8849 73.7601 36.4329 73.7051 35.9809 73.639C35.4407 73.562 34.9116 73.463 34.3824 73.364V74.1451C35.562 74.3982 36.7085 74.7723 37.9433 74.5412V74.5412ZM40.2473 32.4791C39.9387 32.7431 39.6079 32.9962 39.3103 33.2933C39.178 33.4143 39.0788 33.6013 39.0347 33.7664C38.8913 34.4265 38.7811 35.0976 38.6488 35.7578C38.5827 36.0659 38.4835 36.3739 38.4063 36.682C39.7402 35.5927 39.9828 34.0304 40.2473 32.4791V32.4791ZM23.0604 0.627145C22.2226 0.275068 19.6539 0.462111 18.2428 0.990226C18.342 1.02323 18.4192 1.06724 18.4964 1.08924C19.0255 1.21027 19.5657 1.33129 20.0949 1.44131C20.2162 1.46332 20.3595 1.47432 20.4808 1.44131C21.3407 1.17725 22.1895 0.902205 23.0494 0.627145H23.0604ZM52.9363 52.9435C53.1568 51.3812 50.2243 45.88 48.8573 45.2639C50.6212 47.5964 51.9111 50.1709 52.9363 52.9435ZM48.4384 67.7968C49.4747 67.1146 49.7172 66.3555 49.3203 65.0792C48.9345 65.3652 48.5487 65.6513 48.1738 65.9484C48.1297 65.9814 48.1187 66.0694 48.1187 66.1244C48.2179 66.6855 48.3282 67.2357 48.4274 67.7968H48.4384ZM28.3962 43.9326C29.4656 44.1196 31.0751 43.3604 31.5822 42.3812C30.9208 42.4803 30.2703 42.5683 29.6309 42.6673C29.5648 42.6673 29.5097 42.7553 29.4545 42.8103C29.1018 43.1844 28.738 43.5695 28.3852 43.9326H28.3962ZM40.9419 40.5108C41.89 41.9631 43.257 42.8874 44.8114 43.5915C43.6098 42.4473 42.5625 41.127 40.9419 40.5108ZM37.7999 72.5388C37.8992 72.8029 37.9763 73.0559 38.0866 73.309C38.1196 73.386 38.2189 73.474 38.296 73.474C39.0347 73.474 39.7733 73.452 40.545 73.441C40.534 73.232 40.556 73.0889 40.5119 72.9789C40.4678 72.8689 40.3466 72.7368 40.2473 72.7258C39.4426 72.6488 38.6378 72.5938 37.811 72.5388H37.7999ZM52.341 55.3971C52.341 55.5511 52.3631 55.7161 52.3631 55.8702C52.3961 56.6293 52.4182 57.3775 52.4402 58.1367C52.4402 58.3677 52.3631 58.5988 52.3961 58.8188C52.4733 59.3249 52.6056 59.82 52.7048 60.3261C53.3993 58.6318 53.0025 57.0144 52.33 55.3971H52.341ZM31.2074 43.3935C32.1996 43.4375 34.1289 42.1612 34.3604 41.314C34.0296 41.468 33.7209 41.6331 33.4012 41.7541C32.7067 42.0071 32.0453 42.2712 31.6374 42.9534C31.5381 43.1184 31.3728 43.2394 31.2184 43.4045L31.2074 43.3935ZM40.2694 34.4595C41.2065 33.2823 41.6695 31.8739 41.8679 30.3666C41.5041 30.8287 41.1624 31.3128 40.8316 31.7859C40.7765 31.8629 40.7434 31.962 40.7214 32.05C40.5671 32.8642 40.4127 33.6673 40.2694 34.4595ZM22.7848 44.4057C22.7407 44.3507 22.7297 44.3177 22.7187 44.3177C21.5722 44.0536 20.4697 43.6795 19.4224 43.1624C19.3452 43.1294 19.1909 43.1624 19.1137 43.2394C18.9704 43.3714 18.8602 43.5475 18.7279 43.7235C18.8271 43.7455 18.8822 43.7675 18.9484 43.7675C19.7532 43.8886 20.5359 44.0536 21.2635 44.4497C21.7816 44.7358 22.2667 44.5157 22.7848 44.4057V44.4057ZM39.2441 45.5719C38.8142 44.7798 38.4173 44.0426 37.9653 43.2174C37.8 43.9656 37.6566 44.6257 37.5023 45.3189C38.0976 45.4069 38.6488 45.4839 39.2331 45.5609L39.2441 45.5719ZM43.2129 72.1097C43.7531 71.9337 44.2492 71.7686 44.7453 71.6036C44.7894 71.5926 44.8445 71.5046 44.8445 71.4606C44.8445 71.1965 44.8114 70.9214 44.7894 70.6354C44.194 70.7564 43.6539 70.8664 43.1247 70.9765C43.1578 71.3506 43.1798 71.6806 43.2129 72.1207V72.1097ZM2.19141 13.621C2.3678 13.5109 2.55522 13.4229 2.70956 13.2909C2.85287 13.1699 2.99619 13.0378 3.07336 12.8728C3.49228 12.0036 3.87814 11.1124 4.28604 10.2322C4.36321 10.0562 4.47346 9.89116 4.56165 9.71512C4.52858 9.69311 4.49549 9.68211 4.46242 9.6601C3.40408 10.7933 2.79776 12.2017 2.18039 13.61L2.19141 13.621ZM43.5216 25.8556C43.268 26.6808 43.0696 27.528 42.7499 28.3202C42.4191 29.1454 42.3309 29.9925 42.2648 30.8507C42.9263 29.2444 43.6098 27.638 43.5326 25.8446L43.5216 25.8556ZM21.8037 49.2907C21.8037 49.2907 21.7485 49.2907 21.7155 49.2907C21.4619 50.2149 21.1973 51.1281 20.9438 52.0743C21.7706 52.1074 21.7926 52.0964 21.7926 51.3592C21.7926 51.2492 21.8037 51.1391 21.8037 51.0291C21.8037 50.457 21.8037 49.8739 21.8037 49.3017V49.2907ZM46.454 69.8762C46.0131 70.0743 45.6272 70.2503 45.2524 70.4373C45.2083 70.4594 45.1421 70.5254 45.1421 70.5804C45.1421 70.8444 45.1752 71.1085 45.2083 71.4496C45.6493 71.2185 46.0351 71.0315 46.4099 70.8224C46.4651 70.7894 46.5312 70.7014 46.5202 70.6464C46.5202 70.4043 46.4761 70.1623 46.454 69.8872V69.8762ZM48.1297 68.688C47.6998 68.996 47.3139 69.2601 46.9391 69.5462C46.873 69.5902 46.8289 69.7112 46.8289 69.7882C46.8289 70.0193 46.8619 70.2613 46.895 70.5474C47.2809 70.2723 47.6336 70.0303 47.9864 69.7772C48.0526 69.7222 48.1187 69.6232 48.1297 69.5462C48.1518 69.2711 48.1297 69.007 48.1297 68.688ZM49.8826 66.1794C50.6323 65.6073 50.7204 64.8701 50.3787 63.9899C50.2464 64.144 50.1362 64.309 49.9818 64.419C49.6952 64.6281 49.6731 64.8811 49.7283 65.1892C49.7834 65.5083 49.8275 65.8383 49.8826 66.1794V66.1794ZM52.2197 59.9301C52.0764 60.4582 51.9552 60.9313 51.8008 61.4044C51.6465 61.9215 51.9 62.3616 51.9441 62.9007C52.4513 61.9215 52.6387 60.9753 52.2087 59.9301H52.2197ZM37.4251 38.0243C37.0062 38.2663 36.5211 38.4204 36.2455 38.7394C35.9699 39.0585 35.8927 39.5536 35.7053 40.0377C36.5652 39.5536 37.2157 39.0035 37.4251 38.0243ZM34.0848 42.3372C35.2313 41.9301 35.9038 41.127 36.3447 40.1257C35.2644 40.4778 34.8454 41.5451 34.0848 42.3372ZM38.274 73.7931C38.285 74.0021 38.274 74.1452 38.3071 74.2772C38.3291 74.3542 38.4614 74.4752 38.5276 74.4642C39.178 74.3652 39.8174 74.2442 40.4568 74.1121C40.5119 74.1121 40.5671 73.9911 40.5781 73.9141C40.5781 73.8811 40.4789 73.8041 40.4237 73.8041C39.7182 73.8041 39.0016 73.8041 38.274 73.8041V73.7931ZM50.9409 64.7821C51.1835 64.375 51.4921 64.034 51.5803 63.6489C51.6685 63.2418 51.5473 62.7907 51.5142 62.3176C50.8086 63.1317 50.6984 63.6159 50.9409 64.7821ZM40.9529 73.408C41.4049 73.353 41.8238 73.309 42.2427 73.243C42.7388 73.1659 42.7499 73.1439 42.794 72.5938C42.1435 72.6488 41.5041 72.7038 40.8316 72.7589C40.8757 72.9899 40.8978 73.177 40.9419 73.419L40.9529 73.408ZM37.9322 41.7211C38.1637 40.6429 38.3953 39.6086 38.6268 38.5304C37.7117 39.4656 37.5133 40.4998 37.9322 41.7211ZM43.2019 72.4948C43.1467 72.7588 43.1026 72.9899 43.0475 73.298C43.4995 73.0999 43.8964 72.9239 44.2933 72.7589C44.613 72.6268 44.8004 72.4068 44.8224 71.9997C44.2712 72.1647 43.731 72.3298 43.2129 72.4838L43.2019 72.4948ZM30.0278 44.1746C28.4844 44.3287 26.9851 44.4717 26.037 44.5597C26.963 44.5927 28.4403 44.6257 29.9506 44.6807C29.9837 44.5047 30.0058 44.3177 30.0388 44.1746H30.0278ZM48.5376 69.3151C49.155 68.853 49.5629 67.9618 49.4085 67.4227C49.2101 67.6207 49.0447 67.8298 48.8243 67.9948C48.3282 68.3469 48.4274 68.809 48.5376 69.3151ZM12.5984 2.59657C12.5984 2.59657 12.6204 2.65158 12.6314 2.68459C13.3149 2.77261 13.4583 2.73961 14.0425 2.39853C14.5827 2.09046 15.145 1.79339 15.6852 1.49633L15.6411 1.39731C14.6268 1.7934 13.6126 2.20048 12.5873 2.59657H12.5984ZM50.533 66.1024C49.7944 66.5975 49.8275 67.4007 49.7283 68.1819C50.4448 67.6757 50.6653 66.8286 50.533 66.1024ZM4.44038 34.9876C4.44038 34.9876 4.48447 34.9656 4.51754 34.9546C4.0435 33.9644 3.58048 32.9742 3.10643 31.973C3.02926 32.204 2.94107 32.4901 3.04029 32.6661C3.48126 33.4583 3.96634 34.2175 4.44038 34.9876ZM51.6244 64.474C50.952 65.0902 50.8858 65.8383 50.985 66.6635C51.415 65.9924 51.6134 65.2772 51.6244 64.474ZM43.7751 25.0085C43.7751 25.0085 43.8302 25.0085 43.8523 25.0195C44.0838 23.9522 44.0507 22.874 43.7751 21.8068V25.0085ZM52.0654 64.6941C52.3851 63.9679 52.7489 63.3408 52.5505 62.5156C52.2528 63.2198 51.8118 63.8249 52.0654 64.6941ZM53.3442 59.622C53.2119 60.4472 52.771 61.2063 52.9584 62.0865C53.223 61.2944 53.4875 60.4912 53.3442 59.622ZM45.1973 72.3188C45.6162 72.0767 46.0241 71.8457 46.4099 71.5926C46.4871 71.5376 46.4981 71.3946 46.5422 71.2845C46.1233 71.4056 45.7926 71.5816 45.4398 71.7246C45.1752 71.8346 45.1091 72.0107 45.1973 72.3188ZM37.7007 38.5194C38.1086 38.1233 38.7811 37.9033 38.6268 37.1221C38.0315 37.3972 37.8992 37.9693 37.7007 38.5194ZM36.6204 40.4558C36.6204 40.4558 36.6755 40.4998 36.7085 40.5328C37.0723 40.0597 37.4251 39.5866 37.7889 39.1135C37.1275 39.3556 36.9401 39.9607 36.6204 40.4668V40.4558ZM46.8509 71.1415C46.8509 71.1415 46.906 71.2075 46.9391 71.2405C47.2257 70.9985 47.5013 70.7564 47.788 70.5144C47.7659 70.4923 47.7439 70.4594 47.7218 70.4373C47.4683 70.7124 47.0273 70.7564 46.8509 71.1415V71.1415ZM41.6364 73.8151C41.0521 73.7161 41.008 73.7271 40.9419 73.9911C41.1844 73.9251 41.4159 73.8701 41.6364 73.8151Z" fill="#01E6B6"/>
</svg>
