<svg width="1280" height="722" viewBox="0 0 1280 722" fill="none" xmlns="http://www.w3.org/2000/svg">
<g opacity="0.08">
<mask id="mask0_2733_5268" style="mask-type:alpha" maskUnits="userSpaceOnUse" x="0" y="0" width="1280" height="722">
<path d="M1280 0H0V722H1280V0Z" fill="url(#paint0_linear_2733_5268)"/>
</mask>
<g mask="url(#mask0_2733_5268)">
<path d="M188.712 723.051C188.616 723.051 188.552 723.051 188.456 722.985C188.232 722.852 188.168 722.453 188.296 722.254L221.93 657.643C222.026 657.443 222.186 657.376 222.346 657.376L1095.51 663.698C1095.67 663.698 1095.83 663.831 1095.92 663.964L1126.55 722.187C1126.68 722.453 1126.61 722.785 1126.39 722.919C1126.17 723.051 1125.88 722.985 1125.72 722.719L1095.22 664.762L222.602 658.441L189.128 722.785C189.032 722.985 188.872 723.051 188.712 723.051Z" fill="#01E6B6"/>
<path d="M-0.488334 581.253C-0.616345 581.253 -0.744355 581.186 -0.840363 581.12C-1.03238 580.92 -1.03238 580.521 -0.840363 580.322L36.2187 537.736C36.3147 537.603 36.4107 537.536 36.5707 537.603L1278.66 545.321C1278.91 545.321 1279.14 545.587 1279.14 545.854C1279.14 546.187 1278.91 546.386 1278.66 546.386L36.7627 538.668L-0.136302 581.12C-0.232315 581.253 -0.360323 581.253 -0.488334 581.253Z" fill="#01E6B6"/>
<path d="M43.3869 413.309L-0.488711 413.042C-0.744731 413.042 -0.96875 412.776 -0.96875 412.511C-0.96875 412.178 -0.744731 411.978 -0.488711 411.978L43.1949 412.178L220.681 242.169L471.486 1.8925C471.678 1.69288 471.998 1.75943 472.158 1.95904C472.318 2.2252 472.286 2.5579 472.094 2.75753L159.621 302.121L43.6749 413.176C43.6109 413.243 43.4829 413.309 43.3869 413.309Z" fill="#01E6B6"/>
<path d="M-0.488617 406.919C-0.648629 406.919 -0.77664 406.853 -0.872648 406.72C-1.03266 406.453 -1.00066 406.121 -0.77664 405.921L28.8578 379.704C28.9538 379.638 29.0498 379.572 29.1458 379.572L1278.65 385.626C1278.91 385.626 1279.13 385.893 1279.13 386.159C1279.13 386.492 1278.91 386.691 1278.65 386.691L29.3058 380.702L-0.200593 406.786C-0.2966 406.853 -0.392609 406.919 -0.488617 406.919Z" fill="#01E6B6"/>
<path d="M36.5703 538.671C36.5383 538.671 36.5383 538.671 36.5703 538.671L-0.488711 538.471C-0.744731 538.471 -0.96875 538.205 -0.96875 537.939C-0.96875 537.607 -0.744731 537.406 -0.488711 537.406L36.3463 537.607L419.738 96.646L502.049 1.95977C502.241 1.76015 502.529 1.76015 502.721 1.95977C502.913 2.15939 502.913 2.55863 502.721 2.75825L77.886 491.361L36.8903 538.471C36.7943 538.605 36.6663 538.671 36.5703 538.671Z" fill="#01E6B6"/>
<path d="M35.7383 301.719L-0.488711 301.585C-0.744731 301.585 -0.96875 301.32 -0.96875 301.054C-0.96875 300.721 -0.744731 300.521 -0.488711 300.521L35.5783 300.654L112.449 241.767L425.723 1.75671C425.947 1.55709 426.235 1.69016 426.395 1.88978C426.555 2.15595 426.491 2.48865 426.267 2.68826L35.9943 301.652C35.9303 301.652 35.8343 301.719 35.7383 301.719Z" fill="#01E6B6"/>
<path d="M30.5219 225.865L-0.488711 225.731C-0.744731 225.731 -0.96875 225.466 -0.96875 225.2C-0.96875 224.867 -0.744731 224.667 -0.488711 224.667L30.3938 224.8L379.959 1.75843C380.183 1.62535 380.471 1.6919 380.599 1.95806C380.727 2.22421 380.631 2.55691 380.407 2.68999L30.7779 225.798C30.6819 225.798 30.6179 225.865 30.5219 225.865Z" fill="#01E6B6"/>
<path d="M29.1457 380.704L-0.488711 380.571C-0.744731 380.571 -0.96875 380.305 -0.96875 380.039C-0.96875 379.706 -0.744731 379.506 -0.488711 379.506L28.9857 379.64L456.253 1.89219C456.477 1.69257 456.765 1.75911 456.925 2.02527C457.085 2.29143 457.053 2.62413 456.829 2.82376L29.4337 380.571C29.3697 380.638 29.2417 380.704 29.1457 380.704Z" fill="#01E6B6"/>
<path d="M-0.487473 297.996C-0.647486 297.996 -0.807499 297.929 -0.903507 297.73C-1.03152 297.463 -0.967512 297.13 -0.743494 296.931L24.1866 279.032C24.2506 278.965 24.3466 278.965 24.4426 278.965L63.7418 279.098L103.041 279.231L181.735 279.564L221.131 279.697L260.558 279.83L339.477 280.162L378.968 280.296L418.491 280.429L458.046 280.562L576.872 281.028L616.523 281.161L1278.63 283.823C1278.88 283.823 1279.11 284.088 1279.11 284.355C1279.11 284.688 1278.88 284.887 1278.63 284.887L1254.91 284.82L1214.81 284.688L221.131 280.894L181.735 280.762L103.041 280.429L63.7418 280.296L24.6026 280.162L-0.231451 297.929C-0.327458 297.996 -0.391465 297.996 -0.487473 297.996Z" fill="#01E6B6"/>
<path d="M-0.487715 512.586C-0.615725 512.586 -0.743736 512.519 -0.839744 512.387C-1.03176 512.187 -0.999757 511.787 -0.807741 511.588L19.6099 490.228C19.7059 490.162 19.8019 490.096 19.93 490.096L1278.66 497.415C1278.91 497.415 1279.14 497.681 1279.14 497.947C1279.14 498.28 1278.91 498.479 1278.66 498.479L20.122 491.16L-0.167687 512.387C-0.263693 512.519 -0.359705 512.586 -0.487715 512.586Z" fill="#01E6B6"/>
<path d="M26.7775 170.903L-0.488711 170.837C-0.744731 170.837 -0.96875 170.57 -0.96875 170.304C-0.96875 169.972 -0.744731 169.773 -0.488711 169.773L26.6495 169.838L334.227 1.6257C334.451 1.49262 334.739 1.62569 334.867 1.89185C334.995 2.15801 334.867 2.49071 334.643 2.62379L26.9695 170.837C26.9055 170.903 26.8415 170.903 26.7775 170.903Z" fill="#01E6B6"/>
<path d="M24.4413 280.095L-0.488711 279.962C-0.744731 279.962 -0.96875 279.696 -0.96875 279.429C-0.96875 279.097 -0.744731 278.898 -0.488711 278.898L24.3133 279.03L396.952 11.4732L410.489 1.75843C410.713 1.62535 411.001 1.6919 411.161 1.95806C411.289 2.22421 411.225 2.55691 411.001 2.75653L24.6973 280.029C24.6013 280.095 24.5373 280.095 24.4413 280.095Z" fill="#01E6B6"/>
<path d="M-0.487567 223.602C-0.647581 223.602 -0.839596 223.468 -0.903601 223.336C-1.03161 223.069 -0.935604 222.736 -0.711586 222.604L20.9542 209.495C21.0182 209.428 21.0822 209.428 21.1782 209.428L1278.65 213.687C1278.91 213.687 1279.13 213.953 1279.13 214.219C1279.13 214.551 1278.91 214.752 1278.65 214.752L21.3062 210.493L-0.263551 223.535C-0.327551 223.535 -0.423562 223.602 -0.487567 223.602Z" fill="#01E6B6"/>
<path d="M23.8973 129.247L-0.488711 129.18C-0.744731 129.18 -0.96875 128.914 -0.96875 128.649C-0.96875 128.316 -0.744731 128.116 -0.488711 128.116L23.8013 128.182L288.527 1.5571C288.783 1.42402 289.039 1.5571 289.167 1.8898C289.263 2.15595 289.167 2.48866 288.911 2.62174L24.0893 129.247C24.0253 129.247 23.9613 129.247 23.8973 129.247Z" fill="#01E6B6"/>
<path d="M21.6891 96.6443L-0.488711 96.5784C-0.744731 96.5784 -0.96875 96.3121 -0.96875 96.0459C-0.96875 95.7129 -0.744731 95.5134 -0.488711 95.5134L21.5931 95.5802L242.891 1.4259C243.147 1.29282 243.403 1.49244 243.499 1.7586C243.595 2.02476 243.467 2.35747 243.211 2.49055L21.8491 96.5784C21.7851 96.6443 21.7211 96.6443 21.6891 96.6443Z" fill="#01E6B6"/>
<path d="M21.1771 210.495L-0.488711 210.429C-0.744731 210.429 -0.96875 210.162 -0.96875 209.896C-0.96875 209.563 -0.744731 209.364 -0.488711 209.364L21.0491 209.43L364.725 1.69268C364.949 1.5596 365.237 1.62614 365.365 1.95884C365.493 2.225 365.397 2.5577 365.173 2.69077L21.4011 210.429C21.3371 210.495 21.2411 210.495 21.1771 210.495Z" fill="#01E6B6"/>
<path d="M-0.4881 169.504C-0.680116 169.504 -0.840129 169.37 -0.936137 169.171C-1.03214 168.905 -0.936137 168.573 -0.680116 168.439L18.5855 158.391C18.6495 158.391 18.7135 158.325 18.7775 158.325L1094.42 161.453L1278.66 161.984C1278.91 161.984 1279.14 162.251 1279.14 162.517C1279.14 162.85 1278.91 163.049 1278.66 163.049L18.8735 159.39L-0.296087 169.437C-0.360089 169.437 -0.424095 169.504 -0.4881 169.504Z" fill="#01E6B6"/>
<path d="M-0.48802 365.397C-0.648033 365.397 -0.776043 365.33 -0.872051 365.131C-1.03206 364.864 -0.968059 364.531 -0.744041 364.332L16.1534 350.425C16.2494 350.359 16.3454 350.292 16.4414 350.292L1278.69 356.081C1278.95 356.081 1279.17 356.348 1279.17 356.614C1279.17 356.946 1278.95 357.145 1278.69 357.145L16.5694 351.49L-0.199998 365.33C-0.296005 365.397 -0.392012 365.397 -0.48802 365.397Z" fill="#01E6B6"/>
<path d="M19.929 491.226L-0.488711 491.093C-0.744731 491.093 -0.96875 490.827 -0.96875 490.561C-0.96875 490.228 -0.744731 490.028 -0.488711 490.028L19.7369 490.161L381.495 112.014L486.751 2.02413C486.943 1.82451 487.263 1.82451 487.423 2.09067C487.615 2.29029 487.583 2.68953 487.391 2.88914L59.7083 449.838L20.249 491.093C20.185 491.159 20.057 491.226 19.929 491.226Z" fill="#01E6B6"/>
<path d="M19.8649 70.3612L-0.488711 70.2947C-0.744731 70.2947 -0.96875 70.0285 -0.96875 69.7624C-0.96875 69.4297 -0.744731 69.2301 -0.488711 69.2301L19.8009 69.2966L197.255 1.42589C197.511 1.35935 197.767 1.49243 197.863 1.75859C197.959 2.02476 197.799 2.35745 197.543 2.49054L20.025 70.3612C19.961 70.3612 19.929 70.3612 19.8649 70.3612Z" fill="#01E6B6"/>
<path d="M18.7769 159.391L-0.488711 159.325C-0.744731 159.325 -0.96875 159.059 -0.96875 158.792C-0.96875 158.459 -0.744731 158.26 -0.488711 158.26L18.6809 158.327L319.025 1.55831C319.281 1.42523 319.537 1.55832 319.665 1.82448C319.761 2.09064 319.665 2.42333 319.409 2.55641L18.9689 159.391C18.9049 159.391 18.8409 159.391 18.7769 159.391Z" fill="#01E6B6"/>
<path d="M18.3929 48.7333L-0.488711 48.6668C-0.744731 48.6668 -0.96875 48.4006 -0.96875 48.1345C-0.96875 47.8017 -0.744731 47.6021 -0.488711 47.6021L18.3289 47.6687L151.684 1.29032C151.94 1.22378 152.196 1.35685 152.292 1.68955C152.356 1.95571 152.228 2.28841 151.972 2.35495L18.5209 48.7333C18.4889 48.7333 18.4569 48.7333 18.3929 48.7333Z" fill="#01E6B6"/>
<path d="M-0.488462 128.383C-0.680477 128.383 -0.872493 128.249 -0.936498 128.05C-1.03251 127.784 -0.904496 127.451 -0.680477 127.318L16.7609 119.333C16.8249 119.333 16.8889 119.267 16.953 119.267L1278.65 122.527C1278.91 122.527 1279.13 122.794 1279.13 123.06C1279.13 123.392 1278.91 123.591 1278.65 123.591L17.049 120.397L-0.296447 128.383C-0.360451 128.383 -0.424457 128.383 -0.488462 128.383Z" fill="#01E6B6"/>
<path d="M17.1447 30.701H-0.488711C-0.744731 30.701 -0.96875 30.4348 -0.96875 30.1687C-0.96875 29.8359 -0.744731 29.6363 -0.488711 29.6363H17.0807L106.08 1.29032C106.336 1.22378 106.592 1.35685 106.656 1.68955C106.72 1.95571 106.592 2.28841 106.336 2.35495L17.2727 30.701C17.2407 30.701 17.2087 30.701 17.1447 30.701Z" fill="#01E6B6"/>
<path d="M16.9527 120.397L-0.488711 120.33C-0.744731 120.33 -0.96875 120.065 -0.96875 119.799C-0.96875 119.466 -0.744731 119.266 -0.488711 119.266L16.8567 119.333L273.326 1.5571C273.582 1.42402 273.838 1.5571 273.934 1.8898C274.03 2.15596 273.902 2.48866 273.678 2.62174L17.1127 120.33C17.0807 120.33 17.0167 120.397 16.9527 120.397Z" fill="#01E6B6"/>
<path d="M1278.65 113.011C1278.59 113.011 1278.53 113.011 1278.47 112.944L1233.34 92.2501L15.5765 89.5223L-0.328827 96.0433C-0.584845 96.176 -0.840866 95.9765 -0.936874 95.7103C-1.03288 95.4441 -0.904871 95.1119 -0.64885 94.9784L15.3525 88.3911C15.4165 88.3911 15.4485 88.3911 15.5125 88.3911L1233.47 91.1858C1233.53 91.1858 1233.6 91.1858 1233.63 91.2523L1278.81 111.946C1279.07 112.079 1279.17 112.412 1279.07 112.678C1279.04 112.878 1278.85 113.011 1278.65 113.011Z" fill="#01E6B6"/>
<path d="M-0.487473 270.313C-0.647486 270.313 -0.807499 270.246 -0.903507 270.047C-1.03152 269.78 -0.967512 269.447 -0.743494 269.315L13.8817 259.467C13.9457 259.4 14.0417 259.4 14.1377 259.4L1152.09 263.726L1190.43 263.858L1278.69 264.191C1278.95 264.191 1279.17 264.458 1279.17 264.724C1279.17 265.056 1278.95 265.256 1278.69 265.256L14.2658 260.398L-0.231451 270.18C-0.327458 270.246 -0.391465 270.313 -0.487473 270.313Z" fill="#01E6B6"/>
<path d="M16.4087 351.492L-0.488711 351.425C-0.744731 351.425 -0.96875 351.159 -0.96875 350.893C-0.96875 350.561 -0.744731 350.361 -0.488711 350.361L16.2807 350.427L364.885 64.3058L441.019 1.82481C441.243 1.62519 441.531 1.69173 441.691 1.95789C441.851 2.22405 441.788 2.55675 441.563 2.75636L77.182 301.787L16.6967 351.425C16.6007 351.492 16.5047 351.492 16.4087 351.492Z" fill="#01E6B6"/>
<path d="M15.5126 89.5248L-0.488711 89.4582C-0.744731 89.4582 -0.96875 89.1921 -0.96875 88.9259C-0.96875 88.5932 -0.744731 88.3936 -0.488711 88.3936L15.4166 88.4601L227.658 1.4259C227.914 1.29282 228.17 1.49244 228.266 1.7586C228.362 2.02476 228.234 2.35747 227.978 2.49055L15.6726 89.5248C15.6086 89.5248 15.5446 89.5248 15.5126 89.5248Z" fill="#01E6B6"/>
<path d="M1278.66 167.375C1278.59 167.375 1278.53 167.375 1278.47 167.308L1094.13 66.8333L14.4246 64.5709L-0.328629 70.0273C-0.584653 70.0938 -0.840673 69.9608 -0.936681 69.6945C-1.03269 69.4284 -0.872676 69.0957 -0.616655 68.9626L14.2006 63.5063C14.2326 63.5063 14.2966 63.5063 14.3606 63.5063L1094.26 65.7687C1094.32 65.7687 1094.39 65.7686 1094.45 65.8353L1278.88 166.377C1279.11 166.511 1279.23 166.843 1279.11 167.109C1279.01 167.243 1278.85 167.375 1278.66 167.375Z" fill="#01E6B6"/>
<path d="M1278.65 6.01603C1278.63 6.01603 1278.59 6.01603 1278.53 6.01603L1271.93 4.15292L1241.02 4.08637C1240.77 4.08637 1240.54 3.82022 1240.54 3.55405C1240.54 3.22135 1240.77 3.02173 1241.02 3.02173L1272 3.08828C1272.03 3.08828 1272.06 3.08828 1272.13 3.08828L1278.79 5.01793C1279.04 5.08447 1279.2 5.41717 1279.13 5.68333C1279.07 5.81641 1278.88 6.01603 1278.65 6.01603Z" fill="#01E6B6"/>
<path d="M1278.66 10.5397C1278.63 10.5397 1278.59 10.5397 1278.53 10.5397H1278.43H1262.43C1262.4 10.5397 1262.33 10.5397 1262.31 10.5397L1240.96 4.08528L1210.05 4.01874C1209.79 4.01874 1209.57 3.75258 1209.57 3.48642C1209.57 3.15373 1209.79 2.9541 1210.05 2.9541L1241.02 3.02063C1241.05 3.02063 1241.12 3.02063 1241.15 3.02063L1262.49 9.47502H1278.5C1278.53 9.47502 1278.56 9.47502 1278.63 9.47502L1278.79 9.54155C1279.04 9.60809 1279.2 9.94079 1279.14 10.2069C1279.07 10.4065 1278.88 10.5397 1278.66 10.5397Z" fill="#01E6B6"/>
<path d="M1278.65 15.3971C1278.63 15.3971 1278.56 15.3971 1278.53 15.3971L1273.69 13.9331H1257.41C1257.37 13.9331 1257.31 13.9331 1257.28 13.9331L1246.33 10.5397H1230.33C1230.3 10.5397 1230.23 10.5397 1230.21 10.5397L1209.98 4.08528L1179.09 4.01874C1178.84 4.01874 1178.61 3.75258 1178.61 3.48642C1178.61 3.15373 1178.84 2.9541 1179.09 2.9541L1210.04 3.02063C1210.07 3.02063 1210.14 3.02063 1210.17 3.02063L1230.39 9.47502H1246.4C1246.43 9.47502 1246.49 9.47502 1246.53 9.47502L1257.47 12.8686H1273.76C1273.79 12.8686 1273.85 12.8686 1273.89 12.8686L1278.79 14.3324C1279.04 14.3989 1279.2 14.7317 1279.13 14.9978C1279.07 15.1975 1278.88 15.3971 1278.65 15.3971Z" fill="#01E6B6"/>
<path d="M1278.66 20.4541C1278.63 20.4541 1278.56 20.4541 1278.53 20.4541L1268.77 17.4598H1252.16C1252.13 17.4598 1252.07 17.4598 1252.03 17.4598L1240.99 13.9331H1224.7C1224.67 13.9331 1224.61 13.9331 1224.57 13.9331L1214.24 10.5397H1198.27C1198.23 10.5397 1198.17 10.5397 1198.14 10.5397L1179.07 4.08528L1148.21 4.01874C1147.96 4.01874 1147.73 3.75258 1147.73 3.48642C1147.73 3.15373 1147.96 2.9541 1148.21 2.9541L1179.16 3.02063C1179.19 3.02063 1179.26 3.02063 1179.29 3.02063L1198.37 9.47502H1214.33C1214.37 9.47502 1214.43 9.47502 1214.46 9.47502L1224.8 12.8686H1241.09C1241.12 12.8686 1241.19 12.8686 1241.21 12.8686L1252.25 16.3952H1268.87C1268.9 16.3952 1268.96 16.3952 1268.99 16.3952L1278.82 19.456C1279.07 19.5225 1279.23 19.8553 1279.17 20.1214C1279.07 20.321 1278.88 20.4541 1278.66 20.4541Z" fill="#01E6B6"/>
<path d="M1278.65 24.9122H1275.71C1275.68 24.9122 1275.61 24.9122 1275.59 24.9122L1263.65 21.1195H1246.72C1246.69 21.1195 1246.62 21.1195 1246.59 21.1195L1235.42 17.4598H1218.84C1218.81 17.4598 1218.75 17.4598 1218.71 17.4598L1208.28 13.9331H1192.03C1191.99 13.9331 1191.93 13.9331 1191.89 13.9331L1182.17 10.5397H1166.2C1166.17 10.5397 1166.1 10.5397 1166.07 10.5397L1148.12 4.08528L1117.27 4.01874C1117.01 4.01874 1116.79 3.75258 1116.79 3.48642C1116.79 3.22026 1117.01 2.9541 1117.27 2.9541L1148.18 3.02063C1148.21 3.02063 1148.28 3.02063 1148.31 3.02063L1166.26 9.47502H1182.23C1182.27 9.47502 1182.33 9.47502 1182.36 9.47502L1192.09 12.8686H1208.35C1208.38 12.8686 1208.44 12.8686 1208.47 12.8686L1218.91 16.3952H1235.49C1235.51 16.3952 1235.58 16.3952 1235.61 16.3952L1246.78 20.0549H1263.71C1263.74 20.0549 1263.81 20.0549 1263.84 20.0549L1275.77 23.8477H1278.65C1278.91 23.8477 1279.13 24.1138 1279.13 24.3799C1279.13 24.6461 1278.91 24.9122 1278.65 24.9122Z" fill="#01E6B6"/>
<path d="M1278.65 28.8392H1270.49C1270.47 28.8392 1270.4 28.8392 1270.37 28.8392L1258.3 24.9134H1241.05C1241.02 24.9134 1240.96 24.9134 1240.93 24.9134L1229.66 21.1206H1212.76C1212.73 21.1206 1212.67 21.1206 1212.63 21.1206L1202.14 17.4609H1185.56C1185.53 17.4609 1185.47 17.4609 1185.43 17.4609L1175.64 13.9343H1159.38C1159.32 13.9343 1159.29 13.9343 1159.22 13.9343L1150.07 10.5408H1134.13C1134.07 10.5408 1134.03 10.5408 1133.97 10.5408L1117.17 4.15292L1086.35 4.08637C1086.09 4.08637 1085.88 3.82022 1085.88 3.55405C1085.88 3.22135 1086.09 3.02173 1086.35 3.02173L1117.27 3.08828C1117.33 3.08828 1117.36 3.08828 1117.43 3.08828L1134.23 9.47611H1150.17C1150.23 9.47611 1150.26 9.47611 1150.33 9.47611L1159.48 12.8697H1175.73C1175.77 12.8697 1175.83 12.8697 1175.87 12.8697L1185.65 16.3963H1202.23C1202.27 16.3963 1202.33 16.3963 1202.36 16.3963L1212.86 20.0559H1229.75C1229.79 20.0559 1229.85 20.0559 1229.89 20.0559L1241.15 23.8488H1258.4C1258.43 23.8488 1258.49 23.8488 1258.53 23.8488L1270.59 27.7746H1278.69C1278.95 27.7746 1279.17 28.0407 1279.17 28.3069C1279.13 28.5731 1278.91 28.8392 1278.65 28.8392Z" fill="#01E6B6"/>
<path d="M1278.66 32.9647H1265.12C1265.09 32.9647 1265.03 32.9647 1264.99 32.9647L1252.8 28.8392H1235.2C1235.17 28.8392 1235.1 28.8392 1235.07 28.8392L1223.71 24.9134H1206.49C1206.46 24.9134 1206.39 24.9134 1206.37 24.9134L1195.77 21.1206H1178.87C1178.81 21.1206 1178.78 21.1206 1178.71 21.1206L1168.86 17.4609H1152.31C1152.25 17.4609 1152.21 17.4609 1152.15 17.4609L1142.97 13.9343H1126.74C1126.68 13.9343 1126.65 13.9343 1126.58 13.9343L1118.04 10.5408H1102.1C1102.03 10.5408 1102.01 10.5408 1101.94 10.5408L1086.26 4.15292L1055.47 4.08637C1055.21 4.08637 1054.99 3.82022 1054.99 3.55405C1054.99 3.22135 1055.21 3.02173 1055.47 3.02173L1086.35 3.08828C1086.42 3.08828 1086.45 3.08828 1086.51 3.08828L1102.19 9.47611H1118.13C1118.2 9.47611 1118.23 9.47611 1118.29 9.47611L1126.84 12.8697H1143.07C1143.13 12.8697 1143.16 12.8697 1143.23 12.8697L1152.41 16.3963H1168.95C1169.02 16.3963 1169.05 16.3963 1169.11 16.3963L1178.97 20.0559H1195.87C1195.9 20.0559 1195.97 20.0559 1195.99 20.0559L1206.59 23.8488H1223.81C1223.84 23.8488 1223.9 23.8488 1223.93 23.8488L1235.29 27.7746H1252.89C1252.93 27.7746 1252.99 27.7746 1253.03 27.7746L1265.22 31.9001H1278.69C1278.95 31.9001 1279.17 32.1662 1279.17 32.4324C1279.14 32.6985 1278.91 32.9647 1278.66 32.9647Z" fill="#01E6B6"/>
<path d="M1278.66 37.4906C1278.63 37.4906 1278.56 37.4906 1278.53 37.4906L1277.83 37.2244L1259.49 37.1578C1259.46 37.1578 1259.39 37.1578 1259.36 37.1578L1247.04 32.8993H1229.09C1229.05 32.8993 1228.99 32.8993 1228.96 32.8993L1217.5 28.7738H1199.93C1199.87 28.7738 1199.83 28.7738 1199.77 28.7738L1189.11 24.848H1171.9C1171.83 24.848 1171.8 24.848 1171.74 24.848L1161.81 21.0552H1144.95C1144.89 21.0552 1144.85 21.0552 1144.79 21.0552L1135.57 17.3955H1119.03C1118.97 17.3955 1118.93 17.3955 1118.87 17.3955L1110.33 13.8689H1094.1C1094.03 13.8689 1094 13.8689 1093.94 13.8023L1086 10.4088H1070.07C1070 10.4088 1069.94 10.4088 1069.91 10.3422L1055.37 3.95442L1024.59 3.88788C1024.33 3.88788 1024.11 3.62171 1024.11 3.35555C1024.11 3.02286 1024.33 2.82324 1024.59 2.82324L1055.47 2.88977C1055.53 2.88977 1055.6 2.88978 1055.63 2.95632L1070.16 9.34415H1086.07C1086.13 9.34415 1086.16 9.34416 1086.23 9.41069L1094.16 12.8042H1110.39C1110.45 12.8042 1110.49 12.8042 1110.55 12.8042L1119.09 16.3308H1135.64C1135.7 16.3308 1135.73 16.3308 1135.8 16.3308L1145.01 19.9906H1161.88C1161.95 19.9906 1161.98 19.9906 1162.04 19.9906L1171.96 23.7833H1189.18C1189.24 23.7833 1189.27 23.7833 1189.34 23.7833L1199.99 27.7092H1217.57C1217.6 27.7092 1217.66 27.7092 1217.69 27.7092L1229.15 31.8346H1247.11C1247.13 31.8346 1247.2 31.8346 1247.23 31.8346L1259.55 36.0932L1277.89 36.1598C1277.92 36.1598 1277.99 36.1598 1278.02 36.1598L1278.79 36.4259C1279.04 36.4924 1279.2 36.8252 1279.11 37.0913C1279.07 37.3575 1278.88 37.4906 1278.66 37.4906Z" fill="#01E6B6"/>
<path d="M1278.66 43.8784C1278.63 43.8784 1278.56 43.8784 1278.53 43.8784L1272.35 41.7491L1253.63 41.6826C1253.6 41.6826 1253.53 41.6826 1253.51 41.6826L1241.05 37.2243L1222.75 37.1578C1222.69 37.1578 1222.65 37.1578 1222.59 37.1578L1211.04 32.8993H1193.11C1193.05 32.8993 1193.02 32.8993 1192.95 32.8993L1182.23 28.7738H1164.67C1164.6 28.7738 1164.57 28.7738 1164.51 28.7738L1154.55 24.848H1137.33C1137.27 24.848 1137.24 24.848 1137.17 24.848L1127.96 21.0551H1111.09C1111.03 21.0551 1110.99 21.0551 1110.93 20.9886L1102.39 17.3289H1085.87C1085.81 17.3289 1085.75 17.3289 1085.71 17.2624L1077.78 13.8023H1061.55C1061.49 13.8023 1061.43 13.8023 1061.39 13.7358L1054.07 10.4088H1038.16C1038.09 10.4088 1038.03 10.4088 1037.97 10.3422L1024.56 3.95442L993.8 3.88788C993.547 3.88788 993.32 3.62171 993.32 3.35555C993.32 3.02286 993.547 2.82324 993.8 2.82324L1024.65 2.88977C1024.72 2.88977 1024.78 2.88978 1024.85 2.95632L1038.25 9.34415H1054.16C1054.23 9.34415 1054.29 9.34415 1054.32 9.41069L1061.65 12.7377H1077.84C1077.91 12.7377 1077.97 12.7377 1078 12.8042L1085.94 16.2643H1102.45C1102.51 16.2643 1102.55 16.2643 1102.61 16.3308L1111.16 19.9906H1128.02C1128.09 19.9906 1128.12 19.9906 1128.18 19.9906L1137.4 23.7833H1154.59C1154.65 23.7833 1154.68 23.7833 1154.75 23.7833L1164.7 27.7092H1182.27C1182.33 27.7092 1182.36 27.7092 1182.43 27.7092L1193.15 31.8346H1211.07C1211.13 31.8346 1211.17 31.8346 1211.23 31.8346L1222.78 36.0932L1241.09 36.1597C1241.12 36.1597 1241.19 36.1597 1241.21 36.1597L1253.67 40.6179L1272.39 40.6844C1272.42 40.6844 1272.48 40.6844 1272.51 40.6844L1278.75 42.8803C1279.01 42.9468 1279.14 43.2795 1279.07 43.5456C1279.04 43.6787 1278.85 43.8784 1278.66 43.8784Z" fill="#01E6B6"/>
<path d="M1278.66 50.597C1278.63 50.597 1278.56 50.597 1278.53 50.597L1266.65 46.3385L1247.52 46.2719C1247.45 46.2719 1247.42 46.2719 1247.36 46.2719L1234.75 41.6141L1216.06 41.5476C1215.99 41.5476 1215.97 41.5476 1215.9 41.5476L1204.22 37.0894H1185.91C1185.85 37.0894 1185.82 37.0894 1185.75 37.0894L1174.93 32.8309H1157.01C1156.95 32.8309 1156.92 32.8309 1156.85 32.8309L1146.84 28.7053H1129.3C1129.23 28.7053 1129.21 28.7053 1129.14 28.6388L1119.89 24.713H1102.71C1102.64 24.713 1102.58 24.713 1102.55 24.6464L1094 20.8537H1077.17C1077.11 20.8537 1077.04 20.8537 1077.01 20.7871L1069.11 17.194H1052.59C1052.53 17.194 1052.46 17.194 1052.4 17.1274L1045.1 13.6673H1028.91C1028.85 13.6673 1028.78 13.6673 1028.71 13.6008L1021.99 10.2738H1006.09C1006.03 10.2738 1005.96 10.2738 1005.9 10.2072L993.641 3.81942L962.921 3.75288C962.661 3.75288 962.441 3.48671 962.441 3.22055C962.441 2.88786 962.661 2.68823 962.921 2.68823L993.741 2.75477C993.801 2.75477 993.868 2.75478 993.928 2.82132L1006.19 9.20915H1022.06C1022.13 9.20915 1022.19 9.20916 1022.25 9.27569L1028.97 12.6027H1045.17C1045.23 12.6027 1045.29 12.6027 1045.36 12.6692L1052.65 16.1293H1069.17C1069.23 16.1293 1069.29 16.1293 1069.33 16.1959L1077.23 19.789H1094.07C1094.13 19.789 1094.19 19.789 1094.23 19.8555L1102.77 23.6483H1119.95C1120.02 23.6483 1120.05 23.6483 1120.11 23.7149L1129.37 27.6408H1146.9C1146.97 27.6408 1147 27.6408 1147.06 27.6408L1157.08 31.7662H1175C1175.07 31.7662 1175.09 31.7662 1175.16 31.7662L1185.98 36.0247H1204.28C1204.35 36.0247 1204.38 36.0247 1204.44 36.0247L1216.13 40.4829L1234.81 40.5495C1234.88 40.5495 1234.91 40.5495 1234.97 40.5495L1247.58 45.2073L1266.69 45.2738C1266.72 45.2738 1266.79 45.2738 1266.81 45.2738L1278.75 49.5323C1279.01 49.5988 1279.14 49.9316 1279.07 50.1977C1279.04 50.4639 1278.85 50.597 1278.66 50.597Z" fill="#01E6B6"/>
<path d="M1278.66 56.3205H1274.59C1274.53 56.3205 1274.5 56.3205 1274.43 56.3205L1260.67 51.2635L1241.12 51.1969C1241.05 51.1969 1241.02 51.1969 1240.96 51.1969L1228.22 46.3396L1209.11 46.273C1209.05 46.273 1209.02 46.273 1208.95 46.273L1197.18 41.6152L1178.49 41.5487C1178.43 41.5487 1178.39 41.5487 1178.33 41.5487L1167.45 37.0905L1149.17 37.024C1149.11 37.024 1149.08 37.024 1149.01 36.9575L1138.97 32.6988L1121.08 32.6323C1121.01 32.6323 1120.95 32.6323 1120.92 32.5658L1111.64 28.5068H1094.1C1094.03 28.5068 1093.97 28.5069 1093.94 28.4403L1085.39 24.5144H1068.24C1068.18 24.5144 1068.11 24.5144 1068.05 24.4479L1060.17 20.6552H1043.34C1043.28 20.6552 1043.21 20.6552 1043.15 20.5886L1035.89 16.9954H1019.37C1019.31 16.9954 1019.25 16.9954 1019.18 16.9289L1012.49 13.4688H996.299C996.233 13.4688 996.173 13.4688 996.106 13.4023L989.993 10.0753H974.119C974.059 10.0753 973.959 10.0753 973.899 10.0088L962.759 3.62093L932.066 3.55438C931.813 3.55438 931.586 3.28822 931.586 3.02206C931.586 2.68936 931.813 2.48975 932.066 2.48975L962.886 2.55629C962.953 2.55629 963.046 2.55629 963.113 2.62283L974.246 9.01065H990.119C990.186 9.01065 990.253 9.01066 990.313 9.0772L996.426 12.4042H1012.59C1012.65 12.4042 1012.71 12.4042 1012.78 12.4707L1019.47 15.9308H1035.95C1036.01 15.9308 1036.08 15.9308 1036.14 15.9974L1043.41 19.5905H1060.24C1060.31 19.5905 1060.37 19.5905 1060.43 19.6571L1068.31 23.4498H1085.46C1085.52 23.4498 1085.59 23.4498 1085.62 23.5164L1094.16 27.4422H1111.7C1111.77 27.4422 1111.83 27.4422 1111.86 27.5087L1121.14 31.5677L1139.03 31.6342C1139.09 31.6342 1139.13 31.6342 1139.19 31.7008L1149.24 35.9593L1167.51 36.0259C1167.58 36.0259 1167.61 36.0259 1167.67 36.0259L1178.55 40.4841L1197.25 40.5506C1197.31 40.5506 1197.34 40.5506 1197.41 40.5506L1209.18 45.2084L1228.29 45.2749C1228.35 45.2749 1228.38 45.2749 1228.45 45.2749L1241.18 50.1323L1260.74 50.1989C1260.8 50.1989 1260.83 50.1989 1260.9 50.1989L1274.66 55.2559H1278.66C1278.91 55.2559 1279.14 55.5221 1279.14 55.7882C1279.14 56.0544 1278.91 56.3205 1278.66 56.3205Z" fill="#01E6B6"/>
<path d="M1278.66 61.6427H1268.51C1268.45 61.6427 1268.42 61.6427 1268.35 61.6427L1254.4 56.3194L1234.43 56.2529C1234.37 56.2529 1234.33 56.2529 1234.27 56.2529L1221.41 51.1959L1201.89 51.1293C1201.82 51.1293 1201.79 51.1293 1201.73 51.1293L1189.85 46.2719L1170.78 46.2054C1170.71 46.2054 1170.68 46.2054 1170.62 46.1389L1159.67 41.4811L1141.01 41.4146C1140.95 41.4146 1140.89 41.4146 1140.85 41.348L1130.77 36.8898L1112.5 36.8233C1112.44 36.8233 1112.37 36.8233 1112.34 36.7568L1103.06 32.4981H1085.17C1085.11 32.4981 1085.04 32.4982 1084.98 32.4316L1076.43 28.3727H1058.93C1058.87 28.3727 1058.8 28.3727 1058.74 28.3062L1050.89 24.3803H1033.74C1033.68 24.3803 1033.61 24.3803 1033.55 24.3137L1026.35 20.5876H1009.55C1009.49 20.5876 1009.42 20.5876 1009.36 20.521L1002.73 16.9278H986.252C986.185 16.9278 986.092 16.9278 986.025 16.8613L979.979 13.4012H963.819C963.752 13.4012 963.659 13.4012 963.592 13.3346L958.052 10.0077H942.212C942.119 10.0077 942.052 10.0077 941.992 9.94114L932.005 3.55329L901.312 3.48676C901.059 3.48676 900.832 3.22061 900.832 2.95444C900.832 2.62174 901.059 2.42212 901.312 2.42212L932.099 2.48866C932.199 2.48866 932.259 2.48866 932.325 2.5552L942.312 8.94303H958.152C958.219 8.94303 958.312 8.94303 958.379 9.00958L963.912 12.3366H980.072C980.139 12.3366 980.232 12.3366 980.299 12.4032L986.345 15.8632H1002.83C1002.89 15.8632 1002.95 15.8632 1003.02 15.9298L1009.65 19.5229H1026.45C1026.51 19.5229 1026.57 19.5229 1026.64 19.5894L1033.84 23.3156H1050.99C1051.05 23.3156 1051.12 23.3156 1051.19 23.3822L1059.03 27.308H1076.53C1076.59 27.308 1076.66 27.308 1076.72 27.3746L1085.27 31.4335H1103.15C1103.22 31.4335 1103.29 31.4335 1103.31 31.5001L1112.6 35.7587L1130.87 35.8252C1130.93 35.8252 1131 35.8252 1131.03 35.8917L1141.11 40.3499L1159.77 40.4164C1159.83 40.4164 1159.87 40.4164 1159.93 40.483L1170.87 45.1408L1189.95 45.2073C1190.01 45.2073 1190.05 45.2073 1190.11 45.2073L1201.98 50.0648L1221.5 50.1313C1221.57 50.1313 1221.6 50.1313 1221.66 50.1313L1234.53 55.1883L1254.5 55.2549C1254.56 55.2549 1254.59 55.2549 1254.66 55.2549L1268.61 60.5781H1278.66C1278.91 60.5781 1279.14 60.8442 1279.14 61.1104C1279.14 61.3765 1278.91 61.6427 1278.66 61.6427Z" fill="#01E6B6"/>
<path d="M1278.65 67.1666L1262.17 67.1C1262.11 67.1 1262.08 67.1 1262.01 67.1L1247.9 61.5107L1227.45 61.4442C1227.39 61.4442 1227.35 61.4442 1227.29 61.4442L1214.3 56.1209L1194.33 56.0544C1194.27 56.0544 1194.23 56.0544 1194.17 55.9879L1182.2 50.9309L1162.68 50.8643C1162.61 50.8643 1162.55 50.8643 1162.52 50.7978L1151.51 45.9404L1132.43 45.8738C1132.37 45.8738 1132.31 45.8739 1132.27 45.8073L1122.17 41.1495L1103.51 41.083C1103.44 41.083 1103.38 41.083 1103.31 41.0164L1094.03 36.5583H1075.79C1075.73 36.5583 1075.67 36.5583 1075.6 36.4917L1067.09 32.2331H1049.23C1049.17 32.2331 1049.1 32.2331 1049.04 32.1666L1041.23 28.1077H1023.75C1023.69 28.1077 1023.63 28.1077 1023.57 28.0411L1016.39 24.1153H999.274C999.207 24.1153 999.114 24.1152 999.047 24.0487L992.52 20.3225H975.72C975.654 20.3225 975.56 20.3225 975.494 20.256L969.54 16.6628H953.094C953 16.6628 952.934 16.6628 952.867 16.5962L947.46 13.1362H931.334C931.234 13.1362 931.174 13.1361 931.074 13.0696L926.147 9.74265H910.307C910.214 9.74265 910.147 9.74264 910.054 9.6761L901.187 3.35481L870.527 3.28828C870.274 3.28828 870.047 3.02211 870.047 2.75595C870.047 2.42326 870.274 2.22363 870.527 2.22363L901.314 2.29017C901.407 2.29017 901.474 2.29017 901.567 2.35671L910.434 8.67801H926.247C926.34 8.67801 926.407 8.67801 926.5 8.74455L931.427 12.0716H947.56C947.654 12.0716 947.72 12.0716 947.78 12.1381L953.187 15.5982H969.64C969.7 15.5982 969.8 15.5982 969.86 15.6647L975.814 19.2579H992.62C992.68 19.2579 992.78 19.2579 992.84 19.3244L999.367 23.0506H1016.49C1016.55 23.0506 1016.62 23.0506 1016.68 23.1172L1023.85 27.043H1041.33C1041.39 27.043 1041.45 27.043 1041.52 27.1095L1049.33 31.1685H1067.18C1067.25 31.1685 1067.31 31.1685 1067.37 31.2351L1075.89 35.4936H1094.13C1094.19 35.4936 1094.26 35.4936 1094.32 35.5601L1103.6 40.0183L1122.26 40.0849C1122.33 40.0849 1122.39 40.0849 1122.42 40.1514L1132.53 44.8092L1151.61 44.8757C1151.67 44.8757 1151.73 44.8757 1151.77 44.9423L1162.77 49.7997L1182.29 49.8663C1182.36 49.8663 1182.39 49.8663 1182.45 49.9328L1194.43 54.9898L1214.39 55.0564C1214.46 55.0564 1214.49 55.0564 1214.55 55.0564L1227.55 60.3796L1248 60.4461C1248.06 60.4461 1248.09 60.4461 1248.16 60.4461L1262.27 66.0355L1278.69 66.102C1278.95 66.102 1279.17 66.3681 1279.17 66.6343C1279.13 66.967 1278.91 67.1666 1278.65 67.1666Z" fill="#01E6B6"/>
<path d="M1278.66 73.6876C1278.59 73.6876 1278.56 73.6876 1278.5 73.6876L1276.96 73.0887L1255.49 73.0222C1255.43 73.0222 1255.39 73.0222 1255.33 73.0222L1241.02 67.1666L1220.09 67.1001C1220.03 67.1001 1219.99 67.1001 1219.93 67.0335L1206.81 61.4442L1186.39 61.3777C1186.33 61.3777 1186.27 61.3777 1186.23 61.3111L1174.2 55.9879L1154.26 55.9214C1154.2 55.9214 1154.13 55.9214 1154.1 55.8548L1143.06 50.7978L1123.57 50.7312C1123.51 50.7312 1123.45 50.7312 1123.38 50.6647L1113.23 45.8073L1094.19 45.7408C1094.13 45.7408 1094.07 45.7408 1094 45.6742L1084.72 41.083L1066.09 41.0164C1066.03 41.0164 1065.97 41.0164 1065.91 40.9499L1057.42 36.5583H1039.18C1039.12 36.5583 1039.05 36.5583 1038.99 36.4917L1031.21 32.2331H1013.35C1013.29 32.2331 1013.19 32.2331 1013.13 32.1666L1006.06 28.1077H988.587C988.52 28.1077 988.427 28.1077 988.36 28.0411L981.9 24.1818H964.773C964.68 24.1818 964.613 24.1818 964.553 24.1153L958.693 20.3891H941.927C941.827 20.3891 941.767 20.3891 941.667 20.3225L936.36 16.7294H919.907C919.813 16.7294 919.747 16.7294 919.653 16.6628L914.853 13.2027H898.72C898.627 13.2027 898.533 13.2027 898.467 13.1362L894.147 9.80919H878.333C878.24 9.80919 878.147 9.74264 878.047 9.67611L870.333 3.35481L839.707 3.28828C839.453 3.28828 839.227 3.02211 839.227 2.75595C839.227 2.42326 839.453 2.22363 839.707 2.22363L870.467 2.29017C870.56 2.29017 870.653 2.35672 870.753 2.42326L878.467 8.74455H894.273C894.367 8.74455 894.467 8.74456 894.527 8.81109L898.853 12.1381H914.947C915.047 12.1381 915.107 12.1381 915.207 12.2046L920.007 15.6647H936.42C936.52 15.6647 936.58 15.6647 936.68 15.7313L941.987 19.3244H958.76C958.853 19.3244 958.92 19.3244 958.98 19.3909L964.84 23.1172H981.927C981.993 23.1172 982.087 23.1172 982.153 23.1837L988.62 27.043H1006.09C1006.15 27.043 1006.25 27.043 1006.31 27.1095L1013.39 31.1685H1031.21C1031.28 31.1685 1031.34 31.1685 1031.41 31.2351L1039.18 35.4936H1057.39C1057.45 35.4936 1057.52 35.4936 1057.58 35.5602L1066.07 39.9518L1084.69 40.0184C1084.75 40.0184 1084.82 40.0184 1084.88 40.0849L1094.16 44.6761L1113.21 44.7427C1113.27 44.7427 1113.33 44.7427 1113.39 44.8092L1123.54 49.6666L1143.03 49.7331C1143.09 49.7331 1143.16 49.7331 1143.19 49.7997L1154.23 54.8567L1174.17 54.9232C1174.23 54.9232 1174.3 54.9232 1174.33 54.9898L1186.36 60.313L1206.78 60.3796C1206.85 60.3796 1206.87 60.3796 1206.94 60.4461L1220.06 66.0355L1240.99 66.102C1241.05 66.102 1241.09 66.102 1241.15 66.102L1255.45 71.9575L1276.9 72.0241C1276.96 72.0241 1276.99 72.0241 1277.06 72.0241L1278.66 72.6229C1278.91 72.6894 1279.04 73.0222 1278.95 73.3548C1279.04 73.5545 1278.85 73.6876 1278.66 73.6876Z" fill="#01E6B6"/>
<path d="M1278.66 82.4708C1278.59 82.4708 1278.56 82.4708 1278.5 82.4708L1270.53 79.2103L1248.55 79.1438C1248.48 79.1438 1248.45 79.1438 1248.39 79.0773L1233.92 72.9556L1212.48 72.8891C1212.41 72.8891 1212.35 72.8891 1212.32 72.8225L1199.07 66.967L1178.17 66.9004C1178.11 66.9004 1178.04 66.9004 1178.01 66.8339L1165.88 61.2445L1145.47 61.178C1145.4 61.178 1145.33 61.178 1145.27 61.1115L1134.17 55.7883L1114.23 55.7218C1114.17 55.7218 1114.1 55.7218 1114.04 55.6552L1103.89 50.5982L1084.43 50.5316C1084.37 50.5316 1084.31 50.5317 1084.24 50.4651L1074.96 45.6743L1055.92 45.6076C1055.85 45.6076 1055.79 45.6076 1055.73 45.5411L1047.28 40.9498L1028.69 40.8833C1028.62 40.8833 1028.53 40.8833 1028.46 40.8168L1020.75 36.4252L1002.54 36.3586C1002.47 36.3586 1002.38 36.3586 1002.31 36.2921L995.308 32.1001H977.481C977.388 32.1001 977.321 32.1001 977.261 32.0335L970.888 27.9746H953.448C953.354 27.9746 953.288 27.9746 953.194 27.9081L947.434 24.0487H930.341C930.248 24.0487 930.181 24.0487 930.088 23.9822L924.901 20.256H908.168C908.068 20.256 907.974 20.256 907.908 20.1894L903.234 16.6628H886.821C886.721 16.6628 886.628 16.5962 886.535 16.5297L882.341 13.1362H866.241C866.148 13.1362 866.048 13.0696 865.955 13.0031L862.241 9.74265H846.461C846.368 9.74265 846.241 9.67611 846.174 9.60957L839.581 3.35481L808.988 3.28828C808.734 3.28828 808.508 3.02211 808.508 2.75595C808.508 2.42326 808.734 2.22363 808.988 2.22363L839.741 2.29017C839.841 2.29017 839.968 2.35672 840.035 2.42326L846.621 8.67801H862.401C862.494 8.67801 862.594 8.74455 862.688 8.81109L866.401 12.0716H882.501C882.594 12.0716 882.688 12.1381 882.788 12.2046L886.981 15.5982H903.394C903.494 15.5982 903.588 15.5982 903.654 15.6647L908.328 19.1913H925.061C925.161 19.1913 925.221 19.1913 925.321 19.2579L930.501 22.9841H947.594C947.688 22.9841 947.754 22.9841 947.848 23.0506L953.608 26.9099H971.048C971.148 26.9099 971.208 26.9099 971.274 26.9765L977.641 31.0354H995.468C995.534 31.0354 995.628 31.0354 995.694 31.1019L1002.7 35.294L1020.91 35.3606C1020.97 35.3606 1021.07 35.3606 1021.13 35.4271L1028.85 39.8187L1047.44 39.8852C1047.51 39.8852 1047.57 39.8853 1047.63 39.9518L1056.08 44.5431L1075.09 44.6096C1075.15 44.6096 1075.22 44.6096 1075.28 44.6761L1084.56 49.467L1104.02 49.5335C1104.09 49.5335 1104.15 49.5335 1104.21 49.6L1114.36 54.6571L1134.29 54.7236C1134.36 54.7236 1134.42 54.7236 1134.49 54.7902L1145.59 60.1134L1166.01 60.18C1166.07 60.18 1166.14 60.18 1166.17 60.2465L1178.3 65.8358L1199.19 65.9023C1199.26 65.9023 1199.33 65.9023 1199.35 65.969L1212.61 71.8244L1234.05 71.891C1234.11 71.891 1234.14 71.891 1234.21 71.9575L1248.67 78.0792L1270.66 78.1458C1270.72 78.1458 1270.75 78.1458 1270.82 78.1458L1278.88 81.4727C1279.14 81.6058 1279.27 81.8719 1279.17 82.2047C1279.04 82.3377 1278.85 82.4708 1278.66 82.4708Z" fill="#01E6B6"/>
<path d="M1278.66 91.9179C1278.59 91.9179 1278.56 91.9179 1278.5 91.8512L1263.75 85.5963L1241.18 85.5297C1241.12 85.5297 1241.05 85.5297 1241.02 85.4632L1226.37 79.0088L1204.38 78.9422C1204.31 78.9422 1204.25 78.9422 1204.22 78.8757L1190.84 72.7541L1169.43 72.6875C1169.37 72.6875 1169.31 72.6875 1169.24 72.621L1157.05 66.7654L1136.15 66.6989C1136.09 66.6989 1136.02 66.6989 1135.96 66.6323L1124.82 61.1096L1104.43 61.043C1104.37 61.043 1104.31 61.043 1104.24 60.9764L1094.1 55.7198L1074.19 55.6533C1074.13 55.6533 1074.07 55.6532 1074 55.5867L1064.75 50.5297L1045.29 50.4631C1045.23 50.4631 1045.13 50.4631 1045.07 50.3966L1036.65 45.6057L1017.65 45.5392C1017.58 45.5392 1017.49 45.5392 1017.42 45.4727L1009.77 40.8814L991.179 40.8149C991.079 40.8149 991.019 40.8149 990.953 40.7483L984.039 36.3567L965.866 36.2902C965.766 36.2902 965.706 36.2902 965.606 36.2236L959.366 32.0316L941.573 31.965C941.479 31.965 941.412 31.965 941.319 31.8985L935.686 27.9061H918.273C918.179 27.9061 918.086 27.9061 918.019 27.8396L912.966 23.9803H895.906C895.813 23.9803 895.713 23.9137 895.619 23.8471L891.106 20.1875H874.399C874.306 20.1875 874.206 20.121 874.113 20.0544L870.079 16.5278H853.693C853.599 16.5278 853.473 16.4613 853.406 16.3947L849.853 13.0012H833.786C833.659 13.0012 833.566 12.9347 833.466 12.868L830.366 9.60764H814.619C814.493 9.60764 814.366 9.5411 814.299 9.47456L808.826 3.2198L778.292 3.15327C778.039 3.15327 777.812 2.8871 777.812 2.62094C777.812 2.28825 778.039 2.08862 778.292 2.08862L809.019 2.15516C809.146 2.15516 809.273 2.22171 809.373 2.28825L814.846 8.543H830.586C830.719 8.543 830.813 8.60954 830.906 8.67607L834.013 11.9366H850.079C850.173 11.9366 850.299 12.0031 850.366 12.0696L853.919 15.4632H870.306C870.399 15.4632 870.493 15.5297 870.593 15.5962L874.626 19.1228H891.326C891.426 19.1228 891.519 19.1894 891.619 19.2559L896.132 22.9157H913.186C913.286 22.9157 913.379 22.9156 913.446 22.9822L918.499 26.8415H935.906C936.006 26.8415 936.066 26.8415 936.166 26.9081L941.799 30.9004L959.593 30.967C959.686 30.967 959.753 30.967 959.846 31.0335L966.086 35.2255L984.266 35.292C984.359 35.292 984.426 35.292 984.486 35.3586L991.399 39.7503L1009.99 39.8168C1010.06 39.8168 1010.15 39.8168 1010.22 39.8833L1017.87 44.4746L1036.88 44.5411C1036.94 44.5411 1037.04 44.5411 1037.1 44.6076L1045.52 49.3985L1064.97 49.4651C1065.04 49.4651 1065.11 49.4651 1065.17 49.5316L1074.42 54.5886L1094.32 54.6552C1094.39 54.6552 1094.45 54.6552 1094.51 54.7218L1104.66 59.9784L1125.05 60.0449C1125.11 60.0449 1125.17 60.0449 1125.24 60.1115L1136.37 65.6343L1157.27 65.7009C1157.33 65.7009 1157.4 65.7009 1157.47 65.7674L1169.65 71.6229L1191.07 71.6894C1191.13 71.6894 1191.19 71.6894 1191.23 71.7559L1204.61 77.8777L1226.56 77.9442C1226.62 77.9442 1226.69 77.9442 1226.72 78.0107L1241.37 84.4651L1263.93 84.5316C1264 84.5316 1264.03 84.5316 1264.09 84.5981L1278.91 90.9194C1279.17 91.0525 1279.3 91.3187 1279.2 91.6517C1279.04 91.7844 1278.85 91.9179 1278.66 91.9179Z" fill="#01E6B6"/>
<path d="M1278.65 99.5731H1273.03C1272.96 99.5731 1272.89 99.5731 1272.87 99.5063L1256.61 92.3197L1233.47 92.2538C1233.41 92.2538 1233.34 92.2538 1233.31 92.1871L1218.49 85.3999L1195.96 85.3334C1195.9 85.3334 1195.83 85.3334 1195.77 85.2669L1182.27 78.8125L1160.31 78.7459C1160.25 78.7459 1160.18 78.7459 1160.12 78.6794L1147.83 72.5577L1126.45 72.4912C1126.39 72.4912 1126.33 72.4912 1126.26 72.4246L1115.09 66.6357L1094.23 66.5691C1094.16 66.5691 1094.1 66.5691 1094.03 66.5025L1083.89 60.9798L1063.53 60.9133C1063.47 60.9133 1063.37 60.9133 1063.31 60.8467L1054.09 55.5901L1034.22 55.5234C1034.15 55.5234 1034.06 55.5235 1033.99 55.4569L1025.65 50.4L1006.22 50.3333C1006.12 50.3333 1006.06 50.3333 1005.99 50.2668L998.441 45.476L979.467 45.4094C979.367 45.4094 979.307 45.4094 979.207 45.3429L972.394 40.7516L953.827 40.6851C953.734 40.6851 953.667 40.6851 953.574 40.6186L947.461 36.2269H929.314C929.221 36.2269 929.127 36.2269 929.061 36.1604L923.587 31.9684H905.827C905.727 31.9684 905.634 31.9019 905.541 31.8353L900.641 27.8429H883.234C883.134 27.8429 883.041 27.7764 882.947 27.7098L878.594 23.8505H861.567C861.474 23.8505 861.341 23.784 861.247 23.7174L857.407 20.0577H840.701C840.574 20.0577 840.474 19.9912 840.381 19.9246L837.021 16.398H820.667C820.541 16.398 820.414 16.3315 820.314 16.265L817.374 12.9379H801.341C801.207 12.9379 801.081 12.8714 800.987 12.7384L798.461 9.5444H782.747C782.587 9.5444 782.454 9.47786 782.361 9.34477L778.007 3.15658L747.507 3.09002C747.254 3.09002 747.027 2.82387 747.027 2.5577C747.027 2.22501 747.254 2.02539 747.507 2.02539L778.234 2.09193C778.394 2.09193 778.521 2.15847 778.614 2.29156L782.967 8.47976H798.681C798.807 8.47976 798.941 8.5463 799.034 8.67938L801.561 11.8733H817.561C817.694 11.8733 817.821 11.9398 817.914 12.0063L820.861 15.3334H837.214C837.341 15.3334 837.434 15.3999 837.534 15.4664L840.894 18.993H857.567C857.661 18.993 857.787 19.0596 857.887 19.1262L861.727 22.7859H878.754C878.847 22.7859 878.947 22.8524 879.041 22.9189L883.394 26.7783H900.767C900.867 26.7783 900.961 26.8448 901.061 26.9113L905.954 30.9037H923.714C923.814 30.9037 923.907 30.9037 923.974 30.9703L929.447 35.1622H947.587C947.687 35.1622 947.747 35.1623 947.847 35.2288L953.961 39.6205L972.521 39.687C972.614 39.687 972.681 39.687 972.774 39.7535L979.594 44.3448L998.567 44.4113C998.667 44.4113 998.727 44.4113 998.794 44.4778L1006.35 49.2688L1025.77 49.3353C1025.83 49.3353 1025.93 49.3353 1025.99 49.4018L1034.35 54.4589L1054.22 54.5254C1054.29 54.5254 1054.38 54.5254 1054.45 54.592L1063.66 59.8486L1084.01 59.9151C1084.08 59.9151 1084.15 59.9151 1084.21 59.9817L1094.35 65.5045L1115.22 65.571C1115.28 65.571 1115.35 65.5711 1115.41 65.6376L1126.58 71.4266L1147.96 71.4931C1148.02 71.4931 1148.09 71.4931 1148.15 71.5596L1160.44 77.6813L1182.39 77.7479C1182.45 77.7479 1182.52 77.7479 1182.59 77.8144L1196.09 84.2687L1218.62 84.3353C1218.69 84.3353 1218.75 84.3353 1218.78 84.4018L1233.59 91.1889L1256.73 91.2554C1256.8 91.2554 1256.86 91.2554 1256.89 91.322L1273.15 98.5082H1278.69C1278.95 98.5082 1279.17 98.7744 1279.17 99.0406C1279.13 99.3737 1278.91 99.5731 1278.65 99.5731Z" fill="#01E6B6"/>
<path d="M14.3285 64.5712H-0.488711C-0.744731 64.5712 -0.96875 64.305 -0.96875 64.0389C-0.96875 63.7062 -0.744731 63.5066 -0.488711 63.5066H14.2645L182.054 1.35827C182.31 1.29173 182.566 1.42481 182.662 1.69096C182.758 1.95712 182.598 2.28983 182.342 2.4229L14.4885 64.5712C14.4245 64.5712 14.3925 64.5712 14.3285 64.5712Z" fill="#01E6B6"/>
<path d="M14.1365 260.398L-0.488711 260.332C-0.744731 260.332 -0.96875 260.065 -0.96875 259.799C-0.96875 259.466 -0.744731 259.267 -0.488711 259.267L14.0085 259.334L395.224 1.69081C395.448 1.55773 395.736 1.62427 395.896 1.89043C396.024 2.15658 395.96 2.48929 395.736 2.62237L14.3605 260.332C14.2965 260.398 14.2005 260.398 14.1365 260.398Z" fill="#01E6B6"/>
<path d="M-0.488449 203.771C-0.680465 203.771 -0.840478 203.638 -0.904483 203.438C-1.03249 203.173 -0.936486 202.84 -0.680465 202.706L12.3126 195.254C12.3766 195.187 12.4406 195.187 12.5366 195.187L172.742 195.72L204.841 195.852L1278.69 199.313C1278.94 199.313 1279.17 199.579 1279.17 199.845C1279.17 200.178 1278.94 200.378 1278.69 200.378L12.6646 196.252L-0.264431 203.704C-0.328438 203.704 -0.424444 203.771 -0.488449 203.771Z" fill="#01E6B6"/>
<path d="M1278.66 247.226C1278.56 247.226 1278.5 247.226 1278.4 247.16L979.305 45.8096L13.4331 43.9465L-0.360014 48.6043C-0.616035 48.6708 -0.872056 48.5377 -0.968064 48.2051C-1.03207 47.9389 -0.904059 47.6062 -0.648038 47.5396L13.2091 42.8818C13.2411 42.8818 13.3051 42.8818 13.3371 42.8818L979.399 44.745C979.499 44.745 979.559 44.745 979.659 44.8115L1278.88 246.228C1279.11 246.361 1279.2 246.694 1279.04 246.96C1278.98 247.16 1278.82 247.226 1278.66 247.226Z" fill="#01E6B6"/>
<path d="M13.3684 43.9424H-0.488711C-0.744731 43.9424 -0.96875 43.6763 -0.96875 43.4101C-0.96875 43.0774 -0.744731 42.8778 -0.488711 42.8778H13.3044L136.483 1.29032C136.739 1.22378 136.995 1.35685 137.091 1.68955C137.155 1.95571 137.027 2.28841 136.771 2.35495L13.4965 43.9424C13.4645 43.9424 13.4004 43.9424 13.3684 43.9424Z" fill="#01E6B6"/>
<path d="M12.5683 26.6412H-0.488711C-0.744731 26.6412 -0.96875 26.3751 -0.96875 26.1089C-0.96875 25.7762 -0.744731 25.5765 -0.488711 25.5765H12.5043L90.9427 1.22293C91.1987 1.15639 91.4547 1.28948 91.5187 1.62218C91.5827 1.88834 91.4227 2.22104 91.1667 2.28758L12.6644 26.5747C12.6323 26.6412 12.6003 26.6412 12.5683 26.6412Z" fill="#01E6B6"/>
<path d="M12.5043 196.255L-0.488711 196.189C-0.744731 196.189 -0.96875 195.922 -0.96875 195.656C-0.96875 195.323 -0.744731 195.124 -0.488711 195.124L12.4083 195.191L349.492 1.6257C349.716 1.49262 350.004 1.62569 350.132 1.89185C350.26 2.15801 350.164 2.49071 349.908 2.62379L12.7284 196.189C12.6644 196.255 12.5683 196.255 12.5043 196.255Z" fill="#01E6B6"/>
<path d="M-0.4881 154.599C-0.680116 154.599 -0.840129 154.466 -0.936137 154.267C-1.03214 154.001 -0.936137 153.668 -0.680116 153.535L11.1289 147.613C11.1929 147.613 11.2569 147.546 11.3209 147.546L262.669 148.278L1278.66 151.139C1278.91 151.139 1279.14 151.405 1279.14 151.671C1279.14 152.004 1278.91 152.204 1278.66 152.204L11.4169 148.677L-0.296087 154.533C-0.360089 154.533 -0.424095 154.599 -0.4881 154.599Z" fill="#01E6B6"/>
<path d="M11.8643 11.8731H-0.488711C-0.744731 11.8731 -0.96875 11.6069 -0.96875 11.3408C-0.96875 11.008 -0.744731 10.8084 -0.488711 10.8084H11.8003L45.4031 1.16011C45.6591 1.09357 45.9151 1.29319 45.9791 1.55935C46.0431 1.82551 45.8831 2.15821 45.6271 2.22475L11.9923 11.8731C11.9283 11.8731 11.8963 11.8731 11.8643 11.8731Z" fill="#01E6B6"/>
<path d="M11.3203 148.678H-0.488711C-0.744731 148.678 -0.96875 148.412 -0.96875 148.146C-0.96875 147.813 -0.744731 147.614 -0.488711 147.614H11.2243L303.792 1.55831C304.048 1.42523 304.305 1.55832 304.433 1.82448C304.529 2.09064 304.433 2.42333 304.177 2.55641L11.5123 148.678C11.4483 148.678 11.3843 148.678 11.3203 148.678Z" fill="#01E6B6"/>
<path d="M-0.488837 116.804C-0.680853 116.804 -0.872869 116.67 -0.936874 116.471C-1.03288 116.205 -0.904871 115.873 -0.64885 115.739L10.2321 110.949C10.2961 110.949 10.3281 110.882 10.3921 110.882L1278.65 114.076C1278.91 114.076 1279.13 114.342 1279.13 114.608C1279.13 114.94 1278.91 115.141 1278.65 115.141L10.4881 111.947L-0.328827 116.737C-0.360827 116.737 -0.424832 116.804 -0.488837 116.804Z" fill="#01E6B6"/>
<path d="M1278.65 7.28049H1267.33C1267.29 7.28049 1267.26 7.28049 1267.2 7.28049L1256.41 4.08657C1256.16 4.02003 1256 3.68733 1256.06 3.42117C1256.13 3.15501 1256.38 2.95539 1256.64 3.02193L1267.39 6.14931H1278.69C1278.94 6.14931 1279.17 6.41547 1279.17 6.68162C1279.13 7.01433 1278.91 7.28049 1278.65 7.28049Z" fill="#01E6B6"/>
<path d="M10.3922 111.945H-0.488711C-0.744731 111.945 -0.96875 111.679 -0.96875 111.414C-0.96875 111.08 -0.744731 110.881 -0.488711 110.881H10.2962L258.093 1.48914C258.349 1.35606 258.605 1.55568 258.701 1.82184C258.797 2.08799 258.669 2.42069 258.413 2.55377L10.5522 111.945C10.4882 111.945 10.4562 111.945 10.3922 111.945Z" fill="#01E6B6"/>
<path d="M1278.66 124.922C1278.59 124.922 1278.53 124.922 1278.47 124.855L1195.83 85.4633L9.72043 82.8017L-0.328369 86.7941C-0.584391 86.8606 -0.840412 86.7276 -0.93642 86.4614C-1.03243 86.1952 -0.872415 85.8626 -0.648396 85.7295L9.49643 81.7371C9.56043 81.7371 9.59243 81.7371 9.65643 81.7371L1195.93 84.3987C1195.99 84.3987 1196.06 84.3987 1196.12 84.4652L1278.85 123.924C1279.11 124.056 1279.2 124.389 1279.11 124.655C1279.01 124.788 1278.85 124.922 1278.66 124.922Z" fill="#01E6B6"/>
<path d="M1278.65 10.5398H1278.49C1278.47 10.5398 1278.43 10.5398 1278.37 10.5398L1267.23 7.2794L1235.77 7.21285C1235.74 7.21285 1235.68 7.21285 1235.65 7.21285L1225.41 4.01894C1225.15 3.9524 1224.99 3.61969 1225.05 3.35353C1225.11 3.08738 1225.37 2.88776 1225.63 2.9543L1235.81 6.08167L1267.26 6.14822C1267.29 6.14822 1267.33 6.14822 1267.39 6.14822L1278.53 9.40868H1278.63C1278.88 9.40868 1279.11 9.67483 1279.11 9.941C1279.11 10.2072 1278.91 10.5398 1278.65 10.5398Z" fill="#01E6B6"/>
<path d="M9.65613 82.8043H-0.488711C-0.744731 82.8043 -0.96875 82.5381 -0.96875 82.2719C-0.96875 81.9392 -0.744731 81.7396 -0.488711 81.7396H9.56013L212.457 1.42589C212.713 1.35935 212.969 1.49243 213.065 1.75859C213.161 2.02476 213.001 2.35745 212.777 2.49054L9.81613 82.7377C9.75213 82.8043 9.72013 82.8043 9.65613 82.8043Z" fill="#01E6B6"/>
<path d="M1278.66 13.9334H1273.76C1273.73 13.9334 1273.66 13.9334 1273.63 13.9334L1262.37 10.5398H1246.37C1246.33 10.5398 1246.27 10.5398 1246.24 10.5398L1235.68 7.2794L1204.22 7.21285C1204.18 7.21285 1204.12 7.21285 1204.09 7.21285L1194.43 4.01894C1194.17 3.9524 1194.01 3.61969 1194.11 3.35353C1194.2 3.08738 1194.46 2.88776 1194.71 2.9543L1204.31 6.08167L1235.77 6.14822C1235.81 6.14822 1235.86 6.14822 1235.9 6.14822L1246.46 9.40867H1262.46C1262.49 9.40867 1262.56 9.40867 1262.59 9.40867L1273.86 12.8022H1278.69C1278.95 12.8022 1279.17 13.0684 1279.17 13.3345C1279.14 13.6672 1278.91 13.9334 1278.66 13.9334Z" fill="#01E6B6"/>
<path d="M1278.66 184.343C1278.59 184.343 1278.53 184.343 1278.43 184.277L1063.38 61.178L9.11276 59.0487L-0.360014 62.4423C-0.616035 62.5088 -0.872056 62.3758 -0.968064 62.043C-1.03207 61.7769 -0.904059 61.4442 -0.648038 61.3776L8.88876 57.9841C8.92076 57.9841 8.98476 57.9841 9.01676 57.9841L1063.47 60.1134C1063.54 60.1134 1063.63 60.1134 1063.7 60.1799L1278.85 183.345C1279.07 183.479 1279.17 183.811 1279.07 184.077C1279.01 184.211 1278.85 184.343 1278.66 184.343Z" fill="#01E6B6"/>
<path d="M1204.25 723.05C1204.09 723.05 1203.97 722.984 1203.87 722.784L1128.98 600.616L55.9649 593.431L-0.135687 665.16C-0.3277 665.36 -0.615725 665.427 -0.807741 665.227C-0.999757 665.028 -1.03176 664.695 -0.839744 664.429L55.3889 592.565C55.4849 592.433 55.6129 592.366 55.7409 592.366L1129.21 599.552C1129.37 599.552 1129.49 599.618 1129.59 599.819L1204.63 722.185C1204.79 722.451 1204.73 722.784 1204.51 722.984C1204.45 722.984 1204.35 723.05 1204.25 723.05Z" fill="#01E6B6"/>
<path d="M9.04807 59.0481H-0.488711C-0.744731 59.0481 -0.96875 58.7819 -0.96875 58.5158C-0.96875 58.183 -0.744731 57.9835 -0.488711 57.9835H8.98407L166.853 1.35794C167.109 1.2914 167.365 1.42449 167.461 1.75719C167.525 2.02334 167.397 2.35605 167.141 2.42258L9.20807 59.0481C9.14407 59.0481 9.11207 59.0481 9.04807 59.0481Z" fill="#01E6B6"/>
<path d="M1278.66 17.46H1268.84C1268.8 17.46 1268.74 17.46 1268.71 17.46L1257.35 13.9334H1241.06C1241.02 13.9334 1240.96 13.9334 1240.93 13.9334L1230.28 10.5398H1214.3C1214.27 10.5398 1214.21 10.5398 1214.18 10.5398L1204.22 7.2794L1172.8 7.21285C1172.76 7.21285 1172.7 7.21285 1172.67 7.21285L1163.55 4.01894C1163.29 3.9524 1163.16 3.61969 1163.23 3.35353C1163.29 3.08738 1163.58 2.88776 1163.84 2.9543L1172.89 6.08167L1204.32 6.14822C1204.35 6.14822 1204.42 6.14822 1204.45 6.14822L1214.43 9.40868H1230.4C1230.44 9.40868 1230.5 9.40868 1230.53 9.40868L1241.18 12.8022H1257.48C1257.51 12.8022 1257.57 12.8022 1257.6 12.8022L1268.96 16.3288H1278.72C1278.98 16.3288 1279.2 16.595 1279.2 16.8611C1279.14 17.1939 1278.92 17.46 1278.66 17.46Z" fill="#01E6B6"/>
<path d="M1278.66 273.439C1278.56 273.439 1278.5 273.439 1278.4 273.373L953.705 41.1484L8.6327 39.3519L-0.360014 42.2796C-0.616035 42.3462 -0.872056 42.2131 -0.968064 41.8804C-1.03207 41.6142 -0.904059 41.2815 -0.648038 41.215L8.4087 38.2207C8.4407 38.2207 8.5047 38.2207 8.5367 38.2207L953.799 39.9507C953.892 39.9507 953.959 39.9507 954.052 40.0173L1241.73 245.758L1278.88 272.308C1279.11 272.441 1279.17 272.841 1279.04 273.107C1278.98 273.306 1278.82 273.439 1278.66 273.439Z" fill="#01E6B6"/>
<path d="M8.56807 39.3503H-0.488711C-0.744731 39.3503 -0.96875 39.0841 -0.96875 38.818C-0.96875 38.4853 -0.744731 38.2857 -0.488711 38.2857H8.504L121.281 1.22293C121.537 1.15639 121.793 1.28948 121.889 1.62218C121.953 1.88834 121.825 2.22104 121.569 2.28758L8.69607 39.2838C8.63207 39.3503 8.60007 39.3503 8.56807 39.3503Z" fill="#01E6B6"/>
<path d="M1278.66 21.0522H1263.71C1263.68 21.0522 1263.61 21.0522 1263.59 21.0522L1252.09 17.3926H1235.52C1235.49 17.3926 1235.42 17.3926 1235.39 17.3926L1224.63 13.866H1208.35C1208.31 13.866 1208.25 13.866 1208.22 13.866L1198.17 10.4724H1182.2C1182.17 10.4724 1182.11 10.4724 1182.07 10.4724L1172.69 7.21194L1141.27 7.14541C1141.21 7.14541 1141.17 7.14541 1141.11 7.14541L1132.53 3.95149C1132.28 3.88494 1132.15 3.55224 1132.21 3.21954C1132.31 2.95338 1132.57 2.75376 1132.82 2.88684L1141.3 6.01421L1172.69 6.08076C1172.73 6.08076 1172.79 6.08076 1172.83 6.08076L1182.2 9.34122H1198.17C1198.2 9.34122 1198.27 9.34122 1198.3 9.34122L1208.35 12.7348H1224.61C1224.63 12.7348 1224.7 12.7348 1224.73 12.7348L1235.49 16.2614H1252.06C1252.09 16.2614 1252.16 16.2614 1252.19 16.2614L1263.68 19.9211H1278.56C1278.82 19.9211 1279.04 20.1873 1279.04 20.4534C1279.14 20.8527 1278.91 21.0522 1278.66 21.0522Z" fill="#01E6B6"/>
<path d="M1278.65 421.691C1278.56 421.691 1278.43 421.625 1278.33 421.559L861.339 24.1156L8.1825 22.7182L-0.394214 25.3133C-0.650235 25.3798 -0.906256 25.1802 -0.970261 24.914C-1.03427 24.6479 -0.874253 24.3151 -0.618233 24.2486L8.0225 21.6536C8.0545 21.6536 8.1185 21.6536 8.1505 21.6536L861.532 23.1174C861.632 23.1174 861.759 23.184 861.819 23.2505L1157.94 305.447L1278.97 420.76C1279.17 420.959 1279.2 421.292 1279.04 421.559C1278.95 421.625 1278.79 421.691 1278.65 421.691Z" fill="#01E6B6"/>
<path d="M8.152 22.7199H-0.488711C-0.744731 22.7199 -0.96875 22.4537 -0.96875 22.1876C-0.96875 21.8549 -0.744731 21.6553 -0.488711 21.6553H8.088L75.7733 1.2275C76.0293 1.16096 76.2853 1.36058 76.3493 1.62674C76.4133 1.8929 76.2533 2.2256 75.9973 2.29214L8.248 22.7199C8.216 22.7199 8.184 22.7199 8.152 22.7199Z" fill="#01E6B6"/>
<path d="M1278.65 619.181C1278.53 619.181 1278.4 619.114 1278.31 618.981L1264.61 601.614L1196.99 601.149C1196.86 601.149 1196.7 601.082 1196.6 600.948L1068.72 418.363L801.019 36.1578L782.519 9.7415L7.83043 8.47724L-0.394214 10.8062C-0.650235 10.8727 -0.906256 10.673 -0.970261 10.4069C-1.03427 10.1407 -0.874253 9.80804 -0.618233 9.7415L7.63843 7.4126C7.67043 7.4126 7.70243 7.4126 7.76643 7.4126L782.745 8.67686C782.905 8.67686 783.032 8.7434 783.125 8.87648L1124.85 496.748L1197.21 600.017L1264.83 600.483C1264.96 600.483 1265.09 600.55 1265.18 600.682L1279.04 618.249C1279.23 618.449 1279.2 618.848 1279.01 619.048C1278.88 619.114 1278.79 619.181 1278.65 619.181Z" fill="#01E6B6"/>
<path d="M1278.66 25.8451C1278.63 25.8451 1278.56 25.8451 1278.53 25.8451L1275.62 24.9135H1258.37C1258.34 24.9135 1258.27 24.9135 1258.24 24.9135L1246.65 21.1207H1229.76C1229.73 21.1207 1229.66 21.1207 1229.63 21.1207L1218.81 17.461H1202.24C1202.21 17.461 1202.14 17.461 1202.11 17.461L1191.99 13.9344H1175.74C1175.71 13.9344 1175.64 13.9344 1175.61 13.9344L1166.17 10.5408H1150.2C1150.13 10.5408 1150.11 10.5408 1150.04 10.5408L1141.24 7.28042L1109.85 7.21387C1109.78 7.21387 1109.75 7.21387 1109.69 7.21387L1101.69 4.0865C1101.43 4.01995 1101.3 3.68725 1101.39 3.35455C1101.49 3.08839 1101.75 2.88877 1102.01 3.02185L1109.94 6.14923L1141.33 6.21577C1141.4 6.21577 1141.43 6.21577 1141.49 6.21577L1150.29 9.47623H1166.27C1166.3 9.47623 1166.36 9.47623 1166.39 9.47623L1175.83 12.8697H1192.09C1192.13 12.8697 1192.19 12.8697 1192.22 12.8697L1202.33 16.3964H1218.91C1218.94 16.3964 1219.01 16.3964 1219.04 16.3964L1229.85 20.0561H1246.75C1246.79 20.0561 1246.85 20.0561 1246.88 20.0561L1258.47 23.8488H1275.71C1275.75 23.8488 1275.81 23.8488 1275.84 23.8488L1278.79 24.7804C1279.04 24.847 1279.2 25.1796 1279.11 25.4458C1279.07 25.6454 1278.88 25.8451 1278.66 25.8451Z" fill="#01E6B6"/>
<path d="M7.768 8.47842H-0.488711C-0.744731 8.47842 -0.96875 8.21226 -0.96875 7.9461C-0.96875 7.6134 -0.744731 7.41378 -0.488711 7.41378H7.73593L30.2658 1.09249C30.5219 1.02595 30.7779 1.22557 30.8419 1.49173C30.9059 1.75789 30.7459 2.09059 30.4899 2.15713L7.896 8.47842C7.864 8.47842 7.832 8.47842 7.768 8.47842Z" fill="#01E6B6"/>
<path d="M1278.65 31.499C1278.62 31.499 1278.56 31.499 1278.52 31.499L1270.43 28.8374H1252.83C1252.8 28.8374 1252.73 28.8374 1252.7 28.8374L1240.98 24.9116H1223.74C1223.7 24.9116 1223.64 24.9116 1223.61 24.9116L1212.7 21.1188H1195.8C1195.76 21.1188 1195.7 21.1188 1195.67 21.1188L1185.5 17.4591H1168.92C1168.85 17.4591 1168.82 17.4591 1168.76 17.4591L1159.28 13.9325H1143.02C1142.96 13.9325 1142.93 13.9325 1142.86 13.9325L1134.03 10.5389H1118.1C1118.03 10.5389 1118 10.5389 1117.94 10.5389L1109.71 7.27848L1078.35 7.21194C1078.28 7.21194 1078.25 7.21194 1078.19 7.14541L1070.73 3.95149C1070.48 3.8184 1070.35 3.55224 1070.44 3.21954C1070.54 2.95338 1070.8 2.75376 1071.05 2.88684L1078.41 6.01421L1109.78 6.08076C1109.84 6.08076 1109.87 6.08076 1109.94 6.08076L1118.16 9.34122H1134.1C1134.16 9.34122 1134.19 9.34122 1134.26 9.34122L1143.09 12.7348H1159.35C1159.41 12.7348 1159.44 12.7348 1159.51 12.7348L1168.98 16.2614H1185.56C1185.59 16.2614 1185.66 16.2614 1185.68 16.2614L1195.86 19.9211H1212.76C1212.79 19.9211 1212.86 19.9211 1212.89 19.9211L1223.8 23.7139H1241.05C1241.08 23.7139 1241.14 23.7139 1241.18 23.7139L1252.89 27.6397H1270.49C1270.52 27.6397 1270.59 27.6397 1270.62 27.6397L1278.78 30.3013C1279.04 30.3678 1279.2 30.7006 1279.1 30.9667C1279.07 31.2994 1278.88 31.499 1278.65 31.499Z" fill="#01E6B6"/>
<path d="M-0.486172 455.296C-0.614183 455.296 -0.774195 455.229 -0.870203 455.097C-1.03022 454.83 -0.998214 454.497 -0.806198 454.298L43.0694 412.311C43.1654 412.245 43.2614 412.178 43.3894 412.178L1278.66 418.499C1278.91 418.499 1279.14 418.766 1279.14 419.032C1279.14 419.364 1278.91 419.564 1278.66 419.564L43.5494 413.242L-0.198151 455.162C-0.262151 455.296 -0.390164 455.296 -0.486172 455.296Z" fill="#01E6B6"/>
<path d="M1278.66 37.2245H1277.89C1277.86 37.2245 1277.79 37.2245 1277.76 37.2245L1265.05 32.9659L1247.1 32.8994C1247.07 32.8994 1247.01 32.8994 1246.97 32.8994L1235.13 28.7739H1217.57C1217.53 28.7739 1217.47 28.7739 1217.43 28.7739L1206.43 24.848H1189.21C1189.15 24.848 1189.11 24.848 1189.05 24.848L1178.81 21.0553H1161.91C1161.85 21.0553 1161.81 21.0553 1161.75 21.0553L1152.21 17.3956H1135.67C1135.61 17.3956 1135.57 17.3956 1135.51 17.3956L1126.65 13.8689H1110.42C1110.35 13.8689 1110.33 13.8689 1110.26 13.8689L1102.03 10.4755H1086.1C1086.03 10.4755 1086 10.4755 1085.94 10.4089L1078.29 7.14845L1046.93 7.08191C1046.86 7.08191 1046.8 7.0819 1046.77 7.01537L1039.85 3.88799C1039.6 3.75491 1039.5 3.42222 1039.6 3.15605C1039.69 2.88989 1039.98 2.75681 1040.21 2.82335L1047.02 5.95073L1078.35 6.01727C1078.42 6.01727 1078.45 6.01727 1078.51 6.08381L1086.16 9.34426H1102.1C1102.16 9.34426 1102.19 9.34426 1102.26 9.34426L1110.49 12.7378H1126.71C1126.77 12.7378 1126.81 12.7378 1126.87 12.7378L1135.73 16.2644H1152.28C1152.34 16.2644 1152.37 16.2644 1152.44 16.2644L1161.97 19.9241H1178.84C1178.91 19.9241 1178.94 19.9241 1179 19.9241L1189.24 23.7169H1206.46C1206.49 23.7169 1206.55 23.7169 1206.59 23.7169L1217.59 27.6427H1235.17C1235.2 27.6427 1235.26 27.6427 1235.29 27.6427L1247.13 31.7682L1265.09 31.8347C1265.12 31.8347 1265.19 31.8347 1265.21 31.8347L1277.92 36.0934H1278.63C1278.88 36.0934 1279.11 36.3595 1279.11 36.6257C1279.11 36.8918 1278.91 37.2245 1278.66 37.2245Z" fill="#01E6B6"/>
<path d="M1278.66 41.6809H1272.42C1272.39 41.6809 1272.32 41.6809 1272.29 41.6809L1259.43 37.2228H1241.09C1241.05 37.2228 1240.99 37.2228 1240.96 37.2228L1229.02 32.9642H1211.1C1211.04 32.9642 1211.01 32.9642 1210.94 32.9642L1199.83 28.8387H1182.27C1182.2 28.8387 1182.17 28.8387 1182.11 28.8387L1171.8 24.9128H1154.59C1154.52 24.9128 1154.49 24.9128 1154.43 24.9128L1144.85 21.1201H1127.99C1127.93 21.1201 1127.89 21.1201 1127.83 21.1201L1118.93 17.4604H1102.39C1102.33 17.4604 1102.29 17.4603 1102.23 17.3938L1094.01 13.9337H1077.78C1077.71 13.9337 1077.65 13.9337 1077.62 13.8672L1070 10.4737H1054.09C1054.03 10.4737 1053.97 10.4737 1053.93 10.4071L1046.87 7.14671L1015.53 7.08016C1015.47 7.08016 1015.41 7.08015 1015.34 7.01361L1009.01 3.88624C1008.75 3.75316 1008.65 3.42047 1008.75 3.15431C1008.85 2.88815 1009.13 2.75507 1009.39 2.88814L1015.63 6.01552L1046.93 6.08206C1046.99 6.08206 1047.05 6.08207 1047.09 6.1486L1054.16 9.40906H1070.07C1070.13 9.40906 1070.19 9.40907 1070.23 9.47561L1077.84 12.8692H1094.07C1094.13 12.8692 1094.17 12.8692 1094.23 12.9357L1102.45 16.4623H1119C1119.06 16.4623 1119.09 16.4623 1119.16 16.4623L1128.05 20.122H1144.92C1144.99 20.122 1145.01 20.122 1145.08 20.122L1154.65 23.9148H1171.87C1171.93 23.9148 1171.96 23.9148 1172.03 23.9148L1182.33 27.8406H1199.9C1199.97 27.8406 1199.99 27.8406 1200.06 27.8406L1211.17 31.9661H1229.09C1229.12 31.9661 1229.18 31.9661 1229.21 31.9661L1241.15 36.2247H1259.46C1259.49 36.2247 1259.55 36.2247 1259.59 36.2247L1272.45 40.6828H1278.63C1278.88 40.6828 1279.11 40.949 1279.11 41.2151C1279.14 41.4148 1278.91 41.6809 1278.66 41.6809Z" fill="#01E6B6"/>
<path d="M1278.66 4.08637H1272C1271.75 4.08637 1271.52 3.82022 1271.52 3.55405C1271.52 3.22135 1271.75 3.02173 1272 3.02173H1278.66C1278.91 3.02173 1279.14 3.28789 1279.14 3.55405C1279.14 3.82022 1278.91 4.08637 1278.66 4.08637Z" fill="#01E6B6"/>
<path d="M-0.487267 329.467C-0.647281 329.467 -0.807293 329.4 -0.903301 329.201C-1.06331 328.934 -0.999309 328.601 -0.775291 328.402L35.4517 300.654C35.5157 300.589 35.6117 300.522 35.7077 300.588L76.8633 300.788L159.27 301.12L200.521 301.32L241.805 301.52L283.12 301.719L324.467 301.919L365.847 302.118L407.258 302.318L490.145 302.651L531.621 302.85L656.271 303.383L697.875 303.582L1278.63 305.978C1278.88 305.978 1279.11 306.244 1279.11 306.51C1279.11 306.843 1278.88 307.042 1278.63 307.042L697.875 304.647L656.271 304.448L531.621 303.915L490.145 303.716L407.258 303.383L365.847 303.183L324.467 302.984L283.12 302.784L241.805 302.584L200.521 302.385L159.27 302.185L76.8633 301.852L35.8357 301.653L-0.231245 329.333C-0.295251 329.4 -0.391259 329.467 -0.487267 329.467Z" fill="#01E6B6"/>
<path d="M1278.66 46.3368H1266.72C1266.69 46.3368 1266.63 46.3368 1266.59 46.3368L1253.57 41.679L1234.85 41.6124C1234.78 41.6124 1234.75 41.6124 1234.69 41.6124L1222.62 37.1543L1204.31 37.0878C1204.25 37.0878 1204.22 37.0878 1204.15 37.0878L1192.95 32.8292L1175.03 32.7626C1174.97 32.7626 1174.94 32.7626 1174.87 32.7626L1164.51 28.6372H1146.97C1146.9 28.6372 1146.87 28.6372 1146.81 28.6372L1137.21 24.7113H1120.02C1119.96 24.7113 1119.93 24.7113 1119.86 24.6448L1110.97 20.852H1094.1C1094.03 20.852 1093.97 20.852 1093.94 20.7854L1085.71 17.1923H1069.2C1069.14 17.1923 1069.07 17.1923 1069.04 17.1258L1061.43 13.6657H1045.23C1045.17 13.6657 1045.1 13.6657 1045.04 13.5991L1038 10.2721H1022.09C1022.03 10.2721 1021.97 10.2721 1021.9 10.2056L1015.41 7.01169L984.108 6.94516C984.041 6.94516 983.981 6.94515 983.914 6.87861L978.121 3.75124C977.901 3.61816 977.768 3.28545 977.901 3.01929C978.028 2.75314 978.281 2.62005 978.541 2.75314L984.234 5.88052L1015.53 5.94706C1015.59 5.94706 1015.66 5.94705 1015.73 6.01359L1022.22 9.27405H1038.13C1038.19 9.27405 1038.25 9.27405 1038.32 9.34058L1045.36 12.6675H1061.55C1061.61 12.6675 1061.68 12.6675 1061.71 12.7342L1069.33 16.1942H1085.84C1085.91 16.1942 1085.97 16.1942 1086 16.2608L1094.23 19.8539H1111.06C1111.13 19.8539 1111.15 19.8539 1111.22 19.9204L1120.12 23.7132H1137.3C1137.37 23.7132 1137.4 23.7132 1137.46 23.7132L1147.06 27.639H1164.6C1164.67 27.639 1164.69 27.639 1164.76 27.639L1175.13 31.7645L1193.05 31.8311C1193.11 31.8311 1193.15 31.8311 1193.21 31.8311L1204.41 36.0897L1222.72 36.1562C1222.78 36.1562 1222.81 36.1562 1222.88 36.1562L1234.94 40.6144L1253.67 40.6809C1253.69 40.6809 1253.76 40.6809 1253.79 40.6809L1266.82 45.3387H1278.69C1278.95 45.3387 1279.17 45.6048 1279.17 45.871C1279.14 46.0706 1278.91 46.3368 1278.66 46.3368Z" fill="#01E6B6"/>
<path d="M1278.65 51.1964L1260.73 51.1299C1260.67 51.1299 1260.64 51.1299 1260.57 51.1299L1247.42 46.2724L1228.31 46.2059C1228.25 46.2059 1228.22 46.2059 1228.15 46.2059L1215.96 41.5481L1197.27 41.4816C1197.21 41.4816 1197.18 41.4816 1197.11 41.4816L1185.85 37.0234L1167.54 36.9569C1167.48 36.9569 1167.45 36.9569 1167.38 36.9569L1156.95 32.6983H1139.03C1138.97 32.6983 1138.93 32.6983 1138.87 32.6318L1129.23 28.5729H1111.7C1111.63 28.5729 1111.57 28.5729 1111.54 28.5063L1102.64 24.5805H1085.45C1085.39 24.5805 1085.33 24.5805 1085.29 24.5139L1077.07 20.7211H1060.24C1060.17 20.7211 1060.11 20.7211 1060.05 20.6546L1052.46 17.0614H1035.95C1035.89 17.0614 1035.82 17.0614 1035.75 16.9949L1028.78 13.5348H1012.59C1012.52 13.5348 1012.46 13.5348 1012.39 13.4683L1005.96 10.1413H990.086C990.026 10.1413 989.96 10.1413 989.893 10.0748L984.006 6.88083L952.74 6.8143C952.68 6.8143 952.58 6.81429 952.52 6.74775L947.266 3.62038C947.046 3.4873 946.946 3.15459 947.08 2.88844C947.206 2.62227 947.493 2.4892 947.72 2.62228L952.84 5.68311L984.106 5.74966C984.166 5.74966 984.233 5.74966 984.293 5.8162L990.186 9.01011H1006.06C1006.12 9.01011 1006.19 9.01011 1006.25 9.07665L1012.68 12.4037H1028.87C1028.94 12.4037 1029.01 12.4037 1029.07 12.4702L1036.05 15.9303H1052.56C1052.62 15.9303 1052.69 15.9303 1052.75 15.9968L1060.33 19.5899H1077.17C1077.23 19.5899 1077.29 19.5899 1077.33 19.6565L1085.55 23.4493H1102.74C1102.8 23.4493 1102.87 23.4493 1102.9 23.5158L1111.79 27.4417H1129.33C1129.39 27.4417 1129.43 27.4417 1129.49 27.5082L1139.13 31.5672H1157.01C1157.08 31.5672 1157.11 31.5672 1157.17 31.5672L1167.61 35.8257L1185.88 35.8922C1185.95 35.8922 1185.97 35.8922 1186.04 35.8922L1197.31 40.3504L1215.99 40.4169C1216.06 40.4169 1216.09 40.4169 1216.15 40.4169L1228.35 45.0747L1247.45 45.1413C1247.52 45.1413 1247.55 45.1413 1247.61 45.1413L1260.77 49.9987L1278.63 50.0653C1278.88 50.0653 1279.11 50.3314 1279.11 50.5976C1279.13 50.9302 1278.91 51.1964 1278.65 51.1964Z" fill="#01E6B6"/>
<path d="M-0.487567 245.628C-0.647581 245.628 -0.807594 245.494 -0.903601 245.361C-1.03161 245.095 -0.935604 244.762 -0.711586 244.629L30.299 224.866C30.363 224.801 30.459 224.801 30.523 224.801L65.0858 224.933L134.307 225.199L168.935 225.332L238.284 225.598L272.975 225.732L307.698 225.865L342.453 225.998L377.207 226.131L411.994 226.264L446.813 226.397L481.632 226.531L516.483 226.663L551.366 226.797L586.249 226.93L621.163 227.062L656.111 227.196L726.035 227.462L761.048 227.595L831.101 227.861L866.175 227.994L971.495 228.393L1006.63 228.526L1278.69 229.458C1278.95 229.458 1279.17 229.725 1279.17 229.99C1279.17 230.323 1278.95 230.522 1278.69 230.522L30.651 225.865L-0.263551 245.561C-0.327551 245.628 -0.423562 245.628 -0.487567 245.628Z" fill="#01E6B6"/>
<path d="M1278.65 456.623L-0.488711 449.637C-0.744731 449.637 -0.96875 449.371 -0.96875 449.104C-0.96875 448.771 -0.744731 448.572 -0.488711 448.572L1278.65 455.558C1278.91 455.558 1279.13 455.825 1279.13 456.091C1279.13 456.357 1278.91 456.623 1278.65 456.623Z" fill="#01E6B6"/>
<path d="M-0.485485 185.807C-0.677501 185.807 -0.837514 185.673 -0.933522 185.474C-1.06153 185.208 -0.933522 184.875 -0.709503 184.742L26.5568 169.837C26.6208 169.771 26.6848 169.771 26.7488 169.771L116.196 170.037L1278.63 173.564C1278.88 173.564 1279.11 173.829 1279.11 174.095C1279.11 174.428 1278.88 174.628 1278.63 174.628L26.8768 170.901L-0.293471 185.74C-0.357475 185.807 -0.421479 185.807 -0.485485 185.807Z" fill="#01E6B6"/>
<path d="M1278.65 330.862L-0.488711 325.273C-0.744731 325.273 -0.96875 325.007 -0.96875 324.74C-0.96875 324.407 -0.744731 324.208 -0.488711 324.208L1278.65 329.797C1278.91 329.797 1279.13 330.063 1279.13 330.33C1279.13 330.596 1278.91 330.862 1278.65 330.862Z" fill="#01E6B6"/>
<path d="M1278.66 57.7855C1278.59 57.7855 1278.56 57.7855 1278.5 57.7855L1274.5 56.3216L1254.49 56.2551C1254.43 56.2551 1254.4 56.2551 1254.33 56.2551L1241.03 51.1981L1221.5 51.1315C1221.44 51.1315 1221.41 51.1315 1221.34 51.1315L1209.05 46.2741L1189.95 46.2076C1189.88 46.2076 1189.85 46.2076 1189.79 46.2076L1178.43 41.5498L1159.74 41.4832C1159.67 41.4832 1159.64 41.4832 1159.58 41.4167L1149.11 36.9585H1130.84C1130.77 36.9585 1130.71 36.9585 1130.68 36.892L1121.01 32.6335H1103.13C1103.06 32.6335 1102.99 32.6335 1102.97 32.5669L1094.07 28.5079H1076.56C1076.5 28.5079 1076.43 28.508 1076.37 28.4414L1068.18 24.5156H1051.03C1050.96 24.5156 1050.89 24.5156 1050.83 24.449L1043.28 20.6562H1026.48C1026.41 20.6562 1026.35 20.6562 1026.29 20.5897L1019.34 16.9966H1002.86C1002.79 16.9966 1002.73 16.9966 1002.67 16.93L996.301 13.47H980.141C980.075 13.47 979.981 13.47 979.915 13.4034L974.088 10.0764H958.215C958.155 10.0764 958.055 10.0764 957.995 10.0098L952.681 6.81593L921.448 6.74939C921.348 6.74939 921.288 6.74938 921.188 6.68284L916.521 3.55547C916.295 3.42239 916.201 3.08969 916.361 2.82353C916.488 2.55738 916.775 2.49083 917.001 2.62391L921.575 5.68475L952.808 5.75129C952.875 5.75129 952.968 5.75129 953.035 5.81783L958.348 9.01174H974.188C974.248 9.01174 974.348 9.01174 974.408 9.07828L980.235 12.4053H996.395C996.461 12.4053 996.528 12.4053 996.588 12.4718L1002.95 15.9319H1019.44C1019.5 15.9319 1019.57 15.9319 1019.63 15.9984L1026.57 19.5916H1043.37C1043.44 19.5916 1043.5 19.5916 1043.57 19.6581L1051.12 23.4509H1068.27C1068.34 23.4509 1068.4 23.4509 1068.47 23.5175L1076.66 27.4433H1094.17C1094.23 27.4433 1094.29 27.4433 1094.33 27.5099L1103.22 31.5688H1121.11C1121.17 31.5688 1121.24 31.5688 1121.27 31.6353L1130.93 35.8939H1149.21C1149.27 35.8939 1149.31 35.8938 1149.37 35.9604L1159.83 40.4186L1178.52 40.4851C1178.59 40.4851 1178.62 40.4851 1178.68 40.4851L1190.05 45.1429L1209.15 45.2094C1209.21 45.2094 1209.25 45.2094 1209.31 45.2094L1221.6 50.0669L1241.12 50.1335C1241.19 50.1335 1241.21 50.1335 1241.28 50.1335L1254.59 55.1905L1274.59 55.257C1274.66 55.257 1274.69 55.257 1274.75 55.257L1278.82 56.7874C1279.07 56.8539 1279.2 57.1867 1279.14 57.5194C1279.04 57.6525 1278.85 57.7855 1278.66 57.7855Z" fill="#01E6B6"/>
<path d="M-0.4881 140.958C-0.680116 140.958 -0.840129 140.825 -0.936137 140.626C-1.03214 140.359 -0.936137 140.026 -0.680116 139.894L23.7379 128.182C23.8019 128.182 23.8339 128.116 23.9299 128.116L1278.69 131.443C1278.95 131.443 1279.17 131.709 1279.17 131.975C1279.17 132.308 1278.95 132.508 1278.69 132.508L23.9939 129.247L-0.328087 140.892C-0.360089 140.892 -0.424095 140.958 -0.4881 140.958Z" fill="#01E6B6"/>
<path d="M1278.65 246.959H1278.27L1204.73 246.692L1167.99 246.56L1131.29 246.426L1094.61 246.294L1057.93 246.16L1021.29 246.027L984.68 245.895L948.1 245.761L911.52 245.628L874.973 245.495L838.46 245.362L765.46 245.096L729.013 244.962L656.173 244.696L619.786 244.563L510.753 244.165L474.462 244.031L221.033 243.1L184.935 242.966L148.803 242.833L112.737 242.701L-0.488711 242.301C-0.744731 242.301 -0.96875 242.035 -0.96875 241.768C-0.96875 241.436 -0.744731 241.237 -0.488711 241.237L1278.65 245.895C1278.91 245.895 1279.13 246.16 1279.13 246.426C1279.13 246.692 1278.91 246.959 1278.65 246.959Z" fill="#01E6B6"/>
<path d="M-0.488837 106.027C-0.680853 106.027 -0.872869 105.893 -0.936874 105.694C-1.03288 105.428 -0.904871 105.096 -0.64885 104.962L21.497 95.5796C21.561 95.5796 21.593 95.5137 21.657 95.5137L1273.03 98.4414C1273.09 98.4414 1273.15 98.4414 1273.19 98.5082L1278.81 100.97C1279.07 101.103 1279.2 101.369 1279.11 101.702C1279.01 101.967 1278.72 102.101 1278.49 102.034L1272.96 99.5722L21.753 96.6445L-0.328827 106.027C-0.392829 106.027 -0.424832 106.027 -0.488837 106.027Z" fill="#01E6B6"/>
<path d="M1278.65 187.072L-0.488711 183.079C-0.744731 183.079 -0.96875 182.813 -0.96875 182.547C-0.96875 182.215 -0.744731 182.014 -0.488711 182.014L1278.65 186.007C1278.91 186.007 1279.13 186.273 1279.13 186.54C1279.13 186.806 1278.91 187.072 1278.65 187.072Z" fill="#01E6B6"/>
<path d="M1278.66 65.5032C1278.6 65.5032 1278.56 65.5032 1278.5 65.5032L1268.45 61.6439L1248 61.5774C1247.94 61.5774 1247.9 61.5774 1247.84 61.5774L1234.37 56.2541L1214.39 56.1876C1214.33 56.1876 1214.3 56.1876 1214.23 56.1876L1201.82 51.1306L1182.3 51.064C1182.23 51.064 1182.2 51.064 1182.14 50.9975L1170.71 46.1401L1151.64 46.0736C1151.57 46.0736 1151.51 46.0736 1151.48 46.007L1140.96 41.3492L1122.29 41.2827C1122.23 41.2827 1122.17 41.2827 1122.13 41.2161L1112.44 36.758L1094.2 36.6914C1094.14 36.6914 1094.07 36.6914 1094 36.6249L1085.11 32.3663L1067.25 32.2998C1067.19 32.2998 1067.12 32.2998 1067.05 32.2332L1058.87 28.1743H1041.36C1041.3 28.1743 1041.24 28.1743 1041.17 28.1078L1033.68 24.1819H1016.53C1016.46 24.1819 1016.4 24.1819 1016.34 24.1154L1009.46 20.3892H992.655C992.588 20.3892 992.495 20.3892 992.428 20.3226L986.155 16.7294H969.675C969.608 16.7294 969.515 16.7294 969.448 16.6629L963.722 13.2028H947.562C947.462 13.2028 947.402 13.2028 947.335 13.1363L942.122 9.80928H926.282C926.182 9.80928 926.122 9.80927 926.022 9.74272L921.288 6.5488L890.082 6.48227C889.988 6.48227 889.888 6.48227 889.828 6.41573L885.702 3.28835C885.475 3.08874 885.408 2.75604 885.568 2.48987C885.728 2.22372 886.022 2.15717 886.242 2.35679L890.242 5.41763L921.448 5.48417C921.542 5.48417 921.608 5.48417 921.702 5.55071L926.442 8.74462H942.282C942.375 8.74462 942.442 8.74463 942.502 8.81117L947.722 12.1381H963.848C963.915 12.1381 964.008 12.1381 964.075 12.2047L969.802 15.6647H986.248C986.315 15.6647 986.408 15.6647 986.475 15.7314L992.748 19.3245H1009.55C1009.61 19.3245 1009.68 19.3245 1009.74 19.391L1016.62 23.1172H1033.74C1033.81 23.1172 1033.87 23.1172 1033.94 23.1838L1041.42 27.1096H1058.93C1059 27.1096 1059.06 27.1096 1059.12 27.1762L1067.31 31.2351L1085.17 31.3016C1085.24 31.3016 1085.3 31.3016 1085.36 31.3682L1094.26 35.6268L1112.5 35.6933C1112.57 35.6933 1112.63 35.6933 1112.66 35.7598L1122.36 40.218L1141.02 40.2846C1141.08 40.2846 1141.14 40.2846 1141.18 40.3511L1151.7 45.0089L1170.78 45.0754C1170.84 45.0754 1170.88 45.0754 1170.94 45.142L1182.36 49.9994L1201.89 50.066C1201.95 50.066 1201.98 50.066 1202.05 50.066L1214.46 55.123L1234.44 55.1895C1234.5 55.1895 1234.53 55.1895 1234.6 55.1895L1248.06 60.5127L1268.52 60.5793C1268.58 60.5793 1268.61 60.5793 1268.68 60.5793L1278.82 64.4386C1279.08 64.5051 1279.2 64.8378 1279.14 65.1705C1279.04 65.3036 1278.85 65.5032 1278.66 65.5032Z" fill="#01E6B6"/>
<path d="M1278.66 151.938C1278.59 151.938 1278.53 151.938 1278.47 151.871L1126.36 72.6884L19.961 70.3595L-0.328629 78.1447C-0.584653 78.2113 -0.840673 78.0781 -0.936681 77.812C-1.03269 77.5459 -0.872676 77.2132 -0.616655 77.0801L19.737 69.2949C19.801 69.2949 19.833 69.2949 19.897 69.2949L1126.49 71.6238C1126.55 71.6238 1126.61 71.6238 1126.68 71.6903L1278.88 150.873C1279.14 151.006 1279.23 151.338 1279.14 151.605C1279.01 151.804 1278.85 151.938 1278.66 151.938Z" fill="#01E6B6"/>
<path d="M1278.65 142.09L-0.488711 138.63C-0.744731 138.63 -0.96875 138.364 -0.96875 138.097C-0.96875 137.765 -0.744731 137.565 -0.488711 137.565L1278.65 141.025C1278.91 141.025 1279.13 141.291 1279.13 141.558C1279.13 141.891 1278.91 142.09 1278.65 142.09Z" fill="#01E6B6"/>
<path d="M1278.65 223.937C1278.59 223.937 1278.49 223.937 1278.43 223.87L1006.09 50.667L18.4888 48.7374L-0.328767 55.2583C-0.584785 55.3248 -0.840807 55.1917 -0.936814 54.8591C-1.00082 54.5929 -0.872809 54.2602 -0.616788 54.1936L18.2647 47.6062C18.2967 47.6062 18.3608 47.6062 18.3928 47.6062L1006.22 49.5358C1006.31 49.5358 1006.38 49.5358 1006.44 49.6024L1278.88 222.873C1279.11 223.005 1279.2 223.338 1279.07 223.605C1278.97 223.87 1278.81 223.937 1278.65 223.937Z" fill="#01E6B6"/>
<path d="M1278.65 107.155L-0.488711 104.028C-0.744731 104.028 -0.96875 103.762 -0.96875 103.495C-0.96875 103.162 -0.744731 102.897 -0.488711 102.963L1278.65 106.09C1278.91 106.09 1279.13 106.356 1279.13 106.623C1279.13 106.889 1278.91 107.155 1278.65 107.155Z" fill="#01E6B6"/>
<path d="M1278.66 336.985C1278.57 336.985 1278.47 336.985 1278.37 336.851L905.64 32.298L17.2439 30.701L-0.325613 36.2904C-0.581632 36.3569 -0.837653 36.2239 -0.901658 35.8911C-0.965663 35.625 -0.837653 35.2923 -0.581631 35.2258L17.0518 29.5698C17.0838 29.5698 17.1478 29.5698 17.1798 29.5698L905.8 31.1668C905.893 31.1668 905.987 31.2333 906.087 31.2999L1278.98 336.053C1279.21 336.253 1279.23 336.585 1279.11 336.851C1278.95 336.918 1278.82 336.985 1278.66 336.985Z" fill="#01E6B6"/>
<path d="M1278.65 137.83C1278.59 137.83 1278.53 137.83 1278.47 137.763L1160.21 78.9422L-0.488711 76.4137C-0.744731 76.4137 -0.96875 76.1476 -0.96875 75.8814C-0.96875 75.5487 -0.744731 75.3491 -0.488711 75.3491L1160.31 77.8776C1160.37 77.8776 1160.44 77.8776 1160.5 77.9442L1278.85 136.832C1279.11 136.966 1279.2 137.298 1279.11 137.564C1279.01 137.697 1278.85 137.83 1278.65 137.83Z" fill="#01E6B6"/>
<path d="M1278.65 475.586C1278.53 475.586 1278.43 475.519 1278.33 475.453L840.505 20.3198L3.95739 18.9225L-0.362964 20.1868C-0.618985 20.2533 -0.875006 20.0537 -0.939011 19.7875C-1.00302 19.5214 -0.843003 19.1886 -0.586983 19.1221L3.79738 17.8579C3.82938 17.8579 3.86138 17.8579 3.92539 17.8579L840.732 19.2553C840.859 19.2553 840.952 19.3218 841.052 19.3883L1279.04 474.655C1279.23 474.854 1279.27 475.186 1279.07 475.453C1278.91 475.519 1278.79 475.586 1278.65 475.586Z" fill="#01E6B6"/>
<path d="M1278.65 203.107C1278.59 203.107 1278.49 203.107 1278.43 203.041L1034.06 55.7875L-0.488711 53.7248C-0.744731 53.7248 -0.96875 53.4586 -0.96875 53.1924C-0.96875 52.8598 -0.744731 52.6602 -0.488711 52.6602L1034.19 54.7229C1034.25 54.7229 1034.35 54.7229 1034.41 54.7894L1278.88 202.043C1279.11 202.175 1279.2 202.508 1279.07 202.775C1279.01 202.974 1278.81 203.107 1278.65 203.107Z" fill="#01E6B6"/>
<path d="M1278.66 73.0232H1277.06C1276.99 73.0232 1276.96 73.0232 1276.9 73.0232L1262.08 67.1676L1241.15 67.1011C1241.09 67.1011 1241.05 67.1011 1240.99 67.1011L1227.36 61.5117L1206.91 61.4452C1206.85 61.4452 1206.81 61.4452 1206.75 61.3787L1194.23 56.0555L1174.27 55.989C1174.2 55.989 1174.14 55.989 1174.11 55.9224L1162.59 50.8654L1143.09 50.7988C1143.03 50.7988 1142.97 50.7988 1142.93 50.7323L1132.37 45.8748L1113.3 45.8083C1113.23 45.8083 1113.17 45.8083 1113.11 45.7418L1103.41 41.084L1084.79 41.0175C1084.72 41.0175 1084.66 41.0174 1084.59 40.9509L1075.69 36.4927L1057.45 36.4262C1057.39 36.4262 1057.33 36.4262 1057.26 36.3597L1049.1 32.101H1031.25C1031.18 32.101 1031.12 32.101 1031.05 32.0345L1023.59 27.9756H1006.12C1006.06 27.9756 1005.96 27.9756 1005.9 27.909L999.081 23.9832H981.961C981.901 23.9832 981.801 23.9832 981.741 23.9166L975.528 20.1904H958.761C958.661 20.1904 958.601 20.1904 958.534 20.1239L952.901 16.5308H936.454C936.361 16.5308 936.294 16.5308 936.201 16.4642L931.081 13.0041H914.948C914.854 13.0041 914.788 13.0041 914.694 12.9375L910.081 9.61058H894.274C894.181 9.61058 894.081 9.61058 894.021 9.54403L889.861 6.35011L858.688 6.28358C858.594 6.28358 858.494 6.21705 858.401 6.15051L854.814 3.02312C854.594 2.8235 854.561 2.4908 854.721 2.22464C854.881 1.95848 855.168 1.95848 855.394 2.09157L858.848 5.15241L890.021 5.21894C890.114 5.21894 890.208 5.21895 890.274 5.28548L894.434 8.4794H910.241C910.341 8.4794 910.401 8.4794 910.501 8.54594L915.108 11.873H931.241C931.334 11.873 931.401 11.873 931.494 11.9395L936.614 15.3996H953.061C953.161 15.3996 953.221 15.3996 953.288 15.4661L958.921 19.0593H975.688C975.754 19.0593 975.848 19.0593 975.914 19.1258L982.121 22.852H999.241C999.308 22.852 999.401 22.852 999.468 22.9186L1006.28 26.8444H1023.75C1023.82 26.8444 1023.89 26.8444 1023.95 26.911L1031.41 30.9699H1049.26C1049.33 30.9699 1049.39 30.9699 1049.45 31.0365L1057.61 35.295L1075.86 35.3615C1075.92 35.3615 1075.99 35.3615 1076.05 35.4281L1084.95 39.8863L1103.57 39.9528C1103.63 39.9528 1103.7 39.9528 1103.76 40.0193L1113.46 44.6771L1132.5 44.7437C1132.57 44.7437 1132.63 44.7437 1132.66 44.8102L1143.22 49.6677L1162.71 49.7342C1162.77 49.7342 1162.84 49.7342 1162.87 49.8007L1174.39 54.8578L1194.36 54.9243C1194.43 54.9243 1194.46 54.9243 1194.52 54.9908L1207.03 60.314L1227.49 60.3805C1227.55 60.3805 1227.58 60.3805 1227.65 60.3805L1241.25 65.9699L1262.17 66.0365C1262.24 66.0365 1262.27 66.0365 1262.33 66.0365L1277.15 71.892H1278.69C1278.95 71.892 1279.17 72.1582 1279.17 72.4243C1279.14 72.8236 1278.91 73.0232 1278.66 73.0232Z" fill="#01E6B6"/>
<path d="M1278.65 666.159L1242.3 665.893C1242.17 665.893 1242.01 665.826 1241.92 665.694L1196.73 601.15L1129.21 600.684C1129.05 600.684 1128.91 600.617 1128.82 600.418L1094.87 544.99L1039.69 455.028L1016.97 418.031L816.505 91.121L764.599 6.41568L3.89414 5.21795L-0.394214 6.41568C-0.650235 6.48221 -0.906256 6.28259 -0.970261 6.01643C-1.03427 5.75028 -0.874253 5.41758 -0.618233 5.35104L3.70212 4.15332C3.73412 4.15332 3.76612 4.15332 3.79813 4.15332L764.792 5.35104C764.952 5.35104 765.079 5.41758 765.172 5.6172L979.525 355.085L1017.74 417.433L1040.46 454.429L1129.46 599.553L1196.99 600.019C1197.11 600.019 1197.27 600.085 1197.37 600.218L1242.56 664.761L1278.69 665.028C1278.95 665.028 1279.17 665.294 1279.17 665.56C1279.13 665.893 1278.91 666.159 1278.65 666.159Z" fill="#01E6B6"/>
<path d="M1278.65 303.117C1278.56 303.117 1278.47 303.117 1278.4 303.05L1254.69 284.951L984.04 78.4781L929.153 36.6245L-0.488711 34.8945C-0.744731 34.8945 -0.96875 34.6284 -0.96875 34.3622C-0.96875 34.0295 -0.744731 33.8298 -0.488711 33.8298L929.287 35.4934C929.38 35.4934 929.473 35.4934 929.54 35.5599L1278.91 302.052C1279.13 302.252 1279.2 302.584 1279.04 302.851C1278.97 302.984 1278.81 303.117 1278.65 303.117Z" fill="#01E6B6"/>
<path d="M3.89565 18.9263H-0.488711C-0.744731 18.9263 -0.96875 18.6601 -0.96875 18.394C-0.96875 18.0612 -0.744731 17.8616 -0.488711 17.8616H3.83165L60.5723 1.16011C60.8283 1.09357 61.0843 1.29319 61.1483 1.55935C61.2124 1.82551 61.0523 2.15821 60.7963 2.22475L4.02366 18.9263C3.95965 18.9263 3.92765 18.9263 3.89565 18.9263Z" fill="#01E6B6"/>
<path d="M1278.66 79.2086H1270.59C1270.53 79.2086 1270.5 79.2086 1270.43 79.2086L1255.43 73.0869L1233.98 73.0203C1233.92 73.0203 1233.89 73.0203 1233.82 72.9538L1220.06 67.0983L1199.13 67.0318C1199.07 67.0318 1199 67.0318 1198.97 66.9652L1186.33 61.3758L1165.91 61.3093C1165.85 61.3093 1165.79 61.3093 1165.75 61.2428L1154.17 55.9196L1134.23 55.8531C1134.17 55.8531 1134.1 55.8531 1134.04 55.7865L1123.45 50.7295L1103.95 50.663C1103.89 50.663 1103.83 50.663 1103.76 50.5964L1094.07 45.739L1075.03 45.6724C1074.96 45.6724 1074.9 45.6724 1074.83 45.6059L1065.97 41.0146L1047.34 40.9481C1047.28 40.9481 1047.21 40.9481 1047.15 40.8816L1039.05 36.4899L1020.85 36.4234C1020.78 36.4234 1020.69 36.4234 1020.62 36.3568L1013.23 32.0983L995.401 32.0318C995.341 32.0318 995.241 32.0318 995.181 31.9652L988.461 27.9062H971.014C970.921 27.9062 970.854 27.9062 970.794 27.8397L964.681 23.9804H947.594C947.494 23.9804 947.434 23.9804 947.334 23.9139L941.801 20.1876H925.027C924.934 20.1876 924.867 20.1876 924.774 20.1211L919.781 16.528H903.361C903.267 16.528 903.174 16.528 903.107 16.4614L898.627 13.0679H882.527C882.434 13.0679 882.341 13.0014 882.241 12.9348L878.207 9.67432H862.401C862.307 9.67432 862.207 9.60778 862.114 9.54124L858.527 6.41386L827.387 6.34732C827.261 6.34732 827.167 6.28078 827.067 6.21425L824.027 3.08687C823.834 2.88725 823.807 2.55455 823.994 2.28839C824.187 2.08877 824.474 2.02222 824.667 2.22185L827.547 5.21614L858.687 5.28269C858.781 5.28269 858.881 5.34923 858.974 5.41577L862.561 8.54314H878.341C878.434 8.54314 878.527 8.60968 878.627 8.67622L882.661 11.9367H898.754C898.854 11.9367 898.947 11.9367 899.014 12.0032L903.494 15.3968H919.907C920.007 15.3968 920.067 15.3968 920.167 15.4633L925.154 19.0564H941.894C941.987 19.0564 942.054 19.0564 942.147 19.123L947.687 22.8493H964.774C964.874 22.8493 964.934 22.8493 965.001 22.9158L971.114 26.775H988.554C988.621 26.775 988.714 26.775 988.781 26.8417L995.501 30.9006L1013.33 30.9671C1013.39 30.9671 1013.49 30.9671 1013.55 31.0337L1020.94 35.2922L1039.15 35.3587C1039.21 35.3587 1039.28 35.3587 1039.34 35.4252L1047.44 39.8169L1066.07 39.8835C1066.13 39.8835 1066.19 39.8834 1066.25 39.95L1075.12 44.5412L1094.16 44.6078C1094.23 44.6078 1094.29 44.6078 1094.35 44.6743L1104.05 49.5318L1123.54 49.5983C1123.61 49.5983 1123.67 49.5983 1123.73 49.6648L1134.33 54.7219L1154.27 54.7884C1154.33 54.7884 1154.39 54.7884 1154.43 54.8549L1166.01 60.1781L1186.43 60.2447C1186.49 60.2447 1186.55 60.2447 1186.59 60.3112L1199.23 65.9006L1220.16 65.9671C1220.22 65.9671 1220.25 65.9671 1220.32 66.0336L1234.08 71.8891L1255.52 71.9557C1255.59 71.9557 1255.61 71.9557 1255.68 71.9557L1270.69 78.0774H1278.66C1278.91 78.0774 1279.14 78.3435 1279.14 78.6097C1279.14 78.9424 1278.91 79.2086 1278.66 79.2086Z" fill="#01E6B6"/>
<path d="M1278.66 85.6635L1263.84 85.597C1263.78 85.597 1263.75 85.597 1263.68 85.5304L1248.48 79.076L1226.49 79.0094C1226.43 79.0094 1226.37 79.0094 1226.33 78.9429L1212.41 72.8213L1190.97 72.7548C1190.91 72.7548 1190.84 72.7548 1190.81 72.6882L1178.07 66.8326L1157.17 66.7661C1157.11 66.7661 1157.05 66.7661 1156.99 66.6996L1145.33 61.1768L1124.95 61.1103C1124.89 61.1103 1124.82 61.1103 1124.76 61.0436L1114.13 55.7205L1094.23 55.6539C1094.16 55.6539 1094.1 55.6539 1094.03 55.5874L1084.34 50.5303L1064.88 50.4638C1064.81 50.4638 1064.75 50.4638 1064.69 50.3973L1055.85 45.6064L1036.85 45.5399C1036.78 45.5399 1036.69 45.5399 1036.62 45.4734L1028.59 40.8821L1009.99 40.8156C1009.93 40.8156 1009.83 40.8156 1009.77 40.749L1002.47 36.3574H984.267C984.173 36.3574 984.107 36.3574 984.04 36.2908L977.42 32.0989H959.593C959.493 32.0989 959.433 32.0989 959.333 32.0322L953.353 27.9733H935.913C935.813 27.9733 935.747 27.9733 935.653 27.9068L930.247 24.0475H913.153C913.06 24.0475 912.967 24.0475 912.9 23.981L908.033 20.2547H891.3C891.2 20.2547 891.107 20.1882 891.013 20.1216L886.66 16.595H870.24C870.147 16.595 870.047 16.5285 869.953 16.462L866.08 13.0684H850.013C849.92 13.0684 849.793 13.0019 849.693 12.9354L846.273 9.67484H830.493C830.367 9.67484 830.267 9.6083 830.173 9.54176L827.167 6.41439L796.06 6.34784C795.933 6.34784 795.8 6.28131 795.707 6.14823L793.24 3.02085C793.053 2.82122 793.08 2.42199 793.273 2.22237C793.467 2.02275 793.787 2.02275 793.947 2.28891L796.28 5.28321L827.36 5.34975C827.487 5.34975 827.58 5.41629 827.68 5.48283L830.687 8.61021H846.433C846.527 8.61021 846.653 8.67675 846.753 8.74328L850.173 12.0037H866.24C866.333 12.0037 866.433 12.0703 866.527 12.1368L870.4 15.5304H886.787C886.88 15.5304 886.98 15.5969 887.073 15.6634L891.427 19.19H908.167C908.26 19.19 908.353 19.19 908.42 19.2566L913.287 22.9828H930.34C930.44 22.9828 930.5 22.9828 930.6 23.0494L936.007 26.9087H953.447C953.547 26.9087 953.607 26.9087 953.707 26.9753L959.687 31.0342H977.48C977.58 31.0342 977.64 31.0342 977.707 31.1007L984.333 35.2927H1002.51C1002.57 35.2927 1002.67 35.2927 1002.73 35.3592L1010.03 39.7509L1028.62 39.8175C1028.69 39.8175 1028.78 39.8175 1028.85 39.884L1036.88 44.4753L1055.89 44.5418C1055.95 44.5418 1056.01 44.5418 1056.08 44.6083L1064.91 49.3992L1084.37 49.4658C1084.43 49.4658 1084.5 49.4658 1084.56 49.5323L1094.26 54.5893L1114.17 54.6558C1114.23 54.6558 1114.29 54.6558 1114.36 54.7224L1124.98 60.0456L1145.37 60.1122C1145.43 60.1122 1145.49 60.1121 1145.56 60.1787L1157.21 65.7014L1178.11 65.7681C1178.17 65.7681 1178.23 65.7681 1178.27 65.8346L1191 71.6901L1212.41 71.7566C1212.48 71.7566 1212.54 71.7566 1212.57 71.8232L1226.49 77.9449L1248.48 78.0114C1248.55 78.0114 1248.57 78.0114 1248.64 78.0779L1263.84 84.5323L1278.59 84.5988C1278.85 84.5988 1279.07 84.865 1279.07 85.1311C1279.14 85.3973 1278.91 85.6635 1278.66 85.6635Z" fill="#01E6B6"/>
<path d="M55.7399 593.501L-0.488711 593.101C-0.744731 593.101 -0.96875 592.835 -0.96875 592.568C-0.96875 592.236 -0.744731 592.036 -0.488711 592.036L55.5159 592.436L342.099 226L517.314 2.02667C517.506 1.82705 517.794 1.76051 517.986 1.96013C518.178 2.15975 518.21 2.49245 518.018 2.75861L56.0919 593.3C55.9959 593.434 55.8679 593.501 55.7399 593.501Z" fill="#01E6B6"/>
<path d="M78.11 657.376L-0.488711 656.777C-0.744731 656.777 -0.96875 656.51 -0.96875 656.245C-0.96875 655.912 -0.744731 655.713 -0.488711 655.713L77.886 656.311L324.114 302.053L532.611 2.09067C532.771 1.82451 533.091 1.82451 533.283 2.02413C533.475 2.22375 533.507 2.55646 533.347 2.82261L78.494 657.177C78.398 657.309 78.27 657.376 78.11 657.376Z" fill="#01E6B6"/>
<path d="M1278.66 92.4534L1256.71 92.3866C1256.64 92.3866 1256.58 92.3866 1256.55 92.3198L1241.12 85.5328L1218.59 85.4663C1218.53 85.4663 1218.46 85.4663 1218.43 85.3998L1204.35 78.9454L1182.4 78.8789C1182.33 78.8789 1182.27 78.8789 1182.2 78.8123L1169.37 72.6906L1147.96 72.6241C1147.9 72.6241 1147.84 72.6241 1147.77 72.5576L1136.09 66.7686L1115.22 66.7021C1115.16 66.7021 1115.1 66.7021 1115.03 66.6355L1104.38 61.1127L1083.99 61.0462C1083.92 61.0462 1083.86 61.0461 1083.8 60.9796L1074.1 55.723L1054.2 55.6564C1054.13 55.6564 1054.04 55.6564 1053.97 55.5899L1045.17 50.5328L1025.74 50.4663C1025.68 50.4663 1025.58 50.4663 1025.52 50.3998L1017.55 45.6088L998.542 45.5423C998.442 45.5423 998.382 45.5423 998.315 45.4758L991.082 40.8845L972.522 40.818C972.429 40.818 972.362 40.818 972.269 40.7515L965.735 36.3598L947.562 36.2933C947.462 36.2933 947.402 36.2933 947.302 36.2267L941.449 32.0347H923.655C923.555 32.0347 923.462 32.0347 923.395 31.9682L918.115 27.9758H900.709C900.615 27.9758 900.515 27.9093 900.422 27.8427L895.715 23.9834H878.655C878.562 23.9834 878.469 23.9169 878.369 23.8503L874.175 20.1907H857.475C857.375 20.1907 857.249 20.124 857.182 20.0575L853.502 16.5309H837.122C836.989 16.5309 836.895 16.4644 836.802 16.3978L833.569 13.0043H817.535C817.402 13.0043 817.275 12.9378 817.182 12.8712L814.362 9.67731H798.622C798.489 9.67731 798.362 9.61078 798.269 9.4777L795.835 6.41686L764.762 6.35032C764.602 6.35032 764.475 6.28378 764.375 6.08416L762.455 2.95678C762.295 2.69063 762.362 2.35793 762.582 2.1583C762.809 1.95869 763.095 2.02522 763.255 2.29139L765.049 5.21913L796.089 5.28568C796.222 5.28568 796.349 5.35222 796.442 5.4853L798.875 8.54614H814.589C814.715 8.54614 814.842 8.61267 814.942 8.67921L817.755 11.8731H833.789C833.915 11.8731 834.015 11.9396 834.109 12.0062L837.342 15.3997H853.695C853.795 15.3997 853.922 15.4662 853.982 15.5328L857.662 19.0595H874.369C874.469 19.0595 874.562 19.126 874.655 19.1925L878.849 22.8522H895.909C896.002 22.8522 896.102 22.9187 896.195 22.9853L900.902 26.8446H918.309C918.409 26.8446 918.502 26.8446 918.569 26.9111L923.849 30.9036H941.609C941.702 30.9036 941.769 30.9035 941.862 30.9701L947.722 35.1621L965.895 35.2287C965.995 35.2287 966.055 35.2287 966.155 35.2952L972.682 39.6868L991.242 39.7533C991.342 39.7533 991.402 39.7533 991.469 39.8199L998.702 44.4111L1017.68 44.4777C1017.74 44.4777 1017.84 44.4777 1017.9 44.5443L1025.87 49.3351L1045.3 49.4017C1045.36 49.4017 1045.46 49.4017 1045.52 49.4682L1054.32 54.5252L1074.23 54.5918C1074.29 54.5918 1074.36 54.5918 1074.42 54.6583L1084.12 59.915L1104.5 59.9815C1104.56 59.9815 1104.63 59.9815 1104.7 60.048L1115.35 65.5709L1136.22 65.6374C1136.28 65.6374 1136.34 65.6374 1136.41 65.7039L1148.09 71.4929L1169.5 71.5594C1169.56 71.5594 1169.63 71.5594 1169.69 71.626L1182.52 77.7477L1204.48 77.8142C1204.54 77.8142 1204.6 77.8142 1204.64 77.8807L1218.72 84.3351L1241.25 84.4016C1241.32 84.4016 1241.38 84.4016 1241.41 84.4682L1256.84 91.2553L1278.72 91.3218C1278.98 91.3218 1279.2 91.5879 1279.2 91.8541C1279.14 92.1871 1278.92 92.4534 1278.66 92.4534Z" fill="#01E6B6"/>
<path d="M32.474 723.053C32.378 723.053 32.25 722.987 32.186 722.92C31.994 722.72 31.962 722.387 32.122 722.121L77.758 656.446C77.854 656.314 77.982 656.247 78.142 656.247L149.956 656.779L401.529 242.901L547.877 2.0929C548.037 1.82674 548.325 1.7602 548.549 1.95982C548.773 2.15944 548.805 2.49214 548.677 2.75829L276.27 450.905L150.596 657.711C150.5 657.844 150.372 657.977 150.212 657.977L78.366 657.444L32.89 722.853C32.762 722.987 32.634 723.053 32.474 723.053Z" fill="#01E6B6"/>
<path d="M110.592 723.053C110.496 723.053 110.4 723.053 110.304 722.919C110.08 722.72 110.048 722.387 110.176 722.12L149.764 656.978C149.86 656.845 149.988 656.712 150.148 656.712L222.025 657.244L365.653 381.37L563.142 2.02543C563.27 1.75927 563.558 1.69274 563.814 1.82582C564.038 1.9589 564.102 2.35813 563.974 2.55775L330.514 450.971L222.73 657.976C222.634 658.176 222.474 658.242 222.313 658.242L150.404 657.71L110.976 722.586C110.912 722.986 110.752 723.053 110.592 723.053Z" fill="#01E6B6"/>
<path d="M1048.01 723.052C1047.85 723.052 1047.66 722.919 1047.6 722.72L993.513 599.421L913.666 417.434L845.979 263.262L731.766 2.95725C731.633 2.69108 731.733 2.35838 731.986 2.2253C732.213 2.09222 732.499 2.2253 732.626 2.49147L914.5 416.968L930.726 453.899L1048.46 722.254C1048.59 722.521 1048.49 722.853 1048.24 722.986C1048.14 723.052 1048.08 723.052 1048.01 723.052Z" fill="#01E6B6"/>
<path d="M266.829 723.048C266.765 723.048 266.669 723.048 266.605 722.982C266.381 722.849 266.285 722.517 266.381 722.25L426.586 352.621L578.439 2.2212C578.567 1.95504 578.855 1.82196 579.079 1.95504C579.303 2.08812 579.399 2.42081 579.303 2.68697L400.696 414.769L267.245 722.716C267.181 722.915 267.021 723.048 266.829 723.048Z" fill="#01E6B6"/>
<path d="M969.892 723.051C969.698 723.051 969.512 722.918 969.445 722.718L906.525 543.792L889.692 495.951L874.972 454.096L840.125 355.019L822.425 304.715L716.338 2.95604C716.238 2.68988 716.372 2.35717 716.592 2.22409C716.852 2.09102 717.105 2.22409 717.232 2.5568L831.705 328.203L862.845 416.834L875.838 453.764L890.558 495.618L926.785 598.688L970.278 722.452C970.372 722.718 970.245 723.051 970.018 723.184C970.018 723.051 969.958 723.051 969.892 723.051Z" fill="#01E6B6"/>
<path d="M344.949 723.05C344.885 723.05 344.821 723.05 344.757 722.984C344.501 722.85 344.405 722.518 344.501 722.252L366.487 658.706L388.569 594.894L407.515 540.198L560.903 97.1088L593.738 2.22295C593.834 1.95679 594.122 1.82371 594.378 1.89025C594.634 2.02333 594.73 2.35603 594.634 2.62219L345.397 722.651C345.333 722.917 345.141 723.05 344.949 723.05Z" fill="#01E6B6"/>
<path d="M891.778 723.051C891.585 723.051 891.392 722.917 891.325 722.651L875.518 662.832L858.525 598.488L769.812 262.927L701.072 2.88882C701.005 2.62266 701.138 2.28995 701.392 2.22342C701.645 2.15688 701.905 2.28996 701.998 2.62266L892.225 722.319C892.285 722.585 892.158 722.917 891.905 722.984C891.872 723.051 891.805 723.051 891.778 723.051Z" fill="#01E6B6"/>
<path d="M423.066 723.052C423.034 723.052 422.97 723.052 422.938 723.052C422.682 722.985 422.554 722.652 422.618 722.386L438.939 659.372L455.485 595.494L469.662 540.732L481.951 493.222L596.936 49.2013L609.065 2.3572C609.129 2.09104 609.417 1.89143 609.673 1.95796C609.929 2.02451 610.057 2.3572 609.993 2.62337L537.731 281.692L503.169 415.171L470.622 540.932L456.445 595.693L439.899 659.572L423.578 722.585C423.45 722.918 423.29 723.052 423.066 723.052Z" fill="#01E6B6"/>
<path d="M813.661 723.054C813.435 723.054 813.241 722.853 813.181 722.588L758.968 416.504L685.681 2.75823C685.615 2.42553 685.808 2.15937 686.061 2.09283C686.321 2.02629 686.575 2.22591 686.641 2.55861L736.181 282.292L814.141 722.387C814.201 722.721 814.008 722.987 813.755 723.054C813.721 723.054 813.688 723.054 813.661 723.054Z" fill="#01E6B6"/>
<path d="M501.187 723.051C501.155 723.051 501.123 723.051 501.091 723.051C500.835 722.984 500.675 722.718 500.707 722.386L522.437 595.96L531.846 541.13L540.006 493.621L606.764 104.829L624.365 2.42354C624.429 2.09084 624.653 1.95776 624.941 1.95776C625.197 2.0243 625.357 2.29046 625.325 2.62316L573.641 303.45L501.667 722.519C501.603 722.852 501.411 723.051 501.187 723.051Z" fill="#01E6B6"/>
<path d="M735.542 723.049C735.289 723.049 735.095 722.849 735.062 722.583L704.595 383.496L670.355 2.68748C670.322 2.35478 670.515 2.08862 670.769 2.08862C671.022 2.08862 671.282 2.28824 671.282 2.5544L700.502 327.735L735.989 722.45C736.022 722.783 735.829 723.049 735.575 723.049H735.542Z" fill="#01E6B6"/>
<path d="M579.303 723.051H579.271C579.015 723.051 578.823 722.718 578.855 722.452L624.33 184.41L639.692 2.49009C639.724 2.15739 639.948 1.95776 640.204 1.95776C640.46 1.95776 640.652 2.29046 640.62 2.55662L599.08 494.087L579.783 722.585C579.751 722.852 579.559 723.051 579.303 723.051Z" fill="#01E6B6"/>
<path d="M657.425 723.049C657.169 723.049 656.945 722.783 656.945 722.516L656.785 661.1L656.465 542.061L656.336 494.418L656.209 452.697L656.112 415.9L656.016 383.23L655.856 327.602L654.992 2.62094C654.992 2.28825 655.216 2.08862 655.472 2.08862C655.728 2.08862 655.952 2.35479 655.952 2.62094L656.881 353.952L656.945 383.23L657.041 415.9L657.137 452.697L657.265 494.418L657.553 597.022L657.713 661.1L657.873 722.516C657.905 722.783 657.681 723.049 657.425 723.049Z" fill="#01E6B6"/>
<path d="M1278.66 717.794C1278.53 717.794 1278.37 717.727 1278.27 717.594L1242.08 665.893L1095.47 664.828C1095.31 664.828 1095.15 664.695 1095.06 664.562L1006.79 496.681L984.748 454.761L843.068 185.407L747.255 3.22156L0.0897288 2.15693L-0.390308 2.29C-0.646329 2.35654 -0.90235 2.15692 -0.966355 1.89076C-1.03036 1.6246 -0.870347 1.2919 -0.614327 1.22536L-0.0702846 1.09229C-0.0382779 1.09229 -0.00627786 1.09229 0.0257288 1.09229L747.541 2.22346C747.701 2.22346 747.861 2.35654 747.961 2.48963L1007.59 496.149L1095.76 663.763L1242.3 664.828C1242.43 664.828 1242.59 664.895 1242.69 665.027L1279.04 716.928C1279.2 717.195 1279.17 717.528 1278.98 717.727C1278.88 717.727 1278.75 717.794 1278.66 717.794Z" fill="#01E6B6"/>
<path d="M1278.65 601.682L1264.8 601.615C1264.67 601.615 1264.54 601.548 1264.45 601.415L1050.41 329.666L1031.53 305.645L971.112 228.925L801.145 13.136L11.926 11.8717L-0.362964 15.3984C-0.618985 15.4649 -0.875006 15.2653 -0.939011 14.9992C-1.00302 14.733 -0.843003 14.4003 -0.586983 14.3337L-0.298962 14.2672L11.766 10.8071C11.798 10.8071 11.83 10.8071 11.894 10.8071L801.365 12.0714C801.492 12.0714 801.625 12.138 801.719 12.271L1265.05 600.551L1278.69 600.617C1278.95 600.617 1279.17 600.883 1279.17 601.149C1279.13 601.415 1278.91 601.682 1278.65 601.682Z" fill="#01E6B6"/>
<path d="M1278.66 540.201C1278.53 540.201 1278.4 540.134 1278.31 540.068L1172.31 418.899L1006.25 229.06L820.413 16.6647L-0.519961 15.334C-0.775981 15.334 -1 15.0677 -1 14.8016C-1 14.4689 -0.775981 14.2693 -0.519961 14.2693H-0.23194L820.607 15.6001C820.733 15.6001 820.86 15.6666 820.953 15.7331L1278.98 539.27C1279.17 539.469 1279.17 539.868 1278.98 540.068C1278.91 540.201 1278.79 540.201 1278.66 540.201Z" fill="#01E6B6"/>
<path d="M1278.65 376.112C1278.56 376.112 1278.47 376.045 1278.37 375.978L883.04 28.1076L12.6324 26.6436L-0.3287 30.7026C-0.648724 30.7026 -0.96875 30.4365 -0.96875 30.1037C-0.96875 29.8376 -0.808737 29.5714 -0.552716 29.5714L12.4403 25.5125C12.4723 25.5125 12.5363 25.5125 12.5683 25.5125L883.2 27.0429C883.293 27.0429 883.393 27.1094 883.487 27.176L1278.95 375.114C1279.17 375.313 1279.2 375.645 1279.04 375.911C1278.95 376.045 1278.81 376.112 1278.65 376.112Z" fill="#01E6B6"/>
</g>
</g>
<defs>
<linearGradient id="paint0_linear_2733_5268" x1="640" y1="0" x2="640" y2="722" gradientUnits="userSpaceOnUse">
<stop stop-color="#111111" stop-opacity="0"/>
<stop offset="1" stop-color="#111111"/>
</linearGradient>
</defs>
</svg>
