<svg width="944" height="696" viewBox="0 0 944 696" fill="none" xmlns="http://www.w3.org/2000/svg">
<rect x="134" y="628" width="134" height="603" transform="rotate(180 134 628)" fill="url(#paint0_linear_2695_5459)"/>
<rect y="134" width="134" height="830" transform="rotate(-90 0 134)" fill="url(#paint1_linear_2695_5459)"/>
<rect x="830" y="562" width="134" height="764" transform="rotate(90 830 562)" fill="url(#paint2_linear_2695_5459)"/>
<rect x="638" y="38" width="306" height="608" fill="url(#paint3_linear_2695_5459)"/>
<g clip-path="url(#clip0_2695_5459)">
<path d="M830 19L830 629L66 629L66 19.0001L830 19ZM828.576 627.577L828.576 20.4702L67.4242 20.4703L67.4242 627.577L828.576 627.577Z" fill="#C5C5C5" fill-opacity="0.1"/>
<path d="M752.332 19.7588L752.333 628.289L753.757 628.289L753.757 19.7588L752.332 19.7588Z" fill="#C5C5C5" fill-opacity="0.1"/>
<path d="M676.042 19.7588L676.042 628.289L677.466 628.289L677.466 19.7588L676.042 19.7588Z" fill="#C5C5C5" fill-opacity="0.1"/>
<path d="M599.798 19.7588L599.798 628.289L601.223 628.289L601.223 19.7588L599.798 19.7588Z" fill="#C5C5C5" fill-opacity="0.1"/>
<path d="M523.555 19.7588L523.555 628.289L524.979 628.289L524.979 19.7588L523.555 19.7588Z" fill="#C5C5C5" fill-opacity="0.1"/>
<path d="M447.264 19.7588L447.264 628.289L448.688 628.289L448.688 19.7588L447.264 19.7588Z" fill="#C5C5C5" fill-opacity="0.1"/>
<path d="M371.021 19.7588L371.021 628.289L372.445 628.289L372.445 19.7588L371.021 19.7588Z" fill="#C5C5C5" fill-opacity="0.1"/>
<path d="M294.778 19.7588L294.778 628.289L296.202 628.289L296.202 19.7588L294.778 19.7588Z" fill="#C5C5C5" fill-opacity="0.1"/>
<path d="M218.534 19.7588L218.534 628.289L219.958 628.289L219.958 19.7588L218.534 19.7588Z" fill="#C5C5C5" fill-opacity="0.1"/>
<path d="M142.243 19.7588L142.243 628.289L143.668 628.289L143.668 19.7588L142.243 19.7588Z" fill="#C5C5C5" fill-opacity="0.1"/>
<path d="M66.7122 95.0723L66.7122 96.4951L829.288 96.4951L829.288 95.0723L66.7122 95.0723Z" fill="#C5C5C5" fill-opacity="0.1"/>
<path d="M66.7122 171.144L66.7122 172.567L829.288 172.567L829.288 171.144L66.7122 171.144Z" fill="#C5C5C5" fill-opacity="0.1"/>
<path d="M66.7122 247.216L66.7122 248.639L829.288 248.639L829.288 247.216L66.7122 247.216Z" fill="#C5C5C5" fill-opacity="0.1"/>
<path d="M66.7122 323.289L66.7122 324.711L829.288 324.711L829.288 323.289L66.7122 323.289Z" fill="#C5C5C5" fill-opacity="0.1"/>
<path d="M66.7122 399.361L66.7122 400.784L829.288 400.784L829.288 399.361L66.7122 399.361Z" fill="#C5C5C5" fill-opacity="0.1"/>
<path d="M66.7122 475.433L66.7122 476.855L829.288 476.855L829.288 475.433L66.7122 475.433Z" fill="#C5C5C5" fill-opacity="0.1"/>
<path d="M66.7122 551.505L66.7122 552.928L829.288 552.928L829.288 551.505L66.7122 551.505Z" fill="#C5C5C5" fill-opacity="0.1"/>
<path d="M829.62 19.3795L829.62 628.621L66.3323 628.621L66.3322 19.3795L829.62 19.3795ZM828.908 627.909L828.908 20.0909L67.0918 20.0909L67.0919 627.909L828.908 627.909Z" fill="#C5C5C5" fill-opacity="0.1"/>
<path d="M809.871 19.7588L809.871 628.289L810.583 628.289L810.583 19.7588L809.871 19.7588Z" fill="#C5C5C5" fill-opacity="0.1"/>
<path d="M790.786 19.7588L790.786 628.289L791.499 628.289L791.499 19.7588L790.786 19.7588Z" fill="#C5C5C5" fill-opacity="0.1"/>
<path d="M771.749 19.7588L771.749 628.289L772.461 628.289L772.461 19.7588L771.749 19.7588Z" fill="#C5C5C5" fill-opacity="0.1"/>
<path d="M752.665 19.7588L752.665 628.289L753.377 628.289L753.377 19.7588L752.665 19.7588Z" fill="#C5C5C5" fill-opacity="0.1"/>
<path d="M733.628 19.7588L733.628 628.289L734.34 628.289L734.34 19.7588L733.628 19.7588Z" fill="#C5C5C5" fill-opacity="0.1"/>
<path d="M714.543 19.7588L714.543 628.289L715.255 628.289L715.255 19.7588L714.543 19.7588Z" fill="#C5C5C5" fill-opacity="0.1"/>
<path d="M695.458 19.7588L695.458 628.289L696.171 628.289L696.171 19.7588L695.458 19.7588Z" fill="#C5C5C5" fill-opacity="0.1"/>
<path d="M676.421 19.7588L676.421 628.289L677.133 628.289L677.133 19.7588L676.421 19.7588Z" fill="#C5C5C5" fill-opacity="0.1"/>
<path d="M657.337 19.7588L657.337 628.289L658.049 628.289L658.049 19.7588L657.337 19.7588Z" fill="#C5C5C5" fill-opacity="0.1"/>
<path d="M638.3 19.7588L638.3 628.289L639.012 628.289L639.012 19.7588L638.3 19.7588Z" fill="#C5C5C5" fill-opacity="0.1"/>
<path d="M619.215 19.7588L619.215 628.289L619.927 628.289L619.927 19.7588L619.215 19.7588Z" fill="#C5C5C5" fill-opacity="0.1"/>
<path d="M600.178 19.7588L600.178 628.289L600.89 628.289L600.89 19.7588L600.178 19.7588Z" fill="#C5C5C5" fill-opacity="0.1"/>
<path d="M581.093 19.7588L581.094 628.289L581.806 628.289L581.806 19.7588L581.093 19.7588Z" fill="#C5C5C5" fill-opacity="0.1"/>
<path d="M562.009 19.7588L562.009 628.289L562.721 628.289L562.721 19.7588L562.009 19.7588Z" fill="#C5C5C5" fill-opacity="0.1"/>
<path d="M542.972 19.7588L542.972 628.289L543.684 628.289L543.684 19.7588L542.972 19.7588Z" fill="#C5C5C5" fill-opacity="0.1"/>
<path d="M523.887 19.7588L523.887 628.289L524.599 628.289L524.599 19.7588L523.887 19.7588Z" fill="#C5C5C5" fill-opacity="0.1"/>
<path d="M504.85 19.7588L504.85 628.289L505.562 628.289L505.562 19.7588L504.85 19.7588Z" fill="#C5C5C5" fill-opacity="0.1"/>
<path d="M485.766 19.7588L485.766 628.289L486.478 628.289L486.478 19.7588L485.766 19.7588Z" fill="#C5C5C5" fill-opacity="0.1"/>
<path d="M466.728 19.7588L466.729 628.289L467.441 628.289L467.441 19.7588L466.728 19.7588Z" fill="#C5C5C5" fill-opacity="0.1"/>
<path d="M447.644 19.7588L447.644 628.289L448.356 628.289L448.356 19.7588L447.644 19.7588Z" fill="#C5C5C5" fill-opacity="0.1"/>
<path d="M428.559 19.7588L428.559 628.289L429.271 628.289L429.271 19.7588L428.559 19.7588Z" fill="#C5C5C5" fill-opacity="0.1"/>
<path d="M409.522 19.7588L409.522 628.289L410.234 628.289L410.234 19.7588L409.522 19.7588Z" fill="#C5C5C5" fill-opacity="0.1"/>
<path d="M390.438 19.7588L390.438 628.289L391.15 628.289L391.15 19.7588L390.438 19.7588Z" fill="#C5C5C5" fill-opacity="0.1"/>
<path d="M371.401 19.7588L371.401 628.289L372.113 628.289L372.113 19.7588L371.401 19.7588Z" fill="#C5C5C5" fill-opacity="0.1"/>
<path d="M352.316 19.7588L352.316 628.289L353.028 628.289L353.028 19.7588L352.316 19.7588Z" fill="#C5C5C5" fill-opacity="0.1"/>
<path d="M333.279 19.7588L333.279 628.289L333.991 628.289L333.991 19.7588L333.279 19.7588Z" fill="#C5C5C5" fill-opacity="0.1"/>
<path d="M314.194 19.7588L314.194 628.289L314.906 628.289L314.906 19.7588L314.194 19.7588Z" fill="#C5C5C5" fill-opacity="0.1"/>
<path d="M295.11 19.7588L295.11 628.289L295.822 628.289L295.822 19.7588L295.11 19.7588Z" fill="#C5C5C5" fill-opacity="0.1"/>
<path d="M276.073 19.7588L276.073 628.289L276.785 628.289L276.785 19.7588L276.073 19.7588Z" fill="#C5C5C5" fill-opacity="0.1"/>
<path d="M256.988 19.7588L256.988 628.289L257.7 628.289L257.7 19.7588L256.988 19.7588Z" fill="#C5C5C5" fill-opacity="0.1"/>
<path d="M237.951 19.7588L237.951 628.289L238.663 628.289L238.663 19.7588L237.951 19.7588Z" fill="#C5C5C5" fill-opacity="0.1"/>
<path d="M218.866 19.7588L218.866 628.289L219.579 628.289L219.579 19.7588L218.866 19.7588Z" fill="#C5C5C5" fill-opacity="0.1"/>
<path d="M199.829 19.7588L199.829 628.289L200.541 628.289L200.541 19.7588L199.829 19.7588Z" fill="#C5C5C5" fill-opacity="0.1"/>
<path d="M180.745 19.7588L180.745 628.289L181.457 628.289L181.457 19.7588L180.745 19.7588Z" fill="#C5C5C5" fill-opacity="0.1"/>
<path d="M161.66 19.7588L161.66 628.289L162.372 628.289L162.372 19.7588L161.66 19.7588Z" fill="#C5C5C5" fill-opacity="0.1"/>
<path d="M142.623 19.7588L142.623 628.289L143.335 628.289L143.335 19.7588L142.623 19.7588Z" fill="#C5C5C5" fill-opacity="0.1"/>
<path d="M123.539 19.7588L123.539 628.289L124.251 628.289L124.251 19.7588L123.539 19.7588Z" fill="#C5C5C5" fill-opacity="0.1"/>
<path d="M104.501 19.7588L104.501 628.289L105.214 628.289L105.214 19.7588L104.501 19.7588Z" fill="#C5C5C5" fill-opacity="0.1"/>
<path d="M85.4167 19.7588L85.4167 628.289L86.1289 628.289L86.1288 19.7588L85.4167 19.7588Z" fill="#C5C5C5" fill-opacity="0.1"/>
<path d="M66.7122 38.3975L66.7122 39.1089L829.288 39.1089L829.288 38.3974L66.7122 38.3975Z" fill="#C5C5C5" fill-opacity="0.1"/>
<path d="M66.7122 57.4156L66.7122 58.127L829.288 58.1269L829.288 57.4156L66.7122 57.4156Z" fill="#C5C5C5" fill-opacity="0.1"/>
<path d="M66.7122 76.4336L66.7122 77.145L829.288 77.145L829.288 76.4336L66.7122 76.4336Z" fill="#C5C5C5" fill-opacity="0.1"/>
<path d="M66.7122 95.4517L66.7122 96.1631L829.288 96.1631L829.288 95.4516L66.7122 95.4517Z" fill="#C5C5C5" fill-opacity="0.1"/>
<path d="M66.7122 114.47L66.7122 115.181L829.288 115.181L829.288 114.47L66.7122 114.47Z" fill="#C5C5C5" fill-opacity="0.1"/>
<path d="M66.7122 133.488L66.7122 134.199L829.288 134.199L829.288 133.488L66.7122 133.488Z" fill="#C5C5C5" fill-opacity="0.1"/>
<path d="M66.7122 152.506L66.7122 153.217L829.288 153.217L829.288 152.506L66.7122 152.506Z" fill="#C5C5C5" fill-opacity="0.1"/>
<path d="M66.7122 171.524L66.7122 172.235L829.288 172.235L829.288 171.524L66.7122 171.524Z" fill="#C5C5C5" fill-opacity="0.1"/>
<path d="M66.7122 190.542L66.7122 191.253L829.288 191.253L829.288 190.542L66.7122 190.542Z" fill="#C5C5C5" fill-opacity="0.1"/>
<path d="M66.7122 209.56L66.7122 210.271L829.288 210.271L829.288 209.56L66.7122 209.56Z" fill="#C5C5C5" fill-opacity="0.1"/>
<path d="M66.7122 228.578L66.7122 229.289L829.288 229.289L829.288 228.578L66.7122 228.578Z" fill="#C5C5C5" fill-opacity="0.1"/>
<path d="M66.7122 247.596L66.7122 248.307L829.288 248.307L829.288 247.596L66.7122 247.596Z" fill="#C5C5C5" fill-opacity="0.1"/>
<path d="M66.7122 266.614L66.7122 267.325L829.288 267.325L829.288 266.614L66.7122 266.614Z" fill="#C5C5C5" fill-opacity="0.1"/>
<path d="M66.7122 285.632L66.7122 286.343L829.288 286.343L829.288 285.632L66.7122 285.632Z" fill="#C5C5C5" fill-opacity="0.1"/>
<path d="M66.7122 304.65L66.7122 305.361L829.288 305.361L829.288 304.65L66.7122 304.65Z" fill="#C5C5C5" fill-opacity="0.1"/>
<path d="M66.7122 323.668L66.7122 324.379L829.288 324.379L829.288 323.668L66.7122 323.668Z" fill="#C5C5C5" fill-opacity="0.1"/>
<path d="M66.7122 342.686L66.7122 343.397L829.288 343.397L829.288 342.686L66.7122 342.686Z" fill="#C5C5C5" fill-opacity="0.1"/>
<path d="M66.7122 361.704L66.7122 362.416L829.288 362.415L829.288 361.704L66.7122 361.704Z" fill="#C5C5C5" fill-opacity="0.1"/>
<path d="M66.7122 380.722L66.7122 381.434L829.288 381.434L829.288 380.722L66.7122 380.722Z" fill="#C5C5C5" fill-opacity="0.1"/>
<path d="M66.7122 399.74L66.7122 400.452L829.288 400.452L829.288 399.74L66.7122 399.74Z" fill="#C5C5C5" fill-opacity="0.1"/>
<path d="M66.7122 418.758L66.7122 419.47L829.288 419.47L829.288 418.758L66.7122 418.758Z" fill="#C5C5C5" fill-opacity="0.1"/>
<path d="M66.7122 437.776L66.7122 438.488L829.288 438.488L829.288 437.776L66.7122 437.776Z" fill="#C5C5C5" fill-opacity="0.1"/>
<path d="M66.7122 456.794L66.7122 457.506L829.288 457.506L829.288 456.794L66.7122 456.794Z" fill="#C5C5C5" fill-opacity="0.1"/>
<path d="M66.7122 475.813L66.7122 476.524L829.288 476.524L829.288 475.813L66.7122 475.813Z" fill="#C5C5C5" fill-opacity="0.1"/>
<path d="M66.7122 494.831L66.7122 495.542L829.288 495.542L829.288 494.831L66.7122 494.831Z" fill="#C5C5C5" fill-opacity="0.1"/>
<path d="M66.7122 513.848L66.7122 514.56L829.288 514.56L829.288 513.848L66.7122 513.848Z" fill="#C5C5C5" fill-opacity="0.1"/>
<path d="M66.7122 532.866L66.7122 533.578L829.288 533.578L829.288 532.866L66.7122 532.866Z" fill="#C5C5C5" fill-opacity="0.1"/>
<path d="M66.7122 551.884L66.7122 552.596L829.288 552.596L829.288 551.884L66.7122 551.884Z" fill="#C5C5C5" fill-opacity="0.1"/>
<path d="M66.7122 570.902L66.7122 571.614L829.288 571.614L829.288 570.902L66.7122 570.902Z" fill="#C5C5C5" fill-opacity="0.1"/>
<path d="M66.7122 589.92L66.7122 590.632L829.288 590.632L829.288 589.92L66.7122 589.92Z" fill="#C5C5C5" fill-opacity="0.1"/>
<path d="M66.7122 608.891L66.7122 609.603L829.288 609.603L829.288 608.891L66.7122 608.891Z" fill="#C5C5C5" fill-opacity="0.1"/>
</g>
<defs>
<linearGradient id="paint0_linear_2695_5459" x1="211.948" y1="872.969" x2="124.532" y2="874.033" gradientUnits="userSpaceOnUse">
<stop stop-color="#2B2B2B"/>
<stop offset="1" stop-color="#2B2B2B" stop-opacity="0"/>
</linearGradient>
<linearGradient id="paint1_linear_2695_5459" x1="77.9477" y1="471.188" x2="-9.4746" y2="471.961" gradientUnits="userSpaceOnUse">
<stop stop-color="#2B2B2B"/>
<stop offset="1" stop-color="#2B2B2B" stop-opacity="0"/>
</linearGradient>
<linearGradient id="paint2_linear_2695_5459" x1="907.948" y1="872.375" x2="820.527" y2="873.215" gradientUnits="userSpaceOnUse">
<stop stop-color="#2B2B2B"/>
<stop offset="1" stop-color="#2B2B2B" stop-opacity="0"/>
</linearGradient>
<linearGradient id="paint3_linear_2695_5459" x1="816" y1="285" x2="616.5" y2="290.5" gradientUnits="userSpaceOnUse">
<stop stop-color="#2B2B2B"/>
<stop offset="1" stop-color="#2B2B2B" stop-opacity="0"/>
</linearGradient>
<clipPath id="clip0_2695_5459">
<rect width="610" height="764" fill="white" transform="translate(66 629) rotate(-90)"/>
</clipPath>
</defs>
</svg>
