<svg width="75" height="71" viewBox="0 0 75 71" fill="none" xmlns="http://www.w3.org/2000/svg">
<path d="M16.1446 43.5429C8.24752 40.9444 2.91939 35.7745 0.771831 27.6661C-0.872821 21.4351 0.119414 15.4763 3.66697 10.0616C7.432 4.32036 12.8145 0.959989 19.6378 0.170914C26.4746 -0.618162 32.4416 1.47697 37.5115 6.1434C38.0687 5.66723 38.6124 5.19107 39.1833 4.74211C41.059 3.25919 43.125 2.11639 45.3813 1.30011C48.2085 0.279751 51.1308 -0.128391 54.1211 0.0348655C56.4725 0.157308 58.7424 0.660685 60.9444 1.53139C63.9347 2.7014 66.5443 4.44281 68.7599 6.74201C70.9074 8.95958 72.5385 11.5173 73.5987 14.4287C74.3191 16.4014 74.7404 18.4149 74.9171 20.51C75.1346 22.8772 74.9171 25.2037 74.3463 27.4893C73.422 31.2306 71.6278 34.5229 68.9774 37.3255C67.0744 39.339 64.8861 40.958 62.3851 42.1416C61.4201 42.5905 60.4143 42.9442 59.4085 43.3116C59.1638 43.3932 59.123 43.4748 59.1774 43.7061C59.6667 45.8149 59.8706 47.9644 59.7347 50.1276C59.558 52.9301 58.9055 55.6239 57.7094 58.1816C55.7386 62.399 52.7347 65.6642 48.7386 68.0178C46.9309 69.079 44.9872 69.8544 42.9483 70.3578C40.5153 70.9564 38.0552 71.1333 35.5678 70.902C30.8377 70.4531 26.6785 68.6572 23.1038 65.5417C20.2766 63.0793 18.2106 60.0862 16.9058 56.5898C16.2805 54.9436 15.8184 53.243 15.7096 51.4744C15.6281 50.0051 15.5465 48.5222 15.6009 47.0393C15.6553 45.9237 15.9407 44.8217 16.1174 43.7061C16.1174 43.6517 16.131 43.5973 16.1446 43.5429V43.5429ZM16.6475 43.6789C14.8669 49.8691 16.2533 59.1747 23.7018 65.4873C31.096 71.7591 41.9289 72.3033 49.9075 66.7798C58.2259 61.025 60.7405 51.2568 58.6745 43.6109C57.3968 43.8422 56.1327 44.0734 54.8279 44.3047C55.4939 46.9304 55.6027 49.5834 55.0862 52.2635C54.5696 54.93 53.4959 57.3517 51.8648 59.5284C50.2338 61.7052 48.2357 63.4738 45.7891 64.6574C39.3464 67.7593 33.0261 67.4464 27.2494 63.2153C20.8611 58.5217 18.8766 52.005 20.4261 44.3319C19.2028 44.1279 17.9388 43.9238 16.6475 43.7061V43.6789ZM37.1717 6.4427C37.0357 6.32026 36.8998 6.21142 36.7775 6.08898C35.0649 4.57885 33.1892 3.31361 31.1096 2.37488C28.4319 1.16406 25.6047 0.524637 22.6688 0.456613C20.7931 0.402194 18.9446 0.633475 17.1096 1.06883C15.3426 1.49057 13.6572 2.13 12.0533 2.97349C8.8184 4.68769 6.18153 7.08213 4.1427 10.116C1.73689 13.7076 0.540776 17.6802 0.486407 21.9929C0.486407 23.0269 0.59515 24.0745 0.703887 25.1084C0.948546 27.3668 1.62815 29.4891 2.60678 31.5299C3.7893 34.0195 5.40677 36.2099 7.43201 38.0874C9.76986 40.2505 12.4611 41.8423 15.4922 42.8354C16.2533 43.0803 16.2533 43.0667 16.4844 42.3184C16.4844 42.2776 16.5116 42.2368 16.5252 42.2096C16.8786 41.2709 17.232 40.3185 17.5854 39.3662C12.2029 37.7744 8.20675 34.4957 5.95045 29.3395C3.68055 24.1697 3.87086 18.9591 6.45337 13.9525C8.72326 9.54459 12.3116 6.53794 17.0824 5.17746C23.7018 3.30001 29.5872 4.86455 34.6435 9.47656C35.4726 8.48342 36.2882 7.50387 37.1581 6.45631L37.1717 6.4427ZM59.0686 42.9306C65.2259 41.2981 72.8239 35.3936 74.3327 25.2853C75.6239 16.5646 71.5463 7.09573 62.1541 2.55174C53.9444 -1.40724 44.158 0.33417 37.9057 6.48352C38.7348 7.47666 39.5639 8.45621 40.4066 9.46296C40.5153 9.38133 40.6241 9.2997 40.7192 9.21807C43.0978 6.98689 45.8706 5.51758 49.0648 4.82374C51.2667 4.33397 53.4687 4.29315 55.6842 4.63327C57.7366 4.94618 59.6803 5.62642 61.5017 6.66038C64.4376 8.32016 66.7346 10.6194 68.3793 13.5716C69.5482 15.6803 70.323 17.9251 70.4725 20.3332C70.5676 21.8025 70.5676 23.299 70.4181 24.7547C70.2278 26.4961 69.6841 28.1831 68.9094 29.7749C67.8764 31.938 66.4764 33.8155 64.6958 35.4208C62.7113 37.1894 60.455 38.4683 57.8997 39.2302C57.8182 39.2574 57.6959 39.4614 57.723 39.5295C58.158 40.6587 58.6065 41.7878 59.0686 42.9442V42.9306ZM30.7018 22.1698C30.7698 17.5306 26.9775 13.6124 22.1931 13.6124C17.463 13.6124 13.6708 17.2993 13.63 22.1562C13.5893 26.8634 17.4766 30.8496 22.4785 30.7136C26.8416 30.5911 30.7833 26.877 30.7018 22.1698ZM29.1251 48.8351C29.0979 53.5151 32.8222 57.4197 37.6474 57.4197C42.4318 57.4197 46.1425 53.624 46.1969 48.9303C46.2512 44.1007 42.2823 40.441 37.9192 40.3185C33.0125 40.1689 29.0707 44.2367 29.1251 48.8351ZM44.3755 22.1698C44.1716 26.809 48.2221 30.5775 52.5308 30.7136C57.6143 30.8632 61.3114 26.7274 61.3929 22.3875C61.4881 17.5442 57.6143 13.5988 52.8434 13.6124C48.0182 13.6124 44.1716 17.7074 44.3755 22.1834V22.1698ZM25.0611 44.1415C24.6669 44.1823 24.2727 44.2367 23.8921 44.2367C23.0358 44.2503 22.1931 44.2639 21.3368 44.2503C21.0921 44.2503 20.929 44.2775 20.8747 44.5768C20.7795 45.1074 20.5892 45.6244 20.5484 46.1686C20.4533 47.3658 20.3718 48.5766 20.3853 49.7738C20.3989 51.5969 20.8203 53.3519 21.4727 55.0389C22.696 58.1952 24.6805 60.7937 27.4125 62.8208C29.5329 64.3853 31.8979 65.4057 34.4804 65.8955C36.2202 66.222 37.9736 66.2764 39.7406 66.0587C41.3716 65.8547 42.9483 65.4465 44.4571 64.7935C47.9231 63.2834 50.6143 60.9025 52.558 57.6646C53.7269 55.7055 54.4881 53.5832 54.8007 51.3248C55.1133 49.0528 55.0182 46.7808 54.4337 44.536C54.3794 44.3183 54.3114 44.2367 54.0803 44.2503C53.591 44.2911 53.1017 44.3183 52.626 44.3047C51.8376 44.2775 51.0629 44.2095 50.3153 44.1687C52.1774 51.4336 50.193 57.1204 43.492 60.9025C38.6396 63.0521 33.9095 62.7664 29.696 59.542C24.5581 55.6103 23.2805 50.318 25.0746 44.1279L25.0611 44.1415ZM19.9368 35.448C13.3446 33.7746 9.48442 29.6796 8.80481 22.7548C8.77762 17.2857 10.9932 12.9458 15.8591 10.4289C22.0572 7.21817 27.63 8.63307 32.428 13.4355C33.0125 12.3744 33.6241 11.2588 34.2494 10.1704C34.3853 9.93912 34.3445 9.81668 34.1678 9.66703C33.5833 9.17726 33.0125 8.64667 32.4008 8.18411C30.294 6.61956 27.9426 5.61281 25.3737 5.12304C23.6339 4.79653 21.8805 4.74211 20.1135 4.95978C18.496 5.16386 16.9193 5.5584 15.4378 6.19782C11.9854 7.69434 9.26695 10.0616 7.32327 13.2995C6.27667 15.0545 5.55628 16.9456 5.1757 18.9455C4.84949 20.7005 4.79513 22.4691 5.0126 24.2513C5.21649 25.8975 5.65143 27.4893 6.30385 29.013C7.28249 31.2986 8.70966 33.2849 10.5446 34.9583C12.5834 36.8221 14.9485 38.101 17.5989 38.8492C17.7077 38.8764 17.9116 38.7812 17.9795 38.686C18.6455 37.5976 19.3116 36.4956 19.9504 35.4208L19.9368 35.448ZM42.6221 13.558C46.3056 9.21807 52.2726 7.59911 57.6823 9.69424C62.6298 11.6125 66.1094 16.2925 66.2181 21.9385C66.2725 24.7275 65.5385 27.2988 63.9754 29.598C61.8822 32.6863 58.9735 34.5909 55.29 35.3392C55.3172 35.4344 55.3172 35.5024 55.358 35.5569C56.0104 36.6044 56.6493 37.6384 57.3153 38.6724C57.3696 38.754 57.5327 38.822 57.6415 38.7948C58.0085 38.7132 58.3754 38.6179 58.7288 38.4819C61.9366 37.2711 64.6279 35.3528 66.6803 32.591C69.2764 29.1218 70.4181 25.2037 70.1191 20.8773C69.9968 19.1087 69.6026 17.3945 68.9502 15.762C67.7541 12.7825 65.8783 10.3201 63.3366 8.37458C61.1618 6.7148 58.7153 5.62642 56.0376 5.12304C54.2978 4.79653 52.5444 4.74211 50.7774 4.97339C49.2823 5.16386 47.8279 5.53118 46.4279 6.08898C44.3483 6.91887 42.5134 8.12969 40.8823 9.66703C40.6785 9.8575 40.6785 9.99354 40.8144 10.2112C41.0998 10.6738 41.3852 11.1363 41.6435 11.6125C41.9833 12.2519 42.2959 12.905 42.6221 13.558V13.558ZM44.1444 42.5905C47.8415 46.6039 47.1211 52.2091 43.9814 55.2566C40.8687 58.2904 36.0299 58.7666 32.36 56.1136C30.5523 54.8076 29.3562 53.0254 28.9076 50.8486C28.2416 47.6651 29.0435 44.8489 31.2727 42.4409C31.1367 42.4409 31.028 42.4817 30.9193 42.5225C29.3018 43.1891 27.6436 43.7061 25.9173 43.9918C25.7814 44.019 25.6047 44.1687 25.564 44.3047C25.0746 45.57 24.8028 46.9032 24.7484 48.2637C24.6669 50.1956 24.9795 52.073 25.7678 53.8417C27.8067 58.3856 31.3135 61.0114 36.2338 61.6916C38.5581 62.0045 40.8416 61.6508 42.9755 60.644C47.2435 58.6169 49.7852 55.2157 50.492 50.5357C50.8046 48.4814 50.56 46.4271 49.8532 44.4408C49.7444 44.1551 49.5813 44.019 49.2687 43.9646C48.5211 43.8422 47.7736 43.7061 47.0532 43.502C46.1017 43.2299 45.1639 42.8898 44.1716 42.5633L44.1444 42.5905ZM30.8241 19.5577C30.8921 19.3672 30.9329 19.2992 30.9465 19.2176C31.1368 17.5306 31.5853 15.898 32.1562 14.3062C32.1969 14.1838 32.1698 13.9661 32.0882 13.8573C29.8863 11.2588 27.0863 9.73505 23.729 9.31331C21.5814 9.04121 19.4747 9.31331 17.4766 10.1296C13.5485 11.7486 10.9524 14.6192 9.75626 18.6734C9.04946 21.0814 9.10384 23.5031 9.85141 25.9247C10.7349 28.8089 12.4339 31.0945 14.8941 32.8223C16.4028 33.8835 18.0747 34.5637 19.896 34.8902C20.2902 34.9583 20.5077 34.8902 20.7523 34.6045C21.3912 33.8835 22.0572 33.1624 22.764 32.4958C23.3756 31.9108 24.0552 31.4074 24.7756 30.8088C22.03 31.5027 19.5019 31.1761 17.2184 29.6388C14.9213 28.1015 13.6028 25.9111 13.2902 23.1629C12.8009 18.823 15.4786 14.4695 20.2766 13.3811C24.3407 12.456 29.0571 14.4423 30.8513 19.5577H30.8241ZM50.8046 30.9449C50.8046 30.9449 50.8318 31.0401 50.8454 31.0537C52.2862 32.1285 53.591 33.3665 54.7463 34.7406C54.8279 34.8358 55.0182 34.8902 55.1269 34.863C55.7386 34.7406 56.3502 34.6317 56.9347 34.4277C59.3949 33.6114 61.4201 32.1557 63.0376 30.1286C64.3288 28.496 65.1579 26.6322 65.5657 24.5778C65.9055 22.782 65.8783 20.9862 65.4706 19.204C65.0084 17.2041 64.1113 15.4082 62.7657 13.8301C60.523 11.2044 57.6822 9.68063 54.2706 9.2861C52.5172 9.08203 50.791 9.25889 49.092 9.78947C46.6726 10.5377 44.6745 11.8846 43.0163 13.7757C42.8668 13.9525 42.826 14.1158 42.9212 14.3607C43.1386 14.9457 43.3561 15.5307 43.492 16.1293C43.7639 17.2721 43.9949 18.4149 44.226 19.4897C45.925 14.2518 51.2939 12.1567 55.6298 13.5716C59.6259 14.8776 62.1677 18.6734 61.8143 22.9317C61.624 25.1628 60.7133 27.0811 59.0823 28.6184C56.7444 30.836 53.9444 31.5163 50.791 30.9177L50.8046 30.9449ZM32.5911 14.4831C31.8435 16.4014 31.395 18.3333 31.2591 20.3059C31.096 22.5779 31.1911 24.8635 31.7348 27.0947C31.8163 27.4348 31.9523 27.4756 32.2377 27.394C32.7542 27.258 33.2843 27.1219 33.8144 27.0403C34.0726 26.9995 34.2222 26.9179 34.3037 26.673C34.7523 25.4485 35.0241 24.1833 35.0921 22.8772C35.2008 20.9862 34.8882 19.1495 34.195 17.3945C33.8008 16.3742 33.2707 15.4218 32.5639 14.4967L32.5911 14.4831ZM43.261 27.3804C44.2804 23.0541 44.0629 18.7822 42.527 14.5783C42.459 14.6056 42.4047 14.6056 42.3911 14.6328C42.3367 14.6872 42.2823 14.7552 42.2416 14.8232C40.8959 16.7687 40.1348 18.9319 39.9717 21.2855C39.8493 23.1085 40.0668 24.9044 40.76 26.6322C40.828 26.7954 41.059 26.9723 41.2493 27.0131C41.8881 27.1627 42.5406 27.258 43.2746 27.394L43.261 27.3804ZM37.5522 14.1702C35.4319 17.8843 35.0377 23.2718 36.2338 26.7546C37.0086 26.7546 37.7697 26.7546 38.5445 26.7546C38.8163 26.7546 38.9386 26.6594 38.9794 26.4009C39.1289 25.4758 39.3736 24.5642 39.4144 23.6391C39.5231 21.8025 39.4959 19.9522 39.0338 18.1428C38.6804 16.7823 38.2183 15.4627 37.5387 14.1566L37.5522 14.1702ZM37.9057 37.8017C39.659 40.1553 47.0124 43.815 49.4318 43.5429C49.4318 43.5429 49.4318 43.5156 49.4318 43.502C47.4473 39.3526 44.1581 36.9037 39.6726 36.0738C39.5639 36.0602 39.4008 36.1283 39.3328 36.2099C38.8571 36.7405 38.3814 37.2711 37.9192 37.8153L37.9057 37.8017ZM43.5872 27.9654C43.3561 28.6593 43.1658 29.2987 42.9348 29.9109C42.826 30.1966 42.8668 30.3735 43.0707 30.5911C44.6881 32.4414 46.6454 33.7474 48.9969 34.4957C50.56 34.9991 52.1638 35.1759 53.7949 35.0807C53.958 35.0807 54.1211 35.0127 54.3522 34.9719C51.4298 31.5299 47.8823 29.2171 43.5872 27.9654V27.9654ZM52.1638 39.4342C52.0687 39.271 52.0143 39.1621 51.9464 39.0669C50.9405 37.584 49.7172 36.2915 48.3037 35.1895C46.4823 33.7746 44.4707 32.7543 42.2416 32.1421C42.1464 32.1149 41.9425 32.1965 41.8881 32.2781C41.5076 32.8903 41.1542 33.5298 40.7736 34.1556C40.6785 34.3324 40.6649 34.4685 40.8416 34.6045C41.3445 35.0263 41.8202 35.4888 42.3367 35.897C44.1173 37.2575 46.0881 38.2642 48.2493 38.8492C49.4862 39.1893 50.7502 39.4342 52.1502 39.4206L52.1638 39.4342ZM21.0106 34.9719C21.1465 35.0263 21.2145 35.0807 21.2824 35.0807C22.5193 35.1623 23.7562 35.0807 24.9523 34.8086C26.2708 34.5093 27.5348 34.0331 28.7037 33.3393C29.9678 32.591 31.0688 31.6523 32.0338 30.5503C32.1969 30.3735 32.2649 30.2102 32.1426 29.9517C31.9251 29.4619 31.7484 28.945 31.6261 28.4144C31.5445 28.0607 31.4086 28.047 31.1232 28.1423C28.5814 28.9722 26.2572 30.183 24.1776 31.8564C23.0222 32.7815 21.9756 33.7882 20.997 34.9719H21.0106ZM25.863 43.5429C26.1756 43.502 26.3659 43.4884 26.5426 43.4476C28.3911 43.0259 30.1717 42.4409 31.8707 41.5974C33.7193 40.6723 35.4047 39.4886 36.9406 38.0874C37.1309 37.9241 37.1853 37.7608 36.9814 37.5432C36.5872 37.135 36.2202 36.6997 35.8261 36.3051C35.7173 36.1963 35.527 36.1283 35.3911 36.1419C34.2086 36.2915 33.094 36.6997 32.0202 37.2166C29.7503 38.3186 27.9698 39.9512 26.6513 42.1008C26.3795 42.5361 26.1484 43.0123 25.863 43.5429V43.5429ZM23.2125 39.339C23.2125 39.339 23.2397 39.4342 23.2533 39.475C24.0824 39.3662 24.9251 39.2982 25.7407 39.1213C27.3581 38.7812 28.9076 38.2234 30.362 37.4343C31.762 36.6725 33.0397 35.7473 34.195 34.659C34.3853 34.4821 34.426 34.346 34.2629 34.1148C33.9367 33.6386 33.6649 33.1216 33.3795 32.6182C33.094 32.1149 33.094 32.1149 32.5503 32.2917C30.4028 32.9856 28.4319 34.0331 26.6921 35.4752C25.3465 36.5908 24.1776 37.8697 23.2261 39.339H23.2125ZM26.5562 34.8358C26.4746 34.8494 26.3251 34.8902 26.1892 34.9174C25.795 35.0263 25.4145 35.1487 25.0203 35.2304C23.6475 35.5433 22.2611 35.5297 20.8611 35.4888C20.7115 35.4888 20.5077 35.5705 20.4261 35.6929C19.7057 36.7541 18.9989 37.8425 18.265 38.9445C18.4689 39.0397 18.5776 39.1213 18.6863 39.1349C19.896 39.2438 21.1057 39.3662 22.3154 39.4478C22.4514 39.4478 22.6416 39.3254 22.7368 39.2029C23.0766 38.7676 23.3484 38.2778 23.7154 37.8697C24.6397 36.8357 25.6047 35.8426 26.5562 34.8358V34.8358ZM21.0921 43.8966C22.2611 43.8422 23.3348 43.7469 24.4086 43.7469C25.061 43.7469 25.4145 43.5293 25.6999 42.917C26.461 41.2709 27.5756 39.8832 29.0028 38.6315C28.8533 38.6588 28.7717 38.6588 28.7037 38.6724C27.6707 38.9717 26.6513 39.3118 25.6047 39.5567C24.83 39.7335 24.028 39.7607 23.2397 39.8832C23.0766 39.9104 22.8455 39.9376 22.7776 40.0464C22.0708 41.2164 21.5135 42.4545 21.1057 43.8966H21.0921ZM48.8881 34.9719V35.0535C50.3425 36.2779 51.6066 37.6656 52.6396 39.271C52.7075 39.3662 52.857 39.4478 52.9658 39.4478C54.3114 39.4478 55.6298 39.339 56.9347 38.9717C56.9211 38.89 56.9211 38.8356 56.8939 38.7948C56.2143 37.72 55.5347 36.6589 54.8415 35.5977C54.7735 35.4888 54.5425 35.448 54.393 35.4616C53.0473 35.5433 51.7153 35.5841 50.3833 35.2848C49.8939 35.1759 49.391 35.0807 48.8881 34.9719ZM34.8066 10.2248C34.6707 10.3881 34.5756 10.4697 34.5212 10.5649C33.9911 11.5853 33.461 12.6193 32.9173 13.6396C32.7814 13.8845 32.8358 14.0478 32.9853 14.2518C33.6785 15.2042 34.263 16.2109 34.6571 17.3265C34.8882 17.9795 35.1057 18.6462 35.3367 19.3672C35.6494 17.3945 36.2746 15.5987 37.1445 13.8709C37.1989 13.7485 37.1989 13.5444 37.1445 13.4355C36.8862 12.9866 36.628 12.5512 36.329 12.1431C35.8532 11.5037 35.3367 10.8915 34.8066 10.2248V10.2248ZM39.7678 19.3128C40.2299 17.4217 41.0047 15.6939 42.16 14.1294C42.2416 14.0205 42.228 13.7893 42.16 13.6532C41.8338 12.9322 41.494 12.2111 41.1134 11.5037C40.8823 11.0683 40.5969 10.6738 40.2707 10.1296C39.5503 11.0955 38.9251 11.9662 38.2726 12.8233C37.9057 13.2995 37.8105 13.7212 38.1231 14.3199C38.9387 15.8708 39.4416 17.5578 39.7678 19.2992V19.3128ZM46.6318 38.89C46.6318 38.89 46.6454 38.9308 46.6862 38.9717C47.9231 40.06 48.9153 41.3661 49.6085 42.849C49.8939 43.4476 50.1794 43.815 50.8862 43.7741C51.9735 43.7333 53.0745 43.7741 54.1755 43.7741C54.1755 43.7333 54.1891 43.6789 54.1755 43.6245C53.7813 42.4001 53.2784 41.23 52.6124 40.1281C52.5444 40.0192 52.3541 39.9376 52.2182 39.924C51.6609 39.856 51.1036 39.8832 50.56 39.7743C49.2279 39.5159 47.9095 39.1893 46.6182 38.9036L46.6318 38.89ZM22.2067 39.9376C22.2067 39.9376 22.0844 39.9104 22.0164 39.9104C20.8339 39.7879 19.6514 39.6791 18.4688 39.5158C18.1426 39.475 18.0339 39.5567 17.9252 39.8152C17.7485 40.2777 17.531 40.7267 17.3543 41.2028C17.1232 41.8287 16.9329 42.4681 16.6883 43.2163C18.0475 43.434 19.3251 43.6517 20.5213 43.8422C21.1057 42.4817 21.6358 41.23 22.1931 39.9376H22.2067ZM53.1561 39.9376C53.6454 41.162 54.1347 42.3592 54.624 43.5565C54.6648 43.6517 54.8551 43.7605 54.9502 43.7333C56.0648 43.5565 57.1793 43.366 58.2939 43.1619C58.4842 43.1347 58.5793 43.0531 58.4978 42.8218C58.09 41.7606 57.6958 40.6859 57.2745 39.6247C57.2337 39.5159 57.0026 39.4206 56.8803 39.4342C56.0648 39.5431 55.2628 39.6927 54.4473 39.8016C54.0124 39.8696 53.5638 39.8832 53.1561 39.924V39.9376ZM37.5115 13.0274C38.2998 12.0479 39.1018 11.0411 39.9037 10.0208C39.9717 9.93912 39.9581 9.70784 39.9037 9.61261C39.6047 9.17726 39.2921 8.75551 38.9523 8.34737C38.5037 7.81678 38.028 7.31341 37.5251 6.7284C36.8183 7.5855 36.1387 8.37458 35.4998 9.19086C35.0105 9.80308 35.0513 9.80308 35.5406 10.4153C36.2338 11.286 36.8998 12.1975 37.5387 13.0274H37.5115ZM35.3775 27.2852C34.8338 27.2036 34.4804 27.3668 34.2222 27.9246C33.896 28.6321 33.4882 29.3123 33.0397 29.9517C32.8222 30.2646 32.795 30.4959 32.9445 30.8224C33.2979 31.5707 33.2843 31.5707 34.0863 31.4482C34.9697 31.3258 35.8532 31.2306 36.7367 31.1081C37.1581 31.0537 37.294 30.7816 37.1173 30.4007C36.7231 29.5028 36.329 28.5912 35.9892 27.6797C35.8668 27.3396 35.7445 27.1491 35.3639 27.2988L35.3775 27.2852ZM37.7154 35.4616C37.7154 35.4616 37.7154 35.4888 37.7154 35.5025C37.9464 35.5025 38.1911 35.4616 38.4086 35.5025C39.1018 35.6521 39.5095 35.3392 39.8493 34.7814C39.9988 34.5365 39.9852 34.4005 39.8085 34.1828C39.1833 33.4073 38.5717 32.6182 37.9736 31.8292C37.6746 31.4346 37.3484 31.4346 37.0629 31.8428C36.6144 32.4686 36.1794 33.108 35.6901 33.693C34.9426 34.5773 34.929 34.5637 35.7037 35.4208C35.7853 35.5025 35.9348 35.5569 36.0571 35.5569C36.6144 35.5433 37.1717 35.5024 37.7154 35.4616V35.4616ZM39.2513 27.2036C39.0066 27.843 38.7891 28.4552 38.5445 29.0402C38.3542 29.4891 38.1367 29.9109 37.9328 30.3599C37.7561 30.7544 37.9057 31.0401 38.2726 31.0809C39.428 31.2033 40.5833 31.3394 41.793 31.4754C41.9289 31.1761 42.092 30.836 42.228 30.4687C42.2551 30.4007 42.228 30.2918 42.1872 30.2238C41.6707 29.3259 41.1542 28.428 40.6105 27.5437C40.5425 27.4348 40.4066 27.3124 40.2843 27.2988C39.9581 27.2444 39.6183 27.2444 39.2649 27.2172L39.2513 27.2036ZM37.4435 30.1286L37.6202 30.1014C38.0144 29.149 38.395 28.1831 38.8027 27.1899H36.2474C36.6688 28.2239 37.0493 29.1762 37.4435 30.1286ZM38.4357 31.5163C38.4357 31.5163 38.3814 31.6387 38.3542 31.6931C38.9794 32.4822 39.6047 33.2849 40.2979 34.1556C40.7464 33.3937 41.127 32.7271 41.5891 31.938C40.4746 31.7884 39.4552 31.6523 38.4357 31.5299V31.5163ZM33.4882 31.9924C33.9231 32.7407 34.3173 33.3937 34.7523 34.1556C35.4455 33.2713 36.0707 32.4822 36.6823 31.6931C36.6552 31.6387 36.628 31.5843 36.5872 31.5299C35.5814 31.6795 34.5756 31.8292 33.4746 31.9924H33.4882ZM35.0785 40.2369C36.6688 39.8016 38.1775 39.7879 39.6862 40.0192C38.9658 39.407 38.2319 38.7948 37.5387 38.1962C36.7503 38.8492 35.9756 39.5022 35.0785 40.2369V40.2369ZM30.797 24.7683C30.3076 26.292 29.5465 27.5165 28.5542 28.6048C28.7445 28.5776 28.9076 28.5232 29.0707 28.4552C29.7368 28.2103 30.4028 27.9246 31.0824 27.7205C31.3542 27.6389 31.3814 27.5029 31.3406 27.2852C31.2047 26.5641 31.0824 25.8567 30.9465 25.1356C30.9329 25.0404 30.8785 24.9588 30.8105 24.7683H30.797ZM46.2784 28.4416C45.3542 27.3532 44.6881 26.1152 44.1988 24.7139C44.0221 25.707 43.8726 26.6185 43.7095 27.5301C44.5794 27.843 45.4357 28.1423 46.2784 28.4416V28.4416ZM43.1522 27.8566C42.4318 27.7069 41.793 27.5709 41.1542 27.4348C41.1134 27.4756 41.0862 27.5029 41.0454 27.5437C41.494 28.3055 41.9289 29.0674 42.3775 29.8293C42.4182 29.8157 42.4726 29.8021 42.5134 29.7885C42.7173 29.1762 42.9211 28.5504 43.1386 27.8566H43.1522ZM33.9775 27.5981C33.9775 27.5981 33.9096 27.5301 33.8688 27.4893C33.3251 27.6117 32.7678 27.7205 32.2377 27.8702C32.1426 27.8974 32.0202 28.1151 32.0338 28.2103C32.1833 28.7409 32.36 29.2715 32.5367 29.8021C32.5775 29.8021 32.6319 29.8157 32.6727 29.8293C33.1076 29.081 33.5426 28.3464 33.9775 27.5981V27.5981ZM36.1387 36.033C36.6552 36.5908 37.0765 37.0534 37.5251 37.5432C37.9872 37.0534 38.4086 36.5908 38.8299 36.1283C38.8163 36.0875 38.7891 36.0466 38.7755 35.9922C37.9328 35.897 37.1037 35.9106 36.1387 36.033V36.033ZM34.6843 34.8358C34.127 35.3256 33.6105 35.7745 33.0532 36.2779C33.8416 36.0602 34.5484 35.8698 35.296 35.6657C35.0649 35.3664 34.8882 35.1215 34.6843 34.8358V34.8358ZM30.9193 32.4142C31.6125 32.1693 32.2377 31.9516 32.8766 31.7339C32.727 31.3938 32.6047 31.1217 32.4824 30.8768C31.9659 31.3802 31.4629 31.87 30.9057 32.4278L30.9193 32.4142ZM39.795 35.6249C40.4746 35.7882 41.1134 35.9514 41.8202 36.1283C41.3173 35.6793 40.8551 35.2712 40.3794 34.8358C40.1755 35.1079 40.0124 35.3392 39.795 35.6249V35.6249ZM43.9677 32.2373L44.0085 32.1829C43.5328 31.7611 43.0571 31.3394 42.5678 30.904C42.4862 31.0945 42.3503 31.3802 42.2144 31.6795C42.826 31.8836 43.3969 32.0604 43.9677 32.2373ZM35.7037 26.7818C35.5814 26.1696 35.459 25.5982 35.3231 24.9452C35.1192 25.639 34.929 26.2376 34.7387 26.9042C35.0785 26.8634 35.3775 26.8226 35.7037 26.7818ZM40.3251 26.877C40.1348 26.2376 39.9581 25.6254 39.7542 24.918C39.6183 25.5982 39.4959 26.1696 39.3736 26.7682C39.7134 26.809 40.0124 26.8362 40.3251 26.877V26.877Z" fill="#01E6B6"/>
</svg>
