<svg width="1280" height="668" viewBox="0 0 1280 668" fill="none" xmlns="http://www.w3.org/2000/svg">
<g opacity="0.2">
<mask id="mask0_1284_4969" style="mask-type:alpha" maskUnits="userSpaceOnUse" x="0" y="0" width="1280" height="668">
<path d="M1280 0H0V668H1280V0Z" fill="url(#paint0_linear_1284_4969)"/>
</mask>
<g mask="url(#mask0_1284_4969)">
<path d="M188.712 668.972C188.616 668.972 188.552 668.972 188.456 668.911C188.232 668.788 188.168 668.419 188.296 668.234L221.931 608.456C222.027 608.271 222.187 608.21 222.347 608.21L1095.51 614.058C1095.67 614.058 1095.83 614.181 1095.92 614.304L1126.55 668.173C1126.68 668.419 1126.61 668.726 1126.39 668.85C1126.17 668.972 1125.88 668.911 1125.72 668.665L1095.22 615.043L222.603 609.195L189.128 668.726C189.032 668.911 188.872 668.972 188.712 668.972Z" fill="#01E6B6"/>
<path d="M-0.487113 537.781C-0.615124 537.781 -0.743135 537.72 -0.839143 537.658C-1.03116 537.473 -1.03116 537.104 -0.839143 536.92L36.2199 497.519C36.3159 497.396 36.4119 497.334 36.5719 497.396L1278.66 504.537C1278.91 504.537 1279.14 504.783 1279.14 505.029C1279.14 505.337 1278.91 505.522 1278.66 505.522L36.7639 498.381L-0.135081 537.658C-0.231095 537.781 -0.359103 537.781 -0.487113 537.781Z" fill="#01E6B6"/>
<path d="M43.3869 382.396L-0.488711 382.15C-0.744731 382.15 -0.96875 381.904 -0.96875 381.658C-0.96875 381.35 -0.744731 381.165 -0.488711 381.165L43.1949 381.35L220.681 224.056L471.486 1.7508C471.678 1.56611 471.998 1.62767 472.158 1.81236C472.318 2.05861 472.286 2.36643 472.094 2.55112L159.621 279.524L43.6749 382.274C43.6109 382.335 43.4829 382.396 43.3869 382.396Z" fill="#01E6B6"/>
<path d="M-0.488617 376.484C-0.648629 376.484 -0.77664 376.424 -0.872648 376.3C-1.03266 376.054 -1.00066 375.746 -0.77664 375.561L28.8578 351.305C28.9538 351.244 29.0498 351.182 29.1458 351.182L1278.65 356.784C1278.91 356.784 1279.13 357.031 1279.13 357.277C1279.13 357.585 1278.91 357.77 1278.65 357.77L29.3058 352.229L-0.200593 376.362C-0.2966 376.424 -0.392609 376.484 -0.488617 376.484Z" fill="#01E6B6"/>
<path d="M36.5703 498.382C36.5383 498.382 36.5383 498.382 36.5703 498.382L-0.488711 498.197C-0.744731 498.197 -0.96875 497.951 -0.96875 497.705C-0.96875 497.397 -0.744731 497.212 -0.488711 497.212L36.3463 497.397L419.738 89.4173L502.049 1.81283C502.241 1.62814 502.529 1.62814 502.721 1.81283C502.913 1.99752 502.913 2.3669 502.721 2.55159L77.886 454.61L36.8903 498.197C36.7943 498.321 36.6663 498.382 36.5703 498.382Z" fill="#01E6B6"/>
<path d="M35.7383 279.154L-0.488711 279.031C-0.744731 279.031 -0.96875 278.785 -0.96875 278.539C-0.96875 278.231 -0.744731 278.046 -0.488711 278.046L35.5783 278.169L112.449 223.686L425.723 1.62713C425.947 1.44244 426.235 1.56556 426.395 1.75025C426.555 1.99651 426.491 2.30432 426.267 2.48901L35.9943 279.093C35.9303 279.093 35.8343 279.154 35.7383 279.154Z" fill="#01E6B6"/>
<path d="M30.5219 208.973L-0.488711 208.849C-0.744731 208.849 -0.96875 208.604 -0.96875 208.357C-0.96875 208.049 -0.744731 207.865 -0.488711 207.865L30.3938 207.987L379.959 1.62748C380.183 1.50435 380.471 1.56592 380.599 1.81217C380.727 2.05842 380.631 2.36624 380.407 2.48937L30.7779 208.911C30.6819 208.911 30.6179 208.973 30.5219 208.973Z" fill="#01E6B6"/>
<path d="M29.1457 352.231L-0.488711 352.108C-0.744731 352.108 -0.96875 351.862 -0.96875 351.616C-0.96875 351.308 -0.744731 351.123 -0.488711 351.123L28.9857 351.247L456.253 1.75155C456.477 1.56686 456.765 1.62842 456.925 1.87468C457.085 2.12093 457.053 2.42875 456.829 2.61345L29.4337 352.108C29.3697 352.17 29.2417 352.231 29.1457 352.231Z" fill="#01E6B6"/>
<path d="M-0.488693 275.708C-0.648707 275.708 -0.80872 275.646 -0.904728 275.461C-1.03274 275.215 -0.968733 274.907 -0.744715 274.722L24.1853 258.162C24.2493 258.1 24.3453 258.1 24.4413 258.1L63.7406 258.223L103.04 258.346L181.734 258.654L221.129 258.777L260.557 258.901L339.475 259.208L378.967 259.331L418.49 259.454L458.045 259.578L576.871 260.009L616.522 260.131L1278.63 262.595C1278.88 262.595 1279.11 262.84 1279.11 263.086C1279.11 263.395 1278.88 263.579 1278.63 263.579L1254.91 263.517L1214.81 263.395L221.129 259.885L181.734 259.762L103.04 259.454L63.7406 259.331L24.6013 259.208L-0.232672 275.646C-0.328679 275.708 -0.392686 275.708 -0.488693 275.708Z" fill="#01E6B6"/>
<path d="M-0.487715 474.249C-0.615725 474.249 -0.743736 474.187 -0.839744 474.064C-1.03176 473.88 -0.999757 473.51 -0.807741 473.325L19.6099 453.563C19.7059 453.501 19.8019 453.44 19.93 453.44L1278.66 460.212C1278.91 460.212 1279.14 460.459 1279.14 460.705C1279.14 461.012 1278.91 461.197 1278.66 461.197L20.122 454.425L-0.167687 474.064C-0.263693 474.187 -0.359705 474.249 -0.487715 474.249Z" fill="#01E6B6"/>
<path d="M26.7775 158.122L-0.488711 158.06C-0.744731 158.06 -0.96875 157.814 -0.96875 157.568C-0.96875 157.26 -0.744731 157.076 -0.488711 157.076L26.6495 157.137L334.227 1.50497C334.451 1.38184 334.739 1.50496 334.867 1.75122C334.995 1.99747 334.867 2.30529 334.643 2.42842L26.9695 158.06C26.9055 158.122 26.8415 158.122 26.7775 158.122Z" fill="#01E6B6"/>
<path d="M24.4413 259.147L-0.488711 259.023C-0.744731 259.023 -0.96875 258.777 -0.96875 258.531C-0.96875 258.223 -0.744731 258.039 -0.488711 258.039L24.3133 258.162L396.952 10.6157L410.489 1.62748C410.713 1.50435 411.001 1.56592 411.161 1.81217C411.289 2.05842 411.225 2.36624 411.001 2.55093L24.6973 259.085C24.6013 259.147 24.5373 259.147 24.4413 259.147Z" fill="#01E6B6"/>
<path d="M-0.488788 206.879C-0.648801 206.879 -0.840817 206.756 -0.904822 206.633C-1.03283 206.387 -0.936825 206.078 -0.712807 205.956L20.9529 193.827C21.0169 193.766 21.081 193.766 21.177 193.766L1278.65 197.706C1278.91 197.706 1279.13 197.952 1279.13 198.199C1279.13 198.506 1278.91 198.691 1278.65 198.691L21.305 194.751L-0.264772 206.817C-0.328772 206.817 -0.424783 206.879 -0.488788 206.879Z" fill="#01E6B6"/>
<path d="M23.8973 119.583L-0.488711 119.521C-0.744731 119.521 -0.96875 119.274 -0.96875 119.029C-0.96875 118.721 -0.744731 118.536 -0.488711 118.536L23.8013 118.597L288.527 1.44269C288.783 1.31956 289.039 1.44269 289.167 1.75051C289.263 1.99676 289.167 2.30458 288.911 2.42771L24.0893 119.583C24.0253 119.583 23.9613 119.583 23.8973 119.583Z" fill="#01E6B6"/>
<path d="M21.6891 89.4156L-0.488711 89.3547C-0.744731 89.3547 -0.96875 89.1083 -0.96875 88.862C-0.96875 88.5539 -0.744731 88.3694 -0.488711 88.3694L21.5931 88.4312L242.891 1.31885C243.147 1.19573 243.403 1.38042 243.499 1.62667C243.595 1.87292 243.467 2.18074 243.211 2.30387L21.8491 89.3547C21.7851 89.4156 21.7211 89.4156 21.6891 89.4156Z" fill="#01E6B6"/>
<path d="M21.1771 194.752L-0.488711 194.69C-0.744731 194.69 -0.96875 194.444 -0.96875 194.197C-0.96875 193.889 -0.744731 193.705 -0.488711 193.705L21.0491 193.766L364.725 1.5658C364.949 1.44267 365.237 1.50424 365.365 1.81206C365.493 2.05831 365.397 2.36613 365.173 2.48925L21.4011 194.69C21.3371 194.752 21.2411 194.752 21.1771 194.752Z" fill="#01E6B6"/>
<path d="M-0.4881 156.829C-0.680116 156.829 -0.840129 156.705 -0.936137 156.52C-1.03214 156.274 -0.936137 155.967 -0.680116 155.843L18.5855 146.547C18.6495 146.547 18.7135 146.485 18.7775 146.485L1094.42 149.379L1278.66 149.871C1278.91 149.871 1279.14 150.118 1279.14 150.364C1279.14 150.672 1278.91 150.857 1278.66 150.857L18.8735 147.471L-0.296087 156.767C-0.360089 156.767 -0.424095 156.829 -0.4881 156.829Z" fill="#01E6B6"/>
<path d="M-0.489241 338.069C-0.649254 338.069 -0.777264 338.008 -0.873272 337.823C-1.03329 337.577 -0.96928 337.269 -0.745261 337.084L16.1521 324.218C16.2481 324.156 16.3441 324.094 16.4401 324.094L1278.69 329.451C1278.95 329.451 1279.17 329.697 1279.17 329.943C1279.17 330.251 1278.95 330.435 1278.69 330.435L16.5681 325.203L-0.201219 338.008C-0.297225 338.069 -0.393233 338.069 -0.489241 338.069Z" fill="#01E6B6"/>
<path d="M19.929 454.488L-0.488711 454.365C-0.744731 454.365 -0.96875 454.119 -0.96875 453.872C-0.96875 453.564 -0.744731 453.38 -0.488711 453.38L19.7369 453.502L381.495 103.638L486.751 1.87451C486.943 1.68982 487.263 1.68982 487.423 1.93607C487.615 2.12076 487.583 2.49014 487.391 2.67483L59.7083 416.195L20.249 454.365C20.185 454.426 20.057 454.488 19.929 454.488Z" fill="#01E6B6"/>
<path d="M19.8649 65.0985L-0.488711 65.037C-0.744731 65.037 -0.96875 64.7907 -0.96875 64.5445C-0.96875 64.2367 -0.744731 64.052 -0.488711 64.052L19.8009 64.1136L197.255 1.31903C197.511 1.25747 197.767 1.3806 197.863 1.62685C197.959 1.87311 197.799 2.18092 197.543 2.30405L20.025 65.0985C19.961 65.0985 19.929 65.0985 19.8649 65.0985Z" fill="#01E6B6"/>
<path d="M18.7769 147.471L-0.488711 147.41C-0.744731 147.41 -0.96875 147.163 -0.96875 146.917C-0.96875 146.609 -0.744731 146.424 -0.488711 146.424L18.6809 146.486L319.025 1.44296C319.281 1.31983 319.537 1.44296 319.665 1.68921C319.761 1.93547 319.665 2.24328 319.409 2.3664L18.9689 147.471C18.9049 147.471 18.8409 147.471 18.7769 147.471Z" fill="#01E6B6"/>
<path d="M18.3929 45.091L-0.488711 45.0295C-0.744731 45.0295 -0.96875 44.7832 -0.96875 44.537C-0.96875 44.2291 -0.744731 44.0444 -0.488711 44.0444L18.3289 44.106L151.684 1.19642C151.94 1.13486 152.196 1.25798 152.292 1.5658C152.356 1.81205 152.228 2.11987 151.972 2.18143L18.5209 45.091C18.4889 45.091 18.4569 45.091 18.3929 45.091Z" fill="#01E6B6"/>
<path d="M-0.488462 118.783C-0.680477 118.783 -0.872493 118.659 -0.936498 118.474C-1.03251 118.228 -0.904496 117.921 -0.680477 117.797L16.7609 110.41C16.8249 110.41 16.8889 110.348 16.953 110.348L1278.65 113.365C1278.91 113.365 1279.13 113.611 1279.13 113.858C1279.13 114.165 1278.91 114.35 1278.65 114.35L17.049 111.395L-0.296447 118.783C-0.360451 118.783 -0.424457 118.783 -0.488462 118.783Z" fill="#01E6B6"/>
<path d="M17.1447 28.4074H-0.488711C-0.744731 28.4074 -0.96875 28.1611 -0.96875 27.9149C-0.96875 27.607 -0.744731 27.4223 -0.488711 27.4223H17.0807L106.08 1.19642C106.336 1.13486 106.592 1.25798 106.656 1.5658C106.72 1.81205 106.592 2.11987 106.336 2.18143L17.2727 28.4074C17.2407 28.4074 17.2087 28.4074 17.1447 28.4074Z" fill="#01E6B6"/>
<path d="M16.9527 111.395L-0.488711 111.333C-0.744731 111.333 -0.96875 111.087 -0.96875 110.841C-0.96875 110.533 -0.744731 110.348 -0.488711 110.348L16.8567 110.41L273.326 1.44269C273.582 1.31956 273.838 1.44269 273.934 1.75051C274.03 1.99676 273.902 2.30458 273.678 2.42771L17.1127 111.333C17.0807 111.333 17.0167 111.395 16.9527 111.395Z" fill="#01E6B6"/>
<path d="M1278.65 104.561C1278.59 104.561 1278.53 104.561 1278.47 104.499L1233.34 85.3525L15.5765 82.8287L-0.328827 88.862C-0.584845 88.9847 -0.840866 88.8002 -0.936874 88.5539C-1.03288 88.3075 -0.904871 88.0003 -0.64885 87.8767L15.3525 81.7821C15.4165 81.7821 15.4485 81.7821 15.5125 81.7821L1233.47 84.3678C1233.53 84.3678 1233.6 84.3678 1233.63 84.4293L1278.81 103.576C1279.07 103.698 1279.17 104.006 1279.07 104.253C1279.04 104.437 1278.85 104.561 1278.65 104.561Z" fill="#01E6B6"/>
<path d="M-0.488694 250.098C-0.648707 250.098 -0.80872 250.036 -0.904728 249.852C-1.03274 249.605 -0.968733 249.297 -0.744715 249.174L13.8805 240.063C13.9445 240.001 14.0405 240.001 14.1365 240.001L1152.09 244.003L1190.43 244.126L1278.69 244.434C1278.95 244.434 1279.17 244.68 1279.17 244.927C1279.17 245.234 1278.95 245.419 1278.69 245.419L14.2645 240.925L-0.232672 249.975C-0.328679 250.036 -0.392686 250.098 -0.488694 250.098Z" fill="#01E6B6"/>
<path d="M16.4087 325.203L-0.488711 325.141C-0.744731 325.141 -0.96875 324.895 -0.96875 324.648C-0.96875 324.341 -0.744731 324.157 -0.488711 324.157L16.2807 324.218L364.885 59.4958L441.019 1.68795C441.243 1.50326 441.531 1.56483 441.691 1.81108C441.851 2.05733 441.788 2.36515 441.563 2.54983L77.182 279.215L16.6967 325.141C16.6007 325.203 16.5047 325.203 16.4087 325.203Z" fill="#01E6B6"/>
<path d="M15.5126 82.8286L-0.488711 82.767C-0.744731 82.767 -0.96875 82.5208 -0.96875 82.2745C-0.96875 81.9668 -0.744731 81.7821 -0.488711 81.7821L15.4166 81.8436L227.658 1.31885C227.914 1.19573 228.17 1.38042 228.266 1.62667C228.362 1.87292 228.234 2.18074 227.978 2.30387L15.6726 82.8286C15.6086 82.8286 15.5446 82.8286 15.5126 82.8286Z" fill="#01E6B6"/>
<path d="M1278.66 154.859C1278.59 154.859 1278.53 154.859 1278.47 154.797L1094.13 61.8367L14.4258 59.7435L-0.327408 64.7918C-0.583432 64.8533 -0.839453 64.7302 -0.935461 64.4839C-1.03147 64.2377 -0.871455 63.9299 -0.615435 63.8067L14.2018 58.7585C14.2338 58.7585 14.2978 58.7585 14.3618 58.7585L1094.26 60.8517C1094.32 60.8517 1094.39 60.8516 1094.45 60.9133L1278.88 153.935C1279.11 154.059 1279.23 154.366 1279.11 154.612C1279.01 154.736 1278.85 154.859 1278.66 154.859Z" fill="#01E6B6"/>
<path d="M1278.65 5.56753C1278.63 5.56753 1278.59 5.56753 1278.53 5.56753L1271.93 3.84377L1241.02 3.7822C1240.77 3.7822 1240.54 3.53595 1240.54 3.28969C1240.54 2.98187 1240.77 2.79718 1241.02 2.79718L1272 2.85875C1272.03 2.85875 1272.06 2.85875 1272.13 2.85875L1278.79 4.64408C1279.04 4.70565 1279.2 5.01346 1279.13 5.25971C1279.07 5.38284 1278.88 5.56753 1278.65 5.56753Z" fill="#01E6B6"/>
<path d="M1278.66 9.75259C1278.63 9.75259 1278.59 9.75259 1278.53 9.75259H1278.43H1262.43C1262.4 9.75259 1262.33 9.75259 1262.31 9.75259L1240.96 3.78095L1210.05 3.71938C1209.79 3.71938 1209.57 3.47313 1209.57 3.22688C1209.57 2.91907 1209.79 2.73438 1210.05 2.73438L1241.02 2.79593C1241.05 2.79593 1241.12 2.79593 1241.15 2.79593L1262.49 8.76758H1278.5C1278.53 8.76758 1278.56 8.76758 1278.63 8.76758L1278.79 8.82913C1279.04 8.8907 1279.2 9.19851 1279.14 9.44473C1279.07 9.62943 1278.88 9.75259 1278.66 9.75259Z" fill="#01E6B6"/>
<path d="M1278.65 14.2467C1278.63 14.2467 1278.56 14.2467 1278.53 14.2467L1273.69 12.8923H1257.41C1257.37 12.8923 1257.31 12.8923 1257.28 12.8923L1246.33 9.75259H1230.33C1230.3 9.75259 1230.23 9.75259 1230.21 9.75259L1209.98 3.78095L1179.09 3.71938C1178.84 3.71938 1178.61 3.47313 1178.61 3.22688C1178.61 2.91907 1178.84 2.73438 1179.09 2.73438L1210.04 2.79593C1210.07 2.79593 1210.14 2.79593 1210.17 2.79593L1230.39 8.76758H1246.4C1246.43 8.76758 1246.49 8.76758 1246.53 8.76758L1257.47 11.9073H1273.76C1273.79 11.9073 1273.85 11.9073 1273.89 11.9073L1278.79 13.2617C1279.04 13.3232 1279.2 13.6311 1279.13 13.8773C1279.07 14.062 1278.88 14.2467 1278.65 14.2467Z" fill="#01E6B6"/>
<path d="M1278.66 18.9255C1278.63 18.9255 1278.56 18.9255 1278.53 18.9255L1268.77 16.1552H1252.16C1252.13 16.1552 1252.07 16.1552 1252.03 16.1552L1240.99 12.8923H1224.7C1224.67 12.8923 1224.61 12.8923 1224.57 12.8923L1214.24 9.75259H1198.27C1198.23 9.75259 1198.17 9.75259 1198.14 9.75259L1179.07 3.78095L1148.21 3.71938C1147.96 3.71938 1147.73 3.47313 1147.73 3.22688C1147.73 2.91907 1147.96 2.73438 1148.21 2.73438L1179.16 2.79593C1179.19 2.79593 1179.26 2.79593 1179.29 2.79593L1198.37 8.76758H1214.33C1214.37 8.76758 1214.43 8.76758 1214.46 8.76758L1224.8 11.9073H1241.09C1241.12 11.9073 1241.19 11.9073 1241.21 11.9073L1252.25 15.1702H1268.87C1268.9 15.1702 1268.96 15.1702 1268.99 15.1702L1278.82 18.0021C1279.07 18.0636 1279.23 18.3715 1279.17 18.6177C1279.07 18.8024 1278.88 18.9255 1278.66 18.9255Z" fill="#01E6B6"/>
<path d="M1278.65 23.0502H1275.71C1275.68 23.0502 1275.61 23.0502 1275.59 23.0502L1263.65 19.5411H1246.72C1246.69 19.5411 1246.62 19.5411 1246.59 19.5411L1235.42 16.1552H1218.84C1218.81 16.1552 1218.75 16.1552 1218.71 16.1552L1208.28 12.8923H1192.03C1191.99 12.8923 1191.93 12.8923 1191.89 12.8923L1182.17 9.75259H1166.2C1166.17 9.75259 1166.1 9.75259 1166.07 9.75259L1148.12 3.78095L1117.27 3.71938C1117.01 3.71938 1116.79 3.47313 1116.79 3.22688C1116.79 2.98062 1117.01 2.73438 1117.27 2.73438L1148.18 2.79593C1148.21 2.79593 1148.28 2.79593 1148.31 2.79593L1166.26 8.76758H1182.23C1182.27 8.76758 1182.33 8.76758 1182.36 8.76758L1192.09 11.9073H1208.35C1208.38 11.9073 1208.44 11.9073 1208.47 11.9073L1218.91 15.1702H1235.49C1235.51 15.1702 1235.58 15.1702 1235.61 15.1702L1246.78 18.5562H1263.71C1263.74 18.5562 1263.81 18.5562 1263.84 18.5562L1275.77 22.0653H1278.65C1278.91 22.0653 1279.13 22.3115 1279.13 22.5577C1279.13 22.804 1278.91 23.0502 1278.65 23.0502Z" fill="#01E6B6"/>
<path d="M1278.65 26.6837H1270.49C1270.47 26.6837 1270.4 26.6837 1270.37 26.6837L1258.3 23.0515H1241.05C1241.02 23.0515 1240.96 23.0515 1240.93 23.0515L1229.66 19.5424H1212.76C1212.73 19.5424 1212.67 19.5424 1212.63 19.5424L1202.14 16.1564H1185.56C1185.53 16.1564 1185.47 16.1564 1185.43 16.1564L1175.64 12.8935H1159.38C1159.32 12.8935 1159.29 12.8935 1159.22 12.8935L1150.07 9.75387H1134.13C1134.07 9.75387 1134.03 9.75387 1133.97 9.75387L1117.17 3.84377L1086.35 3.7822C1086.09 3.7822 1085.87 3.53595 1085.87 3.28969C1085.87 2.98187 1086.09 2.79718 1086.35 2.79718L1117.27 2.85875C1117.33 2.85875 1117.36 2.85875 1117.43 2.85875L1134.23 8.76883H1150.17C1150.23 8.76883 1150.26 8.76883 1150.33 8.76883L1159.48 11.9086H1175.73C1175.77 11.9086 1175.83 11.9086 1175.87 11.9086L1185.65 15.1714H1202.23C1202.27 15.1714 1202.33 15.1714 1202.36 15.1714L1212.86 18.5574H1229.75C1229.79 18.5574 1229.85 18.5574 1229.89 18.5574L1241.15 22.0665H1258.4C1258.43 22.0665 1258.49 22.0665 1258.53 22.0665L1270.59 25.6987H1278.69C1278.95 25.6987 1279.17 25.9449 1279.17 26.1913C1279.13 26.4375 1278.91 26.6837 1278.65 26.6837Z" fill="#01E6B6"/>
<path d="M1278.66 30.5007H1265.12C1265.09 30.5007 1265.03 30.5007 1264.99 30.5007L1252.8 26.6837H1235.2C1235.17 26.6837 1235.1 26.6837 1235.07 26.6837L1223.71 23.0515H1206.49C1206.46 23.0515 1206.39 23.0515 1206.37 23.0515L1195.77 19.5424H1178.87C1178.81 19.5424 1178.78 19.5424 1178.71 19.5424L1168.86 16.1564H1152.31C1152.25 16.1564 1152.21 16.1564 1152.15 16.1564L1142.97 12.8935H1126.74C1126.68 12.8935 1126.65 12.8935 1126.58 12.8935L1118.04 9.75387H1102.1C1102.03 9.75387 1102.01 9.75387 1101.94 9.75387L1086.26 3.84377L1055.47 3.7822C1055.21 3.7822 1054.99 3.53595 1054.99 3.28969C1054.99 2.98187 1055.21 2.79718 1055.47 2.79718L1086.35 2.85875C1086.42 2.85875 1086.45 2.85875 1086.51 2.85875L1102.19 8.76883H1118.13C1118.2 8.76883 1118.23 8.76883 1118.29 8.76883L1126.84 11.9086H1143.07C1143.13 11.9086 1143.16 11.9086 1143.23 11.9086L1152.41 15.1714H1168.95C1169.02 15.1714 1169.05 15.1714 1169.11 15.1714L1178.97 18.5574H1195.87C1195.9 18.5574 1195.97 18.5574 1195.99 18.5574L1206.59 22.0665H1223.81C1223.84 22.0665 1223.9 22.0665 1223.93 22.0665L1235.29 25.6987H1252.89C1252.93 25.6987 1252.99 25.6987 1253.03 25.6987L1265.22 29.5156H1278.69C1278.95 29.5156 1279.17 29.7619 1279.17 30.0081C1279.14 30.2544 1278.91 30.5007 1278.66 30.5007Z" fill="#01E6B6"/>
<path d="M1278.66 34.6874C1278.63 34.6874 1278.56 34.6874 1278.53 34.6874L1277.83 34.4412L1259.49 34.3795C1259.46 34.3795 1259.39 34.3795 1259.36 34.3795L1247.04 30.4395H1229.09C1229.05 30.4395 1228.99 30.4395 1228.96 30.4395L1217.5 26.6226H1199.93C1199.87 26.6226 1199.83 26.6226 1199.77 26.6226L1189.11 22.9904H1171.9C1171.83 22.9904 1171.8 22.9904 1171.74 22.9904L1161.81 19.4812H1144.95C1144.89 19.4812 1144.85 19.4812 1144.79 19.4812L1135.57 16.0953H1119.03C1118.97 16.0953 1118.93 16.0953 1118.87 16.0953L1110.33 12.8324H1094.1C1094.03 12.8324 1094 12.8324 1093.94 12.7708L1086 9.63114H1070.07C1070 9.63114 1069.94 9.63114 1069.91 9.56952L1055.37 3.65949L1024.59 3.59792C1024.33 3.59792 1024.11 3.35166 1024.11 3.10541C1024.11 2.7976 1024.33 2.61292 1024.59 2.61292L1055.47 2.67447C1055.53 2.67447 1055.6 2.67448 1055.63 2.73604L1070.16 8.64611H1086.07C1086.13 8.64611 1086.16 8.64612 1086.23 8.70767L1094.16 11.8474H1110.39C1110.45 11.8474 1110.49 11.8474 1110.55 11.8474L1119.09 15.1102H1135.64C1135.7 15.1102 1135.73 15.1102 1135.8 15.1102L1145.01 18.4963H1161.88C1161.95 18.4963 1161.98 18.4963 1162.04 18.4963L1171.96 22.0053H1189.18C1189.24 22.0053 1189.27 22.0053 1189.34 22.0053L1199.99 25.6376H1217.57C1217.6 25.6376 1217.66 25.6376 1217.69 25.6376L1229.15 29.4545H1247.11C1247.13 29.4545 1247.2 29.4545 1247.23 29.4545L1259.55 33.3946L1277.89 33.4561C1277.92 33.4561 1277.99 33.4561 1278.02 33.4561L1278.79 33.7024C1279.04 33.7639 1279.2 34.0718 1279.11 34.318C1279.07 34.5642 1278.88 34.6874 1278.66 34.6874Z" fill="#01E6B6"/>
<path d="M1278.66 40.5974C1278.63 40.5974 1278.56 40.5974 1278.53 40.5974L1272.35 38.6274L1253.63 38.5659C1253.6 38.5659 1253.53 38.5659 1253.51 38.5659L1241.05 34.4411L1222.75 34.3795C1222.69 34.3795 1222.65 34.3795 1222.59 34.3795L1211.04 30.4395H1193.11C1193.05 30.4395 1193.02 30.4395 1192.95 30.4395L1182.23 26.6226H1164.67C1164.6 26.6226 1164.57 26.6226 1164.51 26.6226L1154.55 22.9904H1137.33C1137.27 22.9904 1137.24 22.9904 1137.17 22.9904L1127.96 19.4812H1111.09C1111.03 19.4812 1110.99 19.4812 1110.93 19.4197L1102.39 16.0337H1085.87C1085.81 16.0337 1085.75 16.0337 1085.71 15.9721L1077.78 12.7708H1061.55C1061.49 12.7708 1061.43 12.7708 1061.39 12.7093L1054.07 9.63114H1038.16C1038.09 9.63114 1038.03 9.63114 1037.97 9.56952L1024.56 3.65949L993.8 3.59792C993.547 3.59792 993.32 3.35166 993.32 3.10541C993.32 2.7976 993.547 2.61292 993.8 2.61292L1024.65 2.67447C1024.72 2.67447 1024.78 2.67448 1024.85 2.73604L1038.25 8.64611H1054.16C1054.23 8.64611 1054.29 8.64611 1054.32 8.70767L1061.65 11.7859H1077.84C1077.91 11.7859 1077.97 11.7859 1078 11.8474L1085.94 15.0487H1102.45C1102.51 15.0487 1102.55 15.0487 1102.61 15.1102L1111.16 18.4963H1128.02C1128.09 18.4963 1128.12 18.4963 1128.18 18.4963L1137.4 22.0053H1154.59C1154.65 22.0053 1154.68 22.0053 1154.75 22.0053L1164.7 25.6376H1182.27C1182.33 25.6376 1182.36 25.6376 1182.43 25.6376L1193.15 29.4545H1211.07C1211.13 29.4545 1211.17 29.4545 1211.23 29.4545L1222.78 33.3946L1241.09 33.4561C1241.12 33.4561 1241.19 33.4561 1241.21 33.4561L1253.67 37.5808L1272.39 37.6424C1272.42 37.6424 1272.48 37.6424 1272.51 37.6424L1278.75 39.674C1279.01 39.7356 1279.14 40.0433 1279.07 40.2896C1279.04 40.4127 1278.85 40.5974 1278.66 40.5974Z" fill="#01E6B6"/>
<path d="M1278.66 46.8153C1278.63 46.8153 1278.56 46.8153 1278.53 46.8153L1266.65 42.8753L1247.52 42.8137C1247.45 42.8137 1247.42 42.8137 1247.36 42.8137L1234.75 38.5042L1216.06 38.4427C1215.99 38.4427 1215.97 38.4427 1215.9 38.4427L1204.22 34.318H1185.91C1185.85 34.318 1185.82 34.318 1185.75 34.318L1174.93 30.3779H1157.01C1156.95 30.3779 1156.92 30.3779 1156.85 30.3779L1146.84 26.561H1129.3C1129.23 26.561 1129.21 26.561 1129.14 26.4994L1119.89 22.8672H1102.71C1102.64 22.8672 1102.58 22.8672 1102.55 22.8056L1094 19.2966H1077.17C1077.11 19.2966 1077.04 19.2966 1077.01 19.2349L1069.11 15.9106H1052.59C1052.53 15.9106 1052.46 15.9106 1052.4 15.849L1045.1 12.6477H1028.91C1028.85 12.6477 1028.78 12.6477 1028.71 12.5862L1021.99 9.50794H1006.09C1006.03 9.50794 1005.96 9.50794 1005.9 9.4464L993.64 3.53633L962.92 3.47476C962.66 3.47476 962.44 3.2285 962.44 2.98225C962.44 2.67444 962.66 2.48975 962.92 2.48975L993.74 2.55131C993.8 2.55131 993.867 2.55132 993.927 2.61288L1006.19 8.52295H1022.06C1022.13 8.52295 1022.19 8.52295 1022.25 8.58451L1028.97 11.6627H1045.17C1045.23 11.6627 1045.29 11.6627 1045.36 11.7242L1052.65 14.9255H1069.17C1069.23 14.9255 1069.29 14.9255 1069.33 14.9871L1077.23 18.3115H1094.07C1094.13 18.3115 1094.19 18.3115 1094.23 18.373L1102.77 21.8821H1119.95C1120.02 21.8821 1120.05 21.8821 1120.11 21.9438L1129.37 25.576H1146.9C1146.97 25.576 1147 25.576 1147.06 25.576L1157.08 29.3929H1175C1175.07 29.3929 1175.09 29.3929 1175.16 29.3929L1185.98 33.3329H1204.28C1204.35 33.3329 1204.38 33.3329 1204.44 33.3329L1216.13 37.4576L1234.81 37.5193C1234.88 37.5193 1234.91 37.5193 1234.97 37.5193L1247.58 41.8287L1266.69 41.8902C1266.72 41.8902 1266.79 41.8902 1266.81 41.8902L1278.75 45.8303C1279.01 45.8918 1279.14 46.1997 1279.07 46.4459C1279.04 46.6922 1278.85 46.8153 1278.66 46.8153Z" fill="#01E6B6"/>
<path d="M1278.66 52.1085H1274.59C1274.53 52.1085 1274.5 52.1085 1274.43 52.1085L1260.67 47.4297L1241.12 47.3681C1241.05 47.3681 1241.02 47.3681 1240.96 47.3681L1228.22 42.874L1209.11 42.8124C1209.05 42.8124 1209.02 42.8124 1208.95 42.8124L1197.18 38.503L1178.49 38.4414C1178.43 38.4414 1178.39 38.4414 1178.33 38.4414L1167.45 34.3167L1149.17 34.2552C1149.11 34.2552 1149.08 34.2552 1149.01 34.1936L1138.97 30.2535L1121.08 30.192C1121.01 30.192 1120.95 30.192 1120.92 30.1304L1111.64 26.375H1094.1C1094.03 26.375 1093.97 26.3751 1093.94 26.3135L1085.39 22.6812H1068.24C1068.18 22.6812 1068.11 22.6812 1068.05 22.6197L1060.17 19.1106H1043.34C1043.28 19.1106 1043.21 19.1106 1043.15 19.0491L1035.89 15.7246H1019.37C1019.31 15.7246 1019.25 15.7246 1019.18 15.6631L1012.49 12.4618H996.3C996.233 12.4618 996.173 12.4618 996.107 12.4002L989.993 9.32204H974.12C974.06 9.32204 973.96 9.32204 973.9 9.26048L962.76 3.35041L932.067 3.28884C931.813 3.28884 931.587 3.04259 931.587 2.79633C931.587 2.48852 931.813 2.30383 932.067 2.30383L962.887 2.3654C962.953 2.3654 963.047 2.3654 963.113 2.42696L974.247 8.33702H990.12C990.187 8.33702 990.253 8.33703 990.313 8.3986L996.427 11.4768H1012.59C1012.65 11.4768 1012.71 11.4768 1012.78 11.5383L1019.47 14.7396H1035.95C1036.01 14.7396 1036.08 14.7396 1036.14 14.8012L1043.41 18.1256H1060.24C1060.31 18.1256 1060.37 18.1256 1060.43 18.1872L1068.31 21.6963H1085.46C1085.52 21.6963 1085.59 21.6963 1085.62 21.7578L1094.16 25.3901H1111.7C1111.77 25.3901 1111.83 25.3901 1111.86 25.4516L1121.14 29.207L1139.03 29.2686C1139.09 29.2686 1139.13 29.2686 1139.19 29.3301L1149.24 33.2701L1167.51 33.3317C1167.58 33.3317 1167.61 33.3317 1167.67 33.3317L1178.55 37.4565L1197.25 37.518C1197.31 37.518 1197.34 37.518 1197.41 37.518L1209.18 41.8275L1228.29 41.889C1228.35 41.889 1228.38 41.889 1228.45 41.889L1241.18 46.3831L1260.74 46.4447C1260.8 46.4447 1260.83 46.4447 1260.9 46.4447L1274.66 51.1235H1278.66C1278.91 51.1235 1279.14 51.3698 1279.14 51.616C1279.14 51.8622 1278.91 52.1085 1278.66 52.1085Z" fill="#01E6B6"/>
<path d="M1278.66 57.034H1268.51C1268.45 57.034 1268.42 57.034 1268.35 57.034L1254.4 52.1089L1234.43 52.0474C1234.37 52.0474 1234.33 52.0474 1234.27 52.0474L1221.41 47.3685L1201.89 47.307C1201.82 47.307 1201.79 47.307 1201.73 47.307L1189.85 42.8128L1170.78 42.7513C1170.71 42.7513 1170.68 42.7513 1170.62 42.6898L1159.67 38.3803L1141.01 38.3188C1140.95 38.3188 1140.89 38.3188 1140.85 38.2572L1130.77 34.1324L1112.5 34.0709C1112.44 34.0709 1112.37 34.0709 1112.34 34.0093L1103.06 30.0692H1085.17C1085.11 30.0692 1085.04 30.0693 1084.98 30.0077L1076.43 26.2524H1058.93C1058.87 26.2524 1058.8 26.2524 1058.74 26.1908L1050.89 22.5586H1033.74C1033.68 22.5586 1033.61 22.5586 1033.55 22.497L1026.35 19.0495H1009.55C1009.49 19.0495 1009.42 19.0495 1009.36 18.9879L1002.73 15.6635H986.253C986.187 15.6635 986.093 15.6635 986.027 15.6019L979.98 12.4006H963.82C963.753 12.4006 963.66 12.4006 963.593 12.339L958.053 9.26088H942.213C942.12 9.26088 942.053 9.26089 941.993 9.19933L932.007 3.28925L901.313 3.22769C901.06 3.22769 900.833 2.98144 900.833 2.73518C900.833 2.42737 901.06 2.24268 901.313 2.24268L932.1 2.30424C932.2 2.30424 932.26 2.30424 932.327 2.3658L942.313 8.27588H958.153C958.22 8.27588 958.313 8.27588 958.38 8.33744L963.913 11.4156H980.073C980.14 11.4156 980.233 11.4156 980.3 11.4772L986.347 14.6784H1002.83C1002.89 14.6784 1002.95 14.6784 1003.02 14.7401L1009.65 18.0644H1026.45C1026.51 18.0644 1026.57 18.0644 1026.64 18.126L1033.84 21.5735H1050.99C1051.05 21.5735 1051.12 21.5735 1051.19 21.6351L1059.03 25.2673H1076.53C1076.59 25.2673 1076.66 25.2673 1076.72 25.3289L1085.27 29.0843H1103.15C1103.22 29.0843 1103.29 29.0843 1103.31 29.1458L1112.6 33.0859L1130.87 33.1475C1130.93 33.1475 1131 33.1475 1131.03 33.209L1141.11 37.3337L1159.77 37.3953C1159.83 37.3953 1159.87 37.3953 1159.93 37.4569L1170.87 41.7663L1189.95 41.8279C1190.01 41.8279 1190.05 41.8279 1190.11 41.8279L1201.98 46.322L1221.5 46.3835C1221.57 46.3835 1221.6 46.3835 1221.66 46.3835L1234.53 51.0624L1254.5 51.1239C1254.56 51.1239 1254.59 51.1239 1254.66 51.1239L1268.61 56.049H1278.66C1278.91 56.049 1279.14 56.2952 1279.14 56.5415C1279.14 56.7877 1278.91 57.034 1278.66 57.034Z" fill="#01E6B6"/>
<path d="M1278.65 62.1442L1262.17 62.0826C1262.11 62.0826 1262.08 62.0826 1262.01 62.0826L1247.9 56.9113L1227.45 56.8497C1227.39 56.8497 1227.35 56.8497 1227.29 56.8497L1214.3 51.9246L1194.33 51.8631C1194.27 51.8631 1194.23 51.8631 1194.17 51.8015L1182.2 47.1227L1162.68 47.0612C1162.61 47.0612 1162.55 47.0612 1162.52 46.9996L1151.51 42.5055L1132.43 42.4439C1132.37 42.4439 1132.31 42.444 1132.27 42.3823L1122.17 38.0729L1103.51 38.0114C1103.44 38.0114 1103.38 38.0114 1103.31 37.9498L1094.03 33.8251H1075.79C1075.73 33.8251 1075.67 33.8251 1075.6 33.7635L1067.09 29.8234H1049.23C1049.17 29.8234 1049.1 29.8234 1049.04 29.7619L1041.23 26.0066H1023.75C1023.69 26.0066 1023.63 26.0066 1023.57 25.9449L1016.39 22.3128H999.273C999.207 22.3128 999.113 22.3127 999.047 22.2512L992.52 18.8036H975.72C975.653 18.8036 975.56 18.8036 975.493 18.7421L969.54 15.4177H953.093C953 15.4177 952.933 15.4177 952.867 15.3561L947.46 12.1548H931.333C931.233 12.1548 931.173 12.1547 931.073 12.0932L926.147 9.01506H910.307C910.213 9.01506 910.147 9.01505 910.053 8.95349L901.187 3.10498L870.527 3.04343C870.273 3.04343 870.047 2.79717 870.047 2.55092C870.047 2.2431 870.273 2.05841 870.527 2.05841L901.313 2.11998C901.407 2.11998 901.473 2.11997 901.567 2.18153L910.433 8.03005H926.247C926.34 8.03005 926.407 8.03005 926.5 8.09161L931.427 11.1698H947.56C947.653 11.1698 947.72 11.1698 947.78 11.2313L953.187 14.4326H969.64C969.7 14.4326 969.8 14.4326 969.86 14.4942L975.813 17.8186H992.62C992.68 17.8186 992.78 17.8186 992.84 17.8802L999.367 21.3277H1016.49C1016.55 21.3277 1016.62 21.3277 1016.68 21.3893L1023.85 25.0215H1041.33C1041.39 25.0215 1041.45 25.0215 1041.52 25.0831L1049.33 28.8385H1067.18C1067.25 28.8385 1067.31 28.8385 1067.37 28.9L1075.89 32.84H1094.13C1094.19 32.84 1094.26 32.84 1094.32 32.9016L1103.6 37.0263L1122.26 37.0879C1122.33 37.0879 1122.39 37.0879 1122.42 37.1495L1132.53 41.4589L1151.61 41.5204C1151.67 41.5204 1151.73 41.5204 1151.77 41.5821L1162.77 46.0761L1182.29 46.1377C1182.36 46.1377 1182.39 46.1377 1182.45 46.1993L1194.43 50.8781L1214.39 50.9397C1214.46 50.9397 1214.49 50.9397 1214.55 50.9397L1227.55 55.8647L1248 55.9263C1248.06 55.9263 1248.09 55.9263 1248.16 55.9263L1262.27 61.0976L1278.69 61.1591C1278.95 61.1591 1279.17 61.4054 1279.17 61.6516C1279.13 61.9595 1278.91 62.1442 1278.65 62.1442Z" fill="#01E6B6"/>
<path d="M1278.66 68.1774C1278.59 68.1774 1278.56 68.1774 1278.5 68.1774L1276.96 67.6233L1255.49 67.5618C1255.43 67.5618 1255.39 67.5618 1255.33 67.5618L1241.02 62.1442L1220.09 62.0827C1220.03 62.0827 1219.99 62.0827 1219.93 62.021L1206.81 56.8497L1186.39 56.7882C1186.33 56.7882 1186.27 56.7882 1186.23 56.7266L1174.2 51.8015L1154.26 51.74C1154.2 51.74 1154.13 51.74 1154.1 51.6784L1143.06 46.9996L1123.57 46.938C1123.51 46.938 1123.45 46.938 1123.38 46.8765L1113.23 42.3823L1094.19 42.3208C1094.13 42.3208 1094.07 42.3208 1094 42.2593L1084.72 38.0114L1066.09 37.9498C1066.03 37.9498 1065.97 37.9498 1065.91 37.8883L1057.42 33.8251H1039.18C1039.12 33.8251 1039.05 33.8251 1038.99 33.7635L1031.21 29.8234H1013.35C1013.29 29.8234 1013.19 29.8234 1013.13 29.7619L1006.06 26.0066H988.587C988.52 26.0066 988.427 26.0066 988.36 25.9449L981.9 22.3743H964.773C964.68 22.3743 964.613 22.3743 964.553 22.3128L958.693 18.8652H941.927C941.827 18.8652 941.767 18.8652 941.667 18.8036L936.36 15.4792H919.907C919.813 15.4792 919.747 15.4792 919.653 15.4177L914.853 12.2164H898.72C898.627 12.2164 898.533 12.2164 898.467 12.1548L894.147 9.07663H878.333C878.24 9.07663 878.147 9.01505 878.047 8.9535L870.333 3.10498L839.707 3.04343C839.453 3.04343 839.227 2.79717 839.227 2.55092C839.227 2.2431 839.453 2.05841 839.707 2.05841L870.467 2.11998C870.56 2.11998 870.653 2.18154 870.753 2.2431L878.467 8.09161H894.273C894.367 8.09161 894.467 8.09162 894.527 8.15318L898.853 11.2313H914.947C915.047 11.2313 915.107 11.2313 915.207 11.2929L920.007 14.4942H936.42C936.52 14.4942 936.58 14.4942 936.68 14.5558L941.987 17.8802H958.76C958.853 17.8802 958.92 17.8802 958.98 17.9417L964.84 21.3893H981.927C981.993 21.3893 982.087 21.3893 982.153 21.4508L988.62 25.0215H1006.09C1006.15 25.0215 1006.25 25.0215 1006.31 25.083L1013.39 28.8385H1031.21C1031.28 28.8385 1031.34 28.8385 1031.41 28.9L1039.18 32.84H1057.39C1057.45 32.84 1057.52 32.84 1057.58 32.9017L1066.07 36.9648L1084.69 37.0264C1084.75 37.0264 1084.82 37.0264 1084.88 37.0879L1094.16 41.3357L1113.21 41.3974C1113.27 41.3974 1113.33 41.3974 1113.39 41.4589L1123.54 45.953L1143.03 46.0146C1143.09 46.0146 1143.16 46.0146 1143.19 46.0762L1154.23 50.755L1174.17 50.8165C1174.23 50.8165 1174.3 50.8165 1174.33 50.8781L1186.36 55.8031L1206.78 55.8647C1206.85 55.8647 1206.87 55.8647 1206.94 55.9263L1220.06 61.0976L1240.99 61.1591C1241.05 61.1591 1241.09 61.1591 1241.15 61.1591L1255.45 66.5767L1276.9 66.6383C1276.96 66.6383 1276.99 66.6383 1277.06 66.6383L1278.66 67.1924C1278.91 67.2539 1279.04 67.5618 1278.95 67.8695C1279.04 68.0542 1278.85 68.1774 1278.66 68.1774Z" fill="#01E6B6"/>
<path d="M1278.66 76.3037C1278.59 76.3037 1278.56 76.3037 1278.5 76.3037L1270.53 73.2871L1248.55 73.2256C1248.48 73.2256 1248.45 73.2256 1248.39 73.164L1233.92 67.5001L1212.48 67.4386C1212.41 67.4386 1212.35 67.4386 1212.32 67.3771L1199.07 61.9595L1178.17 61.8979C1178.11 61.8979 1178.04 61.8979 1178.01 61.8363L1165.88 56.665L1145.47 56.6035C1145.4 56.6035 1145.33 56.6035 1145.27 56.5419L1134.17 51.6169L1114.23 51.5553C1114.17 51.5553 1114.1 51.5553 1114.04 51.4937L1103.89 46.8149L1084.43 46.7533C1084.37 46.7533 1084.31 46.7534 1084.24 46.6918L1074.96 42.2593L1055.92 42.1976C1055.85 42.1976 1055.79 42.1976 1055.73 42.1361L1047.28 37.8882L1028.69 37.8267C1028.62 37.8267 1028.53 37.8267 1028.46 37.7651L1020.75 33.7019L1002.54 33.6404C1002.47 33.6404 1002.38 33.6404 1002.31 33.5788L995.307 29.7004H977.48C977.387 29.7004 977.32 29.7004 977.26 29.6387L970.887 25.8834H953.447C953.353 25.8834 953.287 25.8834 953.193 25.8219L947.433 22.2512H930.34C930.247 22.2512 930.18 22.2512 930.087 22.1896L924.9 18.7421H908.167C908.067 18.7421 907.973 18.7421 907.907 18.6805L903.233 15.4177H886.82C886.72 15.4177 886.627 15.3561 886.533 15.2945L882.34 12.1548H866.24C866.147 12.1548 866.047 12.0932 865.953 12.0317L862.24 9.01506H846.46C846.367 9.01506 846.24 8.9535 846.173 8.89193L839.58 3.10498L808.987 3.04343C808.733 3.04343 808.507 2.79717 808.507 2.55092C808.507 2.2431 808.733 2.05841 808.987 2.05841L839.74 2.11998C839.84 2.11998 839.967 2.18154 840.033 2.2431L846.62 8.03005H862.4C862.493 8.03005 862.593 8.09161 862.687 8.15318L866.4 11.1698H882.5C882.593 11.1698 882.687 11.2313 882.787 11.2929L886.98 14.4326H903.393C903.493 14.4326 903.587 14.4326 903.653 14.4942L908.327 17.757H925.06C925.16 17.757 925.22 17.757 925.32 17.8186L930.5 21.2662H947.593C947.687 21.2662 947.753 21.2662 947.847 21.3277L953.607 24.8984H971.047C971.147 24.8984 971.207 24.8984 971.273 24.96L977.64 28.7153H995.467C995.533 28.7153 995.627 28.7153 995.693 28.7768L1002.7 32.6553L1020.91 32.717C1020.97 32.717 1021.07 32.717 1021.13 32.7785L1028.85 36.8417L1047.44 36.9032C1047.51 36.9032 1047.57 36.9032 1047.63 36.9648L1056.08 41.2127L1075.09 41.2742C1075.15 41.2742 1075.22 41.2742 1075.28 41.3357L1084.56 45.7683L1104.02 45.8299C1104.09 45.8299 1104.15 45.8299 1104.21 45.8914L1114.36 50.5703L1134.29 50.6318C1134.36 50.6318 1134.42 50.6318 1134.49 50.6934L1145.59 55.6185L1166.01 55.68C1166.07 55.68 1166.14 55.68 1166.17 55.7416L1178.3 60.9129L1199.19 60.9744C1199.26 60.9744 1199.33 60.9744 1199.35 61.0361L1212.61 66.4536L1234.05 66.5152C1234.11 66.5152 1234.14 66.5152 1234.21 66.5767L1248.67 72.2405L1270.66 72.3021C1270.72 72.3021 1270.75 72.3021 1270.82 72.3021L1278.88 75.3803C1279.14 75.5034 1279.27 75.7496 1279.17 76.0575C1279.04 76.1805 1278.85 76.3037 1278.66 76.3037Z" fill="#01E6B6"/>
<path d="M1278.66 85.0452C1278.59 85.0452 1278.56 85.0452 1278.5 84.9834L1263.75 79.1964L1241.18 79.1348C1241.12 79.1348 1241.05 79.1348 1241.02 79.0732L1226.37 73.1015L1204.38 73.04C1204.31 73.04 1204.25 73.04 1204.22 72.9785L1190.84 67.3147L1169.43 67.253C1169.37 67.253 1169.31 67.253 1169.24 67.1915L1157.05 61.7739L1136.15 61.7124C1136.09 61.7124 1136.02 61.7124 1135.96 61.6508L1124.82 56.5411L1104.43 56.4795C1104.37 56.4795 1104.31 56.4795 1104.24 56.4179L1094.1 51.5545L1074.19 51.4929C1074.13 51.4929 1074.07 51.4928 1074 51.4313L1064.75 46.7525L1045.29 46.6909C1045.23 46.6909 1045.13 46.6909 1045.07 46.6294L1036.65 42.1968L1017.65 42.1352C1017.58 42.1352 1017.49 42.1352 1017.42 42.0737L1009.77 37.8258L991.18 37.7643C991.08 37.7643 991.02 37.7643 990.953 37.7027L984.04 33.6395L965.867 33.578C965.767 33.578 965.707 33.578 965.607 33.5164L959.367 29.6379L941.573 29.5763C941.48 29.5763 941.413 29.5763 941.32 29.5148L935.687 25.821H918.273C918.18 25.821 918.087 25.821 918.02 25.7595L912.967 22.1888H895.907C895.813 22.1888 895.713 22.1272 895.62 22.0656L891.107 18.6797H874.4C874.307 18.6797 874.207 18.6181 874.113 18.5565L870.08 15.2937H853.693C853.6 15.2937 853.473 15.2321 853.407 15.1706L849.853 12.0308H833.787C833.66 12.0308 833.567 11.9693 833.467 11.9077L830.367 8.8911H814.62C814.493 8.8911 814.367 8.82954 814.3 8.76797L808.827 2.98102L778.293 2.91946C778.04 2.91946 777.813 2.67321 777.813 2.42696C777.813 2.11914 778.04 1.93445 778.293 1.93445L809.02 1.99601C809.147 1.99601 809.273 2.05758 809.373 2.11914L814.847 7.90608H830.587C830.72 7.90608 830.813 7.96765 830.907 8.02921L834.013 11.0459H850.08C850.173 11.0459 850.3 11.1074 850.367 11.1689L853.92 14.3087H870.307C870.4 14.3087 870.493 14.3702 870.593 14.4318L874.627 17.6946H891.327C891.427 17.6946 891.52 17.7562 891.62 17.8178L896.133 21.2038H913.187C913.287 21.2038 913.38 21.2037 913.447 21.2653L918.5 24.836H935.907C936.007 24.836 936.067 24.836 936.167 24.8976L941.8 28.5914L959.593 28.6529C959.687 28.6529 959.753 28.6529 959.847 28.7145L966.087 32.5929L984.267 32.6545C984.36 32.6545 984.427 32.6545 984.487 32.7161L991.4 36.7793L1009.99 36.8408C1010.06 36.8408 1010.15 36.8408 1010.22 36.9024L1017.87 41.1503L1036.88 41.2118C1036.94 41.2118 1037.04 41.2118 1037.1 41.2734L1045.52 45.706L1064.97 45.7675C1065.04 45.7675 1065.11 45.7675 1065.17 45.829L1074.42 50.5079L1094.32 50.5694C1094.39 50.5694 1094.45 50.5694 1094.51 50.631L1104.66 55.4945L1125.05 55.556C1125.11 55.556 1125.17 55.556 1125.24 55.6177L1136.37 60.7274L1157.27 60.789C1157.33 60.789 1157.4 60.789 1157.47 60.8505L1169.65 66.2681L1191.07 66.3296C1191.13 66.3296 1191.19 66.3296 1191.23 66.3912L1204.61 72.055L1226.56 72.1166C1226.62 72.1166 1226.69 72.1166 1226.72 72.1781L1241.37 78.1498L1263.93 78.2113C1264 78.2113 1264.03 78.2113 1264.09 78.2729L1278.91 84.1214C1279.17 84.2445 1279.3 84.4908 1279.2 84.7989C1279.04 84.9216 1278.85 85.0452 1278.66 85.0452Z" fill="#01E6B6"/>
<path d="M1278.65 92.1261H1273.03C1272.96 92.1261 1272.89 92.1261 1272.87 92.0643L1256.61 85.4152L1233.47 85.3542C1233.41 85.3542 1233.34 85.3542 1233.31 85.2924L1218.49 79.0129L1195.96 78.9513C1195.9 78.9513 1195.83 78.9513 1195.77 78.8898L1182.27 72.9181L1160.31 72.8566C1160.25 72.8566 1160.18 72.8566 1160.12 72.7951L1147.83 67.1312L1126.45 67.0696C1126.39 67.0696 1126.33 67.0696 1126.26 67.0081L1115.09 61.6521L1094.23 61.5905C1094.16 61.5905 1094.1 61.5905 1094.03 61.5289L1083.89 56.4192L1063.53 56.3577C1063.47 56.3577 1063.37 56.3577 1063.31 56.296L1054.09 51.4326L1034.22 51.371C1034.15 51.371 1034.06 51.371 1033.99 51.3094L1025.65 46.6307L1006.22 46.569C1006.12 46.569 1006.06 46.569 1005.99 46.5075L998.44 42.075L979.467 42.0134C979.367 42.0134 979.307 42.0134 979.207 41.9518L972.393 37.7039L953.827 37.6424C953.733 37.6424 953.667 37.6424 953.573 37.5809L947.46 33.5177H929.313C929.22 33.5177 929.127 33.5177 929.06 33.4561L923.587 29.5776H905.827C905.727 29.5776 905.633 29.5161 905.54 29.4545L900.64 25.7607H883.233C883.133 25.7607 883.04 25.6991 882.947 25.6376L878.593 22.0669H861.567C861.473 22.0669 861.34 22.0053 861.247 21.9438L857.407 18.5578H840.7C840.573 18.5578 840.473 18.4963 840.38 18.4346L837.02 15.1718H820.667C820.54 15.1718 820.413 15.1102 820.313 15.0487L817.373 11.9705H801.34C801.207 11.9705 801.08 11.9089 800.987 11.7859L798.46 8.83079H782.747C782.587 8.83079 782.453 8.76923 782.36 8.6461L778.007 2.92073L747.507 2.85915C747.253 2.85915 747.027 2.6129 747.027 2.36665C747.027 2.05883 747.253 1.87415 747.507 1.87415L778.233 1.93571C778.393 1.93571 778.52 1.99727 778.613 2.1204L782.967 7.84578H798.68C798.807 7.84578 798.94 7.90734 799.033 8.03047L801.56 10.9855H817.56C817.693 10.9855 817.82 11.0471 817.913 11.1086L820.86 14.1868H837.213C837.34 14.1868 837.433 14.2484 837.533 14.3099L840.893 17.5727H857.567C857.66 17.5727 857.787 17.6344 857.887 17.6959L861.727 21.0819H878.753C878.847 21.0819 878.947 21.1435 879.04 21.205L883.393 24.7757H900.767C900.867 24.7757 900.96 24.8372 901.06 24.8988L905.953 28.5926H923.713C923.813 28.5926 923.907 28.5926 923.973 28.6542L929.447 32.5326H947.587C947.687 32.5326 947.747 32.5327 947.847 32.5942L953.96 36.6574L972.52 36.719C972.613 36.719 972.68 36.719 972.773 36.7805L979.593 41.0284L998.567 41.0899C998.667 41.0899 998.727 41.0899 998.793 41.1515L1006.35 45.5841L1025.77 45.6456C1025.83 45.6456 1025.93 45.6456 1025.99 45.7072L1034.35 50.386L1054.22 50.4475C1054.29 50.4475 1054.38 50.4475 1054.45 50.5092L1063.66 55.3726L1084.01 55.4342C1084.08 55.4342 1084.15 55.4342 1084.21 55.4958L1094.35 60.6055L1115.22 60.667C1115.28 60.667 1115.35 60.6671 1115.41 60.7286L1126.58 66.0847L1147.96 66.1462C1148.02 66.1462 1148.09 66.1462 1148.15 66.2077L1160.44 71.8715L1182.39 71.9332C1182.45 71.9332 1182.52 71.9332 1182.59 71.9947L1196.09 77.9663L1218.62 78.0279C1218.69 78.0279 1218.75 78.0279 1218.78 78.0895L1233.59 84.3689L1256.73 84.4305C1256.8 84.4305 1256.86 84.4305 1256.89 84.4921L1273.15 91.1408H1278.69C1278.95 91.1408 1279.17 91.3871 1279.17 91.6334C1279.13 91.9415 1278.91 92.1261 1278.65 92.1261Z" fill="#01E6B6"/>
<path d="M14.3285 59.7437H-0.488711C-0.744731 59.7437 -0.96875 59.4975 -0.96875 59.2513C-0.96875 58.9435 -0.744731 58.7588 -0.488711 58.7588H14.2645L182.054 1.25867C182.31 1.19711 182.566 1.32023 182.662 1.56649C182.758 1.81274 182.598 2.12056 182.342 2.24368L14.4885 59.7437C14.4245 59.7437 14.3925 59.7437 14.3285 59.7437Z" fill="#01E6B6"/>
<path d="M14.1365 240.923L-0.488711 240.862C-0.744731 240.862 -0.96875 240.616 -0.96875 240.369C-0.96875 240.061 -0.744731 239.877 -0.488711 239.877L14.0085 239.939L395.224 1.56547C395.448 1.44234 395.736 1.50391 395.896 1.75016C396.024 1.99641 395.96 2.30423 395.736 2.42736L14.3605 240.862C14.2965 240.923 14.2005 240.923 14.1365 240.923Z" fill="#01E6B6"/>
<path d="M-0.48967 188.533C-0.681686 188.533 -0.841699 188.41 -0.905704 188.225C-1.03371 187.979 -0.937707 187.671 -0.681686 187.547L12.3113 180.653C12.3754 180.591 12.4394 180.591 12.5354 180.591L172.741 181.084L204.839 181.206L1278.69 184.408C1278.94 184.408 1279.17 184.654 1279.17 184.9C1279.17 185.209 1278.94 185.393 1278.69 185.393L12.6634 181.576L-0.265652 188.471C-0.329659 188.471 -0.425665 188.533 -0.48967 188.533Z" fill="#01E6B6"/>
<path d="M1278.66 228.735C1278.56 228.735 1278.5 228.735 1278.4 228.674L979.307 42.383L13.4343 40.6592L-0.358793 44.9687C-0.614815 45.0302 -0.870835 44.9071 -0.966844 44.5993C-1.03085 44.353 -0.902838 44.0452 -0.646817 43.9836L13.2103 39.6742C13.2423 39.6742 13.3063 39.6742 13.3383 39.6742L979.4 41.398C979.5 41.398 979.56 41.398 979.66 41.4595L1278.88 227.812C1279.11 227.935 1279.2 228.243 1279.04 228.489C1278.98 228.674 1278.82 228.735 1278.66 228.735Z" fill="#01E6B6"/>
<path d="M13.3684 40.6585H-0.488711C-0.744731 40.6585 -0.96875 40.4123 -0.96875 40.166C-0.96875 39.8581 -0.744731 39.6734 -0.488711 39.6734H13.3044L136.483 1.19642C136.739 1.13486 136.995 1.25798 137.091 1.5658C137.155 1.81205 137.027 2.11987 136.771 2.18143L13.4965 40.6585C13.4645 40.6585 13.4004 40.6585 13.3684 40.6585Z" fill="#01E6B6"/>
<path d="M12.5683 24.6516H-0.488711C-0.744731 24.6516 -0.96875 24.4054 -0.96875 24.1591C-0.96875 23.8512 -0.744731 23.6665 -0.488711 23.6665H12.5043L90.9427 1.13441C91.1987 1.07285 91.4547 1.19598 91.5187 1.50379C91.5827 1.75005 91.4227 2.05786 91.1667 2.11943L12.6644 24.5901C12.6323 24.6516 12.6003 24.6516 12.5683 24.6516Z" fill="#01E6B6"/>
<path d="M12.5043 181.578L-0.488711 181.516C-0.744731 181.516 -0.96875 181.27 -0.96875 181.024C-0.96875 180.715 -0.744731 180.531 -0.488711 180.531L12.4083 180.593L349.492 1.50497C349.716 1.38184 350.004 1.50496 350.132 1.75122C350.26 1.99747 350.164 2.30529 349.908 2.42842L12.7284 181.516C12.6644 181.578 12.5683 181.578 12.5043 181.578Z" fill="#01E6B6"/>
<path d="M-0.4881 143.038C-0.680116 143.038 -0.840129 142.915 -0.936137 142.73C-1.03214 142.484 -0.936137 142.176 -0.680116 142.053L11.1289 136.574C11.1929 136.574 11.2569 136.512 11.3209 136.512L262.669 137.189L1278.66 139.836C1278.91 139.836 1279.14 140.083 1279.14 140.329C1279.14 140.637 1278.91 140.822 1278.66 140.822L11.4169 137.558L-0.296087 142.977C-0.360089 142.977 -0.424095 143.038 -0.4881 143.038Z" fill="#01E6B6"/>
<path d="M11.8643 10.9856H-0.488711C-0.744731 10.9856 -0.96875 10.7393 -0.96875 10.4931C-0.96875 10.1852 -0.744731 10.0005 -0.488711 10.0005H11.8003L45.4031 1.07388C45.6591 1.01232 45.9151 1.197 45.9791 1.44326C46.0431 1.68951 45.8831 1.99733 45.6271 2.05889L11.9923 10.9856C11.9283 10.9856 11.8963 10.9856 11.8643 10.9856Z" fill="#01E6B6"/>
<path d="M11.3203 137.559H-0.488711C-0.744731 137.559 -0.96875 137.313 -0.96875 137.067C-0.96875 136.759 -0.744731 136.575 -0.488711 136.575H11.2243L303.792 1.44296C304.048 1.31983 304.305 1.44296 304.433 1.68921C304.529 1.93547 304.433 2.24328 304.177 2.3664L11.5123 137.559C11.4483 137.559 11.3843 137.559 11.3203 137.559Z" fill="#01E6B6"/>
<path d="M-0.488837 108.07C-0.680853 108.07 -0.872869 107.946 -0.936874 107.761C-1.03288 107.515 -0.904871 107.208 -0.64885 107.084L10.2321 102.652C10.2961 102.652 10.3281 102.59 10.3921 102.59L1278.65 105.545C1278.91 105.545 1279.13 105.792 1279.13 106.038C1279.13 106.345 1278.91 106.531 1278.65 106.531L10.4881 103.576L-0.328827 108.008C-0.360827 108.008 -0.424832 108.07 -0.488837 108.07Z" fill="#01E6B6"/>
<path d="M1278.65 6.73617H1267.33C1267.29 6.73617 1267.26 6.73617 1267.2 6.73617L1256.41 3.78113C1256.16 3.71956 1256 3.41175 1256.06 3.16549C1256.13 2.91924 1256.38 2.73455 1256.64 2.79611L1267.39 5.68959H1278.69C1278.94 5.68959 1279.17 5.93584 1279.17 6.18209C1279.13 6.48991 1278.91 6.73617 1278.65 6.73617Z" fill="#01E6B6"/>
<path d="M10.3922 103.575H-0.488711C-0.744731 103.575 -0.96875 103.328 -0.96875 103.083C-0.96875 102.775 -0.744731 102.59 -0.488711 102.59H10.2962L258.093 1.38001C258.349 1.25688 258.605 1.44157 258.701 1.68783C258.797 1.93408 258.669 2.24189 258.413 2.36502L10.5522 103.575C10.4882 103.575 10.4562 103.575 10.3922 103.575Z" fill="#01E6B6"/>
<path d="M1278.66 115.581C1278.59 115.581 1278.53 115.581 1278.47 115.519L1195.83 79.074L9.72165 76.6115L-0.327148 80.3053C-0.58317 80.3668 -0.839191 80.2438 -0.935199 79.9974C-1.03121 79.7512 -0.871194 79.4434 -0.647175 79.3203L9.49765 75.6265C9.56165 75.6265 9.59365 75.6265 9.65765 75.6265L1195.93 78.089C1195.99 78.089 1196.06 78.089 1196.12 78.1506L1278.85 114.658C1279.11 114.78 1279.2 115.089 1279.11 115.335C1279.01 115.458 1278.85 115.581 1278.66 115.581Z" fill="#01E6B6"/>
<path d="M1278.65 9.75315H1278.49C1278.47 9.75315 1278.43 9.75315 1278.37 9.75315L1267.23 6.73657L1235.77 6.67499C1235.74 6.67499 1235.68 6.67499 1235.65 6.67499L1225.41 3.71996C1225.15 3.6584 1224.99 3.35058 1225.05 3.10433C1225.11 2.85808 1225.37 2.67339 1225.63 2.73495L1235.81 5.62842L1267.26 5.69C1267.29 5.69 1267.33 5.69 1267.39 5.69L1278.53 8.70659H1278.63C1278.88 8.70659 1279.11 8.95284 1279.11 9.1991C1279.11 9.44537 1278.91 9.75315 1278.65 9.75315Z" fill="#01E6B6"/>
<path d="M9.65613 76.6109H-0.488711C-0.744731 76.6109 -0.96875 76.3647 -0.96875 76.1184C-0.96875 75.8106 -0.744731 75.6259 -0.488711 75.6259H9.56013L212.457 1.31903C212.713 1.25747 212.969 1.3806 213.065 1.62685C213.161 1.87311 213.001 2.18092 212.777 2.30405L9.81613 76.5494C9.75213 76.6109 9.72013 76.6109 9.65613 76.6109Z" fill="#01E6B6"/>
<path d="M1278.66 12.8929H1273.76C1273.73 12.8929 1273.67 12.8929 1273.63 12.8929L1262.37 9.75316H1246.37C1246.33 9.75316 1246.27 9.75316 1246.24 9.75316L1235.68 6.73657L1204.22 6.67499C1204.19 6.67499 1204.12 6.67499 1204.09 6.67499L1194.43 3.71996C1194.17 3.6584 1194.01 3.35058 1194.11 3.10433C1194.2 2.85808 1194.46 2.67339 1194.71 2.73495L1204.31 5.62842L1235.77 5.68999C1235.81 5.68999 1235.87 5.68999 1235.9 5.68999L1246.46 8.70658H1262.47C1262.49 8.70658 1262.56 8.70658 1262.59 8.70658L1273.86 11.8463H1278.69C1278.95 11.8463 1279.17 12.0926 1279.17 12.3388C1279.14 12.6466 1278.91 12.8929 1278.66 12.8929Z" fill="#01E6B6"/>
<path d="M1278.66 170.556C1278.59 170.556 1278.53 170.556 1278.43 170.494L1063.38 56.6024L9.11398 54.6324L-0.358793 57.7721C-0.614815 57.8337 -0.870835 57.7106 -0.966844 57.4027C-1.03085 57.1565 -0.902838 56.8487 -0.646817 56.7871L8.88999 53.6474C8.92198 53.6474 8.98598 53.6474 9.01798 53.6474L1063.47 55.6174C1063.54 55.6174 1063.63 55.6174 1063.7 55.679L1278.85 169.632C1279.07 169.756 1279.17 170.063 1279.07 170.31C1279.01 170.433 1278.85 170.556 1278.66 170.556Z" fill="#01E6B6"/>
<path d="M1204.25 668.973C1204.09 668.973 1203.97 668.911 1203.87 668.727L1128.98 555.696L55.9649 549.048L-0.135687 615.413C-0.3277 615.598 -0.615725 615.659 -0.807741 615.475C-0.999757 615.29 -1.03176 614.982 -0.839744 614.736L55.3889 548.247C55.4849 548.125 55.6129 548.063 55.7409 548.063L1129.21 554.712C1129.37 554.712 1129.49 554.773 1129.59 554.958L1204.63 668.172C1204.79 668.419 1204.73 668.727 1204.51 668.911C1204.45 668.911 1204.35 668.973 1204.25 668.973Z" fill="#01E6B6"/>
<path d="M9.04807 54.6345H-0.488711C-0.744731 54.6345 -0.96875 54.3883 -0.96875 54.142C-0.96875 53.8342 -0.744731 53.6495 -0.488711 53.6495H8.98407L166.853 1.25916C167.109 1.1976 167.365 1.32073 167.461 1.62855C167.525 1.8748 167.397 2.18262 167.141 2.24418L9.20807 54.6345C9.14407 54.6345 9.11207 54.6345 9.04807 54.6345Z" fill="#01E6B6"/>
<path d="M1278.66 16.1558H1268.83C1268.8 16.1558 1268.74 16.1558 1268.71 16.1558L1257.35 12.8929H1241.05C1241.02 12.8929 1240.96 12.8929 1240.93 12.8929L1230.27 9.75316H1214.3C1214.27 9.75316 1214.21 9.75316 1214.17 9.75316L1204.22 6.73657L1172.79 6.67499C1172.76 6.67499 1172.7 6.67499 1172.67 6.67499L1163.55 3.71996C1163.29 3.6584 1163.16 3.35058 1163.23 3.10433C1163.29 2.85808 1163.57 2.67339 1163.83 2.73495L1172.89 5.62842L1204.31 5.69C1204.35 5.69 1204.41 5.69 1204.45 5.69L1214.43 8.70659H1230.4C1230.43 8.70659 1230.49 8.70659 1230.53 8.70659L1241.18 11.8463H1257.47C1257.51 11.8463 1257.57 11.8463 1257.6 11.8463L1268.96 15.1092H1278.72C1278.98 15.1092 1279.2 15.3554 1279.2 15.6017C1279.14 15.9095 1278.91 16.1558 1278.66 16.1558Z" fill="#01E6B6"/>
<path d="M1278.66 252.99C1278.56 252.99 1278.5 252.99 1278.4 252.929L953.707 38.0726L8.63392 36.4104L-0.358793 39.1192C-0.614815 39.1808 -0.870835 39.0576 -0.966844 38.7498C-1.03085 38.5035 -0.902838 38.1957 -0.646817 38.1342L8.40992 35.3638C8.44192 35.3638 8.50592 35.3638 8.53792 35.3638L953.8 36.9644C953.893 36.9644 953.96 36.9644 954.053 37.0261L1241.73 227.379L1278.88 251.943C1279.11 252.066 1279.17 252.436 1279.04 252.682C1278.98 252.867 1278.82 252.99 1278.66 252.99Z" fill="#01E6B6"/>
<path d="M8.56807 36.4101H-0.488711C-0.744731 36.4101 -0.96875 36.1639 -0.96875 35.9177C-0.96875 35.6098 -0.744731 35.4252 -0.488711 35.4252H8.504L121.281 1.13441C121.537 1.07285 121.793 1.19598 121.889 1.50379C121.953 1.75005 121.825 2.05786 121.569 2.11943L8.69607 36.3486C8.63207 36.4101 8.60007 36.4101 8.56807 36.4101Z" fill="#01E6B6"/>
<path d="M1278.66 19.4801H1263.71C1263.68 19.4801 1263.61 19.4801 1263.59 19.4801L1252.09 16.0942H1235.52C1235.49 16.0942 1235.42 16.0942 1235.39 16.0942L1224.63 12.8313H1208.35C1208.31 12.8313 1208.25 12.8313 1208.22 12.8313L1198.17 9.69155H1182.2C1182.17 9.69155 1182.11 9.69155 1182.07 9.69155L1172.69 6.67496L1141.27 6.6134C1141.21 6.6134 1141.17 6.6134 1141.11 6.6134L1132.53 3.65836C1132.28 3.5968 1132.15 3.28898 1132.21 2.98116C1132.31 2.73491 1132.57 2.55022 1132.82 2.67335L1141.3 5.56681L1172.69 5.62839C1172.73 5.62839 1172.79 5.62839 1172.83 5.62839L1182.2 8.64498H1198.17C1198.2 8.64498 1198.27 8.64498 1198.3 8.64498L1208.35 11.7847H1224.61C1224.63 11.7847 1224.7 11.7847 1224.73 11.7847L1235.49 15.0476H1252.06C1252.09 15.0476 1252.16 15.0476 1252.19 15.0476L1263.68 18.4336H1278.56C1278.82 18.4336 1279.04 18.6798 1279.04 18.9261C1279.14 19.2955 1278.91 19.4801 1278.66 19.4801Z" fill="#01E6B6"/>
<path d="M1278.65 390.153C1278.56 390.153 1278.43 390.092 1278.33 390.03L861.34 22.3124L8.18372 21.0196L-0.392993 23.4206C-0.649015 23.4821 -0.905035 23.2974 -0.969041 23.0512C-1.03305 22.8049 -0.873033 22.497 -0.617012 22.4355L8.02372 20.0345C8.05572 20.0345 8.11972 20.0345 8.15172 20.0345L861.533 21.3889C861.633 21.3889 861.76 21.4505 861.82 21.5121L1157.94 282.602L1278.97 389.291C1279.17 389.475 1279.2 389.784 1279.04 390.03C1278.95 390.092 1278.79 390.153 1278.65 390.153Z" fill="#01E6B6"/>
<path d="M8.152 21.0208H-0.488711C-0.744731 21.0208 -0.96875 20.7745 -0.96875 20.5283C-0.96875 20.2205 -0.744731 20.0358 -0.488711 20.0358H8.088L75.7733 1.13583C76.0293 1.07427 76.2853 1.25896 76.3493 1.50522C76.4133 1.75147 76.2533 2.05929 75.9973 2.12085L8.248 21.0208C8.216 21.0208 8.184 21.0208 8.152 21.0208Z" fill="#01E6B6"/>
<path d="M1278.65 572.874C1278.53 572.874 1278.4 572.812 1278.31 572.69L1264.61 556.622L1196.99 556.191C1196.86 556.191 1196.7 556.129 1196.6 556.005L1068.72 387.076L801.02 33.4566L782.52 9.01605L7.83165 7.84634L-0.392993 10.0011C-0.649015 10.0626 -0.905035 9.87791 -0.969041 9.63167C-1.03305 9.38543 -0.873033 9.07761 -0.617012 9.01605L7.63965 6.86133C7.67165 6.86133 7.70365 6.86133 7.76765 6.86133L782.747 8.03103C782.907 8.03103 783.033 8.09259 783.127 8.21572L1124.85 459.598L1197.21 555.144L1264.83 555.574C1264.96 555.574 1265.09 555.636 1265.18 555.759L1279.04 572.012C1279.23 572.197 1279.2 572.566 1279.01 572.751C1278.88 572.812 1278.79 572.874 1278.65 572.874Z" fill="#01E6B6"/>
<path d="M1278.66 23.9126C1278.63 23.9126 1278.56 23.9126 1278.53 23.9126L1275.62 23.0507H1258.37C1258.34 23.0507 1258.27 23.0507 1258.24 23.0507L1246.65 19.5416H1229.76C1229.73 19.5416 1229.66 19.5416 1229.63 19.5416L1218.81 16.1556H1202.24C1202.21 16.1556 1202.14 16.1556 1202.11 16.1556L1191.99 12.8928H1175.74C1175.71 12.8928 1175.64 12.8928 1175.61 12.8928L1166.17 9.75301H1150.2C1150.13 9.75301 1150.11 9.75301 1150.04 9.75301L1141.24 6.73645L1109.85 6.67488C1109.78 6.67488 1109.75 6.67488 1109.69 6.67488L1101.69 3.78141C1101.43 3.71985 1101.3 3.41202 1101.39 3.10421C1101.49 2.85796 1101.75 2.67327 1102.01 2.79639L1109.94 5.68987L1141.33 5.75143C1141.4 5.75143 1141.43 5.75143 1141.49 5.75143L1150.29 8.76804H1166.27C1166.3 8.76804 1166.36 8.76804 1166.39 8.76804L1175.83 11.9077H1192.09C1192.13 11.9077 1192.19 11.9077 1192.22 11.9077L1202.33 15.1707H1218.91C1218.94 15.1707 1219.01 15.1707 1219.04 15.1707L1229.85 18.5566H1246.75C1246.79 18.5566 1246.85 18.5566 1246.88 18.5566L1258.47 22.0657H1275.71C1275.75 22.0657 1275.81 22.0657 1275.84 22.0657L1278.79 22.9275C1279.04 22.9892 1279.2 23.297 1279.11 23.5432C1279.07 23.7279 1278.88 23.9126 1278.66 23.9126Z" fill="#01E6B6"/>
<path d="M7.768 7.84546H-0.488711C-0.744731 7.84546 -0.96875 7.59921 -0.96875 7.35295C-0.96875 7.04513 -0.744731 6.86044 -0.488711 6.86044H7.73593L30.2658 1.01193C30.5219 0.950368 30.7779 1.13506 30.8419 1.38132C30.9059 1.62757 30.7459 1.93538 30.4899 1.99695L7.896 7.84546C7.864 7.84546 7.832 7.84546 7.768 7.84546Z" fill="#01E6B6"/>
<path d="M1278.65 29.1455C1278.63 29.1455 1278.56 29.1455 1278.53 29.1455L1270.43 26.683H1252.83C1252.8 26.683 1252.73 26.683 1252.7 26.683L1240.99 23.0508H1223.74C1223.71 23.0508 1223.65 23.0508 1223.61 23.0508L1212.7 19.5417H1195.8C1195.77 19.5417 1195.71 19.5417 1195.67 19.5417L1185.5 16.1557H1168.92C1168.85 16.1557 1168.83 16.1557 1168.76 16.1557L1159.29 12.8929H1143.03C1142.97 12.8929 1142.93 12.8929 1142.87 12.8929L1134.03 9.75309H1118.1C1118.03 9.75309 1118 9.75309 1117.94 9.75309L1109.71 6.73652L1078.35 6.67496C1078.29 6.67496 1078.25 6.67496 1078.19 6.6134L1070.73 3.65836C1070.48 3.53523 1070.35 3.28898 1070.45 2.98116C1070.54 2.73491 1070.8 2.55022 1071.05 2.67335L1078.41 5.56681L1109.78 5.62839C1109.84 5.62839 1109.87 5.62839 1109.94 5.62839L1118.16 8.64498H1134.1C1134.17 8.64498 1134.19 8.64498 1134.26 8.64498L1143.09 11.7847H1159.35C1159.41 11.7847 1159.45 11.7847 1159.51 11.7847L1168.99 15.0476H1185.56C1185.59 15.0476 1185.66 15.0476 1185.69 15.0476L1195.87 18.4336H1212.76C1212.79 18.4336 1212.86 18.4336 1212.89 18.4336L1223.81 21.9427H1241.05C1241.09 21.9427 1241.15 21.9427 1241.18 21.9427L1252.89 25.5749H1270.49C1270.53 25.5749 1270.59 25.5749 1270.63 25.5749L1278.79 28.0374C1279.04 28.099 1279.2 28.4068 1279.11 28.6531C1279.07 28.9608 1278.88 29.1455 1278.65 29.1455Z" fill="#01E6B6"/>
<path d="M-0.487393 421.243C-0.615403 421.243 -0.775416 421.181 -0.871424 421.058C-1.03144 420.812 -0.999435 420.504 -0.807419 420.319L43.0682 381.473C43.1642 381.412 43.2602 381.35 43.3882 381.35L1278.66 387.198C1278.91 387.198 1279.14 387.445 1279.14 387.691C1279.14 387.998 1278.91 388.184 1278.66 388.184L43.5482 382.334L-0.199372 421.119C-0.263372 421.243 -0.391385 421.243 -0.487393 421.243Z" fill="#01E6B6"/>
<path d="M1278.66 34.4397H1277.89C1277.86 34.4397 1277.79 34.4397 1277.76 34.4397L1265.05 30.4997L1247.1 30.4381C1247.07 30.4381 1247.01 30.4381 1246.97 30.4381L1235.13 26.6212H1217.57C1217.53 26.6212 1217.47 26.6212 1217.43 26.6212L1206.43 22.9889H1189.21C1189.15 22.9889 1189.11 22.9889 1189.05 22.9889L1178.81 19.4798H1161.91C1161.85 19.4798 1161.81 19.4798 1161.75 19.4798L1152.21 16.0939H1135.67C1135.61 16.0939 1135.57 16.0939 1135.51 16.0939L1126.65 12.831H1110.42C1110.35 12.831 1110.33 12.831 1110.26 12.831L1102.03 9.6913H1086.1C1086.03 9.6913 1086 9.6913 1085.94 9.62976L1078.29 6.61313L1046.93 6.55156C1046.86 6.55156 1046.8 6.55155 1046.77 6.49L1039.85 3.59652C1039.6 3.47339 1039.5 3.16559 1039.6 2.91933C1039.69 2.67308 1039.98 2.54995 1040.21 2.61151L1047.02 5.50499L1078.35 5.56655C1078.42 5.56655 1078.45 5.56655 1078.51 5.62811L1086.16 8.64471H1102.1C1102.16 8.64471 1102.19 8.64471 1102.26 8.64471L1110.49 11.7845H1126.71C1126.77 11.7845 1126.81 11.7845 1126.87 11.7845L1135.73 15.0473H1152.28C1152.34 15.0473 1152.37 15.0473 1152.44 15.0473L1161.97 18.4332H1178.84C1178.91 18.4332 1178.94 18.4332 1179 18.4332L1189.24 21.9424H1206.46C1206.49 21.9424 1206.55 21.9424 1206.59 21.9424L1217.59 25.5746H1235.17C1235.2 25.5746 1235.26 25.5746 1235.29 25.5746L1247.13 29.3915L1265.09 29.4531C1265.12 29.4531 1265.19 29.4531 1265.21 29.4531L1277.92 33.3932H1278.63C1278.88 33.3932 1279.11 33.6394 1279.11 33.8857C1279.11 34.1319 1278.91 34.4397 1278.66 34.4397Z" fill="#01E6B6"/>
<path d="M1278.66 38.5657H1272.42C1272.39 38.5657 1272.32 38.5657 1272.29 38.5657L1259.43 34.4409H1241.09C1241.05 34.4409 1240.99 34.4409 1240.96 34.4409L1229.02 30.5009H1211.1C1211.04 30.5009 1211.01 30.5009 1210.94 30.5009L1199.83 26.6839H1182.27C1182.2 26.6839 1182.17 26.6839 1182.11 26.6839L1171.8 23.0517H1154.59C1154.52 23.0517 1154.49 23.0517 1154.43 23.0517L1144.85 19.5426H1127.99C1127.93 19.5426 1127.89 19.5426 1127.83 19.5426L1118.93 16.1567H1102.39C1102.33 16.1567 1102.29 16.1566 1102.23 16.0951L1094.01 12.8938H1077.78C1077.71 12.8938 1077.65 12.8937 1077.62 12.8322L1070 9.69253H1054.09C1054.03 9.69253 1053.97 9.69253 1053.93 9.6309L1046.87 6.61433L1015.53 6.55277C1015.47 6.55277 1015.41 6.55276 1015.34 6.49119L1009.01 3.59773C1008.75 3.4746 1008.65 3.16679 1008.75 2.92053C1008.85 2.67428 1009.13 2.55116 1009.39 2.67428L1015.63 5.56775L1046.93 5.62932C1046.99 5.62932 1047.05 5.62932 1047.09 5.69088L1054.16 8.70748H1070.07C1070.13 8.70748 1070.19 8.70749 1070.23 8.76905L1077.84 11.9088H1094.07C1094.13 11.9088 1094.17 11.9088 1094.23 11.9703L1102.45 15.2332H1119C1119.06 15.2332 1119.09 15.2332 1119.16 15.2332L1128.05 18.6192H1144.92C1144.99 18.6192 1145.01 18.6192 1145.08 18.6192L1154.65 22.1283H1171.87C1171.93 22.1283 1171.96 22.1283 1172.03 22.1283L1182.33 25.7605H1199.9C1199.97 25.7605 1199.99 25.7605 1200.06 25.7605L1211.17 29.5774H1229.09C1229.12 29.5774 1229.18 29.5774 1229.21 29.5774L1241.15 33.5175H1259.46C1259.49 33.5175 1259.55 33.5175 1259.59 33.5175L1272.45 37.6422H1278.63C1278.88 37.6422 1279.11 37.8885 1279.11 38.1347C1279.14 38.3194 1278.91 38.5657 1278.66 38.5657Z" fill="#01E6B6"/>
<path d="M1278.66 3.7822H1272C1271.75 3.7822 1271.52 3.53595 1271.52 3.28969C1271.52 2.98187 1271.75 2.79718 1272 2.79718H1278.66C1278.91 2.79718 1279.14 3.04344 1279.14 3.28969C1279.14 3.53595 1278.91 3.7822 1278.66 3.7822Z" fill="#01E6B6"/>
<path d="M-0.488732 304.826C-0.648745 304.826 -0.808758 304.765 -0.904766 304.58C-1.06478 304.334 -1.00077 304.026 -0.776756 303.841L35.4502 278.169C35.5142 278.108 35.6102 278.046 35.7062 278.107L76.8618 278.293L159.269 278.6L200.52 278.785L241.803 278.97L283.119 279.154L324.466 279.339L365.845 279.523L407.257 279.708L490.144 280.016L531.619 280.201L656.269 280.693L697.873 280.878L1278.63 283.095C1278.88 283.095 1279.11 283.34 1279.11 283.587C1279.11 283.895 1278.88 284.079 1278.63 284.079L697.873 281.863L656.269 281.679L531.619 281.186L490.144 281.001L407.257 280.693L365.845 280.509L324.466 280.324L283.119 280.14L241.803 279.954L200.52 279.77L159.269 279.585L76.8618 279.277L35.8342 279.093L-0.232709 304.703C-0.296716 304.765 -0.392724 304.826 -0.488732 304.826Z" fill="#01E6B6"/>
<path d="M1278.66 42.8734H1266.72C1266.69 42.8734 1266.63 42.8734 1266.59 42.8734L1253.57 38.5641L1234.85 38.5024C1234.78 38.5024 1234.75 38.5024 1234.69 38.5024L1222.62 34.3777L1204.31 34.3162C1204.25 34.3162 1204.22 34.3162 1204.15 34.3162L1192.95 30.3761L1175.03 30.3145C1174.97 30.3145 1174.94 30.3145 1174.87 30.3145L1164.51 26.4977H1146.97C1146.9 26.4977 1146.87 26.4977 1146.81 26.4977L1137.21 22.8654H1120.02C1119.96 22.8654 1119.93 22.8654 1119.86 22.8039L1110.97 19.2947H1094.1C1094.03 19.2947 1093.97 19.2947 1093.94 19.2332L1085.71 15.9088H1069.2C1069.14 15.9088 1069.07 15.9088 1069.04 15.8472L1061.43 12.6459H1045.23C1045.17 12.6459 1045.1 12.6459 1045.04 12.5843L1038 9.50616H1022.09C1022.03 9.50616 1021.97 9.50616 1021.9 9.44462L1015.41 6.48957L984.107 6.42802C984.04 6.42802 983.98 6.42801 983.913 6.36644L978.12 3.47298C977.9 3.34985 977.767 3.04202 977.9 2.79577C978.027 2.54952 978.28 2.4264 978.54 2.54953L984.233 5.443L1015.53 5.50456C1015.59 5.50456 1015.66 5.50456 1015.73 5.56612L1022.22 8.58273H1038.13C1038.19 8.58273 1038.25 8.58273 1038.32 8.64428L1045.36 11.7224H1061.55C1061.61 11.7224 1061.68 11.7224 1061.71 11.784L1069.33 14.9853H1085.84C1085.91 14.9853 1085.97 14.9853 1086 15.0469L1094.23 18.3713H1111.06C1111.13 18.3713 1111.15 18.3713 1111.22 18.4328L1120.12 21.942H1137.3C1137.37 21.942 1137.4 21.942 1137.46 21.942L1147.06 25.5741H1164.6C1164.67 25.5741 1164.69 25.5741 1164.76 25.5741L1175.13 29.3911L1193.05 29.4526C1193.11 29.4526 1193.15 29.4526 1193.21 29.4526L1204.41 33.3928L1222.72 33.4543C1222.78 33.4543 1222.81 33.4543 1222.88 33.4543L1234.94 37.579L1253.67 37.6406C1253.69 37.6406 1253.76 37.6406 1253.79 37.6406L1266.82 41.95H1278.69C1278.95 41.95 1279.17 42.1962 1279.17 42.4425C1279.14 42.6272 1278.91 42.8734 1278.66 42.8734Z" fill="#01E6B6"/>
<path d="M1278.65 47.3699L1260.73 47.3084C1260.67 47.3084 1260.64 47.3084 1260.57 47.3084L1247.42 42.8143L1228.31 42.7527C1228.25 42.7527 1228.22 42.7527 1228.15 42.7527L1215.96 38.4433L1197.27 38.3818C1197.21 38.3818 1197.18 38.3818 1197.11 38.3818L1185.85 34.257L1167.54 34.1955C1167.48 34.1955 1167.45 34.1955 1167.38 34.1955L1156.95 30.2554H1139.03C1138.97 30.2554 1138.93 30.2554 1138.87 30.1938L1129.23 26.4385H1111.7C1111.63 26.4385 1111.57 26.4385 1111.54 26.3769L1102.64 22.7447H1085.45C1085.39 22.7447 1085.33 22.7447 1085.29 22.6831L1077.07 19.174H1060.24C1060.17 19.174 1060.11 19.174 1060.05 19.1125L1052.46 15.788H1035.95C1035.89 15.788 1035.82 15.788 1035.75 15.7264L1028.78 12.5251H1012.59C1012.52 12.5251 1012.46 12.5251 1012.39 12.4636L1005.96 9.38546H990.087C990.027 9.38546 989.96 9.38546 989.893 9.32389L984.007 6.36885L952.74 6.30729C952.68 6.30729 952.58 6.30728 952.52 6.24572L947.267 3.35225C947.047 3.22912 946.947 2.9213 947.08 2.67505C947.207 2.42879 947.493 2.30567 947.72 2.4288L952.84 5.2607L984.107 5.32227C984.167 5.32227 984.233 5.32227 984.293 5.38384L990.187 8.33887H1006.06C1006.12 8.33887 1006.19 8.33887 1006.25 8.40043L1012.68 11.4786H1028.87C1028.94 11.4786 1029.01 11.4786 1029.07 11.5402L1036.05 14.7415H1052.56C1052.62 14.7415 1052.69 14.7415 1052.75 14.803L1060.33 18.1274H1077.17C1077.23 18.1274 1077.29 18.1274 1077.33 18.189L1085.55 21.6981H1102.74C1102.8 21.6981 1102.87 21.6981 1102.9 21.7597L1111.79 25.3919H1129.33C1129.39 25.3919 1129.43 25.3919 1129.49 25.4534L1139.13 29.2089H1157.01C1157.08 29.2089 1157.11 29.2089 1157.17 29.2089L1167.61 33.1489L1185.88 33.2104C1185.95 33.2104 1185.97 33.2104 1186.04 33.2104L1197.31 37.3352L1215.99 37.3967C1216.06 37.3967 1216.09 37.3967 1216.15 37.3967L1228.35 41.7061L1247.45 41.7678C1247.52 41.7678 1247.55 41.7678 1247.61 41.7678L1260.77 46.2618L1278.63 46.3234C1278.88 46.3234 1279.11 46.5697 1279.11 46.8159C1279.13 47.1237 1278.91 47.3699 1278.65 47.3699Z" fill="#01E6B6"/>
<path d="M-0.488788 227.257C-0.648801 227.257 -0.808815 227.133 -0.904822 227.01C-1.03283 226.764 -0.936825 226.456 -0.712807 226.333L30.2977 208.048C30.3617 207.987 30.4578 207.987 30.5217 207.987L65.0846 208.11L134.306 208.356L168.933 208.479L238.283 208.725L272.973 208.849L307.697 208.972L342.451 209.095L377.206 209.218L411.993 209.342L446.812 209.464L481.631 209.588L516.481 209.711L551.365 209.834L586.247 209.957L621.162 210.08L656.109 210.203L726.033 210.45L761.047 210.572L831.1 210.819L866.173 210.942L971.493 211.311L1006.63 211.434L1278.69 212.297C1278.95 212.297 1279.17 212.543 1279.17 212.789C1279.17 213.097 1278.95 213.281 1278.69 213.281L30.6497 208.972L-0.264772 227.195C-0.328772 227.257 -0.424783 227.257 -0.488788 227.257Z" fill="#01E6B6"/>
<path d="M1278.65 422.474L-0.488711 416.01C-0.744731 416.01 -0.96875 415.764 -0.96875 415.517C-0.96875 415.209 -0.744731 415.025 -0.488711 415.025L1278.65 421.489C1278.91 421.489 1279.13 421.735 1279.13 421.981C1279.13 422.227 1278.91 422.474 1278.65 422.474Z" fill="#01E6B6"/>
<path d="M-0.487194 171.912C-0.67921 171.912 -0.839223 171.788 -0.935231 171.604C-1.06324 171.357 -0.935231 171.049 -0.711212 170.927L26.5551 157.137C26.6191 157.075 26.6831 157.075 26.7471 157.075L116.194 157.321L1278.63 160.584C1278.88 160.584 1279.11 160.83 1279.11 161.076C1279.11 161.384 1278.88 161.569 1278.63 161.569L26.8751 158.121L-0.29518 171.85C-0.359184 171.912 -0.423188 171.912 -0.487194 171.912Z" fill="#01E6B6"/>
<path d="M1278.65 306.119L-0.488711 300.948C-0.744731 300.948 -0.96875 300.702 -0.96875 300.455C-0.96875 300.147 -0.744731 299.963 -0.488711 299.963L1278.65 305.134C1278.91 305.134 1279.13 305.38 1279.13 305.626C1279.13 305.873 1278.91 306.119 1278.65 306.119Z" fill="#01E6B6"/>
<path d="M1278.66 53.4649C1278.59 53.4649 1278.56 53.4649 1278.5 53.4649L1274.5 52.1106L1254.49 52.049C1254.43 52.049 1254.4 52.049 1254.33 52.049L1241.03 47.3702L1221.5 47.3086C1221.44 47.3086 1221.41 47.3086 1221.34 47.3086L1209.05 42.8145L1189.95 42.753C1189.88 42.753 1189.85 42.753 1189.79 42.753L1178.43 38.4435L1159.74 38.3819C1159.67 38.3819 1159.64 38.3819 1159.58 38.3204L1149.11 34.1956H1130.84C1130.77 34.1956 1130.71 34.1956 1130.68 34.1341L1121.01 30.1941H1103.13C1103.06 30.1941 1102.99 30.1941 1102.97 30.1324L1094.07 26.3771H1076.56C1076.5 26.3771 1076.43 26.3771 1076.37 26.3156L1068.18 22.6833H1051.03C1050.96 22.6833 1050.89 22.6833 1050.83 22.6218L1043.28 19.1126H1026.48C1026.41 19.1126 1026.35 19.1126 1026.29 19.0511L1019.34 15.7267H1002.86C1002.79 15.7267 1002.73 15.7267 1002.67 15.6651L996.3 12.4638H980.14C980.073 12.4638 979.98 12.4638 979.913 12.4022L974.087 9.32408H958.213C958.153 9.32408 958.053 9.32407 957.993 9.26251L952.68 6.30748L921.447 6.24592C921.347 6.24592 921.287 6.24591 921.187 6.18434L916.52 3.29088C916.293 3.16775 916.2 2.85993 916.36 2.61368C916.487 2.36743 916.773 2.30587 917 2.42899L921.573 5.2609L952.807 5.32247C952.873 5.32247 952.967 5.32247 953.033 5.38403L958.347 8.33906H974.187C974.247 8.33906 974.347 8.33906 974.407 8.40063L980.233 11.4788H996.393C996.46 11.4788 996.527 11.4788 996.587 11.5403L1002.95 14.7416H1019.44C1019.5 14.7416 1019.57 14.7416 1019.63 14.8032L1026.57 18.1276H1043.37C1043.44 18.1276 1043.5 18.1276 1043.57 18.1892L1051.12 21.6983H1068.27C1068.34 21.6983 1068.4 21.6983 1068.47 21.7599L1076.66 25.3921H1094.17C1094.23 25.3921 1094.29 25.3921 1094.33 25.4537L1103.22 29.209H1121.11C1121.17 29.209 1121.24 29.209 1121.27 29.2705L1130.93 33.2107H1149.21C1149.27 33.2107 1149.31 33.2106 1149.37 33.2722L1159.83 37.3969L1178.52 37.4585C1178.59 37.4585 1178.62 37.4585 1178.68 37.4585L1190.05 41.7679L1209.15 41.8294C1209.21 41.8294 1209.25 41.8294 1209.31 41.8294L1221.6 46.3236L1241.12 46.3852C1241.19 46.3852 1241.21 46.3852 1241.28 46.3852L1254.59 51.064L1274.59 51.1255C1274.66 51.1255 1274.69 51.1255 1274.75 51.1255L1278.82 52.5415C1279.07 52.603 1279.2 52.9109 1279.14 53.2187C1279.04 53.3418 1278.85 53.4649 1278.66 53.4649Z" fill="#01E6B6"/>
<path d="M-0.4881 130.417C-0.680116 130.417 -0.840129 130.295 -0.936137 130.11C-1.03214 129.864 -0.936137 129.556 -0.680116 129.433L23.7379 118.597C23.8019 118.597 23.8339 118.536 23.9299 118.536L1278.69 121.614C1278.95 121.614 1279.17 121.86 1279.17 122.107C1279.17 122.415 1278.95 122.599 1278.69 122.599L23.9939 119.583L-0.328087 130.357C-0.360089 130.357 -0.424095 130.417 -0.4881 130.417Z" fill="#01E6B6"/>
<path d="M1278.65 228.489H1278.27L1204.73 228.243L1167.99 228.12L1131.29 227.996L1094.61 227.874L1057.93 227.75L1021.29 227.627L984.68 227.505L948.1 227.381L911.52 227.258L874.973 227.135L838.46 227.012L765.46 226.766L729.013 226.642L656.173 226.396L619.786 226.273L510.753 225.904L474.462 225.78L221.033 224.919L184.935 224.795L148.803 224.672L112.737 224.55L-0.488711 224.18C-0.744731 224.18 -0.96875 223.933 -0.96875 223.687C-0.96875 223.38 -0.744731 223.195 -0.488711 223.195L1278.65 227.505C1278.91 227.505 1279.13 227.75 1279.13 227.996C1279.13 228.243 1278.91 228.489 1278.65 228.489Z" fill="#01E6B6"/>
<path d="M-0.488837 98.0971C-0.680853 98.0971 -0.872869 97.9736 -0.936874 97.789C-1.03288 97.5427 -0.904871 97.2354 -0.64885 97.1118L21.497 88.4312C21.561 88.4312 21.593 88.3702 21.657 88.3702L1273.03 91.079C1273.09 91.079 1273.15 91.079 1273.19 91.1408L1278.81 93.4186C1279.07 93.5414 1279.2 93.7877 1279.11 94.0958C1279.01 94.3413 1278.72 94.4649 1278.49 94.4031L1272.96 92.1252L21.753 89.4165L-0.328827 98.0971C-0.392829 98.0971 -0.424832 98.0971 -0.488837 98.0971Z" fill="#01E6B6"/>
<path d="M1278.65 173.082L-0.488711 169.388C-0.744731 169.388 -0.96875 169.141 -0.96875 168.895C-0.96875 168.588 -0.744731 168.402 -0.488711 168.402L1278.65 172.097C1278.91 172.097 1279.13 172.343 1279.13 172.589C1279.13 172.835 1278.91 173.082 1278.65 173.082Z" fill="#01E6B6"/>
<path d="M1278.66 60.6049C1278.59 60.6049 1278.56 60.6049 1278.5 60.6049L1268.45 57.0342L1248 56.9726C1247.93 56.9726 1247.9 56.9726 1247.84 56.9726L1234.37 52.0476L1214.39 51.986C1214.33 51.986 1214.3 51.986 1214.23 51.986L1201.82 47.3072L1182.3 47.2456C1182.23 47.2456 1182.2 47.2456 1182.14 47.1841L1170.71 42.69L1151.64 42.6284C1151.57 42.6284 1151.51 42.6284 1151.48 42.5668L1140.95 38.2574L1122.29 38.1958C1122.23 38.1958 1122.17 38.1958 1122.13 38.1343L1112.43 34.0095L1094.19 33.9479C1094.13 33.9479 1094.07 33.9479 1094 33.8864L1085.11 29.9464L1067.25 29.8848C1067.19 29.8848 1067.12 29.8848 1067.05 29.8232L1058.87 26.0679H1041.36C1041.29 26.0679 1041.23 26.0679 1041.17 26.0063L1033.68 22.3741H1016.53C1016.46 22.3741 1016.39 22.3741 1016.33 22.3125L1009.45 18.865H992.653C992.587 18.865 992.493 18.865 992.427 18.8034L986.153 15.479H969.673C969.607 15.479 969.513 15.479 969.447 15.4174L963.72 12.2161H947.56C947.46 12.2161 947.4 12.2161 947.333 12.1546L942.12 9.0764H926.28C926.18 9.0764 926.12 9.07639 926.02 9.01482L921.287 6.05978L890.08 5.99823C889.987 5.99823 889.887 5.99823 889.827 5.93666L885.7 3.04319C885.473 2.8585 885.407 2.55069 885.567 2.30443C885.727 2.05818 886.02 1.99661 886.24 2.1813L890.24 5.01321L921.447 5.07478C921.54 5.07478 921.607 5.07478 921.7 5.13634L926.44 8.09137H942.28C942.373 8.09137 942.44 8.09138 942.5 8.15295L947.72 11.2311H963.847C963.913 11.2311 964.007 11.2311 964.073 11.2927L969.8 14.4939H986.247C986.313 14.4939 986.407 14.4939 986.473 14.5555L992.747 17.8799H1009.55C1009.61 17.8799 1009.67 17.8799 1009.74 17.9415L1016.62 21.389H1033.74C1033.81 21.389 1033.87 21.389 1033.93 21.4506L1041.42 25.0828H1058.93C1058.99 25.0828 1059.05 25.0828 1059.12 25.1444L1067.31 28.8998L1085.17 28.9613C1085.23 28.9613 1085.3 28.9613 1085.36 29.0229L1094.26 32.963L1112.5 33.0245C1112.57 33.0245 1112.63 33.0245 1112.66 33.086L1122.36 37.2108L1141.01 37.2724C1141.08 37.2724 1141.14 37.2724 1141.17 37.3339L1151.7 41.6434L1170.78 41.7049C1170.84 41.7049 1170.87 41.7049 1170.94 41.7665L1182.36 46.2606L1201.89 46.3222C1201.95 46.3222 1201.98 46.3222 1202.05 46.3222L1214.46 51.001L1234.43 51.0625C1234.49 51.0625 1234.53 51.0625 1234.59 51.0625L1248.06 55.9876L1268.51 56.0492C1268.58 56.0492 1268.61 56.0492 1268.67 56.0492L1278.82 59.6198C1279.07 59.6814 1279.2 59.9892 1279.14 60.297C1279.04 60.4202 1278.85 60.6049 1278.66 60.6049Z" fill="#01E6B6"/>
<path d="M1278.66 140.575C1278.59 140.575 1278.53 140.575 1278.47 140.513L1126.36 67.2531L19.9623 65.0984L-0.327408 72.3013C-0.583432 72.3629 -0.839453 72.2398 -0.935461 71.9935C-1.03147 71.7473 -0.871455 71.4395 -0.615435 71.3163L19.7383 64.1135C19.8023 64.1135 19.8343 64.1135 19.8983 64.1135L1126.49 66.2682C1126.55 66.2682 1126.61 66.2682 1126.68 66.3297L1278.88 139.59C1279.14 139.714 1279.23 140.021 1279.14 140.267C1279.01 140.452 1278.85 140.575 1278.66 140.575Z" fill="#01E6B6"/>
<path d="M1278.65 131.465L-0.488711 128.263C-0.744731 128.263 -0.96875 128.017 -0.96875 127.77C-0.96875 127.463 -0.744731 127.278 -0.488711 127.278L1278.65 130.479C1278.91 130.479 1279.13 130.726 1279.13 130.972C1279.13 131.28 1278.91 131.465 1278.65 131.465Z" fill="#01E6B6"/>
<path d="M1278.65 207.187C1278.59 207.187 1278.49 207.187 1278.43 207.126L1006.09 46.8768L18.4888 45.0915L-0.328767 51.1247C-0.584785 51.1863 -0.840807 51.0631 -0.936814 50.7553C-1.00082 50.5091 -0.872809 50.2012 -0.616788 50.1397L18.2647 44.0449C18.2967 44.0449 18.3608 44.0449 18.3928 44.0449L1006.22 45.8302C1006.31 45.8302 1006.38 45.8302 1006.44 45.8918L1278.88 206.203C1279.11 206.326 1279.2 206.634 1279.07 206.88C1278.97 207.126 1278.81 207.187 1278.65 207.187Z" fill="#01E6B6"/>
<path d="M1278.65 99.1434L-0.488711 96.2501C-0.744731 96.2501 -0.96875 96.0038 -0.96875 95.7575C-0.96875 95.4494 -0.744731 95.2039 -0.488711 95.2648L1278.65 98.1581C1278.91 98.1581 1279.13 98.4044 1279.13 98.6508C1279.13 98.8971 1278.91 99.1434 1278.65 99.1434Z" fill="#01E6B6"/>
<path d="M1278.66 311.783C1278.57 311.783 1278.47 311.783 1278.37 311.659L905.64 29.8845L17.2439 28.4069L-0.325613 33.5783C-0.581632 33.6398 -0.837653 33.5167 -0.901658 33.2089C-0.965663 32.9626 -0.837653 32.6548 -0.581631 32.5933L17.0518 27.3604C17.0838 27.3604 17.1478 27.3604 17.1798 27.3604L905.8 28.8379C905.893 28.8379 905.987 28.8994 906.087 28.961L1278.98 310.921C1279.21 311.106 1279.23 311.413 1279.11 311.659C1278.95 311.721 1278.82 311.783 1278.66 311.783Z" fill="#01E6B6"/>
<path d="M1278.65 127.522C1278.59 127.522 1278.53 127.522 1278.47 127.461L1160.21 73.039L-0.488711 70.6996C-0.744731 70.6996 -0.96875 70.4533 -0.96875 70.2071C-0.96875 69.8992 -0.744731 69.7146 -0.488711 69.7146L1160.31 72.0539C1160.37 72.0539 1160.44 72.0539 1160.5 72.1156L1278.85 126.599C1279.11 126.723 1279.2 127.03 1279.11 127.276C1279.01 127.4 1278.85 127.522 1278.65 127.522Z" fill="#01E6B6"/>
<path d="M1278.65 440.019C1278.53 440.019 1278.43 439.957 1278.33 439.895L840.507 18.8028L3.95861 17.5099L-0.361743 18.6797C-0.617765 18.7412 -0.873785 18.5565 -0.937791 18.3103C-1.0018 18.064 -0.841783 17.7562 -0.585762 17.6946L3.7986 16.525C3.8306 16.525 3.86261 16.525 3.92661 16.525L840.733 17.8178C840.86 17.8178 840.953 17.8793 841.053 17.9409L1279.04 439.157C1279.23 439.342 1279.27 439.649 1279.07 439.895C1278.91 439.957 1278.79 440.019 1278.65 440.019Z" fill="#01E6B6"/>
<path d="M1278.65 187.918C1278.59 187.918 1278.49 187.918 1278.43 187.857L1034.06 51.6173L-0.488711 49.7089C-0.744731 49.7089 -0.96875 49.4625 -0.96875 49.2163C-0.96875 48.9085 -0.744731 48.7238 -0.488711 48.7238L1034.19 50.6323C1034.25 50.6323 1034.35 50.6323 1034.41 50.6938L1278.88 186.934C1279.11 187.056 1279.2 187.364 1279.07 187.611C1279.01 187.795 1278.81 187.918 1278.65 187.918Z" fill="#01E6B6"/>
<path d="M1278.66 67.5619H1277.06C1276.99 67.5619 1276.96 67.5619 1276.9 67.5619L1262.08 62.1443L1241.15 62.0827C1241.09 62.0827 1241.05 62.0827 1240.99 62.0827L1227.36 56.9114L1206.91 56.8499C1206.85 56.8499 1206.81 56.8499 1206.75 56.7883L1194.23 51.8633L1174.27 51.8017C1174.2 51.8017 1174.14 51.8017 1174.11 51.7401L1162.59 47.0613L1143.09 46.9997C1143.03 46.9997 1142.97 46.9997 1142.93 46.9382L1132.37 42.444L1113.3 42.3825C1113.23 42.3825 1113.17 42.3825 1113.11 42.321L1103.41 38.0115L1084.79 37.95C1084.72 37.95 1084.66 37.9499 1084.59 37.8884L1075.69 33.7636L1057.45 33.7021C1057.39 33.7021 1057.33 33.7021 1057.26 33.6405L1049.1 29.7004H1031.25C1031.18 29.7004 1031.12 29.7004 1031.05 29.6389L1023.59 25.8836H1006.12C1006.06 25.8836 1005.96 25.8836 1005.9 25.8219L999.08 22.1898H981.96C981.9 22.1898 981.8 22.1898 981.74 22.1282L975.527 18.6806H958.76C958.66 18.6806 958.6 18.6806 958.533 18.6191L952.9 15.2947H936.453C936.36 15.2947 936.293 15.2947 936.2 15.2331L931.08 12.0318H914.947C914.853 12.0318 914.787 12.0318 914.693 11.9702L910.08 8.89208H894.273C894.18 8.89208 894.08 8.89208 894.02 8.83051L889.86 5.87547L858.687 5.81392C858.593 5.81392 858.493 5.75236 858.4 5.69079L854.813 2.79731C854.593 2.61262 854.56 2.3048 854.72 2.05855C854.88 1.8123 855.167 1.8123 855.393 1.93543L858.847 4.76734L890.02 4.8289C890.113 4.8289 890.207 4.82891 890.273 4.89046L894.433 7.8455H910.24C910.34 7.8455 910.4 7.8455 910.5 7.90707L915.107 10.9852H931.24C931.333 10.9852 931.4 10.9852 931.493 11.0468L936.613 14.2481H953.06C953.16 14.2481 953.22 14.2481 953.287 14.3096L958.92 17.6341H975.687C975.753 17.6341 975.847 17.6341 975.913 17.6956L982.12 21.1432H999.24C999.307 21.1432 999.4 21.1432 999.467 21.2047L1006.28 24.837H1023.75C1023.82 24.837 1023.89 24.837 1023.95 24.8985L1031.41 28.6538H1049.26C1049.33 28.6538 1049.39 28.6539 1049.45 28.7155L1057.61 32.6555L1075.86 32.717C1075.92 32.717 1075.99 32.717 1076.05 32.7787L1084.95 36.9034L1103.57 36.9649C1103.63 36.9649 1103.7 36.9649 1103.76 37.0265L1113.46 41.3359L1132.5 41.3975C1132.57 41.3975 1132.63 41.3975 1132.66 41.4591L1143.22 45.9532L1162.71 46.0147C1162.77 46.0147 1162.84 46.0147 1162.87 46.0763L1174.39 50.7551L1194.36 50.8167C1194.43 50.8167 1194.46 50.8167 1194.52 50.8782L1207.03 55.8033L1227.49 55.8648C1227.55 55.8648 1227.58 55.8648 1227.65 55.8648L1241.25 61.0361L1262.17 61.0978C1262.24 61.0978 1262.27 61.0978 1262.33 61.0978L1277.15 66.5153H1278.69C1278.95 66.5153 1279.17 66.7616 1279.17 67.0078C1279.14 67.3772 1278.91 67.5619 1278.66 67.5619Z" fill="#01E6B6"/>
<path d="M1278.65 616.336L1242.3 616.09C1242.17 616.09 1242.01 616.028 1241.92 615.906L1196.73 556.189L1129.21 555.758C1129.05 555.758 1128.91 555.696 1128.82 555.512L1094.87 504.229L1039.69 420.996L1016.97 386.767L816.507 84.3065L764.6 5.93654L3.89536 4.82839L-0.392993 5.93654C-0.649015 5.99809 -0.905035 5.8134 -0.969041 5.56715C-1.03305 5.3209 -0.873033 5.01309 -0.617012 4.95152L3.70334 3.84338C3.73534 3.84338 3.76734 3.84338 3.79935 3.84338L764.793 4.95152C764.953 4.95152 765.08 5.01309 765.173 5.19778L979.527 328.528L1017.74 386.213L1040.46 420.442L1129.46 554.712L1196.99 555.143C1197.11 555.143 1197.27 555.204 1197.37 555.327L1242.56 615.043L1278.69 615.289C1278.95 615.289 1279.17 615.536 1279.17 615.782C1279.13 616.09 1278.91 616.336 1278.65 616.336Z" fill="#01E6B6"/>
<path d="M1278.65 280.449C1278.56 280.449 1278.47 280.449 1278.4 280.387L1254.69 263.642L984.04 72.6111L929.153 33.8878L-0.488711 32.2872C-0.744731 32.2872 -0.96875 32.0409 -0.96875 31.7947C-0.96875 31.4868 -0.744731 31.3021 -0.488711 31.3021L929.287 32.8413C929.38 32.8413 929.473 32.8413 929.54 32.9028L1278.91 279.463C1279.13 279.649 1279.2 279.956 1279.04 280.202C1278.97 280.326 1278.81 280.449 1278.65 280.449Z" fill="#01E6B6"/>
<path d="M3.89565 17.5113H-0.488711C-0.744731 17.5113 -0.96875 17.265 -0.96875 17.0188C-0.96875 16.7109 -0.744731 16.5262 -0.488711 16.5262H3.83165L60.5723 1.07388C60.8283 1.01232 61.0843 1.197 61.1483 1.44326C61.2124 1.68951 61.0523 1.99733 60.7963 2.05889L4.02366 17.5113C3.95965 17.5113 3.92765 17.5113 3.89565 17.5113Z" fill="#01E6B6"/>
<path d="M1278.66 73.287H1270.59C1270.53 73.287 1270.5 73.287 1270.43 73.287L1255.43 67.6232L1233.98 67.5615C1233.92 67.5615 1233.89 67.5615 1233.82 67.5L1220.06 62.0824L1199.13 62.0209C1199.07 62.0209 1199 62.0209 1198.97 61.9593L1186.33 56.7879L1165.91 56.7264C1165.85 56.7264 1165.79 56.7264 1165.75 56.6649L1154.17 51.7398L1134.23 51.6782C1134.17 51.6782 1134.1 51.6782 1134.04 51.6167L1123.45 46.9379L1103.95 46.8763C1103.89 46.8763 1103.83 46.8763 1103.76 46.8147L1094.07 42.3206L1075.03 42.259C1074.96 42.259 1074.9 42.259 1074.83 42.1975L1065.97 37.9496L1047.34 37.8881C1047.28 37.8881 1047.21 37.8881 1047.15 37.8265L1039.05 33.7633L1020.85 33.7018C1020.78 33.7018 1020.69 33.7018 1020.62 33.6402L1013.23 29.7001L995.4 29.6386C995.34 29.6386 995.24 29.6386 995.18 29.577L988.46 25.8216H971.013C970.92 25.8216 970.853 25.8216 970.793 25.7601L964.68 22.1894H947.593C947.493 22.1894 947.433 22.1894 947.333 22.1278L941.8 18.6803H925.027C924.933 18.6803 924.867 18.6803 924.773 18.6188L919.78 15.2944H903.36C903.267 15.2944 903.173 15.2944 903.107 15.2327L898.627 12.0931H882.527C882.433 12.0931 882.34 12.0315 882.24 11.9699L878.207 8.95331H862.4C862.307 8.95331 862.207 8.89175 862.113 8.83019L858.527 5.93671L827.387 5.87515C827.26 5.87515 827.167 5.81359 827.067 5.75203L824.027 2.85855C823.833 2.67387 823.807 2.36605 823.993 2.1198C824.187 1.93511 824.473 1.87354 824.667 2.05823L827.547 4.82858L858.687 4.89014C858.78 4.89014 858.88 4.95171 858.973 5.01327L862.56 7.90674H878.34C878.433 7.90674 878.527 7.9683 878.627 8.02987L882.66 11.0465H898.753C898.853 11.0465 898.947 11.0465 899.013 11.108L903.493 14.2478H919.907C920.007 14.2478 920.067 14.2478 920.167 14.3093L925.153 17.6337H941.893C941.987 17.6337 942.053 17.6337 942.147 17.6953L947.687 21.1429H964.773C964.873 21.1429 964.933 21.1429 965 21.2044L971.113 24.775H988.553C988.62 24.775 988.713 24.775 988.78 24.8367L995.5 28.592L1013.33 28.6535C1013.39 28.6535 1013.49 28.6535 1013.55 28.7152L1020.94 32.6552L1039.15 32.7167C1039.21 32.7167 1039.28 32.7167 1039.34 32.7783L1047.44 36.8415L1066.07 36.9031C1066.13 36.9031 1066.19 36.903 1066.25 36.9646L1075.12 41.2124L1094.16 41.2741C1094.23 41.2741 1094.29 41.2741 1094.35 41.3356L1104.05 45.8297L1123.54 45.8913C1123.61 45.8913 1123.67 45.8913 1123.73 45.9528L1134.33 50.6317L1154.27 50.6932C1154.33 50.6932 1154.39 50.6932 1154.43 50.7547L1166.01 55.6798L1186.43 55.7414C1186.49 55.7414 1186.55 55.7414 1186.59 55.803L1199.23 60.9743L1220.16 61.0358C1220.22 61.0358 1220.25 61.0358 1220.32 61.0974L1234.08 66.5149L1255.52 66.5766C1255.59 66.5766 1255.61 66.5766 1255.68 66.5766L1270.69 72.2404H1278.66C1278.91 72.2404 1279.14 72.4866 1279.14 72.7328C1279.14 73.0407 1278.91 73.287 1278.66 73.287Z" fill="#01E6B6"/>
<path d="M1278.66 79.2576L1263.84 79.196C1263.78 79.196 1263.75 79.196 1263.68 79.1344L1248.48 73.1628L1226.49 73.1012C1226.43 73.1012 1226.37 73.1012 1226.33 73.0396L1212.41 67.3758L1190.97 67.3143C1190.91 67.3143 1190.84 67.3143 1190.81 67.2527L1178.07 61.8351L1157.17 61.7736C1157.11 61.7736 1157.05 61.7736 1156.99 61.712L1145.33 56.6023L1124.95 56.5407C1124.89 56.5407 1124.82 56.5407 1124.76 56.4791L1114.13 51.5541L1094.23 51.4925C1094.16 51.4925 1094.1 51.4925 1094.03 51.4309L1084.34 46.7521L1064.88 46.6906C1064.81 46.6906 1064.75 46.6906 1064.69 46.629L1055.85 42.1964L1036.85 42.1349C1036.78 42.1349 1036.69 42.1349 1036.62 42.0733L1028.59 37.8254L1009.99 37.7639C1009.93 37.7639 1009.83 37.7639 1009.77 37.7024L1002.47 33.6392H984.267C984.173 33.6392 984.107 33.6392 984.04 33.5776L977.42 29.6991H959.593C959.493 29.6991 959.433 29.6991 959.333 29.6375L953.353 25.8822H935.913C935.813 25.8822 935.747 25.8822 935.653 25.8207L930.247 22.2499H913.153C913.06 22.2499 912.967 22.2499 912.9 22.1884L908.033 18.7409H891.3C891.2 18.7409 891.107 18.6793 891.013 18.6177L886.66 15.3548H870.24C870.147 15.3548 870.047 15.2933 869.953 15.2318L866.08 12.092H850.013C849.92 12.092 849.793 12.0305 849.693 11.9689L846.273 8.95227H830.493C830.367 8.95227 830.267 8.89071 830.173 8.82914L827.167 5.93568L796.06 5.8741C795.933 5.8741 795.8 5.81255 795.707 5.68943L793.24 2.79594C793.053 2.61125 793.08 2.24188 793.273 2.05719C793.467 1.87249 793.787 1.8725 793.947 2.11875L796.28 4.8891L827.36 4.95066C827.487 4.95066 827.58 5.01223 827.68 5.07379L830.687 7.96727H846.433C846.527 7.96727 846.653 8.02883 846.753 8.09039L850.173 11.1069H866.24C866.333 11.1069 866.433 11.1686 866.527 11.2301L870.4 14.3699H886.787C886.88 14.3699 886.98 14.4314 887.073 14.493L891.427 17.7558H908.167C908.26 17.7558 908.353 17.7558 908.42 17.8174L913.287 21.2649H930.34C930.44 21.2649 930.5 21.2649 930.6 21.3265L936.007 24.8971H953.447C953.547 24.8971 953.607 24.8971 953.707 24.9588L959.687 28.7141H977.48C977.58 28.7141 977.64 28.7141 977.707 28.7756L984.333 32.6541H1002.51C1002.57 32.6541 1002.67 32.6541 1002.73 32.7157L1010.03 36.7789L1028.62 36.8405C1028.69 36.8405 1028.78 36.8405 1028.85 36.902L1036.88 41.1499L1055.89 41.2115C1055.95 41.2115 1056.01 41.2115 1056.08 41.273L1064.91 45.7056L1084.37 45.7671C1084.43 45.7671 1084.5 45.7671 1084.56 45.8287L1094.26 50.5075L1114.17 50.569C1114.23 50.569 1114.29 50.569 1114.36 50.6306L1124.98 55.5557L1145.37 55.6173C1145.43 55.6173 1145.49 55.6172 1145.56 55.6788L1157.21 60.7885L1178.11 60.8502C1178.17 60.8502 1178.23 60.8502 1178.27 60.9117L1191 66.3293L1212.41 66.3908C1212.48 66.3908 1212.54 66.3908 1212.57 66.4524L1226.49 72.1162L1248.48 72.1778C1248.55 72.1778 1248.57 72.1778 1248.64 72.2393L1263.84 78.211L1278.59 78.2725C1278.85 78.2725 1279.07 78.5188 1279.07 78.765C1279.14 79.0113 1278.91 79.2576 1278.66 79.2576Z" fill="#01E6B6"/>
<path d="M55.7399 549.111L-0.488711 548.741C-0.744731 548.741 -0.96875 548.495 -0.96875 548.248C-0.96875 547.941 -0.744731 547.756 -0.488711 547.756L55.5159 548.125L342.099 209.096L517.314 1.87437C517.506 1.68968 517.794 1.62812 517.986 1.81281C518.178 1.9975 518.21 2.30531 518.018 2.55157L56.0919 548.925C55.9959 549.049 55.8679 549.111 55.7399 549.111Z" fill="#01E6B6"/>
<path d="M78.11 608.211L-0.488711 607.657C-0.744731 607.657 -0.96875 607.41 -0.96875 607.165C-0.96875 606.857 -0.744731 606.672 -0.488711 606.672L77.886 607.226L324.114 279.463L532.611 1.93607C532.771 1.68982 533.091 1.68982 533.283 1.87451C533.475 2.0592 533.507 2.36702 533.347 2.61327L78.494 608.027C78.398 608.149 78.27 608.211 78.11 608.211Z" fill="#01E6B6"/>
<path d="M1278.66 85.5379L1256.71 85.4761C1256.64 85.4761 1256.57 85.4761 1256.55 85.4143L1241.12 79.1349L1218.59 79.0734C1218.53 79.0734 1218.46 79.0734 1218.43 79.0119L1204.35 73.0402L1182.39 72.9787C1182.33 72.9787 1182.27 72.9786 1182.2 72.917L1169.37 67.2532L1147.96 67.1917C1147.89 67.1917 1147.83 67.1917 1147.77 67.1301L1136.09 61.7741L1115.22 61.7126C1115.15 61.7126 1115.09 61.7126 1115.03 61.651L1104.37 56.5413L1083.99 56.4797C1083.92 56.4797 1083.86 56.4796 1083.79 56.4181L1074.09 51.5546L1054.19 51.493C1054.13 51.493 1054.03 51.493 1053.97 51.4315L1045.17 46.7526L1025.74 46.6911C1025.67 46.6911 1025.58 46.6911 1025.51 46.6296L1017.55 42.197L998.54 42.1354C998.44 42.1354 998.38 42.1354 998.313 42.0739L991.08 37.826L972.52 37.7644C972.427 37.7644 972.36 37.7644 972.267 37.7029L965.733 33.6397L947.56 33.5782C947.46 33.5782 947.4 33.5782 947.3 33.5165L941.447 29.6381H923.653C923.553 29.6381 923.46 29.6381 923.393 29.5765L918.113 25.8827H900.707C900.613 25.8827 900.513 25.8212 900.42 25.7596L895.713 22.1889H878.653C878.56 22.1889 878.467 22.1274 878.367 22.0658L874.173 18.6798H857.473C857.373 18.6798 857.247 18.6182 857.18 18.5567L853.5 15.2938H837.12C836.987 15.2938 836.893 15.2323 836.8 15.1707L833.567 12.031H817.533C817.4 12.031 817.273 11.9695 817.18 11.9078L814.36 8.95283H798.62C798.487 8.95283 798.36 8.89127 798.267 8.76814L795.833 5.93623L764.76 5.87466C764.6 5.87466 764.473 5.8131 764.373 5.62841L762.453 2.73494C762.293 2.48869 762.36 2.18087 762.58 1.99618C762.807 1.81149 763.093 1.87305 763.253 2.11931L765.047 4.82808L796.087 4.88966C796.22 4.88966 796.347 4.95122 796.44 5.07434L798.873 7.90625H814.587C814.713 7.90625 814.84 7.96781 814.94 8.02937L817.753 10.9844H833.787C833.913 10.9844 834.013 11.0459 834.107 11.1076L837.34 14.2473H853.693C853.793 14.2473 853.92 14.3088 853.98 14.3704L857.66 17.6333H874.367C874.467 17.6333 874.56 17.6948 874.653 17.7563L878.847 21.1423H895.907C896 21.1423 896.1 21.2039 896.193 21.2655L900.9 24.8361H918.307C918.407 24.8361 918.5 24.8361 918.567 24.8977L923.847 28.5916H941.607C941.7 28.5916 941.767 28.5915 941.86 28.6531L947.72 32.5316L965.893 32.5931C965.993 32.5931 966.053 32.5931 966.153 32.6547L972.68 36.7179L991.24 36.7794C991.34 36.7794 991.4 36.7794 991.467 36.841L998.7 41.0888L1017.67 41.1505C1017.74 41.1505 1017.83 41.1505 1017.9 41.212L1025.87 45.6445L1045.29 45.7061C1045.36 45.7061 1045.45 45.7061 1045.52 45.7677L1054.32 50.4464L1074.23 50.508C1074.29 50.508 1074.35 50.508 1074.41 50.5696L1084.11 55.4331L1104.5 55.4947C1104.56 55.4947 1104.63 55.4947 1104.69 55.5562L1115.35 60.666L1136.21 60.7275C1136.28 60.7275 1136.34 60.7275 1136.41 60.7891L1148.09 66.1451L1169.49 66.2066C1169.56 66.2066 1169.63 66.2066 1169.69 66.2683L1182.52 71.9321L1204.47 71.9936C1204.54 71.9936 1204.6 71.9936 1204.63 72.0551L1218.71 78.0268L1241.25 78.0883C1241.31 78.0883 1241.37 78.0883 1241.41 78.15L1256.83 84.4294L1278.72 84.491C1278.98 84.491 1279.2 84.7371 1279.2 84.9834C1279.14 85.2916 1278.91 85.5379 1278.66 85.5379Z" fill="#01E6B6"/>
<path d="M32.474 668.974C32.378 668.974 32.25 668.912 32.186 668.851C31.994 668.666 31.962 668.358 32.122 668.112L77.758 607.349C77.854 607.226 77.982 607.164 78.142 607.164L149.956 607.657L401.529 224.733L547.877 1.93584C548.037 1.68958 548.325 1.62802 548.549 1.81271C548.773 1.9974 548.805 2.30521 548.677 2.55146L276.27 417.18L150.596 608.518C150.5 608.642 150.372 608.765 150.212 608.765L78.366 608.272L32.89 668.789C32.762 668.912 32.634 668.974 32.474 668.974Z" fill="#01E6B6"/>
<path d="M110.593 668.974C110.497 668.974 110.401 668.974 110.305 668.85C110.081 668.666 110.049 668.358 110.177 668.112L149.764 607.841C149.86 607.718 149.988 607.595 150.148 607.595L222.025 608.088L365.653 352.846L563.142 1.87412C563.27 1.62786 563.558 1.56631 563.814 1.68943C564.038 1.81256 564.102 2.18193 563.974 2.36662L330.515 417.242L222.73 608.765C222.634 608.949 222.474 609.011 222.313 609.011L150.404 608.518L110.977 668.542C110.913 668.912 110.753 668.974 110.593 668.974Z" fill="#01E6B6"/>
<path d="M1048.01 668.973C1047.85 668.973 1047.66 668.851 1047.6 668.666L993.513 554.589L913.667 386.213L845.98 243.572L731.767 2.73582C731.633 2.48956 731.733 2.18174 731.987 2.05862C732.213 1.93549 732.5 2.05862 732.627 2.30488L914.5 385.782L930.727 419.95L1048.46 668.235C1048.59 668.481 1048.49 668.789 1048.24 668.912C1048.14 668.973 1048.08 668.973 1048.01 668.973Z" fill="#01E6B6"/>
<path d="M266.83 668.971C266.766 668.971 266.67 668.971 266.606 668.91C266.382 668.786 266.286 668.479 266.382 668.233L426.587 326.248L578.44 2.05615C578.568 1.8099 578.856 1.68677 579.08 1.8099C579.304 1.93303 579.4 2.24084 579.304 2.48709L400.697 383.748L267.246 668.663C267.182 668.848 267.022 668.971 266.83 668.971Z" fill="#01E6B6"/>
<path d="M969.893 668.973C969.7 668.973 969.513 668.85 969.447 668.665L906.527 503.121L889.693 458.858L874.973 420.134L840.127 328.467L822.427 281.925L716.34 2.73549C716.24 2.48924 716.373 2.18142 716.593 2.05829C716.853 1.93517 717.107 2.05829 717.233 2.36611L831.707 303.657L862.847 385.659L875.84 419.827L890.56 458.55L926.787 553.911L970.28 668.419C970.373 668.665 970.247 668.973 970.02 669.096C970.02 668.973 969.96 668.973 969.893 668.973Z" fill="#01E6B6"/>
<path d="M344.949 668.972C344.885 668.972 344.821 668.972 344.757 668.911C344.501 668.787 344.405 668.48 344.501 668.233L366.487 609.44L388.569 550.402L407.515 499.796L560.903 89.8465L593.738 2.05739C593.834 1.81114 594.122 1.68801 594.378 1.74958C594.634 1.8727 594.73 2.18052 594.634 2.42677L345.397 668.603C345.333 668.849 345.141 668.972 344.949 668.972Z" fill="#01E6B6"/>
<path d="M891.78 668.973C891.587 668.973 891.393 668.85 891.327 668.603L875.52 613.259L858.527 553.727L769.813 243.264L701.073 2.67399C701.007 2.42774 701.14 2.11992 701.393 2.05836C701.647 1.9968 701.907 2.11992 702 2.42774L892.227 668.296C892.287 668.542 892.16 668.85 891.907 668.911C891.873 668.973 891.807 668.973 891.78 668.973Z" fill="#01E6B6"/>
<path d="M423.067 668.972C423.035 668.972 422.971 668.972 422.939 668.972C422.683 668.911 422.555 668.602 422.619 668.356L438.941 610.056L455.486 550.955L469.663 500.289L481.952 456.332L596.937 45.5209L609.067 2.18038C609.131 1.93412 609.419 1.74944 609.675 1.811C609.931 1.87257 610.059 2.18038 609.995 2.42664L537.733 260.623L503.17 384.119L470.623 500.474L456.446 551.14L439.901 610.241L423.579 668.541C423.451 668.849 423.291 668.972 423.067 668.972Z" fill="#01E6B6"/>
<path d="M813.66 668.974C813.433 668.974 813.24 668.789 813.18 668.543L758.967 385.352L685.68 2.55126C685.613 2.24344 685.807 1.99719 686.06 1.93562C686.32 1.87406 686.573 2.05875 686.64 2.36657L736.18 261.178L814.14 668.358C814.2 668.666 814.007 668.912 813.753 668.974C813.72 668.974 813.687 668.974 813.66 668.974Z" fill="#01E6B6"/>
<path d="M501.186 668.972C501.154 668.972 501.122 668.972 501.09 668.972C500.834 668.911 500.674 668.664 500.706 668.357L522.436 551.387L531.845 500.658L540.005 456.702L606.763 96.9882L624.364 2.24228C624.428 1.93446 624.652 1.81134 624.94 1.81134C625.196 1.8729 625.356 2.11915 625.324 2.42697L573.64 280.754L501.666 668.48C501.602 668.788 501.41 668.972 501.186 668.972Z" fill="#01E6B6"/>
<path d="M735.54 668.972C735.287 668.972 735.093 668.788 735.06 668.542L704.593 354.815L670.353 2.48851C670.32 2.1807 670.513 1.93445 670.767 1.93445C671.02 1.93445 671.28 2.11913 671.28 2.36539L700.5 303.225L735.987 668.418C736.02 668.726 735.827 668.972 735.573 668.972H735.54Z" fill="#01E6B6"/>
<path d="M579.303 668.972H579.271C579.015 668.972 578.823 668.664 578.855 668.418L624.331 170.618L639.692 2.30385C639.724 1.99603 639.948 1.81134 640.204 1.81134C640.46 1.81134 640.652 2.11915 640.62 2.3654L599.081 457.133L579.783 668.542C579.751 668.788 579.559 668.972 579.303 668.972Z" fill="#01E6B6"/>
<path d="M657.423 668.972C657.167 668.972 656.943 668.726 656.943 668.48L656.783 611.657L656.463 501.521L656.335 457.441L656.207 418.841L656.111 384.796L656.015 354.569L655.855 303.102L654.991 2.42696C654.991 2.11914 655.215 1.93445 655.471 1.93445C655.727 1.93445 655.951 2.18071 655.951 2.42696L656.879 327.481L656.943 354.569L657.039 384.796L657.135 418.841L657.263 457.441L657.551 552.371L657.711 611.657L657.871 668.48C657.903 668.726 657.679 668.972 657.423 668.972Z" fill="#01E6B6"/>
<path d="M1278.66 664.11C1278.53 664.11 1278.37 664.048 1278.27 663.926L1242.08 616.091L1095.47 615.106C1095.31 615.106 1095.15 614.983 1095.06 614.859L1006.79 459.535L984.747 420.75L843.067 171.542L747.253 2.98217L0.088264 1.99716L-0.391773 2.12028C-0.647793 2.18185 -0.903815 1.99716 -0.96782 1.7509C-1.03183 1.50465 -0.871812 1.19683 -0.615791 1.13527L-0.0717494 1.01215C-0.0397428 1.01215 -0.0077427 1.01215 0.024264 1.01215L747.54 2.05872C747.7 2.05872 747.86 2.18185 747.96 2.30498L1007.59 459.043L1095.76 614.12L1242.3 615.106C1242.43 615.106 1242.59 615.167 1242.69 615.29L1279.04 663.309C1279.2 663.556 1279.17 663.864 1278.98 664.048C1278.88 664.048 1278.75 664.11 1278.66 664.11Z" fill="#01E6B6"/>
<path d="M1278.65 556.682L1264.8 556.621C1264.67 556.621 1264.54 556.559 1264.45 556.436L1050.41 305.012L1031.53 282.787L971.113 211.805L801.147 12.1555L11.9273 10.9857L-0.361743 14.2486C-0.617765 14.3102 -0.873785 14.1255 -0.937791 13.8792C-1.0018 13.633 -0.841783 13.3251 -0.585762 13.2636L-0.297741 13.202L11.7673 10.0007C11.7993 10.0007 11.8313 10.0007 11.8953 10.0007L801.367 11.1704C801.493 11.1704 801.627 11.232 801.72 11.3551L1265.05 555.636L1278.69 555.697C1278.95 555.697 1279.17 555.944 1279.17 556.19C1279.13 556.436 1278.91 556.682 1278.65 556.682Z" fill="#01E6B6"/>
<path d="M1278.66 499.797C1278.53 499.797 1278.4 499.736 1278.31 499.675L1172.31 387.567L1006.25 211.928L820.413 15.4176L-0.519961 14.1863C-0.775981 14.1863 -1 13.94 -1 13.6938C-1 13.386 -0.775981 13.2013 -0.519961 13.2013H-0.23194L820.607 14.4326C820.733 14.4326 820.86 14.4941 820.953 14.5557L1278.98 498.936C1279.17 499.12 1279.17 499.489 1278.98 499.675C1278.91 499.797 1278.79 499.797 1278.66 499.797Z" fill="#01E6B6"/>
<path d="M1278.65 347.983C1278.56 347.983 1278.47 347.922 1278.37 347.86L883.04 26.0071L12.6324 24.6527L-0.3287 28.4081C-0.648724 28.4081 -0.96875 28.1618 -0.96875 27.854C-0.96875 27.6077 -0.808737 27.3615 -0.552716 27.3615L12.4403 23.6061C12.4723 23.6061 12.5363 23.6061 12.5683 23.6061L883.2 25.0221C883.293 25.0221 883.393 25.0836 883.487 25.1452L1278.95 347.06C1279.17 347.244 1279.2 347.552 1279.04 347.798C1278.95 347.922 1278.81 347.983 1278.65 347.983Z" fill="#01E6B6"/>
</g>
</g>
<defs>
<linearGradient id="paint0_linear_1284_4969" x1="640" y1="0" x2="640" y2="668" gradientUnits="userSpaceOnUse">
<stop stop-color="#111111" stop-opacity="0"/>
<stop offset="1" stop-color="#111111"/>
</linearGradient>
</defs>
</svg>
