<svg width="43" height="43" viewBox="0 0 43 43" fill="none" xmlns="http://www.w3.org/2000/svg">
<path d="M37.5692 21.2319C37.5692 24.3102 36.6994 27.3258 35.0599 29.9312C33.4205 32.5366 31.0782 34.6257 28.303 35.9578C25.5279 37.2898 22.4328 37.8105 19.3745 37.4599C16.3163 37.1093 13.4193 35.9017 11.0176 33.9762C8.6159 32.0507 6.80716 29.4857 5.79988 26.5769C4.7926 23.6681 4.62777 20.5338 5.32441 17.5354C6.02104 14.537 7.55078 11.7964 9.73729 9.62963C11.9238 7.46284 14.6781 5.95801 17.6827 5.28857" stroke="#01E6B6"/>
<line x1="21.4846" x2="21.4846" y2="9.80057" stroke="#01E6B6" stroke-width="0.5"/>
<line x1="21.4846" y1="32.668" x2="21.4846" y2="42.4685" stroke="#01E6B6" stroke-width="0.5"/>
<line x1="32.668" y1="20.9844" x2="42.4685" y2="20.9844" stroke="#01E6B6" stroke-width="0.5"/>
<line y1="20.9844" x2="9.80057" y2="20.9844" stroke="#01E6B6" stroke-width="0.5"/>
<rect x="7.24007" y="21.1782" width="19.7089" height="19.7089" transform="rotate(-45 7.24007 21.1782)" stroke="#01E6B6"/>
<circle cx="21.2343" cy="21.2343" r="4.40028" stroke="#01E6B6"/>
</svg>
