<svg width="735" height="746" viewBox="0 0 735 746" fill="none" xmlns="http://www.w3.org/2000/svg">
<rect width="735" height="746" fill="#2B2B2B"/>
<path opacity="0.5" d="M733.14 341.947H731.628V340.121H2.18682V341.947H0.674805V675.06H2.18682V676.886H731.628V675.06H733.14V341.947V341.947ZM438.35 506.69H392.72V477.009H438.35V506.69ZM441.347 477.009H486.978V506.69H441.347V477.009ZM389.723 506.69H344.092V477.009H389.723V506.69ZM341.095 506.69H295.465V477.009H341.095V506.69V506.69ZM292.467 506.69H246.837V477.009H292.467V506.69ZM243.84 506.69H198.209V477.009H243.84V506.69V506.69ZM243.84 510.317V539.998H198.209V510.317H243.84V510.317ZM246.837 510.317H292.467V539.998H246.837V510.317ZM295.465 510.317H341.095V539.998H295.465V510.317V510.317ZM344.092 510.317H389.723V539.998H344.092V510.317ZM392.72 510.317H438.35V539.998H392.72V510.317ZM441.347 510.317H486.978V539.998H441.347V510.317ZM489.975 510.317H535.606V539.998H489.975V510.317ZM489.975 506.69V477.009H535.606V506.69H489.975ZM489.975 473.381V443.7H535.606V473.381H489.975ZM486.978 473.381H441.347V443.7H486.978V473.381ZM438.35 473.381H392.72V443.7H438.35V473.381ZM389.723 473.381H344.092V443.7H389.723V473.381ZM341.095 473.381H295.465V443.7H341.095V473.381V473.381ZM292.467 473.381H246.837V443.7H292.467V473.381ZM243.84 473.381H198.209V443.7H243.84V473.381V473.381ZM195.212 473.381H149.582V443.7H195.212V473.381ZM195.212 477.009V506.69H149.582V477.009H195.212ZM195.212 510.317V539.998H149.582V510.317H195.212ZM195.212 543.626V573.307H149.582V543.626H195.212ZM198.209 543.626H243.84V573.307H198.209V543.626V543.626ZM246.837 543.626H292.467V573.307H246.837V543.626ZM295.465 543.626H341.095V573.307H295.465V543.626V543.626ZM344.092 543.626H389.723V573.307H344.092V543.626ZM392.72 543.626H438.35V573.307H392.72V543.626ZM441.347 543.626H486.978V573.307H441.347V543.626ZM489.975 543.626H535.606V573.307H489.975V543.626ZM538.603 543.626H584.233V573.307H538.603V543.626ZM538.603 539.998V510.317H584.233V539.998H538.603ZM538.603 506.69V477.009H584.233V506.69H538.603ZM538.603 473.381V443.7H584.233V473.381H538.603ZM538.603 440.072V410.391H584.233V440.072H538.603ZM535.606 440.072H489.975V410.391H535.606V440.072ZM486.978 440.072H441.347V410.391H486.978V440.072ZM438.35 440.072H392.72V410.391H438.35V440.072ZM389.723 440.072H344.092V410.391H389.723V440.072ZM341.095 440.072H295.465V410.391H341.095V440.072V440.072ZM292.467 440.072H246.837V410.391H292.467V440.072ZM243.84 440.072H198.209V410.391H243.84V440.072V440.072ZM195.212 440.072H149.582V410.391H195.212V440.072ZM146.585 440.072H100.954V410.391H146.585V440.072ZM146.585 443.7V473.381H100.954V443.7H146.585ZM146.585 477.009V506.69H100.954V477.009H146.585ZM146.585 510.317V539.998H100.954V510.317H146.585ZM146.585 543.626V573.307H100.954V543.626H146.585ZM146.585 576.935V606.616H100.954V576.935H146.585ZM149.582 576.935H195.212V606.616H149.582V576.935V576.935ZM198.209 576.935H243.84V606.616H198.209V576.935V576.935ZM246.837 576.935H292.467V606.616H246.837V576.935ZM295.465 576.935H341.095V606.616H295.465V576.935V576.935ZM344.092 576.935H389.723V606.616H344.092V576.935ZM392.72 576.935H438.35V606.616H392.72V576.935ZM441.347 576.935H486.978V606.616H441.347V576.935ZM489.975 576.935H535.606V606.616H489.975V576.935ZM538.603 576.935H584.233V606.616H538.603V576.935ZM587.23 576.935H632.861V606.616H587.23V576.935ZM587.23 573.307V543.626H632.861V573.307H587.23ZM587.23 539.998V510.317H632.861V539.998H587.23ZM587.23 506.69V477.009H632.861V506.69H587.23ZM587.23 473.381V443.7H632.861V473.381H587.23ZM587.23 440.072V410.391H632.861V440.072H587.23ZM587.23 406.763V377.082H632.861V406.763H587.23ZM584.233 406.763H538.603V377.082H584.233V406.763ZM535.606 406.763H489.975V377.082H535.606V406.763ZM486.978 406.763H441.347V377.082H486.978V406.763ZM438.35 406.763H392.72V377.082H438.35V406.763ZM389.723 406.763H344.092V377.082H389.723V406.763ZM341.095 406.763H295.465V377.082H341.095V406.763V406.763ZM292.467 406.763H246.837V377.082H292.467V406.763ZM243.84 406.763H198.209V377.082H243.84V406.763V406.763ZM195.212 406.763H149.582V377.082H195.212V406.763ZM146.585 406.763H100.954V377.082H146.585V406.763ZM97.957 406.763H52.2995V377.082H97.93V406.763H97.957ZM97.957 410.391V440.072H52.2995V410.391H97.93H97.957ZM97.957 443.7V473.381H52.2995V443.7H97.93H97.957ZM97.957 477.009V506.69H52.2995V477.009H97.93H97.957ZM97.957 510.317V539.998H52.2995V510.317H97.93H97.957ZM97.957 543.626V573.307H52.2995V543.626H97.93H97.957ZM97.957 576.935V606.616H52.2995V576.935H97.93H97.957ZM97.957 610.243V639.925H52.2995V610.243H97.93H97.957ZM100.954 610.243H146.585V639.925H100.954V610.243ZM149.582 610.243H195.212V639.925H149.582V610.243V610.243ZM198.209 610.243H243.84V639.925H198.209V610.243V610.243ZM246.837 610.243H292.467V639.925H246.837V610.243ZM295.465 610.243H341.095V639.925H295.465V610.243V610.243ZM344.092 610.243H389.723V639.925H344.092V610.243ZM392.72 610.243H438.35V639.925H392.72V610.243ZM441.347 610.243H486.978V639.925H441.347V610.243ZM489.975 610.243H535.606V639.925H489.975V610.243ZM538.603 610.243H584.233V639.925H538.603V610.243ZM587.23 610.243H632.861V639.925H587.23V610.243ZM635.858 610.243H681.488V639.925H635.858V610.243ZM635.858 606.616V576.935H681.488V606.616H635.858ZM635.858 573.307V543.626H681.488V573.307H635.858ZM635.858 539.998V510.317H681.488V539.998H635.858ZM635.858 506.69V477.009H681.488V506.69H635.858ZM635.858 473.381V443.7H681.488V473.381H635.858ZM635.858 440.072V410.391H681.488V440.072H635.858ZM635.858 406.763V377.082H681.488V406.763H635.858ZM635.858 373.455V343.774H681.488V373.455H635.858ZM632.861 373.455H587.23V343.774H632.861V373.455ZM584.233 373.455H538.603V343.774H584.233V373.455ZM535.606 373.455H489.975V343.774H535.606V373.455ZM486.978 373.455H441.347V343.774H486.978V373.455ZM438.35 373.455H392.72V343.774H438.35V373.455ZM389.723 373.455H344.092V343.774H389.723V373.455ZM341.095 373.455H295.465V343.774H341.095V373.455V373.455ZM292.467 373.455H246.837V343.774H292.467V373.455ZM243.84 373.455H198.209V343.774H243.84V373.455V373.455ZM195.212 373.455H149.582V343.774H195.212V373.455ZM146.585 373.455H100.954V343.774H146.585V373.455ZM97.957 373.455H52.2995V343.774H97.93V373.455H97.957ZM49.3294 373.455H3.67184V343.774H49.3024V373.455H49.3294ZM49.3294 377.082V406.763H3.67184V377.082H49.3024H49.3294ZM49.3294 410.391V440.072H3.67184V410.391H49.3024H49.3294ZM49.3294 443.7V473.381H3.67184V443.7H49.3024H49.3294ZM49.3294 477.009V506.69H3.67184V477.009H49.3024H49.3294ZM49.3294 510.317V539.998H3.67184V510.317H49.3024H49.3294ZM49.3294 543.626V573.307H3.67184V543.626H49.3024H49.3294ZM49.3294 576.935V606.616H3.67184V576.935H49.3024H49.3294ZM49.3294 610.243V639.925H3.67184V610.243H49.3024H49.3294ZM49.3294 643.552V673.233H3.67184V643.552H49.3024H49.3294ZM52.3265 643.552H97.957V673.233H52.2995V643.552H52.3265ZM100.954 643.552H146.585V673.233H100.954V643.552ZM149.582 643.552H195.212V673.233H149.582V643.552V643.552ZM198.209 643.552H243.84V673.233H198.209V643.552V643.552ZM246.837 643.552H292.467V673.233H246.837V643.552ZM295.465 643.552H341.095V673.233H295.465V643.552V643.552ZM344.092 643.552H389.723V673.233H344.092V643.552ZM392.72 643.552H438.35V673.233H392.72V643.552ZM441.347 643.552H486.978V673.233H441.347V643.552ZM489.975 643.552H535.606V673.233H489.975V643.552ZM538.603 643.552H584.233V673.233H538.603V643.552ZM587.23 643.552H632.861V673.233H587.23V643.552ZM635.858 643.552H681.488V673.233H635.858V643.552ZM684.485 643.552H730.116V673.233H684.485V643.552ZM684.485 639.925V610.243H730.116V639.925H684.485ZM684.485 606.616V576.935H730.116V606.616H684.485ZM684.485 573.307V543.626H730.116V573.307H684.485ZM684.485 539.998V510.317H730.116V539.998H684.485ZM684.485 506.69V477.009H730.116V506.69H684.485ZM684.485 473.381V443.7H730.116V473.381H684.485ZM684.485 440.072V410.391H730.116V440.072H684.485ZM684.485 406.763V377.082H730.116V406.763H684.485ZM684.485 373.455V343.774H730.116V373.455H684.485Z" fill="url(#paint0_linear_2735_5902)" fill-opacity="0.4"/>
<path opacity="0.5" d="M1.21216 341.202H2.72418V343.029H732.165V341.202H733.677V8.06432H732.165V6.23779H2.72418V8.06432H1.21216V341.202ZM296.002 176.434H341.632V206.115H296.002V176.434ZM293.005 206.115H247.374V176.434H293.005V206.115V206.115ZM344.629 176.434H390.26V206.115H344.629V176.434V176.434ZM393.257 176.434H438.888V206.115H393.257V176.434ZM441.885 176.434H487.515V206.115H441.885V176.434ZM490.512 176.434H536.143V206.115H490.512V176.434ZM490.512 172.807V143.126H536.143V172.807H490.512ZM487.515 172.807H441.885V143.126H487.515V172.807ZM438.888 172.807H393.257V143.126H438.888V172.807ZM390.26 172.807H344.629V143.126H390.26V172.807ZM341.632 172.807H296.002V143.126H341.632V172.807V172.807ZM293.005 172.807H247.374V143.126H293.005V172.807ZM244.377 172.807H198.747V143.126H244.377V172.807V172.807ZM244.377 176.434V206.115H198.747V176.434H244.377V176.434ZM244.377 209.743V239.424H198.747V209.743H244.377V209.743ZM247.374 209.743H293.005V239.424H247.374V209.743ZM296.002 209.743H341.632V239.424H296.002V209.743V209.743ZM344.629 209.743H390.26V239.424H344.629V209.743ZM393.257 209.743H438.888V239.424H393.257V209.743ZM441.885 209.743H487.515V239.424H441.885V209.743ZM490.512 209.743H536.143V239.424H490.512V209.743ZM539.14 209.743H584.77V239.424H539.14V209.743ZM539.14 206.115V176.434H584.77V206.115H539.14ZM539.14 172.807V143.126H584.77V172.807H539.14ZM539.14 139.498V109.817H584.77V139.498H539.14V139.498ZM536.143 139.498H490.512V109.817H536.143V139.498V139.498ZM487.515 139.498H441.885V109.817H487.515V139.498V139.498ZM438.888 139.498H393.257V109.817H438.888V139.498V139.498ZM390.26 139.498H344.629V109.817H390.26V139.498V139.498ZM341.632 139.498H296.002V109.817H341.632V139.498V139.498ZM293.005 139.498H247.374V109.817H293.005V139.498V139.498ZM244.377 139.498H198.747V109.817H244.377V139.498V139.498ZM195.75 139.498H150.119V109.817H195.75V139.498V139.498ZM195.75 143.126V172.807H150.119V143.126H195.75ZM195.75 176.434V206.115H150.119V176.434H195.75ZM195.75 209.743V239.424H150.119V209.743H195.75ZM195.75 243.052V272.733H150.119V243.052H195.75ZM198.747 243.052H244.377V272.733H198.747V243.052V243.052ZM247.374 243.052H293.005V272.733H247.374V243.052ZM296.002 243.052H341.632V272.733H296.002V243.052V243.052ZM344.629 243.052H390.26V272.733H344.629V243.052ZM393.257 243.052H438.888V272.733H393.257V243.052ZM441.885 243.052H487.515V272.733H441.885V243.052ZM490.512 243.052H536.143V272.733H490.512V243.052ZM539.14 243.052H584.77V272.733H539.14V243.052ZM587.768 243.052H633.398V272.733H587.768V243.052ZM587.768 239.424V209.743H633.398V239.424H587.768ZM587.768 206.115V176.434H633.398V206.115H587.768ZM587.768 172.807V143.126H633.398V172.807H587.768ZM587.768 139.498V109.817H633.398V139.498H587.768V139.498ZM587.768 106.189V76.5083H633.398V106.189H587.768ZM584.77 106.189H539.14V76.5083H584.77V106.189ZM536.143 106.189H490.512V76.5083H536.143V106.189ZM487.515 106.189H441.885V76.5083H487.515V106.189ZM438.888 106.189H393.257V76.5083H438.888V106.189ZM390.26 106.189H344.629V76.5083H390.26V106.189ZM341.632 106.189H296.002V76.5083H341.632V106.189V106.189ZM293.005 106.189H247.374V76.5083H293.005V106.189ZM244.377 106.189H198.747V76.5083H244.377V106.189V106.189ZM195.75 106.189H150.119V76.5083H195.75V106.189ZM147.122 106.189H101.491V76.5083H147.122V106.189ZM147.122 109.817V139.498H101.491V109.817H147.122V109.817ZM147.122 143.126V172.807H101.491V143.126H147.122ZM147.122 176.434V206.115H101.491V176.434H147.122ZM147.122 209.743V239.424H101.491V209.743H147.122ZM147.122 243.052V272.733H101.491V243.052H147.122ZM147.122 276.361V306.042H101.491V276.361H147.122ZM150.119 276.361H195.75V306.042H150.119V276.361V276.361ZM198.747 276.361H244.377V306.042H198.747V276.361V276.361ZM247.374 276.361H293.005V306.042H247.374V276.361ZM296.002 276.361H341.632V306.042H296.002V276.361V276.361ZM344.629 276.361H390.26V306.042H344.629V276.361ZM393.257 276.361H438.888V306.042H393.257V276.361ZM441.885 276.361H487.515V306.042H441.885V276.361ZM490.512 276.361H536.143V306.042H490.512V276.361ZM539.14 276.361H584.77V306.042H539.14V276.361ZM587.768 276.361H633.398V306.042H587.768V276.361ZM636.395 276.361H682.026V306.042H636.395V276.361ZM636.395 272.733V243.052H682.026V272.733H636.395ZM636.395 239.424V209.743H682.026V239.424H636.395ZM636.395 206.115V176.434H682.026V206.115H636.395ZM636.395 172.807V143.126H682.026V172.807H636.395ZM636.395 139.498V109.817H682.026V139.498H636.395V139.498ZM636.395 106.189V76.5083H682.026V106.189H636.395ZM636.395 72.8806V43.1996H682.026V72.8806H636.395V72.8806ZM633.398 72.8806H587.768V43.1996H633.398V72.8806V72.8806ZM584.77 72.8806H539.14V43.1996H584.77V72.8806V72.8806ZM536.143 72.8806H490.512V43.1996H536.143V72.8806V72.8806ZM487.515 72.8806H441.885V43.1996H487.515V72.8806V72.8806ZM438.888 72.8806H393.257V43.1996H438.888V72.8806V72.8806ZM390.26 72.8806H344.629V43.1996H390.26V72.8806V72.8806ZM341.632 72.8806H296.002V43.1996H341.632V72.8806V72.8806ZM293.005 72.8806H247.374V43.1996H293.005V72.8806V72.8806ZM244.377 72.8806H198.747V43.1996H244.377V72.8806V72.8806ZM195.75 72.8806H150.119V43.1996H195.75V72.8806V72.8806ZM147.122 72.8806H101.491V43.1996H147.122V72.8806V72.8806ZM98.4944 72.8806H52.8368V43.1996H98.4674V72.8806H98.4944ZM98.4944 76.5083V106.189H52.8368V76.5083H98.4674H98.4944ZM98.4944 109.817V139.498H52.8368V109.817H98.4674H98.4944ZM98.4944 143.126V172.807H52.8368V143.126H98.4674H98.4944ZM98.4944 176.434V206.115H52.8368V176.434H98.4674H98.4944ZM98.4944 209.743V239.424H52.8368V209.743H98.4674H98.4944ZM98.4944 243.052V272.733H52.8368V243.052H98.4674H98.4944ZM98.4944 276.361V306.042H52.8368V276.361H98.4674H98.4944ZM98.4944 309.669V339.35H52.8368V309.669H98.4674H98.4944ZM101.491 309.669H147.122V339.35H101.491V309.669ZM150.119 309.669H195.75V339.35H150.119V309.669V309.669ZM198.747 309.669H244.377V339.35H198.747V309.669V309.669ZM247.374 309.669H293.005V339.35H247.374V309.669ZM296.002 309.669H341.632V339.35H296.002V309.669V309.669ZM344.629 309.669H390.26V339.35H344.629V309.669ZM393.257 309.669H438.888V339.35H393.257V309.669ZM441.885 309.669H487.515V339.35H441.885V309.669ZM490.512 309.669H536.143V339.35H490.512V309.669ZM539.14 309.669H584.77V339.35H539.14V309.669ZM587.768 309.669H633.398V339.35H587.768V309.669ZM636.395 309.669H682.026V339.35H636.395V309.669ZM685.023 309.669H730.653V339.35H685.023V309.669ZM685.023 306.042V276.361H730.653V306.042H685.023ZM685.023 272.733V243.052H730.653V272.733H685.023ZM685.023 239.424V209.743H730.653V239.424H685.023ZM685.023 206.115V176.434H730.653V206.115H685.023ZM685.023 172.807V143.126H730.653V172.807H685.023ZM685.023 139.498V109.817H730.653V139.498H685.023V139.498ZM685.023 106.189V76.5083H730.653V106.189H685.023ZM685.023 72.8806V43.1996H730.653V72.8806H685.023V72.8806ZM685.023 39.5719V9.89084H730.653V39.5719H685.023V39.5719ZM682.026 39.5719H636.395V9.89084H682.026V39.5719V39.5719ZM633.398 39.5719H587.768V9.89084H633.398V39.5719V39.5719ZM584.77 39.5719H539.14V9.89084H584.77V39.5719V39.5719ZM536.143 39.5719H490.512V9.89084H536.143V39.5719V39.5719ZM487.515 39.5719H441.885V9.89084H487.515V39.5719V39.5719ZM438.888 39.5719H393.257V9.89084H438.888V39.5719V39.5719ZM390.26 39.5719H344.629V9.89084H390.26V39.5719V39.5719ZM341.632 39.5719H296.002V9.89084H341.632V39.5719V39.5719ZM293.005 39.5719H247.374V9.89084H293.005V39.5719V39.5719ZM244.377 39.5719H198.747V9.89084H244.377V39.5719V39.5719ZM195.75 39.5719H150.119V9.89084H195.75V39.5719V39.5719ZM147.122 39.5719H101.491V9.89084H147.122V39.5719V39.5719ZM98.4944 39.5719H52.8368V9.89084H98.4674V39.5719H98.4944ZM49.8668 39.5719H4.2092V9.89084H49.8398V39.5719H49.8668ZM49.8668 43.1996V72.8806H4.2092V43.1996H49.8398H49.8668ZM49.8668 76.5083V106.189H4.2092V76.5083H49.8398H49.8668ZM49.8668 109.817V139.498H4.2092V109.817H49.8398H49.8668ZM49.8668 143.126V172.807H4.2092V143.126H49.8398H49.8668ZM49.8668 176.434V206.115H4.2092V176.434H49.8398H49.8668ZM49.8668 209.743V239.424H4.2092V209.743H49.8398H49.8668ZM49.8668 243.052V272.733H4.2092V243.052H49.8398H49.8668ZM49.8668 276.361V306.042H4.2092V276.361H49.8398H49.8668ZM49.8668 309.669V339.35H4.2092V309.669H49.8398H49.8668Z" fill="url(#paint1_linear_2735_5902)" fill-opacity="0.4"/>
<rect width="735" height="746" fill="url(#paint2_radial_2735_5902)"/>
<defs>
<linearGradient id="paint0_linear_2735_5902" x1="377.519" y1="1156.17" x2="365.791" y2="345.121" gradientUnits="userSpaceOnUse">
<stop offset="0.09" stop-color="#01E6B6"/>
<stop offset="1" stop-color="#00CECE"/>
</linearGradient>
<linearGradient id="paint1_linear_2735_5902" x1="356.807" y1="-473.048" x2="368.534" y2="338.028" gradientUnits="userSpaceOnUse">
<stop offset="0.09" stop-color="#01E6B6"/>
<stop offset="1" stop-color="#00CECE"/>
</linearGradient>
<radialGradient id="paint2_radial_2735_5902" cx="0" cy="0" r="1" gradientUnits="userSpaceOnUse" gradientTransform="translate(367.5 373) rotate(90) scale(634.354 625)">
<stop stop-color="#2B2B2B" stop-opacity="0"/>
<stop offset="0.66115" stop-color="#2B2B2B"/>
</radialGradient>
</defs>
</svg>
