<svg width="137" height="175" viewBox="0 0 137 175" fill="none" xmlns="http://www.w3.org/2000/svg">
<path d="M116.563 20.7734C103.838 8.04346 86.5774 0.889672 68.5776 0.885743C50.5777 0.883185 33.3144 8.02938 20.5855 20.7544C7.85563 33.479 0.703149 50.74 0.69922 68.7399C0.695384 86.7388 7.84286 104.003 20.5678 116.732C26.3368 122.538 33.1226 127.237 40.5884 130.592L43.595 123.919C31.0006 118.211 20.7402 108.363 14.5238 96.0117C8.30729 83.6616 6.50796 69.5534 9.42762 56.0375C12.3473 42.5212 19.8082 30.4127 30.5685 21.7303C41.3275 13.0456 54.7377 8.30996 68.5653 8.30996C82.3923 8.30996 95.8025 13.0456 106.562 21.7303C117.321 30.4137 124.782 42.5222 127.702 56.0375C130.621 69.5524 128.822 83.661 122.606 96.0117C116.389 108.363 106.13 118.212 93.5343 123.919L96.5589 130.611H96.5602C109.955 124.562 121.022 114.328 128.098 101.445C135.174 88.5633 137.875 73.7326 135.795 59.1827C133.714 44.6332 126.964 31.1539 116.562 20.7734H116.563Z" fill="#01E6B6"/>
<path d="M89.744 143.364L89.8898 157.903H47.1359V143.364H39.8018V165.236H97.2979L97.0601 143.291L89.744 143.364Z" fill="#01E6B6"/>
<path d="M64.8633 93.5195H72.1962V133.045H64.8633V93.5195Z" fill="#01E6B6"/>
</svg>
