<svg width="163" height="166" viewBox="0 0 163 166" fill="none" xmlns="http://www.w3.org/2000/svg">
<path d="M81.4161 165.344C62.8037 165.304 44.7636 158.902 30.2919 147.2C15.8185 135.497 5.78088 119.198 1.84526 101.005C-2.09037 82.8135 0.310847 63.8225 8.65298 47.1837C16.9949 30.5443 30.7754 17.2575 47.7048 9.52637L50.7481 16.2176C35.3015 23.2184 22.7195 35.298 15.0973 50.4476C7.47386 65.596 5.26823 82.898 8.84968 99.4735C12.4311 116.049 21.5816 130.9 34.7787 141.55C47.9758 152.2 64.4224 158.009 81.3823 158.009C98.3402 158.009 114.787 152.2 127.983 141.55C141.18 130.9 150.331 116.049 153.912 99.4735C157.493 82.8967 155.288 65.5937 147.664 50.4476C140.041 35.2993 127.458 23.2194 112.013 16.2176L115.019 9.52637C131.977 17.2264 145.79 30.4978 154.16 47.1346C162.53 63.7714 164.953 82.7723 161.027 100.976C157.102 119.181 147.063 135.494 132.581 147.203C118.097 158.913 100.044 165.313 81.4205 165.338L81.4161 165.344Z" fill="#01E6B6"/>
<path d="M77.7529 0.989258H85.0847V82.71H77.7529V0.989258Z" fill="#01E6B6"/>
</svg>
