<svg width="169" height="170" viewBox="0 0 169 170" fill="none" xmlns="http://www.w3.org/2000/svg">
<path d="M92.3477 163.358V78.8312C92.3477 70.0647 92.3477 65.6814 94.0539 62.3331C95.5542 59.3877 97.9491 56.9931 100.894 55.4924C104.242 53.7863 108.626 53.7863 117.393 53.7863H123.654M68.8681 100.746H123.654M92.3477 163.358H100.174C122.091 163.358 133.049 163.358 141.42 159.092C148.783 155.341 154.77 149.355 158.521 141.991C162.786 133.62 162.786 122.662 162.786 100.746V69.4394C162.786 47.5231 162.786 36.5649 158.521 28.194C154.77 20.8307 148.783 14.8441 141.42 11.0924C133.049 6.82715 122.091 6.82715 100.174 6.82715H68.8681C46.9518 6.82715 35.9936 6.82715 27.6227 11.0924C20.2594 14.8441 14.2728 20.8307 10.5211 28.194C6.25586 36.5649 6.25586 47.5231 6.25586 69.4394V100.746C6.25586 122.662 6.25586 133.62 10.5211 141.991C14.2728 149.355 20.2594 155.341 27.6227 159.092C35.9936 163.358 46.9518 163.358 68.8681 163.358H92.3477Z" stroke="#01E6B6" stroke-width="11.7398" stroke-linecap="round" stroke-linejoin="round"/>
</svg>
