<svg width="170" height="170" viewBox="0 0 170 170" fill="none" xmlns="http://www.w3.org/2000/svg">
<path d="M131.99 38.1333C131.99 40.2945 130.238 42.0465 128.077 42.0465C125.916 42.0465 124.164 40.2945 124.164 38.1333M131.99 38.1333C131.99 35.972 130.238 34.22 128.077 34.22C125.916 34.22 124.164 35.972 124.164 38.1333M131.99 38.1333H124.164M116.337 85.0924C116.337 102.382 102.321 116.399 85.0309 116.399C67.741 116.399 53.7248 102.382 53.7248 85.0924C53.7248 67.8025 67.741 53.7863 85.0309 53.7863C102.321 53.7863 116.337 67.8025 116.337 85.0924ZM69.3779 163.358H100.684C122.601 163.358 133.559 163.358 141.93 159.092C149.293 155.341 155.28 149.355 159.031 141.991C163.296 133.62 163.296 122.662 163.296 100.746V69.4394C163.296 47.5231 163.296 36.5649 159.031 28.194C155.28 20.8307 149.293 14.8441 141.93 11.0924C133.559 6.82715 122.601 6.82715 100.684 6.82715H69.3779C47.4615 6.82715 36.5034 6.82715 28.1324 11.0924C20.7692 14.8441 14.7826 20.8307 11.0308 28.194C6.76563 36.5649 6.76562 47.5231 6.76562 69.4394V100.746C6.76562 122.662 6.76563 133.62 11.0308 141.991C14.7826 149.355 20.7692 155.341 28.1324 159.092C36.5034 163.358 47.4615 163.358 69.3779 163.358Z" stroke="#01E6B6" stroke-width="11.7398" stroke-linecap="round" stroke-linejoin="round"/>
</svg>
