<svg width="173" height="173" viewBox="0 0 173 173" fill="none" xmlns="http://www.w3.org/2000/svg">
<path d="M172.459 167.707C170.753 171.159 168.002 172.276 164.249 172.182C156.015 171.981 147.777 172.122 139.538 172.118C134.61 172.118 132.197 169.692 132.197 164.72C132.197 144.795 132.209 124.874 132.18 104.948C132.18 102.911 132.032 100.862 131.771 98.8425C131.038 93.1776 127.395 89.866 122.513 87.9192C115.176 84.9927 108.054 87.239 103.526 93.6782C101.231 96.9428 100.481 100.704 100.477 104.644C100.472 124.908 100.477 145.175 100.477 165.439C100.477 169.863 98.2612 172.105 93.8513 172.109C83.8774 172.118 73.9036 172.118 63.9255 172.109C59.5198 172.109 57.376 169.901 57.376 165.4C57.376 130.106 57.376 94.8121 57.376 59.5179C57.376 54.7173 59.5072 52.5352 64.2077 52.531C73.0064 52.5224 81.8094 52.6807 90.5997 52.4625C94.6347 52.3641 97.9832 55.3463 97.5957 59.6719C97.5325 60.3865 97.5873 61.1096 97.5873 62.2305C98.8171 61.0582 99.7059 60.1469 100.658 59.3083C107.982 52.869 116.575 49.7884 126.186 49.5531C132.748 49.3905 139.294 49.5103 145.578 51.8335C159.397 56.9422 167.859 66.8985 171.406 81.296C171.818 82.9775 172.109 84.6932 172.454 86.3918V167.698L172.459 167.707ZM138.367 166.162H140.343C148.472 166.162 156.596 166.119 164.725 166.2C166.355 166.218 166.764 165.73 166.76 164.104C166.709 140.075 166.76 116.051 166.68 92.0224C166.671 88.9204 166.393 85.7372 165.682 82.725C162.733 70.2657 155.379 61.6615 143.4 57.3016C137.508 55.158 131.388 55.419 125.293 55.6201C116.44 55.9153 108.913 59.3767 102.726 65.7903C99.5542 69.0806 96.4669 72.4607 93.3332 75.7937C93.0173 76.1317 92.634 76.4013 92.0823 76.8762C92.0823 71.1728 92.0359 65.7732 92.1117 60.3736C92.1328 58.8847 91.8422 58.3199 90.2037 58.337C81.8515 58.4311 73.5034 58.3798 65.1512 58.3798C64.6163 58.3798 64.0814 58.3798 63.5717 58.3798V166.051H94.8916V163.775C94.8916 144.131 94.959 124.488 94.8706 104.845C94.799 88.7964 107.136 79.5075 119.034 80.958C126.292 81.8436 132.091 85.2323 135.68 91.8898C137.752 95.732 138.077 100.015 138.098 104.306C138.199 124.12 138.279 143.935 138.363 163.749C138.363 164.476 138.363 165.199 138.363 166.162H138.367Z" fill="#01E6B6"/>
<path d="M43.3078 112.35C43.3078 129.139 43.1983 145.924 43.3794 162.709C43.4299 167.467 39.6476 172.199 34.0415 172.143C26.8728 172.071 19.6999 172.143 12.5312 172.122C6.92515 172.109 3.18075 168.352 3.05439 162.636C3.01227 160.818 3.04596 158.995 3.04596 157.172C3.04596 125.648 3.04596 94.1188 3.04596 62.594C3.04596 58.8588 3.96416 55.5557 7.43901 53.6603C8.57623 53.0399 9.97037 52.6292 11.2508 52.6163C19.0934 52.5179 26.936 52.5008 34.7786 52.5864C39.6224 52.6377 43.3036 56.5484 43.3078 61.4773C43.3246 78.4334 43.3162 95.3938 43.3162 112.35H43.3078ZM8.9553 112.149C8.9553 128.887 8.9553 145.62 8.9553 162.358C8.9553 165.071 9.93668 166.149 12.5354 166.158C19.7084 166.187 26.8813 166.192 34.0542 166.158C36.6319 166.145 37.5669 165.118 37.5669 162.486C37.5711 129.126 37.5711 95.7703 37.5669 62.4101C37.5669 59.5434 36.4129 58.3967 33.5698 58.3967C26.6791 58.3925 19.7842 58.3967 12.8935 58.3967C9.77663 58.3967 8.9553 59.2396 8.9553 62.4614C8.9553 79.0281 8.9553 95.5906 8.9553 112.157V112.149Z" fill="#01E6B6"/>
<path d="M23.1326 46.7523C10.5642 46.748 0.274414 36.2184 0.274414 23.3569C0.274414 10.3928 10.6568 -0.0298858 23.5453 6.43861e-05C35.6588 0.025736 46.2518 10.6067 46.2687 22.6938C46.2855 36.1799 36.1179 46.7523 23.1326 46.748V46.7523ZM40.3425 23.4639C40.3846 13.7643 32.8326 5.97727 23.4527 5.9901C13.4914 6.00294 6.11636 13.4734 6.08688 23.3484C6.05318 33.5828 13.5588 40.7409 24.0423 40.8478C31.6449 40.9249 40.5447 33.7154 40.3425 23.4639Z" fill="#01E6B6"/>
</svg>
