<svg width="201" height="158" viewBox="0 0 201 158" fill="none" xmlns="http://www.w3.org/2000/svg">
<path d="M99.8759 116.566C89.7933 116.566 80.124 112.562 72.9959 105.432C65.8662 98.3036 61.8604 88.6347 61.8604 78.5521C61.8604 68.4711 65.8658 58.8018 72.9959 51.6721C80.1244 44.5436 89.7933 40.5381 99.8759 40.5381C109.957 40.5381 119.626 44.5436 126.756 51.6721C133.884 58.8018 137.89 68.4711 137.89 78.5521C137.89 88.6347 133.884 98.304 126.756 105.432C119.626 112.562 109.957 116.566 99.8759 116.566ZM99.8759 49.4818C92.1656 49.4818 84.7708 52.5453 79.3194 57.9967C73.868 63.4482 70.8061 70.8418 70.8061 78.5521C70.8061 86.2624 73.868 93.6556 79.3194 99.1074C84.7708 104.559 92.166 107.622 99.8759 107.622C107.585 107.622 114.979 104.559 120.431 99.1074C125.883 93.656 128.945 86.2624 128.945 78.5521C128.945 70.8418 125.883 63.4485 120.431 57.9967C114.98 52.5454 107.585 49.4818 99.8759 49.4818Z" fill="#01E6B6"/>
<path d="M161.256 157.041H39.6775L0.142578 117.595V39.9335L39.6775 0.510742H161.256L200.858 39.9335V117.595L161.256 157.041ZM43.3672 148.098L157.566 148.096L191.913 113.883V43.6483L157.566 9.45733H43.3672L9.08554 43.6483V113.883L43.3672 148.098Z" fill="#01E6B6"/>
</svg>
