<svg width="183" height="183" viewBox="0 0 183 183" fill="none" xmlns="http://www.w3.org/2000/svg">
<path d="M164.643 116.86H47.1174L21.1528 8.09989H0.15625V0.765625H26.9293L52.9133 109.525H157.308V42.6107L57.0032 28.1069L58.0661 20.8633L164.642 36.2663L164.643 116.86Z" fill="#01E6B6"/>
<path d="M71.0638 165.128C66.6867 165.128 62.4898 163.39 59.3944 160.294C56.299 157.2 54.5605 153.002 54.5605 148.625C54.5605 144.248 56.2989 140.049 59.3944 136.955C62.4898 133.86 66.6867 132.12 71.0638 132.12C75.4408 132.12 79.6391 133.86 82.7345 136.955C85.8286 140.049 87.5683 144.248 87.5683 148.625C87.5683 153.002 85.8287 157.2 82.7345 160.294C79.6391 163.39 75.4412 165.128 71.0638 165.128ZM71.0638 139.456C68.6322 139.456 66.3003 140.422 64.5812 142.141C62.8621 143.862 61.8951 146.193 61.8951 148.625C61.8951 151.057 62.8621 153.388 64.5812 155.108C66.3003 156.828 68.6321 157.794 71.0638 157.794C73.4954 157.794 75.8285 156.828 77.5477 155.108C79.2668 153.388 80.2325 151.057 80.2325 148.625C80.2325 146.193 79.2668 143.862 77.5477 142.141C75.8285 140.422 73.4954 139.456 71.0638 139.456Z" fill="#01E6B6"/>
<path d="M142.039 165.128C137.662 165.128 133.463 163.39 130.368 160.294C127.274 157.2 125.534 153.002 125.534 148.625C125.534 144.248 127.274 140.049 130.368 136.955C133.463 133.86 137.661 132.12 142.039 132.12C146.416 132.12 150.613 133.86 153.708 136.955C156.804 140.049 158.542 144.248 158.542 148.625C158.542 153.002 156.804 157.2 153.708 160.294C150.613 163.39 146.416 165.128 142.039 165.128ZM142.039 139.456C139.607 139.456 137.274 140.422 135.555 142.141C133.836 143.862 132.87 146.193 132.87 148.625C132.87 151.057 133.836 153.388 135.555 155.108C137.274 156.828 139.607 157.794 142.039 157.794C144.47 157.794 146.802 156.828 148.521 155.108C150.24 153.388 151.207 151.057 151.207 148.625C151.207 146.193 150.24 143.862 148.521 142.141C146.802 140.422 144.47 139.456 142.039 139.456Z" fill="#01E6B6"/>
</svg>
