<svg width="173" height="181" viewBox="0 0 173 181" fill="none" xmlns="http://www.w3.org/2000/svg">
<path d="M10.533 171.278L5.34668 166.09L48.3904 123.03H130.027L170.991 165.578L165.695 170.673L126.898 130.389H51.4436L10.533 171.278Z" fill="#01E6B6"/>
<path d="M88.2747 95.2108C76.5661 95.2108 65.3377 90.5596 57.0578 82.2796C48.7792 74.001 44.1279 62.7723 44.1279 51.0628C44.1279 39.3542 48.7792 28.1258 57.0578 19.8459C65.3377 11.5673 76.5664 6.91602 88.2747 6.91602C99.9829 6.91602 111.213 11.5673 119.492 19.8459C127.771 28.1258 132.423 39.3545 132.423 51.0628C132.423 62.7723 127.771 74.001 119.492 82.2796C111.213 90.5596 99.9829 95.2108 88.2747 95.2108ZM88.2747 14.2739V14.2726C78.5179 14.2726 69.1602 18.149 62.2609 25.0483C55.3615 31.9477 51.4852 41.3054 51.4852 51.0621C51.4852 60.8202 55.3615 70.1779 62.2609 77.0772C69.1602 83.9766 78.5179 87.8517 88.2747 87.8517C98.0328 87.8517 107.389 83.9766 114.29 77.0772C121.189 70.1779 125.064 60.8202 125.064 51.0621C125.064 41.3054 121.189 31.9477 114.29 25.0483C107.389 18.149 98.0328 14.2726 88.2747 14.2726V14.2739Z" fill="#01E6B6"/>
</svg>
