<svg width="165" height="166" viewBox="0 0 165 166" fill="none" xmlns="http://www.w3.org/2000/svg">
<path d="M82.7215 0.989258C67.9944 0.994353 53.54 4.95604 40.8687 12.4618C28.1977 19.9662 17.7763 30.7379 10.6948 43.6498H10.0197V44.9097H10.0184C3.79428 56.6992 0.541016 69.829 0.541016 83.159C0.541016 96.489 3.79447 109.62 10.0184 121.408V123.235H11.0413V123.234C20.4958 140.166 35.6332 153.208 53.7778 160.055C71.9216 166.9 91.9 167.111 110.185 160.647C128.467 154.184 143.875 141.463 153.685 124.736C163.493 108.008 167.07 88.3487 163.782 69.2387C160.496 50.1271 150.556 32.7961 135.722 20.3061C120.886 7.81713 102.113 0.975364 82.7226 0.991669L82.7215 0.989258ZM81.4425 157.186L47.6413 123.274H117.804L84.0025 157.186H81.4425ZM15.425 115.969C11.0418 107.008 8.50665 97.2569 7.97411 87.2965H37.0653V115.969H15.425ZM83.9242 9.06371L118.384 43.6508H47.0543L81.5142 9.06371H83.9242ZM121.071 50.9556V79.992H44.3705V50.9556H121.071ZM37.0656 79.992H7.93759C8.33505 69.9221 10.7898 60.0407 15.1514 50.9556H37.0656V79.992ZM44.3698 115.968V87.2962H121.071V115.968H44.3698ZM128.375 87.2962H157.486C156.937 97.2566 154.397 107.007 150.016 115.968H128.376L128.375 87.2962ZM128.375 79.992V50.9556H150.29C154.665 60.0394 157.151 69.9182 157.595 79.992H128.375ZM146.272 43.6505H128.375V43.3218L94.3721 9.20759C104.989 10.8878 115.119 14.833 124.075 20.7756C133.03 26.7196 140.602 34.5205 146.273 43.6505L146.272 43.6505ZM71.0876 9.20687L37.0646 43.3211V43.6498H19.1681C24.8418 34.5187 32.4163 26.7149 41.3742 20.7726C50.3334 14.8286 60.4682 10.885 71.0869 9.20713L71.0876 9.20687ZM19.5526 123.273H37.3396L71.069 157.13C60.5699 155.466 50.5457 151.587 41.6631 145.749C32.7806 139.911 25.2429 132.249 19.5513 123.272L19.5526 123.273ZM94.4272 157.13L128.101 123.273H145.907C140.207 132.246 132.664 139.906 123.779 145.743C114.894 151.581 104.87 155.462 94.3708 157.131L94.4272 157.13Z" fill="#01E6B6"/>
</svg>
