<svg width="243" height="166" viewBox="0 0 243 166" fill="none" xmlns="http://www.w3.org/2000/svg">
<path d="M0.683594 79.1221H86.7754V86.9486H0.683594V79.1221Z" fill="#01E6B6"/>
<path d="M0.683594 0.856445H125.908V8.68297H0.683594V0.856445Z" fill="#01E6B6"/>
<path d="M0.683594 157.387H63.2958V165.213H0.683594V157.387Z" fill="#01E6B6"/>
<path d="M78.9463 160.063L121.537 117.492C109.275 104.117 102.721 86.4831 103.272 68.3457C103.823 50.2093 111.435 33.0064 124.484 20.3989C137.534 7.79297 154.991 0.781003 173.136 0.857058C191.28 0.933236 208.677 8.09264 221.619 20.809C234.563 33.5241 242.028 50.7921 242.426 68.9314C242.824 87.0714 236.122 104.648 223.748 117.922C211.375 131.193 194.309 139.108 176.185 139.978C158.061 140.849 140.313 134.609 126.724 122.587L84.0062 165.214L78.9463 160.063ZM234.419 70.8776L234.421 70.8764C234.421 54.4642 227.9 38.7235 216.294 27.119C204.689 15.5135 188.948 8.99395 172.537 8.99395C156.126 8.99395 140.384 15.5135 128.78 27.119C117.174 38.7245 110.655 54.4652 110.655 70.8764C110.655 87.2876 117.174 103.029 128.78 114.634C140.385 126.238 156.126 132.76 172.537 132.76C188.936 132.76 204.667 126.25 216.268 114.66C227.871 103.07 234.4 87.3487 234.42 70.9485L234.419 70.8776Z" fill="#01E6B6"/>
</svg>
