<svg width="183" height="152" viewBox="0 0 183 152" fill="none" xmlns="http://www.w3.org/2000/svg">
<path d="M177.346 7.85668C177.346 30.3412 164.492 38.6281 164.492 38.6281V45.1978C164.492 92.3831 127.804 146.358 60.9399 146.358C40.1531 146.358 21.0986 140.587 5.16211 130.403C24.2853 132.745 43.6075 127.431 58.8613 115.806C42.9247 115.467 29.4133 105.283 24.9095 91.0252C30.5428 91.8141 35.6258 91.71 41.1925 90.3467C24.2063 86.8787 12.091 71.9598 12.091 55.0422C16.9413 57.7579 22.8308 59.1158 28.7204 59.4553C13.023 49.378 7.58019 27.7834 17.2878 11.9303C35.3029 33.3165 62.3257 47.574 92.4663 49.2713C91.7736 46.5556 91.4269 43.8399 91.4269 41.1242C91.4269 21.4352 107.71 5.48047 127.804 5.48047C138.197 5.48047 147.552 9.55402 154.481 16.6828C162.449 14.9855 170.417 11.9303 177.346 7.85668Z" stroke="#01E6B6" stroke-width="9.78316" stroke-linecap="round" stroke-linejoin="round"/>
</svg>
