<svg width="56" height="58" viewBox="0 0 169 177" fill="none" xmlns="http://www.w3.org/2000/svg">
<path d="M49.5645 68.6234L120.004 25.5775M84.7848 92.103L155.224 49.0571M84.7848 92.103L14.3461 49.0571M84.7848 92.103V170.368M6.51953 70.3273V106.052C6.51953 113.808 6.51953 117.686 7.63239 121.172C8.6172 124.255 10.229 127.102 12.3666 129.533C14.7822 132.28 18.1076 134.275 24.7586 138.266L65.4566 162.685C72.4839 166.901 75.998 169.01 79.7485 169.833C83.0669 170.562 86.5028 170.562 89.8212 169.833C93.5717 169.01 97.0858 166.901 104.113 162.685L144.811 138.266C151.462 134.275 154.788 132.28 157.203 129.533C159.34 127.102 160.953 124.255 161.937 121.172C163.05 117.686 163.05 113.808 163.05 106.052V70.3273C163.05 62.5711 163.05 58.6929 161.937 55.2082C160.953 52.1245 159.34 49.2776 157.203 46.8466C154.788 44.0995 151.462 42.1042 144.811 38.1136L104.113 13.6949C97.0858 9.4784 93.5717 7.37017 89.8212 6.54643C86.5028 5.81786 83.0669 5.81786 79.7485 6.54643C75.998 7.37017 72.4839 9.4784 65.4566 13.6949L24.7586 38.1136C18.1076 42.1042 14.7822 44.0995 12.3666 46.8466C10.229 49.2776 8.6172 52.1245 7.63239 55.2082C6.51953 58.6929 6.51953 62.5711 6.51953 70.3273Z" stroke="#01E6B6" stroke-width="11.7398" stroke-linecap="round" stroke-linejoin="round"/>
</svg>
