<svg width="58" height="58" viewBox="0 0 189 189" fill="none" xmlns="http://www.w3.org/2000/svg">
<path d="M98.4744 180.591C76.6787 180.591 55.7761 171.932 40.366 156.522C24.9546 141.11 16.2969 120.208 16.2969 98.4133C16.2969 76.6176 24.9546 55.7149 40.366 40.3048C55.7774 24.8934 76.6801 16.2344 98.4744 16.2344C120.269 16.2344 141.173 24.8934 156.583 40.3048C171.994 55.7149 180.652 76.6189 180.652 98.4133C180.628 120.2 171.962 141.089 156.556 156.495C141.149 171.9 120.262 180.567 98.4738 180.591L98.4744 180.591ZM98.4744 23.6212C78.6382 23.6212 59.6146 31.501 45.5895 45.5264C31.5628 59.5531 23.683 78.5757 23.683 98.4146C23.683 118.249 31.5628 137.274 45.5895 151.299C59.6149 165.325 78.6389 173.205 98.4744 173.205C118.31 173.205 137.334 165.325 151.359 151.299C165.386 137.273 173.266 118.25 173.266 98.4146C173.247 78.5846 165.36 59.5712 151.338 45.5494C137.316 31.5277 118.305 23.6416 98.4758 23.6225L98.4744 23.6212Z" fill="#01E6B6"/>
<path d="M82.9421 134.945L49.6816 101.704L54.9078 96.4779L82.9407 124.493L142.015 65.418L147.242 70.6441L82.9421 134.945Z" fill="#01E6B6"/>
</svg>
