<svg width="165" height="165" viewBox="0 0 165 165" fill="none" xmlns="http://www.w3.org/2000/svg">
<path d="M164.11 159.505L121.52 116.934C133.782 103.559 140.335 85.9255 139.784 67.7881C139.233 49.6517 131.622 32.4487 118.573 19.8412C105.523 7.23535 88.0655 0.223386 69.9207 0.29944C51.7768 0.375618 34.3798 7.53502 21.4375 20.2514C8.49394 32.9665 1.02857 50.2345 0.631076 68.3738C0.232407 86.5138 6.93483 104.09 19.3083 117.364C31.6818 130.635 48.7479 138.55 66.8717 139.421C84.9954 140.292 102.744 134.051 116.333 122.03L159.05 164.656L164.11 159.505ZM8.63728 70.32L8.63601 70.3187C8.63601 53.9066 15.1566 38.1659 26.7623 26.5614C38.3678 14.9559 54.1085 8.43633 70.5197 8.43633C86.9309 8.43633 102.673 14.9559 114.277 26.5614C125.883 38.1668 132.402 53.9075 132.402 70.3187C132.402 86.7299 125.883 102.472 114.277 114.076C102.672 125.681 86.9309 132.202 70.5197 132.202C54.1202 132.202 38.3899 125.692 26.7883 114.103C15.1855 102.513 8.65714 86.7911 8.63666 70.3909L8.63728 70.32Z" fill="#01E6B6"/>
</svg>
