<svg width="113.41" height="58" viewBox="0 0 349 185" fill="none" xmlns="http://www.w3.org/2000/svg">
<path d="M31.3262 30.5176H109.199" stroke="#01E6B6" stroke-width="7.82653" stroke-miterlimit="10"/>
<path d="M0.386719 61.0977H48.2552" stroke="#01E6B6" stroke-width="7.82653" stroke-miterlimit="10"/>
<path d="M40.6885 90.0811H148.63" stroke="#01E6B6" stroke-width="7.82653" stroke-miterlimit="10"/>
<path d="M12.6846 113.912H93.1449" stroke="#01E6B6" stroke-width="7.82653" stroke-miterlimit="10"/>
<path d="M66.0254 47.5088V90.0339" stroke="#01E6B6" stroke-width="7.82653" stroke-miterlimit="10"/>
<path d="M166.112 157.34H258.357H276.376" stroke="#01E6B6" stroke-width="7.82653" stroke-miterlimit="10"/>
<path d="M322.528 157.343H344.752V116.031L308.695 50.7459H258.386V4.40918H66.0254V30.5212" stroke="#01E6B6" stroke-width="7.82653" stroke-miterlimit="10"/>
<path d="M66.0254 113.912V157.402H120.028" stroke="#01E6B6" stroke-width="7.82653" stroke-miterlimit="10"/>
<path d="M258.372 50.749V157.346" stroke="#01E6B6" stroke-width="7.82653" stroke-miterlimit="10"/>
<path d="M166.158 157.317C166.158 170.607 155.023 181.279 141.611 180.434C130.129 179.709 120.795 170.304 120.091 158.768C119.277 145.303 129.891 134.144 143.102 134.144C156.312 134.144 166.158 144.513 166.158 157.317Z" stroke="#01E6B6" stroke-width="7.82653" stroke-miterlimit="10"/>
<path d="M322.53 157.307C322.53 170.607 311.385 181.279 297.965 180.425C286.482 179.69 277.148 170.294 276.453 158.759C275.639 145.303 286.263 134.144 299.473 134.144C312.683 134.144 322.53 144.513 322.53 157.317V157.307Z" stroke="#01E6B6" stroke-width="7.82653" stroke-miterlimit="10"/>
</svg>
